<svg width="17" height="17" viewBox="0 0 17 17" fill="none" xmlns="http://www.w3.org/2000/svg">
<path d="M9 3.91992L8 3.91992L8 7.91992L4 7.91992L4 8.91992L8 8.91992L8 12.9199L9 12.9199L9 8.91992L13 8.91992L13 7.91992L9 7.91992L9 3.91992ZM14.884 0.419924C15.3447 0.419924 15.729 0.573924 16.037 0.881924C16.345 1.18992 16.4993 1.57459 16.5 2.03592L16.5 14.8039C16.5 15.2646 16.3457 15.6489 16.037 15.9569C15.7283 16.2649 15.344 16.4193 14.884 16.4199L2.115 16.4199C1.655 16.4199 1.27067 16.2656 0.962002 15.9569C0.653336 15.6483 0.499334 15.2639 0.500002 14.8039L0.500003 2.03492C0.500003 1.57492 0.654004 1.19059 0.962003 0.881922C1.27 0.573256 1.65467 0.419255 2.116 0.419923L14.884 0.419924ZM14.884 1.41992L2.115 1.41992C1.96167 1.41992 1.82067 1.48392 1.692 1.61192C1.56334 1.73992 1.49934 1.88125 1.5 2.03592L1.5 14.8039C1.5 14.9579 1.564 15.0993 1.692 15.2279C1.82 15.3566 1.96133 15.4206 2.116 15.4199L14.884 15.4199C15.038 15.4199 15.1793 15.3559 15.308 15.2279C15.4367 15.0999 15.5007 14.9586 15.5 14.8039L15.5 2.03492C15.5 1.88159 15.436 1.74059 15.308 1.61192C15.18 1.48326 15.039 1.41926 14.885 1.41992" fill="white"/>
</svg>
