<svg width="14" height="15" viewBox="0 0 14 15" fill="none" xmlns="http://www.w3.org/2000/svg">
<path d="M6.12399 9.91208C6.58362 9.91208 7.03874 9.82155 7.46338 9.64566C7.88802 9.46977 8.27386 9.21196 8.59887 8.88695C8.92387 8.56195 9.18168 8.17611 9.35757 7.75147C9.53346 7.32683 9.62399 6.8717 9.62399 6.41208C9.62399 5.95245 9.53346 5.49733 9.35757 5.07269C9.18168 4.64805 8.92387 4.26221 8.59887 3.9372C8.27386 3.6122 7.88802 3.35439 7.46338 3.1785C7.03874 3.00261 6.58362 2.91208 6.12399 2.91208C5.19573 2.91208 4.3055 3.28083 3.64912 3.9372C2.99274 4.59358 2.62399 5.48382 2.62399 6.41208C2.62399 7.34034 2.99274 8.23057 3.64912 8.88695C4.3055 9.54333 5.19573 9.91208 6.12399 9.91208ZM9.81066 9.27391L11.899 11.3622C11.9547 11.4161 11.9991 11.4805 12.0296 11.5517C12.0601 11.6229 12.0761 11.6994 12.0768 11.7769C12.0774 11.8543 12.0626 11.9311 12.0332 12.0028C12.0038 12.0745 11.9604 12.1396 11.9056 12.1943C11.8508 12.249 11.7857 12.2923 11.7139 12.3216C11.6422 12.3509 11.5654 12.3656 11.488 12.3648C11.4105 12.3641 11.334 12.348 11.2628 12.3174C11.1917 12.2867 11.1273 12.2422 11.0736 12.1865L8.98524 10.0982C8.04751 10.8261 6.86762 11.1693 5.68576 11.0579C4.50391 10.9465 3.40893 10.3888 2.62373 9.49853C1.83853 8.60822 1.42214 7.45213 1.45932 6.26562C1.49651 5.0791 1.98447 3.95136 2.82387 3.11195C3.66327 2.27255 4.79102 1.78459 5.97753 1.74741C7.16404 1.71023 8.32013 2.12662 9.21044 2.91182C10.1008 3.69701 10.6584 4.79199 10.7698 5.97385C10.8812 7.15571 10.538 8.3356 9.81008 9.27333L9.81066 9.27391Z" fill="white"/>
</svg>
