<svg width="7" height="14" viewBox="0 0 7 14" fill="none" xmlns="http://www.w3.org/2000/svg">
<path d="M6.8458 12.8821L1.3648 7.25933L6.8458 1.63658C6.94393 1.53613 6.99888 1.40127 6.99888 1.26083C6.99888 1.1204 6.94393 0.985538 6.8458 0.885083C6.79814 0.83644 6.74126 0.797796 6.67847 0.771415C6.61569 0.745034 6.54828 0.731445 6.48018 0.731445C6.41208 0.731445 6.34466 0.745034 6.28188 0.771415C6.2191 0.797796 6.16221 0.83644 6.11455 0.885082L0.282551 6.86671C0.180161 6.97175 0.122856 7.11264 0.122856 7.25933C0.122856 7.40602 0.180161 7.54691 0.282551 7.65196L6.11343 13.6336C6.16112 13.6826 6.21815 13.7215 6.28114 13.7481C6.34413 13.7747 6.41181 13.7884 6.48018 13.7884C6.54855 13.7884 6.61622 13.7747 6.67921 13.7481C6.7422 13.7215 6.79923 13.6826 6.84693 13.6336C6.94506 13.5331 7 13.3983 7 13.2578C7 13.1174 6.94506 12.9825 6.84693 12.8821L6.8458 12.8821Z" fill="#434343"/>
</svg>
