<svg width="10" height="10" viewBox="0 0 10 10" fill="none" xmlns="http://www.w3.org/2000/svg">
<path d="M4.91834 4.99279C4.91803 4.83321 4.97361 4.67855 5.07543 4.55567L8.49043 0.457673C8.60636 0.318193 8.77295 0.230479 8.95356 0.213828C9.13416 0.197176 9.31398 0.252951 9.45346 0.368883C9.59294 0.484814 9.68065 0.651406 9.69731 0.832009C9.71396 1.01261 9.65818 1.19243 9.54225 1.33191L6.48241 4.99279L9.43297 8.65367C9.4897 8.72354 9.53207 8.80392 9.55764 8.89021C9.5832 8.9765 9.59146 9.06699 9.58194 9.15648C9.57242 9.24598 9.54531 9.33271 9.50216 9.41169C9.45901 9.49067 9.40068 9.56034 9.33052 9.6167C9.26029 9.67925 9.17791 9.72662 9.08852 9.75585C8.99913 9.78508 8.90467 9.79553 8.81106 9.78655C8.71744 9.77758 8.62669 9.74936 8.54449 9.70368C8.46229 9.658 8.3904 9.59584 8.33334 9.52108L5.03445 5.42308C4.94872 5.29667 4.90784 5.14517 4.91834 4.99279Z" fill="#212121"/>
<path d="M0.135137 4.99279C0.134825 4.83321 0.190405 4.67855 0.292227 4.55567L3.70723 0.457673C3.82316 0.318193 3.98975 0.230479 4.17035 0.213828C4.35096 0.197176 4.53078 0.252951 4.67026 0.368883C4.80974 0.484814 4.89745 0.651406 4.9141 0.832009C4.93075 1.01261 4.87498 1.19243 4.75905 1.33191L1.69921 4.99279L4.64977 8.65367C4.7065 8.72354 4.74887 8.80392 4.77443 8.89021C4.8 8.9765 4.80826 9.06699 4.79874 9.15648C4.78922 9.24598 4.76211 9.33271 4.71896 9.41169C4.67581 9.49067 4.61748 9.56034 4.54732 9.6167C4.47709 9.67925 4.3947 9.72662 4.30532 9.75585C4.21593 9.78508 4.12147 9.79553 4.02786 9.78655C3.93424 9.77758 3.84349 9.74936 3.76129 9.70368C3.67908 9.658 3.6072 9.59584 3.55014 9.52108L0.251248 5.42308C0.16552 5.29667 0.124639 5.14517 0.135137 4.99279Z" fill="#212121"/>
</svg>
