<svg width="251" height="72" viewBox="0 0 251 72" fill="none" xmlns="http://www.w3.org/2000/svg">
<path d="M72.8626 33.868C72.8626 44.5738 68.4008 54.2321 61.2219 61.0946C57.9026 60.1241 54.8381 58.5683 52.1518 56.535C59.0296 51.3593 63.4759 43.1258 63.4759 33.868C63.4759 24.6103 59.0296 16.3845 52.1518 11.2088C45.2662 16.3845 40.8199 24.6103 40.8199 33.868C40.8199 41.3929 43.7532 48.2323 48.5391 53.3156C44.2086 48.7791 38.7665 45.3286 32.6452 43.3877C31.8578 40.3454 31.4332 37.1568 31.4332 33.868C31.4332 23.17 35.895 13.504 43.0739 6.6415C45.7525 4.06904 48.8093 1.89708 52.1518 0.202637C55.5019 1.89708 58.551 4.07674 61.2296 6.6415C68.3931 13.5117 72.8626 23.17 72.8626 33.868Z" fill="#9BC352"/>
<path d="M52.1511 67.5335C50.7539 68.2421 49.3027 68.866 47.7974 69.3974C43.8142 70.83 39.5223 71.6079 35.0452 71.6079C22.5631 71.6079 11.5014 65.5772 4.61576 56.2809C2.7477 53.7623 1.1884 51.0127 -0.000366211 48.0783C2.59331 46.3299 5.41085 44.8973 8.40593 43.8345C9.54838 46.8691 11.1926 49.6649 13.2459 52.1064C18.4641 58.3065 26.2915 62.2576 35.0452 62.2576C37.7855 62.2576 40.4409 61.8725 42.9574 61.1409C42.9574 61.1409 43.0269 61.1254 43.0655 61.1023C45.7441 63.6748 48.8009 65.8468 52.1433 67.5412L52.1511 67.5335Z" fill="#9BC352"/>
<path d="M98.0962 58.2678C91.172 66.4242 80.8127 71.6 69.2492 71.6C65.2429 71.6 61.391 70.9761 57.7629 69.8285C55.8177 69.2046 53.9342 68.4421 52.1433 67.5256C48.7931 65.8389 45.744 63.6592 43.0654 61.0867C43.0268 61.1021 42.996 61.1175 42.9574 61.1252C37.7469 54.9251 29.9195 50.974 21.1658 50.974C18.4178 50.974 15.7624 51.3591 13.2459 52.0908C11.1925 49.6493 9.54834 46.8535 8.40588 43.8189C12.389 42.3863 16.6887 41.6084 21.1658 41.6084C25.1721 41.6084 29.0241 42.2323 32.6521 43.3799C38.7735 45.3208 44.2156 48.779 48.5461 53.3077C48.5847 53.3539 48.631 53.4002 48.6696 53.4387C49.7426 54.5632 50.9082 55.5952 52.151 56.5272C54.8373 58.5528 57.9096 60.1086 61.2212 61.0867C63.7685 61.8415 66.4626 62.2343 69.2492 62.2343C78.0878 62.2343 85.9923 58.2062 91.2028 51.8983L98.0962 58.2524V58.2678Z" fill="url(#paint0_linear_931_23281)"/>
<path d="M119.138 61.2178V69.1354H118.166L114.414 63.3204V69.1354H113.326V61.2178H114.314L118.065 67.0328V61.2178H119.138Z" fill="white"/>
<path d="M127.414 67.0097H124.249L123.501 69.1354H122.297L125.207 61.2178H126.457L129.367 69.1354H128.163L127.407 67.0097H127.414ZM127.059 65.993L125.832 62.5425L124.605 65.993H127.052H127.059Z" fill="white"/>
<path d="M136.908 62.2344H134.538V69.1354H133.45V62.2344H131.08V61.2178H136.908V62.2344Z" fill="white"/>
<path d="M140.066 65.5309V61.2178H141.185V65.5309C141.185 67.4949 141.695 68.242 143.03 68.242C144.366 68.242 144.867 67.518 144.867 65.5309V61.2178H145.987V65.5309C145.987 67.6874 145.33 69.2818 143.03 69.2818C140.73 69.2818 140.058 67.7337 140.058 65.5309H140.066Z" fill="white"/>
<path d="M152.145 65.8544H150.918V69.1354H149.83V61.2178H152.91C154.361 61.2178 155.249 62.1651 155.249 63.5361C155.249 64.7453 154.546 65.6387 153.381 65.8236L155.411 69.1354H154.052L152.145 65.8544ZM150.918 64.8146H152.902C153.697 64.8146 154.114 64.3602 154.114 63.5361C154.114 62.712 153.697 62.2575 152.902 62.2575H150.918V64.8146Z" fill="white"/>
<path d="M162.998 67.0097H159.833L159.085 69.1354H157.88L160.791 61.2178H162.041L164.951 69.1354H163.747L162.991 67.0097H162.998ZM162.651 65.993L161.424 62.5425L160.196 65.993H162.643H162.651Z" fill="white"/>
<path d="M172.895 68.1188V69.1354H168.125V61.2178H169.213V68.1188H172.895Z" fill="white"/>
<path d="M186.126 63.821C186.126 65.3614 185.138 66.432 183.533 66.432H181.865V69.1354H180.777V61.2178H183.533C185.138 61.2178 186.126 62.2806 186.126 63.821ZM184.992 63.821C184.992 62.8275 184.467 62.2575 183.517 62.2575H181.865V65.3923H183.517C184.467 65.3923 184.992 64.83 184.992 63.821Z" fill="white"/>
<path d="M191.808 65.8544H190.58V69.1354H189.492V61.2178H192.572C194.023 61.2178 194.911 62.1651 194.911 63.5361C194.911 64.7453 194.208 65.6387 193.043 65.8236L195.073 69.1354H193.714L191.808 65.8544ZM190.58 64.8146H192.564C193.359 64.8146 193.776 64.3602 193.776 63.5361C193.776 62.712 193.359 62.2575 192.564 62.2575H190.58V64.8146Z" fill="white"/>
<path d="M197.759 65.1765C197.759 62.758 199.334 61.0713 201.465 61.0713C203.595 61.0713 205.185 62.758 205.185 65.1765C205.185 67.5949 203.61 69.2816 201.465 69.2816C199.319 69.2816 197.759 67.5949 197.759 65.1765ZM204.05 65.1765C204.05 63.3588 202.993 62.1111 201.465 62.1111C199.936 62.1111 198.894 63.3588 198.894 65.1765C198.894 66.9941 199.936 68.2418 201.465 68.2418C202.993 68.2418 204.05 67.0018 204.05 65.1765Z" fill="white"/>
<path d="M214.942 65.1766C214.942 67.595 213.367 69.1354 211.221 69.1354H208.558V61.2178H211.221C213.367 61.2178 214.942 62.7582 214.942 65.1766ZM213.807 65.1766C213.807 63.3974 212.796 62.2575 211.221 62.2575H209.647V68.0957H211.221C212.796 68.0957 213.807 66.9558 213.807 65.1766Z" fill="white"/>
<path d="M218.261 65.5309V61.2178H219.381V65.5309C219.381 67.4949 219.89 68.242 221.225 68.242C222.561 68.242 223.063 67.518 223.063 65.5309V61.2178H224.182V65.5309C224.182 67.6874 223.526 69.2818 221.225 69.2818C218.925 69.2818 218.254 67.7337 218.254 65.5309H218.261Z" fill="white"/>
<path d="M227.509 65.1765C227.509 62.7426 229.084 61.0713 231.168 61.0713C232.496 61.0713 233.538 61.7491 234.102 62.5732L233.198 63.2047C232.735 62.4885 231.994 62.1111 231.168 62.1111C229.709 62.1111 228.621 63.3434 228.621 65.1765C228.621 67.0095 229.678 68.2418 231.168 68.2418C232.017 68.2418 232.789 67.8336 233.252 67.0634L234.148 67.695C233.469 68.781 232.326 69.2816 231.153 69.2816C229.053 69.2816 227.502 67.5872 227.502 65.1765H227.509Z" fill="white"/>
<path d="M242.646 62.2344H240.276V69.1354H239.188V62.2344H236.818V61.2178H242.646V62.2344Z" fill="white"/>
<path d="M245.216 68.3036L245.749 67.3562C246.397 67.8877 247.347 68.242 248.219 68.2497C249.184 68.2651 249.848 67.8183 249.848 66.9865C249.848 66.0238 248.983 65.9083 248.134 65.7311C246.035 65.2767 245.417 64.7144 245.417 63.536C245.417 61.6336 247.007 61.0791 248.32 61.0791C249.269 61.0791 250.11 61.3641 250.828 61.8339L250.303 62.7504C249.647 62.3114 249.014 62.1189 248.289 62.1189C247.146 62.1189 246.567 62.6272 246.567 63.4667C246.567 64.1368 246.938 64.4372 248.335 64.7144C249.23 64.8839 250.998 65.1766 250.998 66.9557C250.998 68.3344 249.91 69.3279 248.196 69.2971C246.938 69.274 245.726 68.7349 245.216 68.3113V68.3036Z" fill="white"/>
<path d="M118.165 48.1552V52.8303C118.165 52.9766 118.204 53.0922 118.289 53.1769C118.366 53.2616 118.443 53.3001 118.536 53.3001H118.783V54.1782H118.266C117.887 54.1782 117.586 54.0318 117.362 53.7468C116.822 54.1242 116.251 54.3168 115.626 54.3168C114.761 54.3168 114.074 53.9779 113.572 53.3001C113.155 52.7456 112.955 52.0909 112.955 51.3207C112.955 50.4196 113.256 49.6802 113.85 49.0871C114.375 48.548 115.023 48.2861 115.795 48.2861C116.235 48.2861 116.675 48.3863 117.123 48.5788L117.656 48.1552H118.173H118.165ZM117.115 49.4414C116.753 49.2566 116.382 49.1719 116.012 49.1719C115.386 49.1719 114.877 49.4183 114.491 49.9112C114.167 50.3118 114.005 50.797 114.005 51.3438C114.005 52.0062 114.159 52.5222 114.475 52.8996C114.784 53.2462 115.193 53.4157 115.71 53.4157C116.158 53.4157 116.621 53.3001 117.108 53.0537V49.4337L117.115 49.4414ZM116.05 45.7676C116.212 45.7676 116.359 45.8292 116.475 45.9447C116.59 46.068 116.652 46.2066 116.652 46.3683C116.652 46.5378 116.59 46.6918 116.475 46.8073C116.351 46.9229 116.212 46.9845 116.05 46.9845C115.888 46.9845 115.741 46.9229 115.626 46.8073C115.502 46.6918 115.448 46.5378 115.448 46.3683C115.448 46.1989 115.51 46.0603 115.626 45.9447C115.741 45.8292 115.888 45.7676 116.05 45.7676ZM117.548 45.7676C117.718 45.7676 117.864 45.8292 117.988 45.9447C118.103 46.068 118.165 46.2066 118.165 46.3683C118.165 46.5378 118.103 46.6918 117.988 46.8073C117.864 46.9229 117.718 46.9845 117.548 46.9845C117.378 46.9845 117.239 46.9229 117.123 46.8073C117 46.6918 116.946 46.5378 116.946 46.3683C116.946 46.1989 117.007 46.0603 117.123 45.9447C117.239 45.8292 117.386 45.7676 117.548 45.7676Z" fill="white"/>
<path d="M120.991 53.2925V54.1705H118.699V53.2925H120.991Z" fill="white"/>
<path d="M131.822 18.6564C129.228 17.9401 126.642 17.2239 124.048 16.5076C123.114 16.2457 122.157 15.9838 121.362 15.4216C119.448 14.0814 119.78 12.0866 121.486 10.8928C123.624 9.39864 126.519 9.07515 129.05 9.07515C132.007 9.07515 137.078 9.83765 140.807 14.2432L145.516 10.1996C145.616 10.1072 144.103 8.38968 144.01 8.28955C138.591 2.47454 129.514 1.37316 122.173 3.59133C121.856 3.69146 121.532 3.79159 121.223 3.89941C117.703 5.12403 114.538 7.41922 113.62 11.2086C112.57 15.5217 114.978 19.3419 118.707 21.3829C122.034 23.2006 125.847 23.7397 129.483 24.6332C131.42 25.1107 133.373 25.5651 135.234 26.2968C136.407 26.7589 139.896 28.0298 139.309 29.8012C138.692 31.6497 136.492 32.3737 134.778 32.728C131.49 33.4057 128.031 33.3056 124.789 32.4353C123.477 32.0887 122.219 31.5573 121.053 30.8641C120.706 30.6561 117.348 28.0837 117.556 27.9065C114.785 30.2402 112.74 32.0579 112.74 32.0579C112.585 32.1965 114.847 34.3762 114.986 34.4917C117.163 36.3864 119.78 37.7497 122.528 38.62C128.989 40.6533 137.889 40.5224 143.076 35.5161C144.805 33.8525 145.809 31.6266 145.809 29.2236C145.809 22.0453 137.279 20.1737 131.822 18.6641V18.6564Z" fill="white"/>
<path d="M157.541 2.81348H151.134V39.2516H157.541V2.81348Z" fill="white"/>
<path d="M206.875 2.81348H200.468V39.2516H206.875V2.81348Z" fill="white"/>
<path d="M243.489 39.2516H250.961L234.303 5.44756L233.832 4.49251L233.006 2.81348H228.374L227.548 4.50021L227.078 5.44756L210.419 39.2516H217.892L222.616 29.524H238.664L243.496 39.2516H243.489ZM225.812 22.9465L230.551 13.1881L235.399 22.9465H225.819H225.812Z" fill="white"/>
<path d="M188.11 4.80811C184.189 2.73628 179.828 2.75938 176.647 2.77479L168.974 2.8133H164.443V39.2514H170.85V28.4224C172.432 28.4224 174.007 28.4224 175.59 28.4224C176.13 28.4224 176.678 28.4224 177.218 28.4301C177.72 28.4301 178.222 28.4455 178.731 28.4455C178.824 28.4455 178.917 28.4455 179.017 28.4455C181.07 29.9782 182.606 31.3569 183.71 33.0898C183.896 33.3748 184.089 33.7214 184.289 34.0834C184.961 35.2849 185.802 36.7791 187.277 37.919C189.453 39.5903 191.954 39.8214 194.116 39.8214H194.131V33.1206H194.116C193.035 33.1206 191.954 33.059 191.383 32.6123C190.997 32.3119 190.573 31.5494 190.156 30.8177C189.917 30.3864 189.662 29.9397 189.369 29.4853C188.751 28.5225 188.056 27.6599 187.323 26.8589C190.573 25.2877 193.12 22.4226 194.185 19.1107C195.181 16.0068 194.957 12.7335 193.568 10.1302C192.394 7.91202 190.503 6.07894 188.11 4.80811ZM187.786 17.0697C187.261 18.7179 185.926 20.1505 184.22 20.913C183.656 21.1671 183.054 21.352 182.421 21.4752C180.846 21.7833 179.117 21.7602 177.296 21.7371C176.709 21.7371 176.13 21.7217 175.551 21.7217C173.984 21.7217 172.409 21.7217 170.842 21.7217V9.50633L176.678 9.47552C179.882 9.46012 182.715 9.54484 184.969 10.7309C186.15 11.3548 187.099 12.2559 187.632 13.2649C188.157 14.2585 188.218 15.7141 187.786 17.0697Z" fill="white"/>
<path d="M123.191 53.2925V54.1705H120.898V53.2925H123.191Z" fill="white"/>
<path d="M125.4 53.2925V54.1705H123.107V53.2925H125.4Z" fill="white"/>
<path d="M127.036 50.4963C127.321 49.7723 127.808 49.2101 128.487 48.8019C129.035 48.4861 129.598 48.332 130.185 48.332C130.772 48.332 131.335 48.4861 131.868 48.8019C132.555 49.2024 133.034 49.7723 133.319 50.4963L133.211 50.7967C132.64 51.0354 132.177 51.3589 131.814 51.7748C131.443 52.2061 131.204 52.7068 131.111 53.2921H133.45V54.1701H130.934C130.687 54.1701 130.448 54.0546 130.216 53.8081H130.177C129.954 54.0469 129.714 54.1701 129.46 54.1701H125.322V53.2921H129.274C129.182 52.7915 128.981 52.314 128.657 51.8672C128.286 51.4051 127.792 51.0508 127.167 50.789L127.043 50.4886L127.036 50.4963ZM132.177 50.3731C131.907 49.9803 131.598 49.6799 131.25 49.4796C130.918 49.3102 130.563 49.2178 130.185 49.2178C129.807 49.2178 129.46 49.2948 129.159 49.4565C128.796 49.6414 128.471 49.9417 128.194 50.3731C128.626 50.5656 128.989 50.8275 129.297 51.1741C129.676 51.6054 129.969 52.1368 130.162 52.7838H130.201C130.409 52.1137 130.702 51.5669 131.096 51.1433C131.413 50.8121 131.775 50.5579 132.184 50.3808L132.177 50.3731Z" fill="white"/>
<path d="M135.642 53.2925V54.1705H133.349V53.2925H135.642Z" fill="white"/>
<path d="M138.839 48.4863V52.9997C138.839 53.0998 138.823 53.1999 138.8 53.2924H139.456V54.1704H138.97L138.607 53.7391H138.569C138.345 54.0241 138.059 54.1704 137.704 54.1704H135.55V53.2924H137.31C137.442 53.2924 137.55 53.2539 137.635 53.1691C137.735 53.0767 137.781 52.9612 137.781 52.8225V48.4863H138.831H138.839ZM136.724 55.4566C136.886 55.4566 137.033 55.5182 137.148 55.6338C137.264 55.7493 137.326 55.8956 137.326 56.0574C137.326 56.2268 137.264 56.3732 137.148 56.4964C137.025 56.6119 136.886 56.6735 136.724 56.6735C136.562 56.6735 136.415 56.6119 136.299 56.4964C136.183 56.3809 136.122 56.2268 136.122 56.0574C136.122 55.8879 136.183 55.7493 136.299 55.6338C136.415 55.5105 136.562 55.4566 136.724 55.4566ZM138.221 55.4566C138.391 55.4566 138.538 55.5182 138.661 55.6338C138.785 55.7493 138.839 55.8956 138.839 56.0574C138.839 56.2268 138.777 56.3732 138.661 56.4964C138.538 56.6119 138.391 56.6735 138.221 56.6735C138.051 56.6735 137.913 56.6119 137.797 56.4964C137.681 56.3809 137.619 56.2268 137.619 56.0574C137.619 55.8879 137.681 55.7493 137.797 55.6338C137.913 55.5105 138.059 55.4566 138.221 55.4566Z" fill="white"/>
<path d="M142.651 48.4863V52.9997C142.651 53.0998 142.636 53.1999 142.613 53.2924H143.269V54.1704H142.783L142.42 53.7391H142.381C142.157 54.0241 141.872 54.1704 141.517 54.1704H139.363V53.2924H141.123C141.254 53.2924 141.362 53.2539 141.447 53.1691C141.547 53.0767 141.594 52.9612 141.594 52.8225V48.4863H142.644H142.651ZM142.034 55.4566C142.204 55.4566 142.35 55.5182 142.474 55.6338C142.597 55.7493 142.651 55.8956 142.651 56.0574C142.651 56.2268 142.59 56.3732 142.474 56.4964C142.35 56.6119 142.204 56.6735 142.034 56.6735C141.864 56.6735 141.725 56.6119 141.609 56.4964C141.493 56.3809 141.432 56.2268 141.432 56.0574C141.432 55.8879 141.493 55.7493 141.609 55.6338C141.725 55.5105 141.872 55.4566 142.034 55.4566Z" fill="white"/>
<path d="M146.458 45.3207V51.205C147.577 49.2949 149.067 48.3399 150.904 48.3399C151.893 48.3399 152.695 48.6402 153.297 49.241C153.845 49.7955 154.116 50.4964 154.116 51.3514V52.9919C154.116 53.0997 154.1 53.1998 154.077 53.2846H154.509V54.1626H154.247L153.884 53.7313H153.845C153.614 54.0162 153.328 54.1626 152.981 54.1626H143.185V53.2846H145.416V45.313H146.458V45.3207ZM153.05 51.2435C153.05 50.558 152.796 50.0343 152.278 49.6723C151.885 49.3873 151.375 49.241 150.758 49.241C150.055 49.241 149.391 49.4567 148.774 49.8803C147.817 50.558 147.045 51.6902 146.458 53.2923H152.587C152.896 53.2923 153.043 53.1382 153.043 52.8224V51.2435H153.05Z" fill="white"/>
<path d="M157.689 45.3208V52.9997C157.689 53.3232 157.58 53.5927 157.364 53.8161C157.14 54.0549 156.87 54.1781 156.562 54.1781H154.408V53.3001H156.168C156.322 53.3001 156.446 53.2462 156.531 53.1383C156.608 53.0459 156.639 52.9458 156.639 52.8302V45.3285H157.689V45.3208Z" fill="white"/>
<path d="M160.452 45.3208V54.0472L159.919 54.4785H159.402V45.3208H160.452Z" fill="white"/>
<path d="M174.586 48.4865V52.9998C174.586 53.2925 174.494 53.5544 174.316 53.77C174.085 54.0396 173.807 54.1782 173.475 54.1782H166.389C165.91 54.1782 165.493 54.0242 165.154 53.7084C164.683 53.3079 164.451 52.7842 164.451 52.1372V49.8112L164.984 49.3799H165.501V52.1372C165.501 52.4607 165.617 52.7303 165.848 52.9536C166.072 53.1847 166.35 53.3002 166.69 53.3002H173.066C173.382 53.3002 173.537 53.1462 173.537 52.8304V48.4942H174.586V48.4865ZM168.774 48.1553C168.936 48.1553 169.083 48.2169 169.198 48.3324C169.314 48.4479 169.376 48.5943 169.376 48.7714C169.376 48.9486 169.314 49.0795 169.198 49.195C169.083 49.3106 168.936 49.3722 168.774 49.3722C168.612 49.3722 168.457 49.3106 168.342 49.195C168.226 49.0795 168.172 48.9332 168.172 48.7714C168.172 48.602 168.234 48.4557 168.342 48.3324C168.457 48.2092 168.604 48.1553 168.774 48.1553ZM170.271 48.1553C170.441 48.1553 170.588 48.2169 170.711 48.3324C170.835 48.4479 170.889 48.5943 170.889 48.7714C170.889 48.9486 170.827 49.0795 170.711 49.195C170.596 49.3106 170.441 49.3722 170.271 49.3722C170.102 49.3722 169.963 49.3106 169.847 49.195C169.723 49.0795 169.669 48.9332 169.669 48.7714C169.669 48.602 169.731 48.4557 169.847 48.3324C169.963 48.2092 170.109 48.1553 170.271 48.1553Z" fill="white"/>
<path d="M177.35 45.3207V52.8224C177.35 52.9534 177.389 53.0689 177.474 53.1536C177.566 53.246 177.682 53.2923 177.821 53.2923H177.983V54.1703H177.412C177.149 54.1703 176.918 54.0856 176.717 53.9084C176.439 53.6697 176.293 53.3616 176.293 52.9919V45.313H177.342L177.35 45.3207Z" fill="white"/>
<path d="M180.191 53.2925V54.1705H177.898V53.2925H180.191Z" fill="white"/>
<path d="M181.749 48.694C182.506 48.4553 183.216 48.332 183.88 48.332C184.906 48.332 185.686 48.6478 186.219 49.2871C186.682 49.8339 186.913 50.5425 186.913 51.4282V52.9994C186.913 53.0996 186.898 53.1997 186.875 53.2921H187.307V54.1701H187.045L186.697 53.7388H186.659C186.427 54.0238 186.141 54.1701 185.794 54.1701H180.097V53.2921H185.385C185.701 53.2921 185.856 53.1381 185.856 52.8223V51.3897C185.856 50.7505 185.686 50.2421 185.346 49.8724C184.976 49.4642 184.436 49.2563 183.725 49.2563C183.293 49.2563 182.637 49.3487 181.741 49.5258V48.694H181.749ZM183.224 55.4564C183.393 55.4564 183.54 55.518 183.664 55.6335C183.787 55.749 183.841 55.8954 183.841 56.0571C183.841 56.2266 183.779 56.3729 183.664 56.4961C183.54 56.6117 183.393 56.6733 183.224 56.6733C183.054 56.6733 182.915 56.6117 182.799 56.4961C182.683 56.3729 182.621 56.2266 182.621 56.0571C182.621 55.8877 182.683 55.749 182.799 55.6335C182.915 55.5103 183.061 55.4564 183.224 55.4564Z" fill="white"/>
<path d="M189.515 53.2925V54.1705H187.222V53.2925H189.515Z" fill="white"/>
<path d="M192.712 48.4864V52.9997C192.712 53.0999 192.696 53.2 192.673 53.2924H193.329V54.1704H192.843L192.48 53.7391H192.442C192.218 54.0241 191.932 54.1704 191.577 54.1704H189.423V53.2924H191.183C191.315 53.2924 191.423 53.2539 191.508 53.1692C191.608 53.0768 191.654 52.9612 191.654 52.8226V48.4864H192.704H192.712ZM190.705 45.7676C190.875 45.7676 191.021 45.8292 191.137 45.9447C191.253 46.068 191.307 46.2066 191.307 46.3683C191.307 46.5378 191.253 46.6918 191.137 46.8073C191.021 46.9229 190.875 46.9845 190.705 46.9845C190.535 46.9845 190.396 46.9229 190.28 46.8073C190.157 46.6918 190.103 46.5378 190.103 46.3683C190.103 46.1989 190.165 46.0603 190.28 45.9447C190.396 45.8292 190.543 45.7676 190.705 45.7676ZM192.218 45.7676C192.38 45.7676 192.527 45.8292 192.642 45.9447C192.758 46.0603 192.82 46.2066 192.82 46.3683C192.82 46.5378 192.758 46.6918 192.642 46.8073C192.527 46.9229 192.38 46.9845 192.218 46.9845C192.048 46.9845 191.901 46.9229 191.778 46.8073C191.654 46.6918 191.6 46.5378 191.6 46.3683C191.6 46.1989 191.662 46.0603 191.778 45.9447C191.894 45.8292 192.04 45.7676 192.218 45.7676Z" fill="white"/>
<path d="M196.525 48.4864V52.9997C196.525 53.0999 196.509 53.2 196.486 53.2924H197.142V54.1704H196.656L196.293 53.7391H196.254C196.031 54.0241 195.745 54.1704 195.39 54.1704H193.236V53.2924H194.996C195.127 53.2924 195.235 53.2539 195.32 53.1692C195.421 53.0768 195.467 52.9612 195.467 52.8226V48.4864H196.517H196.525ZM195.992 45.7676C196.162 45.7676 196.308 45.8292 196.432 45.9447C196.555 46.0603 196.61 46.2066 196.61 46.3683C196.61 46.5378 196.548 46.6918 196.432 46.8073C196.316 46.9229 196.17 46.9845 195.992 46.9845C195.814 46.9845 195.683 46.9229 195.567 46.8073C195.444 46.6918 195.39 46.5378 195.39 46.3683C195.39 46.1989 195.452 46.0603 195.567 45.9447C195.683 45.8292 195.83 45.7676 195.992 45.7676Z" fill="white"/>
<path d="M199.503 53.2923C199.164 52.7378 198.994 52.1139 198.994 51.3976C198.994 50.4041 199.272 49.6339 199.835 49.087C200.337 48.6095 201.001 48.3631 201.827 48.3477C202.421 48.3477 202.915 48.4786 203.301 48.7328C203.896 49.1256 204.197 49.7494 204.197 50.5889V52.8225C204.197 52.938 204.228 53.0382 204.282 53.1229C204.359 53.2307 204.451 53.2846 204.575 53.2923H204.598V54.1704H204.289C203.919 54.1704 203.618 54.024 203.402 53.7391C202.954 54.2782 202.39 54.5401 201.703 54.5401C201.016 54.5401 200.36 54.2705 199.835 53.7391H199.812L199.465 54.1704H197.064V53.2923H199.503ZM203.147 50.5889C203.147 50.1576 203.008 49.8187 202.738 49.5646C202.498 49.3412 202.19 49.2334 201.811 49.2334C201.287 49.2334 200.854 49.4259 200.538 49.8187C200.214 50.2115 200.051 50.7199 200.051 51.3591C200.051 52.0292 200.221 52.5838 200.561 53.0305C200.885 53.4618 201.287 53.6697 201.773 53.6697C202.259 53.6697 202.707 53.4541 203.147 53.0151V50.5889Z" fill="white"/>
<path d="M207.786 45.3208V52.9997C207.786 53.3232 207.678 53.5927 207.462 53.8161C207.238 54.0549 206.968 54.1781 206.659 54.1781H204.505V53.3001H206.265C206.42 53.3001 206.543 53.2462 206.628 53.1383C206.705 53.0459 206.736 52.9458 206.736 52.8302V45.3285H207.786V45.3208Z" fill="white"/>
<path d="M212.827 45.3207V52.8224C212.827 52.9534 212.865 53.0689 212.95 53.1536C213.043 53.246 213.159 53.2923 213.298 53.2923H213.46V54.1703H212.888C212.626 54.1703 212.394 54.0856 212.194 53.9084C211.916 53.6697 211.769 53.3616 211.769 52.9919V45.313H212.819L212.827 45.3207Z" fill="white"/>
<path d="M215.669 53.2925V54.1705H213.377V53.2925H215.669Z" fill="white"/>
<path d="M217.876 53.2925V54.1705H215.583V53.2925H217.876Z" fill="white"/>
<path d="M221.071 48.4863V52.9997C221.071 53.3078 220.971 53.5696 220.778 53.793C220.554 54.0472 220.276 54.1781 219.944 54.1781H217.791V53.3001H219.551C219.69 53.3001 219.805 53.2539 219.898 53.1537C219.983 53.069 220.022 52.9612 220.022 52.8303V48.494H221.071V48.4863ZM218.84 55.4566C219.003 55.4566 219.149 55.5182 219.265 55.6338C219.381 55.7493 219.443 55.8956 219.443 56.0574C219.443 56.2268 219.381 56.3732 219.265 56.4964C219.142 56.6119 219.003 56.6735 218.84 56.6735C218.671 56.6735 218.516 56.6119 218.4 56.4964C218.285 56.3732 218.223 56.2268 218.223 56.0574C218.223 55.8879 218.285 55.7493 218.4 55.6338C218.516 55.5105 218.671 55.4566 218.84 55.4566ZM220.338 55.4566C220.508 55.4566 220.654 55.5182 220.77 55.6338C220.886 55.7493 220.94 55.8956 220.94 56.0574C220.94 56.2268 220.886 56.3732 220.77 56.4964C220.654 56.6119 220.508 56.6735 220.338 56.6735C220.168 56.6735 220.029 56.6119 219.913 56.4964C219.798 56.3809 219.736 56.2268 219.736 56.0574C219.736 55.8879 219.798 55.7493 219.913 55.6338C220.029 55.5105 220.176 55.4566 220.338 55.4566Z" fill="white"/>
<path d="M226.036 48.4862V53.2923H226.669V54.1703H226.036C226.013 55.2024 225.642 55.9726 224.932 56.4809C224.361 56.9045 223.62 57.1124 222.717 57.1124C222.578 57.1124 222.4 57.1125 222.184 57.097L221.775 56.5887V56.1959C222.014 56.2267 222.277 56.2421 222.555 56.2421C224.176 56.2421 224.986 55.5027 224.986 54.0162V48.4785H226.036V48.4862Z" fill="white"/>
<path d="M228.876 53.2925V54.1705H226.583V53.2925H228.876Z" fill="white"/>
<path d="M231.075 53.2925V54.1705H228.783V53.2925H231.075Z" fill="white"/>
<path d="M233.284 53.2925V54.1705H230.992V53.2925H233.284Z" fill="white"/>
<path d="M236.48 48.4863V52.9997C236.48 53.0998 236.464 53.1999 236.441 53.2924H237.097V54.1704H236.611L236.248 53.7391H236.209C235.986 54.0241 235.7 54.1704 235.345 54.1704H233.191V53.2924H234.951C235.082 53.2924 235.19 53.2539 235.275 53.1691C235.376 53.0767 235.422 52.9612 235.422 52.8225V48.4863H236.472H236.48ZM234.364 55.4566C234.527 55.4566 234.673 55.5182 234.789 55.6338C234.905 55.7493 234.967 55.8956 234.967 56.0574C234.967 56.2268 234.905 56.3732 234.789 56.4964C234.666 56.6119 234.527 56.6735 234.364 56.6735C234.202 56.6735 234.056 56.6119 233.94 56.4964C233.824 56.3809 233.762 56.2268 233.762 56.0574C233.762 55.8879 233.824 55.7493 233.94 55.6338C234.056 55.5105 234.202 55.4566 234.364 55.4566ZM235.862 55.4566C236.032 55.4566 236.179 55.5182 236.302 55.6338C236.426 55.7493 236.48 55.8956 236.48 56.0574C236.48 56.2268 236.418 56.3732 236.302 56.4964C236.179 56.6119 236.032 56.6735 235.862 56.6735C235.692 56.6735 235.553 56.6119 235.437 56.4964C235.322 56.3809 235.26 56.2268 235.26 56.0574C235.26 55.8879 235.322 55.7493 235.437 55.6338C235.553 55.5105 235.7 55.4566 235.862 55.4566Z" fill="white"/>
<path d="M239.304 53.2925V54.1705H237.011V53.2925H239.304Z" fill="white"/>
<path d="M251 48.4862V52.9996C251 53.3231 250.892 53.6003 250.668 53.8314C250.452 54.0625 250.189 54.178 249.881 54.178H247.488L247.094 53.7467H247.055C246.824 54.0317 246.538 54.178 246.191 54.178H243.813L243.404 53.7467H243.366C243.134 54.0317 242.848 54.178 242.501 54.178H239.22V53.3H242.092C242.408 53.3 242.563 53.1459 242.563 52.8301V49.9111H243.613V52.9996C243.613 53.1074 243.605 53.2075 243.589 53.2923H245.782C246.098 53.2923 246.253 53.1382 246.253 52.8224V49.1871H247.302V52.9919C247.302 53.0997 247.287 53.1998 247.264 53.2846H249.472C249.788 53.2846 249.942 53.1305 249.942 52.8147V48.4785H250.992L251 48.4862Z" fill="white"/>
<defs>
<linearGradient id="paint0_linear_931_23281" x1="8.40588" y1="56.6119" x2="98.0962" y2="56.6119" gradientUnits="userSpaceOnUse">
<stop offset="0.06" stop-color="#A4C241"/>
<stop offset="0.32" stop-color="#58B0E0"/>
</linearGradient>
</defs>
</svg>
