<svg width="33" height="43" viewBox="0 0 33 43" fill="none" xmlns="http://www.w3.org/2000/svg">
<path opacity="0.2" d="M12.3418 33.4915C12.4093 32.6097 12.4516 31.7613 12.4685 30.9464L12.4685 30.9462C12.4853 30.1197 12.4937 29.2337 12.4937 28.2882C12.4937 21.655 12.1078 15.4385 11.335 9.6394C10.9963 6.80696 10.3473 4.61543 9.34655 3.11943C8.32689 1.5952 6.93997 0.795898 5.21548 0.795898C3.95408 0.795898 2.92831 1.02374 2.31114 1.6267C1.99292 1.91715 1.73491 2.20641 1.55352 2.49534L1.55344 2.49529L1.54842 2.50364C1.36604 2.80712 1.26081 3.18904 1.20576 3.61631C1.13783 4.05212 1.09395 4.43562 1.07609 4.76416C1.05865 5.06819 1.05021 5.43807 1.05021 5.87173C1.05021 7.42957 1.04185 8.8326 1.02515 10.081C1.00838 11.3347 1 12.7423 1 14.3036C1 17.9572 1.04187 21.0054 1.12581 23.4468L1.12595 23.4502C1.22674 25.8927 1.3947 28.3693 1.62979 30.8798L1.62992 30.8811C1.88294 33.5066 2.28763 35.6665 2.85237 37.3484C3.41255 39.0167 4.14738 40.2667 5.09897 41.0141C5.20371 41.103 5.33938 41.182 5.47715 41.2525C5.62811 41.3298 5.81369 41.4129 6.03015 41.5015L6.03013 41.5016L6.03644 41.504C6.26047 41.5923 6.45454 41.662 6.61522 41.7104C6.7615 41.7544 6.92699 41.7959 7.07322 41.7959C7.78894 41.7959 8.45738 41.6311 9.06948 41.2981L9.0695 41.2981L9.07536 41.2948C9.64643 40.9742 10.1257 40.5724 10.5049 40.087L10.505 40.0871L10.5106 40.0795C10.8854 39.5807 11.1994 38.9477 11.4616 38.1958L11.4618 38.1958L11.465 38.1859C11.7047 37.4495 11.894 36.7365 12.0321 36.0471L12.0326 36.0447C12.1716 35.333 12.2739 34.4807 12.3418 33.4915ZM12.3418 33.4915C12.3418 33.4908 12.3419 33.4901 12.3419 33.4895L11.8431 33.4553L12.3416 33.4935C12.3417 33.4928 12.3417 33.4921 12.3418 33.4915ZM3.52744 3.37556L3.52737 3.3755C3.31151 3.65469 3.15481 4.17751 3.15481 5.04911C3.15481 5.33099 3.16291 5.59428 3.17886 5.83925L3.17992 5.85547V5.87173V6.77148C3.17992 7.60127 3.22142 9.22948 3.30514 11.6642L3.52744 3.37556ZM3.52744 3.37556L3.5333 3.36767M3.52744 3.37556L3.5333 3.36767M3.5333 3.36767C3.71484 3.12307 4.08972 2.927 4.83891 2.927C5.5254 2.927 6.13442 3.14328 6.68303 3.58661C7.18103 3.99174 7.59697 4.54939 7.92199 5.27841C8.26037 6.03742 8.57873 6.95442 8.87514 8.03336C9.19694 9.23679 9.42003 10.877 9.53627 12.9678C9.55237 13.2815 9.56067 13.6832 9.56067 14.1751C9.56067 15.2537 9.662 17.676 9.86263 21.4253C10.0636 25.1989 10.1632 27.6357 10.1632 28.7509C10.1632 29.7321 10.1218 31.0242 10.0385 32.6299C9.94022 34.2199 9.66209 35.8382 9.20249 37.4854L9.20212 37.4868C8.99604 38.2335 8.72981 38.7659 8.42623 39.1191L8.80544 39.445L8.42623 39.1191C8.13577 39.4571 7.84019 39.5877 7.5251 39.5877C7.09739 39.5877 6.65285 39.3662 6.19334 38.76C5.72491 38.1247 5.32869 37.2387 5.02097 36.0778L5.02067 36.0767M3.5333 3.36767L5.02067 36.0767M5.02067 36.0767C4.35969 33.6062 3.92097 30.9974 3.7056 28.2493C3.50535 25.6691 3.40586 23.5064 3.40586 21.7586V16.6172C3.40586 15.2557 3.37221 13.6044 3.30514 11.6643L5.02067 36.0767ZM21.06 40.8785L21.0788 40.9032L21.1004 40.9254C21.3658 41.1971 21.7316 41.2818 22.0858 41.2818C23.0326 41.2818 24.421 41.2472 26.2468 41.1786C28.0695 41.1101 29.4427 41.0761 30.3703 41.0761C30.786 41.0761 31.1848 41.0104 31.493 40.807C31.8375 40.5797 32 40.2269 32 39.8306C32 39.6126 31.9403 39.4009 31.8094 39.2158C31.6817 39.0352 31.5065 38.9081 31.3178 38.8192C30.9535 38.6475 30.469 38.5851 29.9184 38.5851C29.6581 38.5851 29.2523 38.613 28.7158 38.6645L28.7143 38.6647C28.3981 38.696 28.1388 38.717 27.9336 38.7285C27.9502 38.5952 27.9582 38.4568 27.9582 38.3139C27.9582 37.7357 27.9242 36.697 27.8572 35.2069C27.8572 35.2068 27.8572 35.2067 27.8572 35.2066L27.7322 32.339V31.6815C27.7322 29.2527 27.623 25.8412 27.4052 21.4511L27.4052 21.4502L27.33 19.9864C27.33 19.9863 27.33 19.9862 27.3299 19.9861C27.1452 16.1685 27.0544 14.1933 27.0544 14.0208C27.0544 13.137 27.0122 11.4664 26.9286 9.01662C26.8449 6.56478 26.8033 4.91929 26.8033 4.07225V2.45271C26.8033 2.09329 26.6644 1.77682 26.419 1.52136C26.1716 1.24529 25.8441 1.10438 25.4749 1.10438C23.4098 1.10438 22.0345 1.13797 21.3813 1.20989C21.0025 1.2471 20.6519 1.32787 20.382 1.49235C20.0828 1.67475 19.8787 1.96775 19.8787 2.34988C19.8787 2.6917 20.0248 2.9995 20.3277 3.19448C20.5929 3.36516 20.9268 3.41544 21.2573 3.41544H21.2786L21.2998 3.41363L21.9023 3.36221L21.9042 3.36205L22.4593 3.31262C23.2181 3.31329 23.6951 3.34884 23.933 3.40297C24.126 3.44689 24.1713 3.51507 24.1906 3.55791L24.6323 3.35883L24.1906 3.55791C24.2423 3.67254 24.2968 3.97563 24.2971 4.55698L24.2469 7.92084L24.2466 7.94034L24.2479 7.95982C25.0174 20.1392 25.4017 30.2392 25.4017 38.2625C25.4017 38.4099 25.394 38.5238 25.3817 38.6086C25.3757 38.6506 25.3689 38.682 25.3628 38.7046C25.3615 38.7093 25.3603 38.7135 25.3591 38.7172C25.3576 38.7222 25.3562 38.7262 25.355 38.7295C25.353 38.7351 25.3518 38.7374 25.352 38.7372C25.3507 38.7398 25.35 38.7405 25.3504 38.74C25.3507 38.7396 25.3508 38.7397 25.3497 38.7405C25.3484 38.7416 25.341 38.7473 25.3228 38.7545C25.2018 38.7752 24.9778 38.7906 24.6256 38.7908L23.1488 38.7651V38.765H23.1402H21.6841C21.3633 38.765 21.1418 38.9591 21.0087 39.1437C20.8794 39.3072 20.7824 39.513 20.7824 39.7535C20.7824 40.163 20.8365 40.5843 21.06 40.8785Z" fill="#212121" stroke="#212121"/>
</svg>
