<svg width="48" height="63" viewBox="0 0 48 63" fill="none" xmlns="http://www.w3.org/2000/svg">
<path opacity="0.2" d="M10.056 7.81397C9.28818 7.22446 8.43553 6.93498 7.46458 6.93498C6.37451 6.93498 5.914 7.2092 5.72109 7.4562L5.71496 7.46404L5.70868 7.47176C5.45435 7.78437 5.22562 8.43118 5.22562 9.63017C5.22562 10.0208 5.23743 10.3843 5.26051 10.7211L5.26285 10.7552V10.7894V12.0574C5.26285 13.2199 5.32415 15.5085 5.44833 18.9405L10.056 7.81397ZM10.056 7.81397C10.756 8.35518 11.3449 9.10272 11.8086 10.0911C12.3015 11.1418 12.7681 12.4173 13.2042 13.9257C13.6722 15.5893 14.0009 17.8737 14.1726 20.808C14.1961 21.2419 14.2083 21.8013 14.2083 22.4909C14.2083 24.0221 14.3593 27.4458 14.6566 32.7267L10.056 7.81397ZM7.9804 53.2667L7.98106 53.2691C8.42985 54.878 9.00219 56.0856 9.6653 56.9407C10.3069 57.7445 10.8996 58.0081 11.4481 58.0081C11.8467 58.0081 12.2212 57.8562 12.6051 57.4316C13.016 56.9773 13.3925 56.274 13.6895 55.2513L13.6904 55.2485C14.3655 52.949 14.7733 50.6928 14.9174 48.4787C15.0409 46.2193 15.1018 44.4057 15.1018 43.0318C15.1018 41.4712 14.9548 38.0471 14.6566 32.727L7.9804 53.2667ZM7.9804 53.2667C7.00622 49.8067 6.35909 46.151 6.04132 42.298C5.74479 38.667 5.59791 35.629 5.59791 33.178V25.9325C5.59791 24.0085 5.54788 21.6771 5.44834 18.9407L7.9804 53.2667ZM45.6834 25.8605C46.2338 22.1835 46.5131 18.9927 46.5131 16.296C46.5131 15.6843 46.4742 14.7533 46.3996 13.5186C46.3419 12.5644 46.3075 11.8202 46.295 11.2789L46.4532 11.1251L46.438 10.6828C46.3837 9.09657 46.0152 7.62244 45.3229 6.27496C44.6277 4.92212 43.6576 3.83473 42.4154 3.03529C41.172 2.1944 39.7482 1.7832 38.1789 1.7832C36.9701 1.7832 35.9612 2.37181 35.1717 3.34481C34.4693 4.1934 33.9497 5.15199 33.6141 6.21313L33.6105 6.22464L33.6071 6.23623C33.3112 7.25724 33.1581 8.25687 33.1581 9.23167C33.1581 9.55919 33.1662 9.88364 33.2082 10.1179C33.2678 10.5241 33.453 10.8739 33.7055 11.1606L33.7564 11.2183L33.8154 11.2676C34.2191 11.6043 34.7062 11.717 35.1633 11.717C36.0527 11.717 36.5976 11.0876 36.891 10.4839C37.1833 9.88267 37.3568 9.07728 37.4602 8.14659L37.461 8.13934L37.4617 8.13207C37.5209 7.51782 37.7175 6.91062 38.0686 6.30435C38.3755 5.80991 38.7218 5.48164 39.0994 5.27593C39.589 5.31067 39.9974 5.46724 40.353 5.73515C40.7716 6.0505 41.1717 6.56246 41.5178 7.34488C42.2204 8.93287 42.6144 11.436 42.6144 14.9556C42.6144 20.8898 41.9165 26.6155 40.523 32.1352C39.1268 37.6411 36.9543 43.5463 33.9973 49.8527L33.9972 49.8527L33.9921 49.8639L29.8969 58.8845L29.8074 59.0815V59.2979C29.8074 60.0678 30.1592 60.7086 30.7678 61.1501C31.3308 61.5824 31.9939 61.7832 32.7061 61.7832C34.0403 61.7832 35.9721 61.6716 38.4837 61.4538C40.98 61.2615 42.7637 61.1549 43.8508 61.1311C44.3495 61.1275 44.8434 60.9217 45.1653 60.4518C45.4434 60.0458 45.5079 59.5621 45.5079 59.153C45.5079 58.6215 45.3804 58.0376 44.9488 57.5897C44.5105 57.1348 43.9271 56.9937 43.391 56.9937L43.3837 56.9937C40.4064 57.0153 37.6335 57.2278 35.0672 57.6342C35.4482 56.6746 35.9905 55.4544 36.6989 53.968L36.699 53.968L36.7035 53.9582L38.416 50.263L38.4161 50.2631L38.4198 50.2548L40.6161 45.4008C40.6162 45.4006 40.6163 45.4005 40.6163 45.4003C41.6659 43.0836 42.6385 40.1619 43.5405 36.651L43.5409 36.6494C44.4431 33.1134 45.1572 29.517 45.6834 25.8605ZM45.6834 25.8605C45.6835 25.8595 45.6837 25.8585 45.6838 25.8575L44.694 25.7151L45.683 25.8632C45.6831 25.8623 45.6833 25.8614 45.6834 25.8605ZM13.8433 60.9832L13.8433 60.9833L13.8548 60.9771C14.7267 60.5119 15.4663 59.9247 16.0552 59.2084L16.0613 59.201L16.0672 59.1935C16.6478 58.4591 17.1277 57.5358 17.5246 56.4544L17.5283 56.4442L17.5318 56.4339C17.891 55.3853 18.1755 54.3677 18.3833 53.3817L18.3844 53.3768C18.5942 52.356 18.7474 51.1403 18.8487 49.7377C18.9492 48.4897 19.0122 47.288 19.0375 46.133L19.0375 46.1325C19.0625 44.9652 19.075 43.7142 19.075 42.3797C19.075 33.0195 18.502 24.2442 17.3537 16.0555C16.8484 12.0409 15.8761 8.89385 14.3507 6.72693C12.7862 4.50452 10.6533 3.34098 8.02302 3.34098C6.14864 3.34098 4.5483 3.65767 3.55718 4.57513C3.07613 4.99273 2.67425 5.41849 2.38606 5.85473L2.38057 5.86303L2.37525 5.87145C2.07305 6.3493 1.90718 6.93551 1.82181 7.56213C1.72033 8.18148 1.65378 8.73237 1.62647 9.20922C1.60009 9.64647 1.58752 10.1747 1.58752 10.7894C1.58752 12.9836 1.57513 14.9593 1.55039 16.7167C1.52549 18.4854 1.51306 20.4706 1.51306 22.672C1.51306 27.8231 1.57517 32.123 1.69984 35.5689L1.70015 35.5761C1.84989 39.0245 2.09941 42.5205 2.44861 46.0643L2.4489 46.0671C2.82558 49.7814 3.42944 52.8533 4.27863 55.2566C5.11969 57.6369 6.23549 59.4585 7.70622 60.5579C7.88485 60.7012 8.10531 60.8213 8.31149 60.9216C8.54343 61.0345 8.82519 61.1542 9.14947 61.2804L9.14944 61.2805L9.16168 61.285C9.49689 61.4105 9.79102 61.5111 10.0375 61.5816C10.2567 61.6443 10.5279 61.7108 10.778 61.7108C11.8719 61.7108 12.8993 61.4712 13.8433 60.9832Z" fill="#212121" stroke="#212121" stroke-width="2"/>
</svg>
