<svg width="46" height="61" viewBox="0 0 46 61" fill="none" xmlns="http://www.w3.org/2000/svg">
<path opacity="0.2" d="M10.1133 5.55595C9.37572 4.97464 8.56099 4.69195 7.63525 4.69195C6.59233 4.69195 6.16172 4.95989 5.98118 5.19718L5.9752 5.20505L5.96906 5.2128C5.72326 5.52295 5.5008 6.16829 5.5008 7.3629C5.5008 7.75138 5.51224 8.11289 5.53461 8.44798L5.53683 8.48124V8.51457V9.77421C5.53683 10.9294 5.59616 13.2034 5.71634 16.6128L10.1133 5.55595ZM10.1133 5.55595C10.7869 6.09063 11.3564 6.83143 11.8057 7.81455C12.2829 8.8588 12.7346 10.1265 13.1568 11.6256C13.6101 13.2798 13.9283 15.5506 14.0946 18.4663C14.1172 18.8978 14.1291 19.454 14.1291 20.1392C14.1291 21.6598 14.2751 25.0605 14.5629 30.3071C14.8515 35.5922 14.9938 38.9944 14.9938 40.5454C14.9938 41.9109 14.9348 43.713 14.8153 45.9578C14.6758 48.1589 14.2809 50.4015 13.6272 52.6869L13.6264 52.6896C13.3385 53.7076 12.9736 54.4063 12.5773 54.8561L13.3277 55.5171L12.5773 54.8561C12.2077 55.2757 11.8558 55.4169 11.4903 55.4169C10.9832 55.4169 10.4194 55.168 9.79802 54.369C9.15691 53.5202 8.60265 52.3202 8.16792 50.7202L8.16729 50.7179C7.22427 47.2796 6.59783 43.6468 6.29023 39.8178L10.1133 5.55595ZM13.8325 58.3799L13.8325 58.38L13.8442 58.3736C14.6923 57.909 15.4106 57.3232 15.9817 56.6101L15.9876 56.6027L15.9935 56.5951C16.5559 55.8648 17.02 54.9476 17.4038 53.8744L17.4073 53.8643L17.4107 53.8542C17.7582 52.8128 18.0333 51.8025 18.2343 50.8237L18.2353 50.8189C18.4381 49.8057 18.5864 48.5986 18.6843 47.2058C18.7816 45.9662 18.8426 44.7729 18.867 43.6258L18.867 43.6254C18.8912 42.4659 18.9033 41.2232 18.9033 39.8976C18.9033 30.5995 18.3488 21.8826 17.2377 13.7485C16.7489 9.76251 15.8087 6.63769 14.3325 4.48501C12.8178 2.27614 10.7437 1.1084 8.17567 1.1084C6.35614 1.1084 4.79179 1.42422 3.82273 2.3449C3.35609 2.76079 2.96639 3.1847 2.68712 3.61865L2.6818 3.62693L2.67663 3.63531C2.38438 4.10971 2.22443 4.69062 2.14209 5.3112C2.04393 5.92622 1.9796 6.47291 1.95322 6.94583C1.92772 7.3797 1.91556 7.90404 1.91556 8.51457C1.91556 10.6944 1.90357 12.6572 1.87963 14.4032C1.85553 16.1602 1.84351 18.1323 1.84351 20.3192C1.84351 25.4363 1.90361 29.7078 2.02427 33.1308L2.02424 33.1308L2.02454 33.1378C2.16943 36.5632 2.41087 40.036 2.74878 43.5561L2.74905 43.5589C3.11349 47.2479 3.69766 50.2983 4.519 52.6845C5.33184 55.0461 6.41122 56.8578 7.83937 57.954C8.01489 58.0983 8.23092 58.2191 8.43138 58.3192C8.65731 58.4321 8.93122 58.5514 9.24574 58.6771L9.24571 58.6772L9.25815 58.682C9.58313 58.8068 9.86916 58.9073 10.1095 58.9779C10.3218 59.0402 10.5909 59.1084 10.8417 59.1084C11.9096 59.1084 12.9124 58.8682 13.8325 58.3799ZM33.4713 57.8063L33.4713 57.8064L33.4803 57.811C34.6059 58.3869 35.8068 58.6765 37.0702 58.6765C38.0881 58.6765 39.0465 58.4834 39.9314 58.0842L39.9314 58.0843L39.9426 58.079C40.7638 57.6962 41.467 57.2023 42.0267 56.5843L42.0344 56.5758L42.042 56.567C42.5834 55.9408 43.0303 55.1718 43.3968 54.2839C43.7494 53.453 44.0201 52.6582 44.2031 51.9011L44.2048 51.8937C44.3861 51.1177 44.5239 50.2072 44.6228 49.1699L44.6232 49.1656C44.77 47.553 44.8435 45.9632 44.8435 44.3963C44.8435 43.1197 44.8211 42.2154 44.7642 41.7566C44.7086 41.2879 44.5282 40.386 44.2432 39.1046L44.2432 39.1046L44.2408 39.0943C44.0825 38.4163 43.9192 37.4899 43.753 36.3038L43.7517 36.2947L43.7503 36.2857C43.509 34.7676 43.2894 33.5577 43.0909 32.665C42.8895 31.7354 42.6144 30.7631 42.2678 29.749L42.2659 29.7436C41.5656 27.7323 40.4029 26.203 38.7698 25.229C38.944 24.9611 39.1409 24.6518 39.358 24.3064L39.3663 24.2932L39.3741 24.2798C39.6561 23.7985 39.8836 23.4382 40.059 23.1886C40.1469 23.0636 40.2136 22.978 40.2606 22.9237C40.273 22.9093 40.2825 22.899 40.2892 22.892L40.4488 22.7856L40.5658 22.5836C41.5054 20.96 42.0333 19.4052 42.0333 17.9439C42.0333 11.438 41.0502 6.53582 38.8999 3.44479L38.7102 3.17204L38.465 3.09041C38.0239 2.56035 37.4859 2.13106 36.8604 1.80396C36.1302 1.39814 35.3557 1.18038 34.5483 1.18038C32.886 1.18038 31.4254 1.6482 30.2355 2.63394L30.2354 2.63388L30.2261 2.64175C29.1245 3.57713 28.1618 4.94264 27.3105 6.66858L27.1877 6.9175L27.2108 7.1941C27.2614 7.80086 27.5738 8.28714 28.0068 8.64104L28.0288 8.65906L28.0519 8.67579C28.4632 8.97464 28.9414 9.15467 29.4683 9.15467C30.2001 9.15467 30.7568 8.73124 31.1444 8.25532C31.5303 7.78142 31.8513 7.13802 32.1313 6.38944C32.2691 6.04174 32.5218 5.70829 32.9445 5.39617L32.9445 5.39619L32.9501 5.392C33.3474 5.09436 33.7959 4.94387 34.3321 4.94387C34.8397 4.94387 35.2908 5.14256 35.7259 5.66415L35.7312 5.67057L35.7367 5.6769C36.2422 6.26261 36.6367 6.97045 36.9119 7.81624L36.9154 7.82692L36.9191 7.83752C37.2261 8.71385 37.4781 9.83099 37.6645 11.2043L37.6646 11.2045C37.9227 13.1032 38.0518 15.0136 38.0518 16.9362C38.0518 17.9448 37.8421 19.0068 37.4025 20.1284C37.0636 20.9624 36.7007 21.648 36.3204 22.1969C35.9044 22.7971 35.5209 23.2912 35.1703 23.6853C34.7883 24.1145 34.5193 24.4198 34.3681 24.5959C34.1186 24.8827 33.9095 25.1404 33.751 25.3634C33.6166 25.5526 33.4359 25.8275 33.362 26.1227L33.2244 26.6724L33.6254 27.073L33.6924 27.1399V27.6634L34.2866 27.9273C34.855 28.1796 35.4627 28.3012 36.0975 28.3012C36.2054 28.3012 36.3135 28.2963 36.4208 28.2857C37.1301 29.1113 37.7709 30.0607 38.3409 31.1384C38.9638 32.4077 39.4301 33.6056 39.7462 34.7331L39.7494 34.7446L39.7529 34.7562C40.0895 35.8545 40.3437 37.1798 40.5071 38.742L40.508 38.7503C40.6741 40.2202 40.7671 41.4482 40.7902 42.4402L40.7905 42.4523L40.791 42.4645C40.8379 43.4477 40.862 44.9279 40.862 46.9156C40.862 49.9672 40.3979 52.0896 39.5996 53.4187C38.8927 54.5957 37.8974 55.2021 36.4982 55.2671C36.3579 55.1762 36.1718 55.0409 35.935 54.8487L35.9072 54.8261L35.8779 54.8056C35.3769 54.4553 34.924 54.1731 34.5267 53.9747C34.0867 53.7549 33.6235 53.6183 33.1423 53.5839L32.8176 53.5608L32.5415 53.7332L31.9651 54.0931L31.4946 54.3867V54.9413C31.4946 56.2524 32.3073 57.1959 33.4713 57.8063ZM5.86108 23.5583C5.86108 21.6472 5.81267 19.3314 5.71635 16.613L6.29021 39.8175C6.00324 36.2103 5.86108 33.1917 5.86108 30.7562V23.5583Z" fill="#212121" stroke="#212121" stroke-width="2"/>
</svg>
