<svg width="15" height="8" viewBox="0 0 15 8" fill="none" xmlns="http://www.w3.org/2000/svg">
<path d="M7.06761 7.53246C6.83174 7.53292 6.60316 7.45077 6.42155 7.30028L0.364676 2.25288C0.158524 2.08154 0.0288824 1.83531 0.00427161 1.56838C-0.0203392 1.30145 0.0620967 1.03567 0.233444 0.82952C0.404791 0.623367 0.651015 0.493726 0.917947 0.469115C1.18488 0.444505 1.45066 0.52694 1.65681 0.698287L7.06761 5.22075L12.4784 0.859805C12.5817 0.775951 12.7005 0.713332 12.828 0.675545C12.9556 0.637759 13.0893 0.62555 13.2216 0.639622C13.3538 0.653693 13.482 0.693766 13.5988 0.757539C13.7155 0.821311 13.8185 0.907526 13.9018 1.01123C13.9942 1.11502 14.0642 1.23679 14.1074 1.36891C14.1506 1.50102 14.1661 1.64063 14.1528 1.77899C14.1396 1.91736 14.0979 2.05149 14.0303 2.17299C13.9628 2.29448 13.8709 2.40073 13.7605 2.48506L7.70358 7.36084C7.51674 7.48755 7.29283 7.54797 7.06761 7.53246Z" fill="#212121"/>
</svg>
