<svg width="47" height="46" viewBox="0 0 47 46" fill="none" xmlns="http://www.w3.org/2000/svg">
<g filter="url(#filter0_d_788_15407)">
<circle cx="15" cy="15" r="15" transform="matrix(-1 0 0 1 38.0522 8)" fill="white"/>
</g>
<path d="M14.8264 23.7071C14.4359 23.3166 14.4359 22.6834 14.8264 22.2929L21.1904 15.9289C21.5809 15.5384 22.2141 15.5384 22.6046 15.9289C22.9951 16.3195 22.9951 16.9526 22.6046 17.3431L16.9477 23L22.6046 28.6569C22.9951 29.0474 22.9951 29.6805 22.6046 30.0711C22.2141 30.4616 21.5809 30.4616 21.1904 30.0711L14.8264 23.7071ZM30.5522 24H15.5335V22H30.5522V24Z" fill="#9BC352"/>
<defs>
<filter id="filter0_d_788_15407" x="0.0522461" y="0" width="46" height="46" filterUnits="userSpaceOnUse" color-interpolation-filters="sRGB">
<feFlood flood-opacity="0" result="BackgroundImageFix"/>
<feColorMatrix in="SourceAlpha" type="matrix" values="0 0 0 0 0 0 0 0 0 0 0 0 0 0 0 0 0 0 127 0" result="hardAlpha"/>
<feOffset/>
<feGaussianBlur stdDeviation="4"/>
<feComposite in2="hardAlpha" operator="out"/>
<feColorMatrix type="matrix" values="0 0 0 0 0 0 0 0 0 0 0 0 0 0 0 0 0 0 0.13 0"/>
<feBlend mode="normal" in2="BackgroundImageFix" result="effect1_dropShadow_788_15407"/>
<feBlend mode="normal" in="SourceGraphic" in2="effect1_dropShadow_788_15407" result="shape"/>
</filter>
</defs>
</svg>
