<svg width="26" height="25" viewBox="0 0 26 25" fill="none" xmlns="http://www.w3.org/2000/svg">
<circle cx="12.6575" cy="12.5" r="12.5" fill="#212121"/>
<path d="M12.7398 9.2169C13.5397 9.35096 14.2663 9.72878 14.8464 10.3077C15.4265 10.8866 15.802 11.6118 15.9394 12.41M12.8619 6.59961C14.2846 6.84031 15.5822 7.51368 16.6142 8.54048C17.6461 9.57033 18.3178 10.8653 18.559 12.2851M17.4477 17.9341C17.4477 17.9341 16.6752 18.6927 16.4859 18.9152C16.1776 19.2442 15.8142 19.3996 15.338 19.3996C15.2922 19.3996 15.2433 19.3996 15.1975 19.3966C14.2907 19.3387 13.4481 18.9852 12.8161 18.6836C11.088 17.8487 9.57059 16.6635 8.30965 15.1614C7.26853 13.9091 6.57241 12.7513 6.11139 11.5082C5.82745 10.7495 5.72364 10.1584 5.76944 9.6008C5.79997 9.24431 5.93736 8.94876 6.19077 8.69587L7.23189 7.65688C7.38149 7.51672 7.54026 7.44055 7.69597 7.44055C7.88831 7.44055 8.04402 7.55633 8.14172 7.65383C8.14478 7.65688 8.14783 7.65993 8.15088 7.66297C8.33712 7.83665 8.51421 8.01641 8.70045 8.20837C8.79509 8.30587 8.89279 8.40337 8.99049 8.50392L9.824 9.33572C10.1476 9.65869 10.1476 9.95728 9.824 10.2803C9.73546 10.3686 9.64997 10.457 9.56143 10.5423C9.30497 10.8043 9.50643 10.6033 9.24081 10.8409C9.2347 10.847 9.2286 10.8501 9.22555 10.8562C8.96298 11.1182 9.01183 11.3741 9.06678 11.5478C9.06984 11.5569 9.07289 11.5661 9.07594 11.5752C9.29271 12.0993 9.59803 12.5929 10.0621 13.1809L10.0652 13.184C10.9078 14.2199 11.7963 15.0274 12.7763 15.6459C12.9015 15.7251 13.0297 15.7891 13.1519 15.85C13.2618 15.9049 13.3656 15.9567 13.4541 16.0115C13.4663 16.0176 13.4786 16.0267 13.4908 16.0328C13.5946 16.0846 13.6923 16.109 13.793 16.109C14.0464 16.109 14.2052 15.9506 14.2571 15.8988L14.8556 15.3015C14.9594 15.1979 15.1242 15.073 15.3166 15.073C15.5059 15.073 15.6616 15.1918 15.7562 15.2954C15.7593 15.2985 15.7593 15.2985 15.7623 15.3015L17.4446 16.9804C17.7591 17.2912 17.4477 17.9341 17.4477 17.9341Z" stroke="white" stroke-width="1.5" stroke-linecap="round" stroke-linejoin="round"/>
</svg>
