<svg width="26" height="25" viewBox="0 0 26 25" fill="none" xmlns="http://www.w3.org/2000/svg">
<circle cx="12.6575" cy="12.5" r="12.5" fill="#212121"/>
<path fill-rule="evenodd" clip-rule="evenodd" d="M12.6574 4.1665C10.3942 4.1665 10.1104 4.1761 9.22161 4.21665C8.33462 4.25711 7.72884 4.39799 7.19878 4.60401C6.65079 4.81694 6.18606 5.10189 5.72275 5.56516C5.25948 6.02847 4.97453 6.4932 4.7616 7.04119C4.55559 7.57125 4.4147 8.17703 4.37424 9.06401C4.33369 9.95285 4.3241 10.2366 4.3241 12.4999C4.3241 14.763 4.33369 15.0468 4.37424 15.9357C4.4147 16.8226 4.55559 17.4284 4.7616 17.9585C4.97453 18.5065 5.25948 18.9712 5.72275 19.4345C6.18606 19.8978 6.65079 20.1827 7.19878 20.3957C7.72884 20.6017 8.33462 20.7426 9.22161 20.783C10.1104 20.8236 10.3942 20.8332 12.6574 20.8332C14.9206 20.8332 15.2044 20.8236 16.0933 20.783C16.9802 20.7426 17.586 20.6017 18.1161 20.3957C18.6641 20.1827 19.1288 19.8978 19.5921 19.4345C20.0554 18.9712 20.3403 18.5065 20.5533 17.9585C20.7593 17.4284 20.9002 16.8226 20.9406 15.9357C20.9812 15.0468 20.9908 14.763 20.9908 12.4999C20.9908 10.2366 20.9812 9.95285 20.9406 9.06401C20.9002 8.17703 20.7593 7.57125 20.5533 7.04119C20.3403 6.4932 20.0554 6.02847 19.5921 5.56516C19.1288 5.10189 18.6641 4.81694 18.1161 4.60401C17.586 4.39799 16.9802 4.25711 16.0933 4.21665C15.2044 4.1761 14.9206 4.1665 12.6574 4.1665ZM12.6574 5.668C14.8825 5.668 15.1461 5.6765 16.0248 5.7166C16.8373 5.75365 17.2785 5.8894 17.5722 6.00353C17.9612 6.1547 18.2388 6.33528 18.5304 6.6269C18.822 6.9185 19.0026 7.1961 19.1537 7.58508C19.2679 7.87872 19.4036 8.31996 19.4407 9.13246C19.4808 10.0112 19.4893 10.2747 19.4893 12.4999C19.4893 14.7249 19.4808 14.9885 19.4407 15.8672C19.4036 16.6797 19.2679 17.121 19.1537 17.4146C19.0026 17.8036 18.822 18.0812 18.5304 18.3728C18.2388 18.6644 17.9612 18.845 17.5722 18.9961C17.2785 19.1103 16.8373 19.246 16.0248 19.2831C15.1462 19.3232 14.8827 19.3317 12.6574 19.3317C10.4322 19.3317 10.1687 19.3232 9.29005 19.2831C8.47756 19.246 8.03631 19.1103 7.74267 18.9961C7.35369 18.845 7.07609 18.6644 6.7845 18.3728C6.4929 18.0812 6.31229 17.8036 6.16112 17.4146C6.047 17.121 5.91124 16.6797 5.87419 15.8672C5.8341 14.9885 5.8256 14.7249 5.8256 12.4999C5.8256 10.2747 5.8341 10.0112 5.87419 9.13246C5.91124 8.31996 6.047 7.87872 6.16112 7.58508C6.31229 7.1961 6.49287 6.9185 6.7845 6.6269C7.07609 6.33528 7.35369 6.1547 7.74267 6.00353C8.03631 5.8894 8.47756 5.75365 9.29005 5.7166C10.1688 5.6765 10.4323 5.668 12.6574 5.668V5.668Z" fill="white"/>
<path fill-rule="evenodd" clip-rule="evenodd" d="M12.6575 15.2778C11.1233 15.2778 9.87967 14.0341 9.87967 12.5C9.87967 10.9658 11.1233 9.7222 12.6575 9.7222C14.1916 9.7222 15.4352 10.9658 15.4352 12.5C15.4352 14.0341 14.1916 15.2778 12.6575 15.2778ZM12.6575 8.2207C10.2941 8.2207 8.37817 10.1366 8.37817 12.5C8.37817 14.8634 10.2941 16.7793 12.6575 16.7793C15.0208 16.7793 16.9367 14.8634 16.9367 12.5C16.9367 10.1366 15.0208 8.2207 12.6575 8.2207V8.2207Z" fill="white"/>
<path fill-rule="evenodd" clip-rule="evenodd" d="M18.1058 8.05129C18.1058 8.60358 17.6581 9.05127 17.1058 9.05127C16.5536 9.05127 16.1058 8.60358 16.1058 8.05129C16.1058 7.499 16.5536 7.05127 17.1058 7.05127C17.6581 7.05127 18.1058 7.499 18.1058 8.05129" fill="white"/>
</svg>
