<svg width="34" height="27" viewBox="0 0 34 27" fill="none" xmlns="http://www.w3.org/2000/svg">
<path d="M24.2293 6.67924C24.3486 6.68664 24.3339 6.83309 24.2152 6.84598C10.3497 8.351 5.77292 17.3684 1.46985 24.9203C1.44165 24.9698 1.46062 25.0324 1.51129 25.0585L4.1712 26.4239C4.2185 26.4482 4.27652 26.4312 4.30328 26.3853L6.2088 23.1147C6.23565 23.0687 6.29391 23.0518 6.34142 23.076C7.03598 23.4304 7.75934 23.7239 8.30502 23.7992C24.0256 25.9688 32.4371 4.6174 33.8801 0.582485C33.9189 0.473838 33.7226 0.358563 33.6325 0.430641C30.7361 2.7476 20.4944 1.78252 12.8871 2.2468C4.78111 2.74151 0.697453 9.03502 0.260428 12.2016C-0.124656 14.9918 1.67607 17.7705 2.10955 18.3916C2.15177 18.4521 2.24208 18.4411 2.27618 18.3757C8.42878 6.57299 20.8061 6.46695 24.2293 6.67924Z" fill="#9BC352"/>
</svg>
