<svg width="26" height="25" viewBox="0 0 26 25" fill="none" xmlns="http://www.w3.org/2000/svg">
<circle cx="12.6575" cy="12.5" r="12.5" fill="#212121"/>
<path d="M6.65747 11.1061C6.65747 13.236 6.65747 16.56 6.65747 16.56C6.65747 16.56 6.65747 16.56 6.65747 16.56C6.65747 17.3884 7.32904 18.06 8.15747 18.06H17.1575C17.9859 18.06 18.6575 17.3884 18.6575 16.56V10.7541M6.65747 11.1061C6.65747 10.8475 6.79069 10.6072 7.00997 10.4701L12.6575 6.94043L18.2752 10.1004C18.5113 10.2332 18.6575 10.4831 18.6575 10.7541M6.65747 11.1061C6.95747 11.1061 12.6575 14.8154 12.6575 14.8154L18.6575 10.7541" stroke="white" stroke-width="1.5" stroke-linecap="round" stroke-linejoin="round"/>
</svg>
