<svg width="21" height="20" viewBox="0 0 21 20" fill="none" xmlns="http://www.w3.org/2000/svg">
<path d="M19.499 4.63374C16.5087 -0.00189593 10.3851 -1.37542 5.64932 1.50039C1.02799 4.3762 -0.459988 10.6429 2.53028 15.2642L2.77351 15.6362L1.77198 19.3848L5.52055 18.3833L5.89254 18.6265C7.50929 19.4992 9.26912 20 11.0146 20C12.8889 20 14.7632 19.4992 16.3799 18.4977C21.0013 15.4931 22.3748 9.35521 19.499 4.60512V4.63374ZM16.8807 14.277C16.3799 15.021 15.7504 15.5217 14.8777 15.6505C14.3769 15.6505 13.7474 15.8937 11.2579 14.9065C9.14035 13.905 7.38053 12.2739 6.13577 10.3997C5.39178 9.52691 5.00548 8.39661 4.89102 7.26632C4.89102 6.26479 5.26301 5.39203 5.89254 4.7625C6.13577 4.51928 6.39331 4.39051 6.63654 4.39051H7.26607C7.50929 4.39051 7.76683 4.39051 7.8956 4.89127C8.13882 5.5208 8.76835 7.02309 8.76835 7.15186C8.89712 7.28063 8.83989 8.23923 8.26759 8.78291C7.95283 9.1406 7.8956 9.15491 8.02436 9.41244C8.52513 10.1564 9.15466 10.9147 9.76988 11.5443C10.5139 12.1738 11.2722 12.6746 12.1449 13.0466C12.3882 13.1753 12.6457 13.1753 12.7745 12.9178C12.9032 12.6746 13.5184 12.045 13.776 11.7875C14.0192 11.5443 14.148 11.5443 14.4055 11.6587L16.4086 12.6602C16.6518 12.789 16.9093 12.9035 17.0381 13.0322C17.1669 13.4042 17.1669 13.905 16.9093 14.277H16.8807Z" fill="white"/>
</svg>
