<svg width="55" height="56" viewBox="0 0 55 56" fill="none" xmlns="http://www.w3.org/2000/svg">
<path d="M27.5 0.795898C22.061 0.795898 16.7442 2.40875 12.2218 5.43048C7.69948 8.45222 4.17473 12.7471 2.09332 17.7721C0.0119153 22.7971 -0.532676 28.3264 0.528417 33.6609C1.58951 38.9953 4.20863 43.8954 8.05457 47.7413C11.9005 51.5873 16.8005 54.2064 22.135 55.2675C27.4695 56.3286 32.9988 55.784 38.0238 53.7026C43.0488 51.6212 47.3437 48.0964 50.3654 43.5741C53.3872 39.0517 55 33.7349 55 28.2959C55 21.0024 52.1027 14.0077 46.9454 8.85046C41.7882 3.69321 34.7935 0.795898 27.5 0.795898ZM42.128 30.0529C42.128 30.0535 42.1277 30.0541 42.1272 30.0544L18.5566 41.8396C18.2571 41.9893 17.9242 42.0599 17.5897 42.0448C17.2552 42.0296 16.9301 41.9292 16.6453 41.7531C16.3605 41.5769 16.1255 41.3309 15.9625 41.0384C15.7996 40.7458 15.7141 40.4165 15.7143 40.0816V16.5102C15.7145 16.1755 15.8002 15.8464 15.9633 15.5541C16.1263 15.2618 16.3614 15.0161 16.6461 14.8402C16.9309 14.6642 17.2558 14.564 17.5902 14.5489C17.9246 14.5339 18.2572 14.6045 18.5566 14.7541L42.128 26.5398C42.4539 26.7031 42.7279 26.9539 42.9193 27.264C43.1108 27.5741 43.2122 27.9314 43.2122 28.2959C43.2122 28.6604 43.1108 29.0177 42.9193 29.3278C42.728 29.6376 42.4544 29.8882 42.1289 30.0515C42.1284 30.0518 42.128 30.0523 42.128 30.0529Z" fill="#283760" fill-opacity="0.55"/>
</svg>
