<svg width="60" height="60" viewBox="0 0 60 60" fill="none" xmlns="http://www.w3.org/2000/svg">
<path d="M54.5887 28.5131C55.2442 26.7136 55.3263 24.7551 54.8236 22.9069C54.321 21.0588 53.2583 19.4119 51.7818 18.1926V10.291H58.5967C58.8338 10.2903 59.0609 10.1956 59.2283 10.0276C59.3957 9.85967 59.4897 9.63218 59.4897 9.39501C59.4842 7.11472 58.5757 4.92953 56.9632 3.31785C55.3507 1.70618 53.1656 0.799347 50.8862 0.795898L9.14282 0.795898C6.86118 0.795892 4.67268 1.7012 3.05735 3.31325C1.44203 4.9253 0.531776 7.11246 0.526245 9.39501L0.526245 58.8895C0.526245 59.1264 0.620328 59.3537 0.787796 59.5212C0.955264 59.6887 1.1824 59.7829 1.41924 59.7829H50.8862C51.1233 59.7829 51.3507 59.6888 51.5186 59.5214C51.6864 59.3539 51.7811 59.1267 51.7818 58.8895V36.6577L52.8811 37.7627C53.6082 38.4901 54.5944 38.8987 55.6227 38.8987C56.651 38.8987 57.6372 38.4901 58.3643 37.7627C59.0915 37.0353 59.5 36.0487 59.5 35.0199C59.5 33.9912 59.0915 33.0046 58.3643 32.2772L54.5887 28.5131ZM53.3772 25.3316C53.3258 27.2718 52.5192 29.1154 51.1293 30.4696C49.7393 31.8237 47.8758 32.5815 45.9356 32.5815C43.9954 32.5815 42.1319 31.8237 40.7419 30.4696C39.3519 29.1154 38.5454 27.2718 38.494 25.3316C38.5454 23.3913 39.3519 21.5478 40.7419 20.1936C42.1319 18.8394 43.9954 18.0816 45.9356 18.0816C47.8758 18.0816 49.7393 18.8394 51.1293 20.1936C52.5192 21.5478 53.3258 23.3913 53.3772 25.3316ZM38.0736 32.9877C37.8365 32.9877 37.6091 33.0817 37.4413 33.2492C37.2734 33.4167 37.1787 33.6439 37.178 33.8811V51.1211H33.0003V39.3143C33.0024 39.078 32.9111 38.8504 32.7463 38.6812C32.5815 38.5119 32.3565 38.4146 32.1203 38.4105H26.1592C25.9222 38.4112 25.695 38.5059 25.5276 38.6738C25.3603 38.8418 25.2663 39.0693 25.2663 39.3064V51.1132H21.0885V45.2777C21.0885 45.0408 20.9944 44.8136 20.827 44.6461C20.6595 44.4785 20.4324 44.3844 20.1955 44.3844H14.2449C14.008 44.3844 13.7809 44.4785 13.6134 44.6461C13.446 44.8136 13.3519 45.0408 13.3519 45.2777V51.1237H9.17415V39.6904L16.6445 32.3347L20.5271 34.4583C20.6965 34.5516 20.8917 34.5871 21.083 34.5593C21.2744 34.5314 21.4514 34.4419 21.5872 34.3042L27.2115 28.6829L32.9559 31.1122C33.1298 31.1851 33.3223 31.2014 33.506 31.1587C33.6898 31.116 33.8554 31.0166 33.9794 30.8745L36.9535 27.4396C37.321 28.9919 38.0832 30.4229 39.166 31.594C40.2488 32.7651 41.6155 33.6365 43.1339 34.124V51.1237H38.9562V33.8837C38.9569 33.6481 38.8645 33.4218 38.6992 33.254C38.5339 33.0862 38.3091 32.9905 38.0736 32.9877ZM31.2221 40.2102V51.1237H27.0444V40.2102H31.2221ZM19.3078 46.1711V51.1341H15.1483V46.1711H19.3078ZM50.8862 2.58259C52.5381 2.58424 54.1333 3.18491 55.3764 4.27328C56.6194 5.36165 57.4258 6.86391 57.6463 8.50166H17.6889C17.5659 7.3409 17.2077 6.2174 16.6362 5.19973C16.0647 4.18206 15.2919 3.29156 14.365 2.58259H50.8862ZM49.9932 58.0014H2.31223V9.39501C2.31223 7.58616 3.0305 5.85141 4.30904 4.57236C5.58757 3.29331 7.32164 2.57475 9.12976 2.57475C10.9379 2.57475 12.672 3.29331 13.9505 4.57236C15.229 5.85141 15.9473 7.58616 15.9473 9.39501C15.948 9.63242 16.0426 9.85991 16.2104 10.0278C16.3782 10.1957 16.6056 10.2903 16.8429 10.291H50.0037V17.0511C48.6234 16.3875 47.1004 16.0763 45.5705 16.1453C44.0407 16.2144 42.5519 16.6615 41.237 17.4468C39.9221 18.232 38.8222 19.331 38.0355 20.6453C37.2488 21.9597 36.7999 23.4486 36.7289 24.9789L33.0734 29.2132L27.3812 26.8022C27.2171 26.7334 27.0362 26.7148 26.8615 26.7487C26.6867 26.7827 26.526 26.8676 26.3995 26.9929L20.8065 32.5698L16.9265 30.4461C16.7592 30.3572 16.5681 30.3235 16.3805 30.3498C16.1929 30.376 16.0185 30.461 15.882 30.5924L9.18198 37.1828V16.2675C9.18198 16.0306 9.0879 15.8033 8.92043 15.6358C8.75296 15.4683 8.52583 15.3742 8.28899 15.3742C8.05216 15.3742 7.82502 15.4683 7.65755 15.6358C7.49009 15.8033 7.396 16.0306 7.396 16.2675V52.017C7.396 52.2542 7.49 52.4817 7.6574 52.6496C7.82479 52.8176 8.05192 52.9123 8.28899 52.913H44.0295C44.2652 52.9102 44.4903 52.8146 44.656 52.6469C44.8217 52.4792 44.9147 52.2528 44.9147 52.017V34.5158C46.3332 34.6757 47.7695 34.4967 49.1054 33.9934L49.9854 34.8737L49.9932 58.0014ZM57.0927 36.501C56.7013 36.891 56.1713 37.11 55.6188 37.11C55.0663 37.11 54.5363 36.891 54.1448 36.501L50.8105 33.1601C52.0031 32.4124 53.011 31.4041 53.7584 30.211L57.0927 33.5467C57.4826 33.9383 57.7015 34.4685 57.7015 35.0212C57.7015 35.574 57.4826 36.1041 57.0927 36.4958V36.501ZM46.826 21.1705C46.8253 21.4069 46.7309 21.6335 46.5635 21.8005C46.3961 21.9674 46.1694 22.0612 45.933 22.0612C45.0641 22.0619 44.231 22.4075 43.6166 23.0221C43.0022 23.6368 42.6568 24.4702 42.6561 25.3394C42.6561 25.5763 42.562 25.8036 42.3945 25.9711C42.227 26.1386 41.9999 26.2328 41.7631 26.2328C41.5262 26.2328 41.2991 26.1386 41.1316 25.9711C40.9642 25.8036 40.8701 25.5763 40.8701 25.3394C40.8694 23.9952 41.4023 22.7057 42.3517 21.7544C43.3011 20.8032 44.5893 20.268 45.933 20.2667C46.051 20.267 46.1679 20.2907 46.2767 20.3364C46.3856 20.382 46.4844 20.4488 46.5674 20.5328C46.6503 20.6168 46.7159 20.7164 46.7603 20.8258C46.8047 20.9352 46.827 21.0524 46.826 21.1705ZM24.9477 16.2675C24.9477 16.1491 24.9712 16.0318 25.0169 15.9226C25.0626 15.8133 25.1295 15.7143 25.2139 15.6312C25.2982 15.548 25.3981 15.4825 25.508 15.4384C25.6179 15.3943 25.7354 15.3724 25.8537 15.3742H33.875C34.1118 15.3742 34.339 15.4683 34.5064 15.6358C34.6739 15.8033 34.768 16.0306 34.768 16.2675C34.768 16.5044 34.6739 16.7317 34.5064 16.8992C34.339 17.0667 34.1118 17.1609 33.875 17.1609H25.8537C25.7354 17.1626 25.6179 17.1408 25.508 17.0966C25.3981 17.0525 25.2982 16.987 25.2139 16.9039C25.1295 16.8207 25.0626 16.7217 25.0169 16.6124C24.9712 16.5032 24.9477 16.3859 24.9477 16.2675ZM13.3519 16.2675C13.3519 16.0306 13.446 15.8033 13.6134 15.6358C13.7809 15.4683 14.008 15.3742 14.2449 15.3742H21.0781C21.3149 15.3742 21.542 15.4683 21.7095 15.6358C21.877 15.8033 21.9711 16.0306 21.9711 16.2675C21.9711 16.5044 21.877 16.7317 21.7095 16.8992C21.542 17.0667 21.3149 17.1609 21.0781 17.1609H14.2449C14.008 17.1609 13.7809 17.0667 13.6134 16.8992C13.446 16.7317 13.3519 16.5044 13.3519 16.2675ZM13.3519 22.2258C13.3519 21.9888 13.446 21.7616 13.6134 21.5941C13.7809 21.4265 14.008 21.3324 14.2449 21.3324H27.9087C28.1455 21.3324 28.3726 21.4265 28.5401 21.5941C28.7076 21.7616 28.8017 21.9888 28.8017 22.2258C28.8017 22.4627 28.7076 22.6899 28.5401 22.8574C28.3726 23.025 28.1455 23.1191 27.9087 23.1191H14.2449C14.1267 23.1191 14.0097 23.0957 13.9007 23.0501C13.7917 23.0046 13.6928 22.9378 13.6097 22.8538C13.5267 22.7697 13.4611 22.67 13.4168 22.5604C13.3726 22.4508 13.3505 22.3335 13.3519 22.2153V22.2258Z" fill="#212121"/>
</svg>
