<svg width="97" height="97" viewBox="0 0 97 97" fill="none" xmlns="http://www.w3.org/2000/svg">
<path d="M67.5135 8.12257V43.0826H66.5935L52.7935 45.2292V66.6959C52.7935 75.2826 57.7001 86.3226 65.0601 91.5359C65.3668 91.8426 65.6735 91.8426 65.6735 92.1492C64.7535 93.3759 63.2201 93.9892 61.3801 93.9892H8.32679C5.26012 93.9892 2.50012 91.2292 2.50012 88.1626V8.42923C2.50012 5.0559 4.95346 2.2959 8.32679 2.2959H61.6868C64.7535 2.2959 67.5135 5.0559 67.5135 8.12257Z" stroke="#212121" stroke-width="4.5" stroke-miterlimit="10" stroke-linecap="round" stroke-linejoin="round"/>
<path d="M11.0869 14.8691H29.4869" stroke="#212121" stroke-width="4.5" stroke-miterlimit="10" stroke-linecap="round" stroke-linejoin="round"/>
<path d="M11.0869 28.0557H43.9002" stroke="#212121" stroke-width="4.5" stroke-miterlimit="10" stroke-linecap="round" stroke-linejoin="round"/>
<path d="M11.0869 41.2422H43.9002" stroke="#212121" stroke-width="4.5" stroke-miterlimit="10" stroke-linecap="round" stroke-linejoin="round"/>
<path d="M44.2069 54.4297H11.0869" stroke="#212121" stroke-width="4.5" stroke-miterlimit="10" stroke-linecap="round" stroke-linejoin="round"/>
<path d="M44.2069 67.6162H11.0869" stroke="#212121" stroke-width="4.5" stroke-miterlimit="10" stroke-linecap="round" stroke-linejoin="round"/>
<path d="M10.4735 80.8027H44.2068" stroke="#212121" stroke-width="4.5" stroke-miterlimit="10" stroke-linecap="round" stroke-linejoin="round"/>
<path d="M94.5 45.2288V66.6954C94.5 78.3488 84.9933 94.2954 73.6467 94.2954C70.58 94.2954 67.82 93.0688 65.06 91.2288C57.7 86.0154 52.7933 75.2821 52.7933 66.3888V45.2288L66.2867 43.0821L73.0333 42.1621L94.5 45.2288Z" stroke="#212121" stroke-width="4.5" stroke-miterlimit="10" stroke-linecap="round" stroke-linejoin="round"/>
<path d="M64.7535 70.6824L69.0469 74.9758L82.5402 61.4824" stroke="#212121" stroke-width="4.5" stroke-miterlimit="10" stroke-linecap="round" stroke-linejoin="round"/>
</svg>
