<svg width="85" height="65" viewBox="0 0 85 65" fill="none" xmlns="http://www.w3.org/2000/svg">
<path d="M47.5759 58.6313C43.8416 57.6307 41.6256 53.7924 42.6262 50.0581L45.8367 38.0764C47.7131 31.0734 50.6873 24.9533 54.7594 19.716C57.8294 15.7675 61.8927 12.0433 66.9494 8.54338C69.876 6.51778 73.8673 7.38069 76.0069 10.225C78.5131 13.5568 77.5671 18.3327 74.2426 20.8487C71.7193 22.7583 69.6522 24.6708 68.0412 26.5862C66.1207 28.8695 64.5809 31.3905 63.4216 34.1491C62.7864 35.6607 60.6146 35.9632 59.7429 34.5746C58.8355 33.1293 60.1707 31.3208 61.8192 31.7625L71.8013 34.4372C74.968 35.2857 76.8472 38.5407 75.9987 41.7073L71.6755 57.8419C70.6749 61.5761 66.8365 63.7922 63.1023 62.7916L47.5759 58.6313Z" fill="white"/>
<path d="M6.76145 58.6313C3.02718 57.6307 0.811112 53.7924 1.8117 50.0581L5.0222 38.0764C6.89864 31.0734 9.87288 24.9533 13.9449 19.716C17.0149 15.7675 21.0783 12.0433 26.1349 8.54338C29.0615 6.51778 33.0528 7.38069 35.1924 10.225C37.6986 13.5568 36.7526 18.3327 33.4282 20.8487C30.9049 22.7583 28.8377 24.6708 27.2267 26.5862C25.3063 28.8695 23.7664 31.3905 22.6071 34.1491C21.9719 35.6607 19.8002 35.9632 18.9284 34.5746C18.021 33.1293 19.3563 31.3208 21.0047 31.7625L30.9869 34.4372C34.1535 35.2857 36.0328 38.5407 35.1843 41.7073L30.861 57.8419C29.8604 61.5761 26.0221 63.7922 22.2878 62.7916L6.76145 58.6313Z" fill="white"/>
</svg>
