<svg width="26" height="28" viewBox="0 0 26 28" fill="none" xmlns="http://www.w3.org/2000/svg">
<path d="M25.7465 12.0441L20.5961 8.67312C20.5558 8.64709 20.5114 8.63722 20.4681 8.62267V7.46005C20.4681 7.14959 20.2207 6.89815 19.9148 6.89815H17.8607L13.57 4.17449C13.3907 4.06033 13.1627 4.06033 12.9833 4.17449L8.69256 6.89815H6.08518C5.77949 6.89815 5.53192 7.14943 5.53192 7.46005V8.62235C5.48862 8.6369 5.44404 8.64693 5.40392 8.67312L0.253463 12.0441C0.0956854 12.1477 0 12.3256 0 12.5164V27.1241C0 27.4346 0.247413 27.686 0.553256 27.686H25.4467C25.7524 27.686 26 27.4348 26 27.1241V12.5165C26 12.3256 25.9043 12.1479 25.7465 12.0441ZM13.2767 5.31366L15.7733 6.89815H10.7801L13.2767 5.31366ZM6.63843 8.0218H19.3617V20.6631C19.3617 20.6647 19.3627 20.666 19.3627 20.6678L17.4913 21.8219L12.9882 19.3273C12.8203 19.2352 12.616 19.2356 12.4491 19.3328L8.33991 21.7177L6.63764 20.668C6.63764 20.6663 6.63859 20.6651 6.63859 20.6634L6.63843 8.0218ZM1.10651 12.8226L5.53192 9.92661V19.9862L1.10651 17.2571V12.8226ZM1.10651 18.5712L7.242 22.3545L1.10651 25.9154V18.5712ZM2.2213 26.5625L12.73 20.4641L23.7386 26.5625H2.2213ZM24.8936 25.9224L18.6138 22.4436L24.8936 18.5711V25.9224ZM24.8936 17.2571L20.4681 19.9861V9.92661L24.8936 12.8228V17.2571Z" fill="#212121"/>
<path d="M8.85111 13.6403H15.4894C15.7951 13.6403 16.0426 13.389 16.0426 13.0784V9.70741C16.0426 9.39695 15.7952 9.14551 15.4894 9.14551H8.85111C8.54542 9.14551 8.29785 9.39679 8.29785 9.70741V13.0784C8.29785 13.389 8.54542 13.6403 8.85111 13.6403ZM9.4042 10.2692H14.9361V12.5165H9.4042V10.2692Z" fill="#212121"/>
<path d="M17.1488 14.7627H8.29785V15.8863H17.1488V14.7627Z" fill="#212121"/>
<path d="M17.1488 17.0117H8.29785V18.1354H17.1488V17.0117Z" fill="#212121"/>
<path d="M23.2337 7.45943C23.3753 7.45943 23.5168 7.40461 23.6249 7.29482L25.5805 5.30867C25.7965 5.08924 25.7965 4.73367 25.5805 4.51424C25.3644 4.29465 25.0143 4.29481 24.7983 4.51424L22.8427 6.50039C22.6267 6.71982 22.6267 7.07539 22.8427 7.29482C22.9506 7.40461 23.0922 7.45943 23.2337 7.45943Z" fill="#212121"/>
<path d="M2.37592 7.29574C2.48402 7.40553 2.62556 7.46035 2.7671 7.46035C2.90863 7.46035 3.05017 7.40553 3.15828 7.29574C3.37432 7.07631 3.37432 6.72073 3.15828 6.50131L1.20254 4.51516C0.986489 4.29573 0.636385 4.29573 0.420337 4.51516C0.204289 4.73458 0.204289 5.09016 0.420337 5.30958L2.37592 7.29574Z" fill="#212121"/>
<path d="M18.6035 4.61077C18.6705 4.63826 18.7402 4.65071 18.8087 4.65071C19.0281 4.65071 19.236 4.51731 19.3225 4.2974L20.4288 1.48819C20.5423 1.20021 20.404 0.873091 20.1204 0.757961C19.8396 0.643316 19.5148 0.782054 19.4014 1.07117L18.2951 3.88037C18.1816 4.16852 18.3198 4.49564 18.6035 4.61077Z" fill="#212121"/>
<path d="M7.23149 4.29746C7.31794 4.51753 7.52587 4.65077 7.74526 4.65077C7.81388 4.65077 7.88362 4.63816 7.95049 4.61067C8.23404 4.49538 8.37239 4.16843 8.25888 3.88044L7.15252 1.07124C7.03901 0.782121 6.71501 0.643221 6.43353 0.758028C6.14997 0.873319 6.01162 1.20027 6.12514 1.48826L7.23149 4.29746Z" fill="#212121"/>
</svg>
