<svg width="24" height="22" viewBox="0 0 24 22" fill="none" xmlns="http://www.w3.org/2000/svg">
<path fill-rule="evenodd" clip-rule="evenodd" d="M24 7.85714C24 7.44037 23.842 7.04068 23.5607 6.74598C23.2794 6.45128 22.8978 6.28571 22.5 6.28571H7.038C6.64018 6.28571 6.25864 6.45128 5.97734 6.74598C5.69604 7.04068 5.538 7.44037 5.538 7.85714C5.538 8.27391 5.69604 8.67361 5.97734 8.96831C6.25864 9.26301 6.64018 9.42857 7.038 9.42857H22.5C22.8978 9.42857 23.2794 9.26301 23.5607 8.96831C23.842 8.67361 24 8.27391 24 7.85714ZM24 1.57143C24 1.15466 23.842 0.754961 23.5607 0.460261C23.2794 0.165561 22.8978 0 22.5 0H1.5C1.10217 0 0.720644 0.165561 0.439339 0.460261C0.158033 0.754961 0 1.15466 0 1.57143C0 1.9882 0.158033 2.3879 0.439339 2.6826C0.720644 2.9773 1.10217 3.14286 1.5 3.14286H22.5C22.8978 3.14286 23.2794 2.9773 23.5607 2.6826C23.842 2.3879 24 1.9882 24 1.57143ZM24 14.1429C24 13.7261 23.842 13.3264 23.5607 13.0317C23.2794 12.737 22.8978 12.5714 22.5 12.5714H1.5C1.10217 12.5714 0.720644 12.737 0.439339 13.0317C0.158033 13.3264 0 13.7261 0 14.1429C0 14.5596 0.158033 14.9593 0.439339 15.254C0.720644 15.5487 1.10217 15.7143 1.5 15.7143H22.5C22.8978 15.7143 23.2794 15.5487 23.5607 15.254C23.842 14.9593 24 14.5596 24 14.1429ZM24 20.4286C24 20.0118 23.842 19.6121 23.5607 19.3174C23.2794 19.0227 22.8978 18.8571 22.5 18.8571H7.038C6.64018 18.8571 6.25864 19.0227 5.97734 19.3174C5.69604 19.6121 5.538 20.0118 5.538 20.4286C5.538 20.8453 5.69604 21.245 5.97734 21.5397C6.25864 21.8344 6.64018 22 7.038 22H22.5C22.8978 22 23.2794 21.8344 23.5607 21.5397C23.842 21.245 24 20.8453 24 20.4286Z" fill="#212121"/>
</svg>
