<svg width="117" height="118" viewBox="0 0 117 118" fill="none" xmlns="http://www.w3.org/2000/svg">
<g filter="url(#filter0_dd_784_14992)">
<circle cx="38.5" cy="38.5" r="38.5" transform="matrix(-1 0 0 1 97 12.7959)" fill="white"/>
</g>
<path d="M55.9996 57.3239H61.4542C61.6953 57.3239 61.9265 57.2281 62.097 57.0574C62.2675 56.8868 62.3633 56.6554 62.3633 56.4141V50.9548C62.3633 50.7135 62.2675 50.4821 62.097 50.3114C61.9265 50.1408 61.6953 50.0449 61.4542 50.0449H55.9996C55.7585 50.0449 55.5273 50.1408 55.3568 50.3114C55.1863 50.4821 55.0906 50.7135 55.0906 50.9548V56.4141C55.0906 56.6554 55.1863 56.8868 55.3568 57.0574C55.5273 57.2281 55.7585 57.3239 55.9996 57.3239ZM60.5451 55.5042H56.9087V51.8647H60.5451V55.5042Z" fill="#212121"/>
<path d="M43.6364 57.3239H49.0909C49.332 57.3239 49.5632 57.2281 49.7337 57.0574C49.9042 56.8868 50 56.6554 50 56.4141V50.9548C50 50.7135 49.9042 50.4821 49.7337 50.3114C49.5632 50.1408 49.332 50.0449 49.0909 50.0449H43.6364C43.3953 50.0449 43.164 50.1408 42.9935 50.3114C42.8231 50.4821 42.7273 50.7135 42.7273 50.9548V56.4141C42.7273 56.6554 42.8231 56.8868 42.9935 57.0574C43.164 57.2281 43.3953 57.3239 43.6364 57.3239ZM48.1818 55.5042H44.5455V51.8647H48.1818V55.5042Z" fill="#212121"/>
<path d="M43.6364 66.7882H49.0909C49.332 66.7882 49.5632 66.6827 49.7337 66.495C49.9042 66.3073 50 66.0528 50 65.7873V59.7821C50 59.5167 49.9042 59.2621 49.7337 59.0744C49.5632 58.8867 49.332 58.7812 49.0909 58.7812H43.6364C43.3953 58.7812 43.164 58.8867 42.9935 59.0744C42.8231 59.2621 42.7273 59.5167 42.7273 59.7821V65.7873C42.7273 66.0528 42.8231 66.3073 42.9935 66.495C43.164 66.6827 43.3953 66.7882 43.6364 66.7882ZM48.1818 64.7864H44.5455V60.783H48.1818V64.7864Z" fill="#212121"/>
<path d="M55.9996 66.7882H61.4542C61.6953 66.7882 61.9265 66.6827 62.097 66.495C62.2675 66.3073 62.3633 66.0528 62.3633 65.7873V59.7821C62.3633 59.5167 62.2675 59.2621 62.097 59.0744C61.9265 58.8867 61.6953 58.7812 61.4542 58.7812H55.9996C55.7585 58.7812 55.5273 58.8867 55.3568 59.0744C55.1863 59.2621 55.0906 59.5167 55.0906 59.7821V65.7873C55.0906 66.0528 55.1863 66.3073 55.3568 66.495C55.5273 66.6827 55.7585 66.7882 55.9996 66.7882ZM60.5451 64.7864H56.9087V60.783H60.5451V64.7864Z" fill="#212121"/>
<path d="M68.3629 57.3239H73.8175C74.0586 57.3239 74.2898 57.2281 74.4603 57.0574C74.6308 56.8868 74.7266 56.6554 74.7266 56.4141V50.9548C74.7266 50.7135 74.6308 50.4821 74.4603 50.3114C74.2898 50.1408 74.0586 50.0449 73.8175 50.0449H68.3629C68.1218 50.0449 67.8906 50.1408 67.7201 50.3114C67.5496 50.4821 67.4538 50.7135 67.4538 50.9548V56.4141C67.4538 56.6554 67.5496 56.8868 67.7201 57.0574C67.8906 57.2281 68.1218 57.3239 68.3629 57.3239ZM72.9084 55.5042H69.272V51.8647H72.9084V55.5042Z" fill="#212121"/>
<path d="M68.3629 66.7882H73.8175C74.0586 66.7882 74.2898 66.6827 74.4603 66.495C74.6308 66.3073 74.7266 66.0528 74.7266 65.7873V59.7821C74.7266 59.5167 74.6308 59.2621 74.4603 59.0744C74.2898 58.8867 74.0586 58.7812 73.8175 58.7812H68.3629C68.1218 58.7812 67.8906 58.8867 67.7201 59.0744C67.5496 59.2621 67.4538 59.5167 67.4538 59.7821V65.7873C67.4538 66.0528 67.5496 66.3073 67.7201 66.495C67.8906 66.6827 68.1218 66.7882 68.3629 66.7882ZM72.9084 64.7864H69.272V60.783H72.9084V64.7864Z" fill="#212121"/>
<path d="M40.1091 71.1545H77.3455C78.5799 71.1545 79.7638 70.6601 80.6367 69.78C81.5096 68.8998 82 67.7061 82 66.4615V40.1804C82 38.9357 81.5096 37.742 80.6367 36.8619C79.7638 35.9818 78.5799 35.4873 77.3455 35.4873H73.6218C73.3749 35.4873 73.1381 35.5862 72.9636 35.7622C72.789 35.9382 72.6909 36.177 72.6909 36.4259V38.3031C72.6909 38.801 72.4948 39.2785 72.1456 39.6305C71.7964 39.9826 71.3229 40.1804 70.8291 40.1804C70.3353 40.1804 69.8617 39.9826 69.5126 39.6305C69.1634 39.2785 68.9673 38.801 68.9673 38.3031V36.4259C68.9673 36.177 68.8692 35.9382 68.6946 35.7622C68.52 35.5862 68.2833 35.4873 68.0364 35.4873H61.52C61.2731 35.4873 61.0363 35.5862 60.8617 35.7622C60.6872 35.9382 60.5891 36.177 60.5891 36.4259V38.3031C60.5891 38.801 60.3929 39.2785 60.0438 39.6305C59.6946 39.9826 59.2211 40.1804 58.7273 40.1804C58.2335 40.1804 57.7599 39.9826 57.4108 39.6305C57.0616 39.2785 56.8655 38.801 56.8655 38.3031V36.4259C56.8655 36.177 56.7674 35.9382 56.5928 35.7622C56.4182 35.5862 56.1814 35.4873 55.9345 35.4873H49.4182C49.1713 35.4873 48.9345 35.5862 48.7599 35.7622C48.5854 35.9382 48.4873 36.177 48.4873 36.4259V38.3031C48.4873 38.801 48.2911 39.2785 47.942 39.6305C47.5928 39.9826 47.1192 40.1804 46.6255 40.1804C46.1317 40.1804 45.6581 39.9826 45.3089 39.6305C44.9598 39.2785 44.7636 38.801 44.7636 38.3031V36.4259C44.7636 36.177 44.6656 35.9382 44.491 35.7622C44.3164 35.5862 44.0796 35.4873 43.8327 35.4873H40.1091C38.8746 35.4873 37.6907 35.9818 36.8178 36.8619C35.9449 37.742 35.4545 38.9357 35.4545 40.1804V66.4615C35.4545 67.7061 35.9449 68.8998 36.8178 69.78C37.6907 70.6601 38.8746 71.1545 40.1091 71.1545ZM77.3455 37.3645C78.0861 37.3645 78.7965 37.6612 79.3202 38.1893C79.8439 38.7173 80.1382 39.4336 80.1382 40.1804V66.4615C80.1382 67.2083 79.8439 67.9245 79.3202 68.4526C78.7965 68.9806 78.0861 69.2773 77.3455 69.2773H40.1091C39.3684 69.2773 38.6581 68.9806 38.1343 68.4526C37.6106 67.9245 37.3164 67.2083 37.3164 66.4615V40.1804C37.3164 39.4336 37.6106 38.7173 38.1343 38.1893C38.6581 37.6612 39.3684 37.3645 40.1091 37.3645H42.9018V38.3031C42.9018 39.2989 43.2941 40.2538 43.9924 40.9579C44.6908 41.662 45.6379 42.0576 46.6255 42.0576C47.613 42.0576 48.5601 41.662 49.2585 40.9579C49.9568 40.2538 50.3491 39.2989 50.3491 38.3031V37.3645H55.0036V38.3031C55.0036 39.2989 55.3959 40.2538 56.0943 40.9579C56.7926 41.662 57.7397 42.0576 58.7273 42.0576C59.7148 42.0576 60.662 41.662 61.3603 40.9579C62.0586 40.2538 62.4509 39.2989 62.4509 38.3031V37.3645H67.1055V38.3031C67.1055 39.2989 67.4978 40.2538 68.1961 40.9579C68.8944 41.662 69.8415 42.0576 70.8291 42.0576C71.8167 42.0576 72.7638 41.662 73.4621 40.9579C74.1604 40.2538 74.5527 39.2989 74.5527 38.3031V37.3645H77.3455Z" fill="#212121"/>
<path d="M36.3855 47.132H81.0691C81.316 47.132 81.5528 47.0171 81.7273 46.8125C81.9019 46.6079 82 46.3304 82 46.0411C82 45.7518 81.9019 45.4743 81.7273 45.2697C81.5528 45.0651 81.316 44.9502 81.0691 44.9502H36.3855C36.1386 44.9502 35.9018 45.0651 35.7272 45.2697C35.5526 45.4743 35.4545 45.7518 35.4545 46.0411C35.4545 46.3304 35.5526 46.6079 35.7272 46.8125C35.9018 47.0171 36.1386 47.132 36.3855 47.132Z" fill="#212121"/>
<path d="M58.7269 42.0387C59.6913 42.0387 60.6163 41.6552 61.2982 40.9727C61.9802 40.2901 62.3633 39.3644 62.3633 38.3991V34.7596C62.3633 33.7944 61.9802 32.8686 61.2982 32.1861C60.6163 31.5036 59.6913 31.1201 58.7269 31.1201C57.7625 31.1201 56.8376 31.5036 56.1556 32.1861C55.4737 32.8686 55.0906 33.7944 55.0906 34.7596V38.3991C55.0906 39.3644 55.4737 40.2901 56.1556 40.9727C56.8376 41.6552 57.7625 42.0387 58.7269 42.0387ZM58.7269 32.9399C59.2091 32.9399 59.6716 33.1316 60.0126 33.4729C60.3535 33.8141 60.5451 34.277 60.5451 34.7596V38.3991C60.5451 38.8818 60.3535 39.3446 60.0126 39.6859C59.6716 40.0272 59.2091 40.2189 58.7269 40.2189C58.2447 40.2189 57.7822 40.0272 57.4413 39.6859C57.1003 39.3446 56.9087 38.8818 56.9087 38.3991V34.7596C56.9087 34.277 57.1003 33.8141 57.4413 33.4729C57.7822 33.1316 58.2447 32.9399 58.7269 32.9399Z" fill="#212121"/>
<path d="M46.3636 42.0387C47.3281 42.0387 48.253 41.6552 48.9349 40.9727C49.6169 40.2901 50 39.3644 50 38.3991V34.7596C50 33.7944 49.6169 32.8686 48.9349 32.1861C48.253 31.5036 47.3281 31.1201 46.3636 31.1201C45.3992 31.1201 44.4743 31.5036 43.7923 32.1861C43.1104 32.8686 42.7273 33.7944 42.7273 34.7596V38.3991C42.7273 39.3644 43.1104 40.2901 43.7923 40.9727C44.4743 41.6552 45.3992 42.0387 46.3636 42.0387ZM46.3636 32.9399C46.8458 32.9399 47.3083 33.1316 47.6493 33.4729C47.9903 33.8141 48.1818 34.277 48.1818 34.7596V38.3991C48.1818 38.8818 47.9903 39.3446 47.6493 39.6859C47.3083 40.0272 46.8458 40.2189 46.3636 40.2189C45.8814 40.2189 45.419 40.0272 45.078 39.6859C44.737 39.3446 44.5455 38.8818 44.5455 38.3991V34.7596C44.5455 34.277 44.737 33.8141 45.078 33.4729C45.419 33.1316 45.8814 32.9399 46.3636 32.9399Z" fill="#212121"/>
<path d="M71.0902 42.0387C72.0546 42.0387 72.9795 41.6552 73.6615 40.9727C74.3434 40.2901 74.7266 39.3644 74.7266 38.3991V34.7596C74.7266 33.7944 74.3434 32.8686 73.6615 32.1861C72.9795 31.5036 72.0546 31.1201 71.0902 31.1201C70.1258 31.1201 69.2009 31.5036 68.5189 32.1861C67.837 32.8686 67.4538 33.7944 67.4538 34.7596V38.3991C67.4538 39.3644 67.837 40.2901 68.5189 40.9727C69.2009 41.6552 70.1258 42.0387 71.0902 42.0387ZM71.0902 32.9399C71.5724 32.9399 72.0349 33.1316 72.3758 33.4729C72.7168 33.8141 72.9084 34.277 72.9084 34.7596V38.3991C72.9084 38.8818 72.7168 39.3446 72.3758 39.6859C72.0349 40.0272 71.5724 40.2189 71.0902 40.2189C70.608 40.2189 70.1455 40.0272 69.8046 39.6859C69.4636 39.3446 69.272 38.8818 69.272 38.3991V34.7596C69.272 34.277 69.4636 33.8141 69.8046 33.4729C70.1455 33.1316 70.608 32.9399 71.0902 32.9399Z" fill="#212121"/>
<defs>
<filter id="filter0_dd_784_14992" x="0" y="0.795898" width="117" height="117" filterUnits="userSpaceOnUse" color-interpolation-filters="sRGB">
<feFlood flood-opacity="0" result="BackgroundImageFix"/>
<feColorMatrix in="SourceAlpha" type="matrix" values="0 0 0 0 0 0 0 0 0 0 0 0 0 0 0 0 0 0 127 0" result="hardAlpha"/>
<feMorphology radius="4" operator="erode" in="SourceAlpha" result="effect1_dropShadow_784_14992"/>
<feOffset dy="8"/>
<feGaussianBlur stdDeviation="12"/>
<feComposite in2="hardAlpha" operator="out"/>
<feColorMatrix type="matrix" values="0 0 0 0 0 0 0 0 0 0 0 0 0 0 0 0 0 0 0.08 0"/>
<feBlend mode="normal" in2="BackgroundImageFix" result="effect1_dropShadow_784_14992"/>
<feColorMatrix in="SourceAlpha" type="matrix" values="0 0 0 0 0 0 0 0 0 0 0 0 0 0 0 0 0 0 127 0" result="hardAlpha"/>
<feMorphology radius="6" operator="erode" in="SourceAlpha" result="effect2_dropShadow_784_14992"/>
<feOffset dy="6"/>
<feGaussianBlur stdDeviation="6"/>
<feComposite in2="hardAlpha" operator="out"/>
<feColorMatrix type="matrix" values="0 0 0 0 0 0 0 0 0 0 0 0 0 0 0 0 0 0 0.12 0"/>
<feBlend mode="normal" in2="effect1_dropShadow_784_14992" result="effect2_dropShadow_784_14992"/>
<feBlend mode="normal" in="SourceGraphic" in2="effect2_dropShadow_784_14992" result="shape"/>
</filter>
</defs>
</svg>
