<svg width="117" height="118" viewBox="0 0 117 118" fill="none" xmlns="http://www.w3.org/2000/svg">
<g filter="url(#filter0_dd_784_14980)">
<circle cx="38.5" cy="38.5" r="38.5" transform="matrix(-1 0 0 1 97 12.7959)" fill="white"/>
</g>
<path d="M73.2983 43.7715V43.6215H73.4483H75.1094H75.2594V43.7715V44.602V44.752H75.1094H73.4483H73.2983V44.602V43.7715Z" fill="#212121" stroke="#212121" stroke-width="0.3"/>
<path d="M73.2983 47.0967V46.9467H73.4483H75.1094H75.2594V47.0967V47.9272V48.0772H75.1094H73.4483H73.2983V47.9272V47.0967Z" fill="#212121" stroke="#212121" stroke-width="0.3"/>
<mask id="path-4-outside-1_784_14980" maskUnits="userSpaceOnUse" x="33.4414" y="25.4893" width="19" height="51" fill="black">
<rect fill="white" x="33.4414" y="25.4893" width="19" height="51"/>
<path d="M34.0127 44.0864L34.3911 42.5714C34.7059 41.3113 35.6765 40.3069 36.9243 39.9501L40.6445 38.8862V36.963L39.9396 36.6102C39.3624 36.3213 38.9588 35.7924 38.8322 35.1589L38.1633 31.8112L37.3348 28.4943C37.3076 28.3855 37.3256 28.2704 37.3845 28.1751C37.4434 28.0797 37.5383 28.0121 37.6476 27.9879L44.0746 26.5584C44.8503 26.3857 45.6748 26.54 46.3359 26.9812C47.4324 27.7129 47.9072 29.0977 47.4905 30.3491L47.2777 30.988L46.5916 35.108C46.4828 35.7616 46.0643 36.3287 45.4722 36.6251L44.7972 36.9629V38.8862L48.5174 39.9501C49.7652 40.3069 50.7358 41.3113 51.0506 42.5714L51.429 44.0865C51.4597 44.2096 51.4326 44.3401 51.3553 44.4406L48.9498 47.5705V74.9434C48.9498 75.1729 48.7639 75.359 48.5345 75.359H36.9072C36.6778 75.359 36.4919 75.1729 36.4919 74.9434V47.5705L34.0864 44.4406C34.0091 44.3401 33.982 44.2096 34.0127 44.0864ZM45.8752 27.6728C45.4012 27.3566 44.8106 27.2462 44.2548 27.3698L38.244 28.7067L38.884 31.2692L46.5646 30.5005L46.7026 30.0863C47.0012 29.1896 46.661 28.1971 45.8752 27.6728ZM45.7725 34.9714L46.3747 31.3549L39.0652 32.0865L39.6465 34.9958C39.7226 35.3759 39.9648 35.6933 40.3111 35.8666L42.7209 37.0726L45.1007 35.8816C45.4561 35.7038 45.7071 35.3636 45.7725 34.9714ZM42.9066 37.909C42.8481 37.9383 42.7845 37.9529 42.7209 37.9529C42.6572 37.9529 42.5936 37.9383 42.5351 37.909L41.4751 37.3786V39.1118C41.7421 39.6976 42.2875 39.9097 42.7209 39.9097C43.1542 39.9097 43.6997 39.6976 43.9666 39.1118V37.3786L42.9066 37.909ZM43.2344 49.0708L44.6599 51.0326C44.7606 51.1712 44.8409 51.3183 44.9052 51.4697L47.9086 47.5619L45.5935 45.8241L43.2344 49.0708ZM39.8482 45.8241L37.5331 47.5619L41.8226 53.143C42.0598 53.4517 42.4185 53.6432 42.8068 53.6685C43.1954 53.693 43.5756 53.5502 43.8508 53.2748C44.3242 52.801 44.382 52.0636 43.9881 51.5215L39.8482 45.8241ZM48.1193 74.5278C48.1193 73.1527 47.0015 72.034 45.6277 72.034C44.2539 72.034 43.1361 73.1527 43.1361 74.5278H48.1193ZM42.3056 74.5278C42.3056 73.1527 41.1878 72.034 39.814 72.034C38.4402 72.034 37.3224 73.1527 37.3224 74.5278H42.3056ZM39.814 71.2028C40.8055 71.2028 41.6964 71.6404 42.3056 72.3321V58.3184H43.1361V72.3321C43.7453 71.6404 44.6362 71.2028 45.6277 71.2028C46.6192 71.2028 47.5101 71.6404 48.1193 72.3321V55.4091H37.3224V72.3321C37.9316 71.6404 38.8225 71.2028 39.814 71.2028ZM37.3224 54.5778H48.1193V48.6511L45.0557 52.6372C44.9891 53.0868 44.7823 53.5179 44.438 53.8626C44.0274 54.2736 43.4715 54.5025 42.8945 54.5025C42.8475 54.5025 42.8002 54.501 42.753 54.4979C42.1262 54.4572 41.5472 54.1481 41.1642 53.6498L37.3224 48.6511V54.5778ZM37.0267 46.9029L39.3596 45.1517L38.2323 43.6004L38.9041 43.1115L42.7209 48.3641L46.5376 43.1115L47.2094 43.6004L46.0821 45.1517L48.415 46.9029L50.5746 44.0931L50.2448 42.7729C50.0019 41.8002 49.2525 41.0248 48.2893 40.7493L44.5975 39.6936C44.2021 40.3474 43.5123 40.741 42.7209 40.741C41.9294 40.741 41.2396 40.3474 40.8442 39.6936L37.1524 40.7493C36.1892 41.0248 35.4398 41.8002 35.1969 42.7729L34.8671 44.0931L37.0267 46.9029Z"/>
</mask>
<path d="M34.0127 44.0864L34.3911 42.5714C34.7059 41.3113 35.6765 40.3069 36.9243 39.9501L40.6445 38.8862V36.963L39.9396 36.6102C39.3624 36.3213 38.9588 35.7924 38.8322 35.1589L38.1633 31.8112L37.3348 28.4943C37.3076 28.3855 37.3256 28.2704 37.3845 28.1751C37.4434 28.0797 37.5383 28.0121 37.6476 27.9879L44.0746 26.5584C44.8503 26.3857 45.6748 26.54 46.3359 26.9812C47.4324 27.7129 47.9072 29.0977 47.4905 30.3491L47.2777 30.988L46.5916 35.108C46.4828 35.7616 46.0643 36.3287 45.4722 36.6251L44.7972 36.9629V38.8862L48.5174 39.9501C49.7652 40.3069 50.7358 41.3113 51.0506 42.5714L51.429 44.0865C51.4597 44.2096 51.4326 44.3401 51.3553 44.4406L48.9498 47.5705V74.9434C48.9498 75.1729 48.7639 75.359 48.5345 75.359H36.9072C36.6778 75.359 36.4919 75.1729 36.4919 74.9434V47.5705L34.0864 44.4406C34.0091 44.3401 33.982 44.2096 34.0127 44.0864ZM45.8752 27.6728C45.4012 27.3566 44.8106 27.2462 44.2548 27.3698L38.244 28.7067L38.884 31.2692L46.5646 30.5005L46.7026 30.0863C47.0012 29.1896 46.661 28.1971 45.8752 27.6728ZM45.7725 34.9714L46.3747 31.3549L39.0652 32.0865L39.6465 34.9958C39.7226 35.3759 39.9648 35.6933 40.3111 35.8666L42.7209 37.0726L45.1007 35.8816C45.4561 35.7038 45.7071 35.3636 45.7725 34.9714ZM42.9066 37.909C42.8481 37.9383 42.7845 37.9529 42.7209 37.9529C42.6572 37.9529 42.5936 37.9383 42.5351 37.909L41.4751 37.3786V39.1118C41.7421 39.6976 42.2875 39.9097 42.7209 39.9097C43.1542 39.9097 43.6997 39.6976 43.9666 39.1118V37.3786L42.9066 37.909ZM43.2344 49.0708L44.6599 51.0326C44.7606 51.1712 44.8409 51.3183 44.9052 51.4697L47.9086 47.5619L45.5935 45.8241L43.2344 49.0708ZM39.8482 45.8241L37.5331 47.5619L41.8226 53.143C42.0598 53.4517 42.4185 53.6432 42.8068 53.6685C43.1954 53.693 43.5756 53.5502 43.8508 53.2748C44.3242 52.801 44.382 52.0636 43.9881 51.5215L39.8482 45.8241ZM48.1193 74.5278C48.1193 73.1527 47.0015 72.034 45.6277 72.034C44.2539 72.034 43.1361 73.1527 43.1361 74.5278H48.1193ZM42.3056 74.5278C42.3056 73.1527 41.1878 72.034 39.814 72.034C38.4402 72.034 37.3224 73.1527 37.3224 74.5278H42.3056ZM39.814 71.2028C40.8055 71.2028 41.6964 71.6404 42.3056 72.3321V58.3184H43.1361V72.3321C43.7453 71.6404 44.6362 71.2028 45.6277 71.2028C46.6192 71.2028 47.5101 71.6404 48.1193 72.3321V55.4091H37.3224V72.3321C37.9316 71.6404 38.8225 71.2028 39.814 71.2028ZM37.3224 54.5778H48.1193V48.6511L45.0557 52.6372C44.9891 53.0868 44.7823 53.5179 44.438 53.8626C44.0274 54.2736 43.4715 54.5025 42.8945 54.5025C42.8475 54.5025 42.8002 54.501 42.753 54.4979C42.1262 54.4572 41.5472 54.1481 41.1642 53.6498L37.3224 48.6511V54.5778ZM37.0267 46.9029L39.3596 45.1517L38.2323 43.6004L38.9041 43.1115L42.7209 48.3641L46.5376 43.1115L47.2094 43.6004L46.0821 45.1517L48.415 46.9029L50.5746 44.0931L50.2448 42.7729C50.0019 41.8002 49.2525 41.0248 48.2893 40.7493L44.5975 39.6936C44.2021 40.3474 43.5123 40.741 42.7209 40.741C41.9294 40.741 41.2396 40.3474 40.8442 39.6936L37.1524 40.7493C36.1892 41.0248 35.4398 41.8002 35.1969 42.7729L34.8671 44.0931L37.0267 46.9029Z" fill="#212121"/>
<path d="M34.0127 44.0864L34.3911 42.5714C34.7059 41.3113 35.6765 40.3069 36.9243 39.9501L40.6445 38.8862V36.963L39.9396 36.6102C39.3624 36.3213 38.9588 35.7924 38.8322 35.1589L38.1633 31.8112L37.3348 28.4943C37.3076 28.3855 37.3256 28.2704 37.3845 28.1751C37.4434 28.0797 37.5383 28.0121 37.6476 27.9879L44.0746 26.5584C44.8503 26.3857 45.6748 26.54 46.3359 26.9812C47.4324 27.7129 47.9072 29.0977 47.4905 30.3491L47.2777 30.988L46.5916 35.108C46.4828 35.7616 46.0643 36.3287 45.4722 36.6251L44.7972 36.9629V38.8862L48.5174 39.9501C49.7652 40.3069 50.7358 41.3113 51.0506 42.5714L51.429 44.0865C51.4597 44.2096 51.4326 44.3401 51.3553 44.4406L48.9498 47.5705V74.9434C48.9498 75.1729 48.7639 75.359 48.5345 75.359H36.9072C36.6778 75.359 36.4919 75.1729 36.4919 74.9434V47.5705L34.0864 44.4406C34.0091 44.3401 33.982 44.2096 34.0127 44.0864ZM45.8752 27.6728C45.4012 27.3566 44.8106 27.2462 44.2548 27.3698L38.244 28.7067L38.884 31.2692L46.5646 30.5005L46.7026 30.0863C47.0012 29.1896 46.661 28.1971 45.8752 27.6728ZM45.7725 34.9714L46.3747 31.3549L39.0652 32.0865L39.6465 34.9958C39.7226 35.3759 39.9648 35.6933 40.3111 35.8666L42.7209 37.0726L45.1007 35.8816C45.4561 35.7038 45.7071 35.3636 45.7725 34.9714ZM42.9066 37.909C42.8481 37.9383 42.7845 37.9529 42.7209 37.9529C42.6572 37.9529 42.5936 37.9383 42.5351 37.909L41.4751 37.3786V39.1118C41.7421 39.6976 42.2875 39.9097 42.7209 39.9097C43.1542 39.9097 43.6997 39.6976 43.9666 39.1118V37.3786L42.9066 37.909ZM43.2344 49.0708L44.6599 51.0326C44.7606 51.1712 44.8409 51.3183 44.9052 51.4697L47.9086 47.5619L45.5935 45.8241L43.2344 49.0708ZM39.8482 45.8241L37.5331 47.5619L41.8226 53.143C42.0598 53.4517 42.4185 53.6432 42.8068 53.6685C43.1954 53.693 43.5756 53.5502 43.8508 53.2748C44.3242 52.801 44.382 52.0636 43.9881 51.5215L39.8482 45.8241ZM48.1193 74.5278C48.1193 73.1527 47.0015 72.034 45.6277 72.034C44.2539 72.034 43.1361 73.1527 43.1361 74.5278H48.1193ZM42.3056 74.5278C42.3056 73.1527 41.1878 72.034 39.814 72.034C38.4402 72.034 37.3224 73.1527 37.3224 74.5278H42.3056ZM39.814 71.2028C40.8055 71.2028 41.6964 71.6404 42.3056 72.3321V58.3184H43.1361V72.3321C43.7453 71.6404 44.6362 71.2028 45.6277 71.2028C46.6192 71.2028 47.5101 71.6404 48.1193 72.3321V55.4091H37.3224V72.3321C37.9316 71.6404 38.8225 71.2028 39.814 71.2028ZM37.3224 54.5778H48.1193V48.6511L45.0557 52.6372C44.9891 53.0868 44.7823 53.5179 44.438 53.8626C44.0274 54.2736 43.4715 54.5025 42.8945 54.5025C42.8475 54.5025 42.8002 54.501 42.753 54.4979C42.1262 54.4572 41.5472 54.1481 41.1642 53.6498L37.3224 48.6511V54.5778ZM37.0267 46.9029L39.3596 45.1517L38.2323 43.6004L38.9041 43.1115L42.7209 48.3641L46.5376 43.1115L47.2094 43.6004L46.0821 45.1517L48.415 46.9029L50.5746 44.0931L50.2448 42.7729C50.0019 41.8002 49.2525 41.0248 48.2893 40.7493L44.5975 39.6936C44.2021 40.3474 43.5123 40.741 42.7209 40.741C41.9294 40.741 41.2396 40.3474 40.8442 39.6936L37.1524 40.7493C36.1892 41.0248 35.4398 41.8002 35.1969 42.7729L34.8671 44.0931L37.0267 46.9029Z" stroke="#212121" stroke-width="0.6" mask="url(#path-4-outside-1_784_14980)"/>
<mask id="path-5-outside-2_784_14980" maskUnits="userSpaceOnUse" x="50.5586" y="25.3154" width="16" height="51" fill="black">
<rect fill="white" x="50.5586" y="25.3154" width="16" height="51"/>
<path d="M51.8371 42.9885C52.0328 42.009 52.5352 41.1424 53.2517 40.4949L53.098 40.1045C52.0137 37.3914 51.8583 34.3498 52.6605 31.5402L53.1012 29.9962C53.1332 27.9611 54.7972 26.3154 56.838 26.3154H59.6306C61.1277 26.3154 62.4761 27.2053 63.0658 28.5825C64.1658 31.1512 64.4271 33.9511 63.8212 36.6795L63.0842 39.9975C64.1528 40.6569 64.9097 41.7299 65.1611 42.9885L65.5505 44.937C65.5716 45.042 65.5512 45.1512 65.4937 45.2416L63.8975 47.7521V52.4222C64.9764 55.1736 65.0573 58.2283 64.123 61.034L63.8762 61.7748C63.8197 61.9446 63.661 62.0591 63.4823 62.0591H62.2033L61.407 71.6231C61.9096 72.0027 62.2365 72.6035 62.2365 73.2809V74.9434C62.2365 75.1729 62.0505 75.359 61.8212 75.359H55.177C54.9477 75.359 54.7617 75.1729 54.7617 74.9434V73.2809C54.7617 72.6035 55.0886 72.0027 55.5912 71.6231L54.7949 62.0591H53.5159C53.3372 62.0591 53.1785 61.9446 53.122 61.7748L52.8752 61.034C51.9409 58.2283 52.0218 55.1736 53.1007 52.4222V47.7521L51.5045 45.2416C51.447 45.1512 51.4266 45.042 51.4477 44.937L51.8371 42.9885ZM62.3024 28.9099C61.8437 27.8388 60.795 27.1467 59.6306 27.1467H56.838C55.2352 27.1467 53.9312 28.4518 53.9312 30.056C53.9312 30.0947 53.9258 30.1331 53.9152 30.1702L53.4589 31.7685C52.7072 34.4019 52.8529 37.2527 53.87 39.7978L53.942 39.9809C54.1565 39.8506 54.382 39.7354 54.6198 39.6402L56.4228 38.9184V36.5806C55.2431 35.4499 54.4361 33.9537 54.1621 32.3086L53.9369 30.9556C53.9069 30.7757 53.9977 30.5972 54.1607 30.5155L57.4828 28.853C57.61 28.7894 57.7606 28.7953 57.8822 28.8684L62.0348 31.3622C62.1854 31.4525 62.2628 31.6278 62.2284 31.8L61.9851 33.0174C61.754 34.1744 61.2695 35.2385 60.5754 36.1502V38.9184L62.3181 39.6161L63.0105 36.4991C63.5783 33.9419 63.3334 31.3176 62.3024 28.9099ZM57.2533 39.1417L58.4991 43.5056L59.7449 39.1417V37.0724C59.4323 37.3674 59.0942 37.6397 58.7294 37.8831C58.66 37.9295 58.5797 37.9529 58.4991 37.9529C58.4356 37.9529 58.3721 37.9384 58.3134 37.9091L58.284 37.8943C57.9219 37.7131 57.5778 37.5038 57.2533 37.2707V39.1417ZM58.4681 37.0534C59.8736 36.0433 60.8297 34.5611 61.1708 32.8544L61.3567 31.9242L57.6504 29.6986L54.8065 31.1218L54.9813 32.172C55.327 34.2475 56.6239 36.0572 58.4681 37.0534ZM58.0053 51.4967C57.6792 51.9862 57.8118 52.65 58.3009 52.9763C58.5414 53.1369 58.8293 53.1925 59.1125 53.1325C59.3952 53.0728 59.6365 52.9055 59.7916 52.6614L62.4317 48.509L60.3433 47.9865L58.0053 51.4967ZM56.6549 47.9865L54.5664 48.509L57.0181 52.3651C56.9491 51.8991 57.0512 51.4304 57.3142 51.0356L58.0001 50.006L56.6549 47.9865ZM61.1432 52.0841H63.067V49.0583L61.1432 52.0841ZM61.3699 62.0591H58.9144V71.6223C59.2618 71.3602 59.6924 71.2028 60.1602 71.2028C60.3128 71.2028 60.4611 71.2205 60.6044 71.2519L61.3699 62.0591ZM61.4059 73.2809C61.4059 72.5933 60.8471 72.034 60.1602 72.034C59.4732 72.034 58.9144 72.5933 58.9144 73.2809V74.5278H61.4059V73.2809ZM55.5922 74.5278H58.0838V73.2809C58.0838 72.5933 57.525 72.034 56.838 72.034C56.1511 72.034 55.5922 72.5933 55.5922 73.2809V74.5278ZM56.3938 71.2519C56.5371 71.2205 56.6855 71.2028 56.838 71.2028C57.3057 71.2028 57.7363 71.3602 58.0838 71.6223V62.0591H55.6283L56.3938 71.2519ZM53.6631 60.7712L53.8152 61.2278H63.183L63.3351 60.7712C64.1866 58.2141 64.1332 55.4362 63.1945 52.9153H60.6147L60.4924 53.1076C60.2162 53.5419 59.7871 53.8395 59.2839 53.9459C59.152 53.9738 59.0193 53.9875 58.8877 53.9875C58.7561 53.9875 58.6257 53.9731 58.498 53.9459C58.3653 53.9741 58.2322 53.9884 58.1005 53.9884C57.4645 53.9884 56.8617 53.6673 56.5058 53.1076L56.3835 52.9153H53.8037C52.8649 55.4362 52.8116 58.2141 53.6631 60.7712ZM53.9312 52.0841H55.855L53.9312 49.0583V52.0841ZM54.0964 47.7698L56.1657 47.252L54.8315 45.249L55.5225 44.788L58.4991 49.2567L61.4757 44.788L62.1667 45.249L60.8325 47.252L62.9018 47.7698L64.7034 44.9362L64.3468 43.1514C64.0982 41.9073 63.2471 40.8832 62.07 40.412L60.433 39.7566L58.8983 45.1327C58.8474 45.3111 58.6845 45.4341 58.4991 45.4341C58.3137 45.4341 58.1507 45.3111 58.0998 45.1327L56.5652 39.7566L54.9282 40.412C53.7511 40.8832 52.9 41.9073 52.6514 43.1514L52.2948 44.9363L54.0964 47.7698Z"/>
</mask>
<path d="M51.8371 42.9885C52.0328 42.009 52.5352 41.1424 53.2517 40.4949L53.098 40.1045C52.0137 37.3914 51.8583 34.3498 52.6605 31.5402L53.1012 29.9962C53.1332 27.9611 54.7972 26.3154 56.838 26.3154H59.6306C61.1277 26.3154 62.4761 27.2053 63.0658 28.5825C64.1658 31.1512 64.4271 33.9511 63.8212 36.6795L63.0842 39.9975C64.1528 40.6569 64.9097 41.7299 65.1611 42.9885L65.5505 44.937C65.5716 45.042 65.5512 45.1512 65.4937 45.2416L63.8975 47.7521V52.4222C64.9764 55.1736 65.0573 58.2283 64.123 61.034L63.8762 61.7748C63.8197 61.9446 63.661 62.0591 63.4823 62.0591H62.2033L61.407 71.6231C61.9096 72.0027 62.2365 72.6035 62.2365 73.2809V74.9434C62.2365 75.1729 62.0505 75.359 61.8212 75.359H55.177C54.9477 75.359 54.7617 75.1729 54.7617 74.9434V73.2809C54.7617 72.6035 55.0886 72.0027 55.5912 71.6231L54.7949 62.0591H53.5159C53.3372 62.0591 53.1785 61.9446 53.122 61.7748L52.8752 61.034C51.9409 58.2283 52.0218 55.1736 53.1007 52.4222V47.7521L51.5045 45.2416C51.447 45.1512 51.4266 45.042 51.4477 44.937L51.8371 42.9885ZM62.3024 28.9099C61.8437 27.8388 60.795 27.1467 59.6306 27.1467H56.838C55.2352 27.1467 53.9312 28.4518 53.9312 30.056C53.9312 30.0947 53.9258 30.1331 53.9152 30.1702L53.4589 31.7685C52.7072 34.4019 52.8529 37.2527 53.87 39.7978L53.942 39.9809C54.1565 39.8506 54.382 39.7354 54.6198 39.6402L56.4228 38.9184V36.5806C55.2431 35.4499 54.4361 33.9537 54.1621 32.3086L53.9369 30.9556C53.9069 30.7757 53.9977 30.5972 54.1607 30.5155L57.4828 28.853C57.61 28.7894 57.7606 28.7953 57.8822 28.8684L62.0348 31.3622C62.1854 31.4525 62.2628 31.6278 62.2284 31.8L61.9851 33.0174C61.754 34.1744 61.2695 35.2385 60.5754 36.1502V38.9184L62.3181 39.6161L63.0105 36.4991C63.5783 33.9419 63.3334 31.3176 62.3024 28.9099ZM57.2533 39.1417L58.4991 43.5056L59.7449 39.1417V37.0724C59.4323 37.3674 59.0942 37.6397 58.7294 37.8831C58.66 37.9295 58.5797 37.9529 58.4991 37.9529C58.4356 37.9529 58.3721 37.9384 58.3134 37.9091L58.284 37.8943C57.9219 37.7131 57.5778 37.5038 57.2533 37.2707V39.1417ZM58.4681 37.0534C59.8736 36.0433 60.8297 34.5611 61.1708 32.8544L61.3567 31.9242L57.6504 29.6986L54.8065 31.1218L54.9813 32.172C55.327 34.2475 56.6239 36.0572 58.4681 37.0534ZM58.0053 51.4967C57.6792 51.9862 57.8118 52.65 58.3009 52.9763C58.5414 53.1369 58.8293 53.1925 59.1125 53.1325C59.3952 53.0728 59.6365 52.9055 59.7916 52.6614L62.4317 48.509L60.3433 47.9865L58.0053 51.4967ZM56.6549 47.9865L54.5664 48.509L57.0181 52.3651C56.9491 51.8991 57.0512 51.4304 57.3142 51.0356L58.0001 50.006L56.6549 47.9865ZM61.1432 52.0841H63.067V49.0583L61.1432 52.0841ZM61.3699 62.0591H58.9144V71.6223C59.2618 71.3602 59.6924 71.2028 60.1602 71.2028C60.3128 71.2028 60.4611 71.2205 60.6044 71.2519L61.3699 62.0591ZM61.4059 73.2809C61.4059 72.5933 60.8471 72.034 60.1602 72.034C59.4732 72.034 58.9144 72.5933 58.9144 73.2809V74.5278H61.4059V73.2809ZM55.5922 74.5278H58.0838V73.2809C58.0838 72.5933 57.525 72.034 56.838 72.034C56.1511 72.034 55.5922 72.5933 55.5922 73.2809V74.5278ZM56.3938 71.2519C56.5371 71.2205 56.6855 71.2028 56.838 71.2028C57.3057 71.2028 57.7363 71.3602 58.0838 71.6223V62.0591H55.6283L56.3938 71.2519ZM53.6631 60.7712L53.8152 61.2278H63.183L63.3351 60.7712C64.1866 58.2141 64.1332 55.4362 63.1945 52.9153H60.6147L60.4924 53.1076C60.2162 53.5419 59.7871 53.8395 59.2839 53.9459C59.152 53.9738 59.0193 53.9875 58.8877 53.9875C58.7561 53.9875 58.6257 53.9731 58.498 53.9459C58.3653 53.9741 58.2322 53.9884 58.1005 53.9884C57.4645 53.9884 56.8617 53.6673 56.5058 53.1076L56.3835 52.9153H53.8037C52.8649 55.4362 52.8116 58.2141 53.6631 60.7712ZM53.9312 52.0841H55.855L53.9312 49.0583V52.0841ZM54.0964 47.7698L56.1657 47.252L54.8315 45.249L55.5225 44.788L58.4991 49.2567L61.4757 44.788L62.1667 45.249L60.8325 47.252L62.9018 47.7698L64.7034 44.9362L64.3468 43.1514C64.0982 41.9073 63.2471 40.8832 62.07 40.412L60.433 39.7566L58.8983 45.1327C58.8474 45.3111 58.6845 45.4341 58.4991 45.4341C58.3137 45.4341 58.1507 45.3111 58.0998 45.1327L56.5652 39.7566L54.9282 40.412C53.7511 40.8832 52.9 41.9073 52.6514 43.1514L52.2948 44.9363L54.0964 47.7698Z" fill="#212121"/>
<path d="M51.8371 42.9885C52.0328 42.009 52.5352 41.1424 53.2517 40.4949L53.098 40.1045C52.0137 37.3914 51.8583 34.3498 52.6605 31.5402L53.1012 29.9962C53.1332 27.9611 54.7972 26.3154 56.838 26.3154H59.6306C61.1277 26.3154 62.4761 27.2053 63.0658 28.5825C64.1658 31.1512 64.4271 33.9511 63.8212 36.6795L63.0842 39.9975C64.1528 40.6569 64.9097 41.7299 65.1611 42.9885L65.5505 44.937C65.5716 45.042 65.5512 45.1512 65.4937 45.2416L63.8975 47.7521V52.4222C64.9764 55.1736 65.0573 58.2283 64.123 61.034L63.8762 61.7748C63.8197 61.9446 63.661 62.0591 63.4823 62.0591H62.2033L61.407 71.6231C61.9096 72.0027 62.2365 72.6035 62.2365 73.2809V74.9434C62.2365 75.1729 62.0505 75.359 61.8212 75.359H55.177C54.9477 75.359 54.7617 75.1729 54.7617 74.9434V73.2809C54.7617 72.6035 55.0886 72.0027 55.5912 71.6231L54.7949 62.0591H53.5159C53.3372 62.0591 53.1785 61.9446 53.122 61.7748L52.8752 61.034C51.9409 58.2283 52.0218 55.1736 53.1007 52.4222V47.7521L51.5045 45.2416C51.447 45.1512 51.4266 45.042 51.4477 44.937L51.8371 42.9885ZM62.3024 28.9099C61.8437 27.8388 60.795 27.1467 59.6306 27.1467H56.838C55.2352 27.1467 53.9312 28.4518 53.9312 30.056C53.9312 30.0947 53.9258 30.1331 53.9152 30.1702L53.4589 31.7685C52.7072 34.4019 52.8529 37.2527 53.87 39.7978L53.942 39.9809C54.1565 39.8506 54.382 39.7354 54.6198 39.6402L56.4228 38.9184V36.5806C55.2431 35.4499 54.4361 33.9537 54.1621 32.3086L53.9369 30.9556C53.9069 30.7757 53.9977 30.5972 54.1607 30.5155L57.4828 28.853C57.61 28.7894 57.7606 28.7953 57.8822 28.8684L62.0348 31.3622C62.1854 31.4525 62.2628 31.6278 62.2284 31.8L61.9851 33.0174C61.754 34.1744 61.2695 35.2385 60.5754 36.1502V38.9184L62.3181 39.6161L63.0105 36.4991C63.5783 33.9419 63.3334 31.3176 62.3024 28.9099ZM57.2533 39.1417L58.4991 43.5056L59.7449 39.1417V37.0724C59.4323 37.3674 59.0942 37.6397 58.7294 37.8831C58.66 37.9295 58.5797 37.9529 58.4991 37.9529C58.4356 37.9529 58.3721 37.9384 58.3134 37.9091L58.284 37.8943C57.9219 37.7131 57.5778 37.5038 57.2533 37.2707V39.1417ZM58.4681 37.0534C59.8736 36.0433 60.8297 34.5611 61.1708 32.8544L61.3567 31.9242L57.6504 29.6986L54.8065 31.1218L54.9813 32.172C55.327 34.2475 56.6239 36.0572 58.4681 37.0534ZM58.0053 51.4967C57.6792 51.9862 57.8118 52.65 58.3009 52.9763C58.5414 53.1369 58.8293 53.1925 59.1125 53.1325C59.3952 53.0728 59.6365 52.9055 59.7916 52.6614L62.4317 48.509L60.3433 47.9865L58.0053 51.4967ZM56.6549 47.9865L54.5664 48.509L57.0181 52.3651C56.9491 51.8991 57.0512 51.4304 57.3142 51.0356L58.0001 50.006L56.6549 47.9865ZM61.1432 52.0841H63.067V49.0583L61.1432 52.0841ZM61.3699 62.0591H58.9144V71.6223C59.2618 71.3602 59.6924 71.2028 60.1602 71.2028C60.3128 71.2028 60.4611 71.2205 60.6044 71.2519L61.3699 62.0591ZM61.4059 73.2809C61.4059 72.5933 60.8471 72.034 60.1602 72.034C59.4732 72.034 58.9144 72.5933 58.9144 73.2809V74.5278H61.4059V73.2809ZM55.5922 74.5278H58.0838V73.2809C58.0838 72.5933 57.525 72.034 56.838 72.034C56.1511 72.034 55.5922 72.5933 55.5922 73.2809V74.5278ZM56.3938 71.2519C56.5371 71.2205 56.6855 71.2028 56.838 71.2028C57.3057 71.2028 57.7363 71.3602 58.0838 71.6223V62.0591H55.6283L56.3938 71.2519ZM53.6631 60.7712L53.8152 61.2278H63.183L63.3351 60.7712C64.1866 58.2141 64.1332 55.4362 63.1945 52.9153H60.6147L60.4924 53.1076C60.2162 53.5419 59.7871 53.8395 59.2839 53.9459C59.152 53.9738 59.0193 53.9875 58.8877 53.9875C58.7561 53.9875 58.6257 53.9731 58.498 53.9459C58.3653 53.9741 58.2322 53.9884 58.1005 53.9884C57.4645 53.9884 56.8617 53.6673 56.5058 53.1076L56.3835 52.9153H53.8037C52.8649 55.4362 52.8116 58.2141 53.6631 60.7712ZM53.9312 52.0841H55.855L53.9312 49.0583V52.0841ZM54.0964 47.7698L56.1657 47.252L54.8315 45.249L55.5225 44.788L58.4991 49.2567L61.4757 44.788L62.1667 45.249L60.8325 47.252L62.9018 47.7698L64.7034 44.9362L64.3468 43.1514C64.0982 41.9073 63.2471 40.8832 62.07 40.412L60.433 39.7566L58.8983 45.1327C58.8474 45.3111 58.6845 45.4341 58.4991 45.4341C58.3137 45.4341 58.1507 45.3111 58.0998 45.1327L56.5652 39.7566L54.9282 40.412C53.7511 40.8832 52.9 41.9073 52.6514 43.1514L52.2948 44.9363L54.0964 47.7698Z" stroke="#212121" stroke-width="0.6" mask="url(#path-5-outside-2_784_14980)"/>
<mask id="path-6-outside-3_784_14980" maskUnits="userSpaceOnUse" x="65" y="25.3154" width="19" height="51" fill="black">
<rect fill="white" x="65" y="25.3154" width="19" height="51"/>
<path d="M66.102 42.7926C66.3211 41.9159 66.9472 41.1801 67.777 40.8242L72.2031 38.9257V37.1247C70.7216 36.3273 69.8765 34.6892 70.1192 32.9887L70.5191 30.1869C69.5119 29.3578 68.881 28.1032 68.881 26.7311C68.881 26.5015 69.0669 26.3154 69.2963 26.3154H74.2794C76.3402 26.3154 78.0168 27.9934 78.0168 30.056V31.6776L78.2469 32.8292C78.5868 34.5304 77.805 36.2319 76.3557 37.0983V38.9257L80.7817 40.8242C81.6116 41.1801 82.2378 41.9159 82.4569 42.7927L82.9876 44.9177C83.0166 45.0337 82.9942 45.1567 82.9262 45.255L81.3369 47.5526L80.5065 55.0332L78.8459 74.9779L78.8439 74.9777C78.8261 75.1909 78.6496 75.359 78.4321 75.359H70.1268C69.9092 75.359 69.7327 75.1909 69.715 74.9777L69.7129 74.9779L68.0523 55.0332L67.2219 47.5525L65.6327 45.255C65.5646 45.1567 65.5422 45.0337 65.5712 44.9177L66.102 42.7926ZM70.4389 40.5869L71.8408 41.9899L73.6277 40.7976L72.5236 39.6926L70.4389 40.5869ZM75.5252 37.4752C75.1191 37.6072 74.6994 37.6743 74.2794 37.6743C73.8596 37.6743 73.4398 37.6072 73.0336 37.4752V39.0277L74.2794 40.2744L75.5252 39.0277V37.4752ZM77.1863 30.056C77.1863 28.4518 75.8823 27.1467 74.2794 27.1467H69.7353C69.9139 28.6961 71.0785 29.989 72.6353 30.3006L77.1863 31.2116L77.1863 30.056ZM77.4326 32.9922L77.2487 32.0717L72.4725 31.1156C72.0506 31.0312 71.6527 30.8872 71.2856 30.695L70.9414 33.1062C70.7309 34.5805 71.5489 35.9964 72.9306 36.5496L73.0851 36.6116C73.8553 36.9198 74.7035 36.9198 75.4737 36.6116C76.9126 36.0354 77.7365 34.5132 77.4326 32.9922ZM76.0352 39.6926L74.9312 40.7976L76.7181 41.9899L78.12 40.5869L76.0352 39.6926ZM74.7929 51.0451L75.4135 51.8992C75.9409 52.6249 75.9527 53.5719 75.4875 54.2987C75.6638 54.2036 75.82 54.068 75.9393 53.8957L77.5441 51.5755L75.4316 50.166L74.7929 51.0451ZM73.1272 50.166L71.0148 51.5755L72.6196 53.8955C72.8398 54.2141 73.1872 54.4166 73.5726 54.4514C73.958 54.4858 74.336 54.349 74.6097 54.0752C75.0653 53.6191 75.1209 52.9097 74.7418 52.3881L73.1272 50.166ZM72.2031 71.2028C72.8407 71.2028 73.423 71.4441 73.8642 71.8398V57.4872H74.6947V71.8398C75.1359 71.4441 75.7181 71.2028 76.3557 71.2028C77.1153 71.2028 77.7961 71.5451 78.2535 72.0833L79.6418 55.4091H68.9171L70.3054 72.0833C70.7628 71.5451 71.4435 71.2028 72.2031 71.2028ZM76.6222 54.3688C76.5711 54.4426 76.516 54.5123 76.4573 54.5778H79.7215L80.3416 48.9916L76.6222 54.3688ZM78.0168 73.6965C78.0168 72.7798 77.2716 72.034 76.3557 72.034C75.4398 72.034 74.6947 72.7798 74.6947 73.6965V74.5278H78.0168V73.6965ZM70.542 74.5278H73.8642V73.6965C73.8642 72.7798 73.119 72.034 72.2031 72.034C71.2872 72.034 70.542 72.7798 70.542 73.6965V74.5278ZM68.8374 54.5778H72.1022C72.0433 54.5119 71.9877 54.4425 71.9367 54.3687L68.2173 48.9916L68.8374 54.5778ZM70.542 50.8919L72.6383 49.4932L68.9604 44.4317L69.6321 43.9428L74.2794 50.3384L78.9267 43.9428L79.5985 44.4317L75.9205 49.4932L78.0169 50.892L82.1362 44.9367L81.6511 42.9944C81.4946 42.3681 81.0473 41.8425 80.4546 41.5883L78.9421 40.9395L77.0646 42.8186C76.9844 42.899 76.8781 42.9404 76.7709 42.9404C76.6911 42.9404 76.6109 42.9174 76.5407 42.8706L74.2794 41.3618L72.0182 42.8706C71.9479 42.9174 71.8677 42.9404 71.7879 42.9404C71.6808 42.9404 71.5744 42.899 71.4942 42.8186L69.6167 40.9395L68.1042 41.5883C67.5115 41.8425 67.0642 42.3681 66.9078 42.9943L66.4227 44.9367L70.542 50.8919Z"/>
</mask>
<path d="M66.102 42.7926C66.3211 41.9159 66.9472 41.1801 67.777 40.8242L72.2031 38.9257V37.1247C70.7216 36.3273 69.8765 34.6892 70.1192 32.9887L70.5191 30.1869C69.5119 29.3578 68.881 28.1032 68.881 26.7311C68.881 26.5015 69.0669 26.3154 69.2963 26.3154H74.2794C76.3402 26.3154 78.0168 27.9934 78.0168 30.056V31.6776L78.2469 32.8292C78.5868 34.5304 77.805 36.2319 76.3557 37.0983V38.9257L80.7817 40.8242C81.6116 41.1801 82.2378 41.9159 82.4569 42.7927L82.9876 44.9177C83.0166 45.0337 82.9942 45.1567 82.9262 45.255L81.3369 47.5526L80.5065 55.0332L78.8459 74.9779L78.8439 74.9777C78.8261 75.1909 78.6496 75.359 78.4321 75.359H70.1268C69.9092 75.359 69.7327 75.1909 69.715 74.9777L69.7129 74.9779L68.0523 55.0332L67.2219 47.5525L65.6327 45.255C65.5646 45.1567 65.5422 45.0337 65.5712 44.9177L66.102 42.7926ZM70.4389 40.5869L71.8408 41.9899L73.6277 40.7976L72.5236 39.6926L70.4389 40.5869ZM75.5252 37.4752C75.1191 37.6072 74.6994 37.6743 74.2794 37.6743C73.8596 37.6743 73.4398 37.6072 73.0336 37.4752V39.0277L74.2794 40.2744L75.5252 39.0277V37.4752ZM77.1863 30.056C77.1863 28.4518 75.8823 27.1467 74.2794 27.1467H69.7353C69.9139 28.6961 71.0785 29.989 72.6353 30.3006L77.1863 31.2116L77.1863 30.056ZM77.4326 32.9922L77.2487 32.0717L72.4725 31.1156C72.0506 31.0312 71.6527 30.8872 71.2856 30.695L70.9414 33.1062C70.7309 34.5805 71.5489 35.9964 72.9306 36.5496L73.0851 36.6116C73.8553 36.9198 74.7035 36.9198 75.4737 36.6116C76.9126 36.0354 77.7365 34.5132 77.4326 32.9922ZM76.0352 39.6926L74.9312 40.7976L76.7181 41.9899L78.12 40.5869L76.0352 39.6926ZM74.7929 51.0451L75.4135 51.8992C75.9409 52.6249 75.9527 53.5719 75.4875 54.2987C75.6638 54.2036 75.82 54.068 75.9393 53.8957L77.5441 51.5755L75.4316 50.166L74.7929 51.0451ZM73.1272 50.166L71.0148 51.5755L72.6196 53.8955C72.8398 54.2141 73.1872 54.4166 73.5726 54.4514C73.958 54.4858 74.336 54.349 74.6097 54.0752C75.0653 53.6191 75.1209 52.9097 74.7418 52.3881L73.1272 50.166ZM72.2031 71.2028C72.8407 71.2028 73.423 71.4441 73.8642 71.8398V57.4872H74.6947V71.8398C75.1359 71.4441 75.7181 71.2028 76.3557 71.2028C77.1153 71.2028 77.7961 71.5451 78.2535 72.0833L79.6418 55.4091H68.9171L70.3054 72.0833C70.7628 71.5451 71.4435 71.2028 72.2031 71.2028ZM76.6222 54.3688C76.5711 54.4426 76.516 54.5123 76.4573 54.5778H79.7215L80.3416 48.9916L76.6222 54.3688ZM78.0168 73.6965C78.0168 72.7798 77.2716 72.034 76.3557 72.034C75.4398 72.034 74.6947 72.7798 74.6947 73.6965V74.5278H78.0168V73.6965ZM70.542 74.5278H73.8642V73.6965C73.8642 72.7798 73.119 72.034 72.2031 72.034C71.2872 72.034 70.542 72.7798 70.542 73.6965V74.5278ZM68.8374 54.5778H72.1022C72.0433 54.5119 71.9877 54.4425 71.9367 54.3687L68.2173 48.9916L68.8374 54.5778ZM70.542 50.8919L72.6383 49.4932L68.9604 44.4317L69.6321 43.9428L74.2794 50.3384L78.9267 43.9428L79.5985 44.4317L75.9205 49.4932L78.0169 50.892L82.1362 44.9367L81.6511 42.9944C81.4946 42.3681 81.0473 41.8425 80.4546 41.5883L78.9421 40.9395L77.0646 42.8186C76.9844 42.899 76.8781 42.9404 76.7709 42.9404C76.6911 42.9404 76.6109 42.9174 76.5407 42.8706L74.2794 41.3618L72.0182 42.8706C71.9479 42.9174 71.8677 42.9404 71.7879 42.9404C71.6808 42.9404 71.5744 42.899 71.4942 42.8186L69.6167 40.9395L68.1042 41.5883C67.5115 41.8425 67.0642 42.3681 66.9078 42.9943L66.4227 44.9367L70.542 50.8919Z" fill="#212121"/>
<path d="M66.102 42.7926C66.3211 41.9159 66.9472 41.1801 67.777 40.8242L72.2031 38.9257V37.1247C70.7216 36.3273 69.8765 34.6892 70.1192 32.9887L70.5191 30.1869C69.5119 29.3578 68.881 28.1032 68.881 26.7311C68.881 26.5015 69.0669 26.3154 69.2963 26.3154H74.2794C76.3402 26.3154 78.0168 27.9934 78.0168 30.056V31.6776L78.2469 32.8292C78.5868 34.5304 77.805 36.2319 76.3557 37.0983V38.9257L80.7817 40.8242C81.6116 41.1801 82.2378 41.9159 82.4569 42.7927L82.9876 44.9177C83.0166 45.0337 82.9942 45.1567 82.9262 45.255L81.3369 47.5526L80.5065 55.0332L78.8459 74.9779L78.8439 74.9777C78.8261 75.1909 78.6496 75.359 78.4321 75.359H70.1268C69.9092 75.359 69.7327 75.1909 69.715 74.9777L69.7129 74.9779L68.0523 55.0332L67.2219 47.5525L65.6327 45.255C65.5646 45.1567 65.5422 45.0337 65.5712 44.9177L66.102 42.7926ZM70.4389 40.5869L71.8408 41.9899L73.6277 40.7976L72.5236 39.6926L70.4389 40.5869ZM75.5252 37.4752C75.1191 37.6072 74.6994 37.6743 74.2794 37.6743C73.8596 37.6743 73.4398 37.6072 73.0336 37.4752V39.0277L74.2794 40.2744L75.5252 39.0277V37.4752ZM77.1863 30.056C77.1863 28.4518 75.8823 27.1467 74.2794 27.1467H69.7353C69.9139 28.6961 71.0785 29.989 72.6353 30.3006L77.1863 31.2116L77.1863 30.056ZM77.4326 32.9922L77.2487 32.0717L72.4725 31.1156C72.0506 31.0312 71.6527 30.8872 71.2856 30.695L70.9414 33.1062C70.7309 34.5805 71.5489 35.9964 72.9306 36.5496L73.0851 36.6116C73.8553 36.9198 74.7035 36.9198 75.4737 36.6116C76.9126 36.0354 77.7365 34.5132 77.4326 32.9922ZM76.0352 39.6926L74.9312 40.7976L76.7181 41.9899L78.12 40.5869L76.0352 39.6926ZM74.7929 51.0451L75.4135 51.8992C75.9409 52.6249 75.9527 53.5719 75.4875 54.2987C75.6638 54.2036 75.82 54.068 75.9393 53.8957L77.5441 51.5755L75.4316 50.166L74.7929 51.0451ZM73.1272 50.166L71.0148 51.5755L72.6196 53.8955C72.8398 54.2141 73.1872 54.4166 73.5726 54.4514C73.958 54.4858 74.336 54.349 74.6097 54.0752C75.0653 53.6191 75.1209 52.9097 74.7418 52.3881L73.1272 50.166ZM72.2031 71.2028C72.8407 71.2028 73.423 71.4441 73.8642 71.8398V57.4872H74.6947V71.8398C75.1359 71.4441 75.7181 71.2028 76.3557 71.2028C77.1153 71.2028 77.7961 71.5451 78.2535 72.0833L79.6418 55.4091H68.9171L70.3054 72.0833C70.7628 71.5451 71.4435 71.2028 72.2031 71.2028ZM76.6222 54.3688C76.5711 54.4426 76.516 54.5123 76.4573 54.5778H79.7215L80.3416 48.9916L76.6222 54.3688ZM78.0168 73.6965C78.0168 72.7798 77.2716 72.034 76.3557 72.034C75.4398 72.034 74.6947 72.7798 74.6947 73.6965V74.5278H78.0168V73.6965ZM70.542 74.5278H73.8642V73.6965C73.8642 72.7798 73.119 72.034 72.2031 72.034C71.2872 72.034 70.542 72.7798 70.542 73.6965V74.5278ZM68.8374 54.5778H72.1022C72.0433 54.5119 71.9877 54.4425 71.9367 54.3687L68.2173 48.9916L68.8374 54.5778ZM70.542 50.8919L72.6383 49.4932L68.9604 44.4317L69.6321 43.9428L74.2794 50.3384L78.9267 43.9428L79.5985 44.4317L75.9205 49.4932L78.0169 50.892L82.1362 44.9367L81.6511 42.9944C81.4946 42.3681 81.0473 41.8425 80.4546 41.5883L78.9421 40.9395L77.0646 42.8186C76.9844 42.899 76.8781 42.9404 76.7709 42.9404C76.6911 42.9404 76.6109 42.9174 76.5407 42.8706L74.2794 41.3618L72.0182 42.8706C71.9479 42.9174 71.8677 42.9404 71.7879 42.9404C71.6808 42.9404 71.5744 42.899 71.4942 42.8186L69.6167 40.9395L68.1042 41.5883C67.5115 41.8425 67.0642 42.3681 66.9078 42.9943L66.4227 44.9367L70.542 50.8919Z" stroke="#212121" stroke-width="0.6" mask="url(#path-6-outside-3_784_14980)"/>
<defs>
<filter id="filter0_dd_784_14980" x="0" y="0.795898" width="117" height="117" filterUnits="userSpaceOnUse" color-interpolation-filters="sRGB">
<feFlood flood-opacity="0" result="BackgroundImageFix"/>
<feColorMatrix in="SourceAlpha" type="matrix" values="0 0 0 0 0 0 0 0 0 0 0 0 0 0 0 0 0 0 127 0" result="hardAlpha"/>
<feMorphology radius="4" operator="erode" in="SourceAlpha" result="effect1_dropShadow_784_14980"/>
<feOffset dy="8"/>
<feGaussianBlur stdDeviation="12"/>
<feComposite in2="hardAlpha" operator="out"/>
<feColorMatrix type="matrix" values="0 0 0 0 0 0 0 0 0 0 0 0 0 0 0 0 0 0 0.08 0"/>
<feBlend mode="normal" in2="BackgroundImageFix" result="effect1_dropShadow_784_14980"/>
<feColorMatrix in="SourceAlpha" type="matrix" values="0 0 0 0 0 0 0 0 0 0 0 0 0 0 0 0 0 0 127 0" result="hardAlpha"/>
<feMorphology radius="6" operator="erode" in="SourceAlpha" result="effect2_dropShadow_784_14980"/>
<feOffset dy="6"/>
<feGaussianBlur stdDeviation="6"/>
<feComposite in2="hardAlpha" operator="out"/>
<feColorMatrix type="matrix" values="0 0 0 0 0 0 0 0 0 0 0 0 0 0 0 0 0 0 0.12 0"/>
<feBlend mode="normal" in2="effect1_dropShadow_784_14980" result="effect2_dropShadow_784_14980"/>
<feBlend mode="normal" in="SourceGraphic" in2="effect2_dropShadow_784_14980" result="shape"/>
</filter>
</defs>
</svg>
