<svg width="117" height="118" viewBox="0 0 117 118" fill="none" xmlns="http://www.w3.org/2000/svg">
<g filter="url(#filter0_dd_784_15037)">
<circle cx="38.5" cy="38.5" r="38.5" transform="matrix(-1 0 0 1 97 12.7959)" fill="white"/>
</g>
<path d="M35.4061 58.5297C35.8031 57.8258 36.4633 57.2655 37.2744 56.9441C38.0855 56.6228 38.9972 56.5603 39.8545 56.7674L42.3461 57.3697C43.4294 54.9133 45.28 52.7809 47.6817 51.2217C50.0834 49.6625 52.9368 48.7412 55.9082 48.5653V45.0656C55.5618 45.0893 55.2132 45.1015 54.8622 45.1019C54.7838 45.1019 54.7051 45.1013 54.6259 45.1001C51.4965 45.0603 48.4778 44.0681 46.077 42.2901C43.6831 40.4991 42.2672 38.1305 42.0902 35.6205C42.0444 34.98 42.0831 34.3368 42.2058 33.7042C42.2428 33.5146 42.3456 33.3398 42.5 33.2043C42.6544 33.0689 42.8526 32.9793 43.0671 32.9483C43.853 32.8354 44.6488 32.785 45.4448 32.7978C48.5743 32.8377 51.5929 33.8299 53.9937 35.608C55.2259 36.5161 56.2336 37.6394 56.9538 38.9077C57.674 37.6394 58.6817 36.5161 59.9139 35.608C62.3147 33.83 65.3333 32.8377 68.4628 32.7979C69.2586 32.7849 70.0541 32.8352 70.8397 32.9483C71.0542 32.9793 71.2524 33.0689 71.4068 33.2043C71.5612 33.3398 71.664 33.5146 71.7011 33.7042C71.8237 34.3368 71.8624 34.98 71.8166 35.6205C71.6396 38.1304 70.2238 40.499 67.8298 42.29C65.429 44.068 62.4104 45.0602 59.2809 45.1C59.2021 45.1012 59.1233 45.1018 59.0446 45.1018C58.6941 45.1018 58.3455 45.0897 57.9987 45.0655V48.5657C60.4251 48.7073 62.7807 49.3475 64.8791 50.4354C66.9775 51.5233 68.7608 53.0291 70.0878 54.8333L73.1313 55.757V55.5269C73.1319 55.0266 73.3566 54.547 73.7561 54.1933C74.1556 53.8396 74.6972 53.6406 75.2622 53.64H78.8691C79.4341 53.6406 79.9757 53.8396 80.3752 54.1933C80.7747 54.547 80.9994 55.0266 81 55.5269V67.941C80.9994 68.4412 80.7747 68.9208 80.3752 69.2746C79.9757 69.6284 79.4341 69.8274 78.8691 69.8279H75.2622C74.6972 69.8274 74.1556 69.6284 73.7561 69.2746C73.3566 68.9208 73.1319 68.4412 73.1313 67.941V67.5292L65.4083 69.0501C64.511 69.2266 63.5946 69.3157 62.6754 69.3159H54.9517C53.1105 69.3137 51.292 68.9562 49.6226 68.2684L37.2171 63.1381C36.7518 62.9454 36.3349 62.6722 35.9908 62.3346C35.6467 61.997 35.3825 61.6017 35.2137 61.1722C35.0449 60.7427 34.9749 60.2876 35.008 59.8338C35.041 59.38 35.1765 58.9365 35.4061 58.5297ZM55.8937 42.3928C55.5984 38.207 50.8949 34.7333 45.4085 34.6491C44.9976 34.6427 44.5865 34.6559 44.1772 34.6888C44.1578 34.9606 44.1578 35.2333 44.1772 35.5051C44.4724 39.6909 49.176 43.1647 54.6623 43.2487C55.0733 43.2553 55.4843 43.242 55.8937 43.2091C55.913 42.9373 55.913 42.6646 55.8937 42.3928ZM58.0137 43.2091C58.4231 43.242 58.8342 43.2552 59.2451 43.2487C64.7313 43.1647 69.4349 39.6909 69.7302 35.5052C69.7496 35.2333 69.7496 34.9607 69.7302 34.6888C69.3209 34.656 68.9098 34.6427 68.4989 34.6491C63.0126 34.7333 58.3092 38.207 58.0137 42.3927C57.9944 42.6646 57.9944 42.9372 58.0137 43.2091ZM56.9546 50.3862C54.255 50.379 51.6146 51.0868 49.3727 52.4185C47.1308 53.7503 45.3898 55.6452 44.3734 57.8598L48.8592 58.9443C49.5321 59.1068 50.2216 59.2095 50.9175 59.251C50.0314 58.446 49.0611 57.3129 49.0322 55.6196C49.028 55.3613 49.0818 55.1047 49.1906 54.865C49.2993 54.6252 49.4608 54.407 49.6657 54.223C49.8705 54.039 50.1147 53.8929 50.3838 53.7932C50.653 53.6935 50.9419 53.6422 51.2337 53.6422H51.2388L64.1805 53.6682C64.9675 53.6704 65.7525 53.738 66.5252 53.8701C65.2671 52.7606 63.7741 51.8818 62.1318 51.2839C60.4896 50.6861 58.7302 50.381 56.9546 50.3862ZM75.2222 67.941C75.2222 67.9503 75.2264 67.9593 75.2339 67.9659C75.2413 67.9726 75.2515 67.9763 75.2621 67.9763H78.869C78.8796 67.9763 78.8898 67.9726 78.8972 67.9659C78.9047 67.9593 78.9089 67.9503 78.9089 67.941V55.527C78.9089 55.5176 78.9047 55.5087 78.8972 55.5021C78.8897 55.4955 78.8796 55.4918 78.869 55.4918H75.2621C75.2515 55.4918 75.2414 55.4955 75.2339 55.5021C75.2264 55.5087 75.2222 55.5176 75.2222 55.527V67.941ZM37.1888 60.5641C37.2651 60.7603 37.3854 60.9408 37.5424 61.0948C37.6993 61.2488 37.8898 61.3731 38.1024 61.4604L50.5079 66.5907C51.9 67.1642 53.4165 67.4623 54.9519 67.4642H62.675C63.4416 67.464 64.2059 67.3897 64.9542 67.2425L73.1313 65.6323V57.7144L67.5562 56.0224C66.468 55.6918 65.3258 55.5221 64.1753 55.5201L51.2336 55.494C51.2188 55.4939 51.2041 55.4964 51.1904 55.5015C51.1768 55.5066 51.1644 55.5142 51.1542 55.5237C51.144 55.5325 51.1359 55.5431 51.1305 55.5548C51.1251 55.5665 51.1225 55.5791 51.1228 55.5917C51.1379 56.4739 51.5396 57.1842 52.5092 58.0437C52.9473 58.4342 53.4685 58.744 54.0428 58.9549C54.617 59.1658 55.2328 59.2737 55.8545 59.2724H62.7873C63.0628 59.2748 63.3262 59.3733 63.5201 59.5467C63.7139 59.7201 63.8227 59.9542 63.8227 60.1982C63.8227 60.4422 63.7139 60.6763 63.5201 60.8497C63.3262 61.023 63.0628 61.1216 62.7873 61.1239H51.6252C50.5048 61.1241 49.3894 60.9918 48.3085 60.7308L39.3029 58.5537C38.9948 58.4798 38.6698 58.4819 38.3628 58.5595C38.0559 58.6372 37.7788 58.7876 37.5612 58.9945C37.3437 59.2013 37.194 59.4568 37.1284 59.7335C37.0628 60.0101 37.0837 60.2972 37.1888 60.5641Z" fill="#212121"/>
<defs>
<filter id="filter0_dd_784_15037" x="0" y="0.795898" width="117" height="117" filterUnits="userSpaceOnUse" color-interpolation-filters="sRGB">
<feFlood flood-opacity="0" result="BackgroundImageFix"/>
<feColorMatrix in="SourceAlpha" type="matrix" values="0 0 0 0 0 0 0 0 0 0 0 0 0 0 0 0 0 0 127 0" result="hardAlpha"/>
<feMorphology radius="4" operator="erode" in="SourceAlpha" result="effect1_dropShadow_784_15037"/>
<feOffset dy="8"/>
<feGaussianBlur stdDeviation="12"/>
<feComposite in2="hardAlpha" operator="out"/>
<feColorMatrix type="matrix" values="0 0 0 0 0 0 0 0 0 0 0 0 0 0 0 0 0 0 0.08 0"/>
<feBlend mode="normal" in2="BackgroundImageFix" result="effect1_dropShadow_784_15037"/>
<feColorMatrix in="SourceAlpha" type="matrix" values="0 0 0 0 0 0 0 0 0 0 0 0 0 0 0 0 0 0 127 0" result="hardAlpha"/>
<feMorphology radius="6" operator="erode" in="SourceAlpha" result="effect2_dropShadow_784_15037"/>
<feOffset dy="6"/>
<feGaussianBlur stdDeviation="6"/>
<feComposite in2="hardAlpha" operator="out"/>
<feColorMatrix type="matrix" values="0 0 0 0 0 0 0 0 0 0 0 0 0 0 0 0 0 0 0.12 0"/>
<feBlend mode="normal" in2="effect1_dropShadow_784_15037" result="effect2_dropShadow_784_15037"/>
<feBlend mode="normal" in="SourceGraphic" in2="effect2_dropShadow_784_15037" result="shape"/>
</filter>
</defs>
</svg>
