<svg width="117" height="118" viewBox="0 0 117 118" fill="none" xmlns="http://www.w3.org/2000/svg">
<g filter="url(#filter0_dd_784_15011)">
<circle cx="38.5" cy="38.5" r="38.5" transform="matrix(-1 0 0 1 97 12.7959)" fill="white"/>
</g>
<path d="M63.364 73.185L63.3634 73.1852L59.2768 74.6525C59.2281 74.6766 59.1772 74.6858 59.1388 74.69C59.0968 74.6947 59.0561 74.6947 59.03 74.6947H59.0279H59.0229C58.9852 74.6948 58.9269 74.6948 58.8664 74.678C58.8086 74.6619 58.7536 74.6323 58.7025 74.5843L50.5156 71.6546L50.514 71.654C50.3404 71.5896 50.193 71.5132 50.0869 71.3202L45.0521 63.5837C45.0519 63.5834 45.0517 63.5831 45.0515 63.5827C44.9592 63.4455 44.8918 63.2969 44.8918 63.0797V53.5056C44.8918 53.3215 44.957 53.1433 45.0513 53.0028C45.0516 53.0024 45.0519 53.002 45.0521 53.0016L50.09 45.2304L50.09 45.2304L50.0914 45.2282C50.1469 45.146 50.225 45.0803 50.2996 45.0321C50.3726 44.9851 50.4513 44.949 50.5201 44.9291L58.7344 41.9596L58.7459 41.9554L58.758 41.9532C58.9358 41.9201 59.0913 41.9191 59.2492 41.9542L59.2584 41.9563L59.2672 41.9595L63.3634 43.4301L63.3643 43.4304L67.4517 44.9279C67.6123 44.9665 67.7842 45.0744 67.8636 45.239L72.9235 53.0026C73.0261 53.1553 73.0563 53.3079 73.0563 53.5056V63.0797C73.0563 63.2115 73.0283 63.4261 72.9238 63.5823L67.9123 71.3844L67.9123 71.3844L67.9105 71.3871C67.8551 71.4694 67.7769 71.5351 67.7023 71.5832C67.6294 71.6302 67.5508 71.6663 67.482 71.6862L63.364 73.185ZM62.8563 71.5228L62.8575 71.5224L66.7177 70.1289L71.4897 62.7951V53.7903L66.7178 46.4865L62.8575 45.093L62.8572 45.0928L59.0277 43.7008L51.2841 46.4866L46.5123 53.7903V62.825L51.2842 70.129L59.0274 72.9443L62.8563 71.5228Z" fill="#212121" stroke="#212121" stroke-width="0.3"/>
<path d="M69.5914 58.2791C69.5914 64.8286 64.8775 70.1042 59.0125 70.1042C53.1479 70.1042 48.3796 64.7691 48.3796 58.2791C48.3796 51.788 53.1489 46.5141 59.0125 46.5141C64.877 46.5141 69.5914 51.7891 69.5914 58.2791ZM67.9979 58.2791C67.9979 52.7639 63.9272 48.2547 59.0125 48.2547C54.0433 48.2547 49.9731 52.7645 49.9731 58.2791C49.9731 63.8543 54.0438 68.3635 59.0125 68.3635C63.9533 68.3635 67.9979 63.8552 67.9979 58.2791Z" fill="#212121" stroke="#212121" stroke-width="0.3"/>
<path d="M40.8772 57.8836L40.8776 57.8835L40.8816 57.8936C41.0012 58.1934 41.0078 58.4796 40.8764 58.7367C40.8762 58.7371 40.876 58.7376 40.8758 58.738L37.9918 64.6122H47.3177C47.7926 64.6122 48.1414 65.0251 48.1414 65.5125C48.1414 65.9999 47.7926 66.4128 47.3177 66.4128H36.6192C36.4816 66.4128 36.3487 66.3738 36.23 66.2857C36.1139 66.1995 36.0195 66.0723 35.945 65.9075C35.8172 65.6552 35.8176 65.3071 35.946 65.0554C35.9463 65.0549 35.9465 65.0544 35.9468 65.0539L39.2551 58.2791L35.9468 51.4448C35.9465 51.4443 35.9462 51.4437 35.9459 51.4431C35.8157 51.1878 35.8197 50.8703 35.9434 50.5946L35.9429 50.5944L35.9495 50.5826C36.1083 50.2996 36.3715 50.1459 36.6462 50.1459H47.3177C47.7926 50.1459 48.1414 50.5588 48.1414 51.0462C48.1414 51.5336 47.7926 51.9465 47.3177 51.9465H37.9908L40.8772 57.8836ZM81.3532 66.4128H70.6818C70.4897 66.4128 70.2865 66.3509 70.1285 66.2212C69.9669 66.0886 69.8581 65.889 69.8581 65.6326C69.8581 65.1451 70.2069 64.7322 70.6818 64.7322H80.0361L77.1527 58.7725C76.9931 58.5169 76.9931 58.1917 77.1528 57.9361L80.0356 52.0066H70.6818C70.2069 52.0066 69.8581 51.5937 69.8581 51.1063C69.8581 50.6529 70.2032 50.2059 70.6818 50.2059H81.3532C81.5009 50.2059 81.6451 50.2665 81.7631 50.3496C81.882 50.4335 81.9866 50.549 82.0526 50.6776C82.1823 50.9303 82.1825 51.2808 82.0531 51.5338L78.7177 58.2798L82.0533 65.1153C82.1833 65.3697 82.1798 65.6564 82.0573 65.9312C81.9233 66.2634 81.6214 66.4128 81.3532 66.4128Z" fill="#212121" stroke="#212121" stroke-width="0.3"/>
<path d="M58.2211 28.9731L58.2209 28.973L58.2237 28.9654C58.347 28.622 58.6361 28.3559 59.0116 28.3559C59.3738 28.3559 59.7067 28.6102 59.7775 28.9813L60.7679 32.3776H63.9162C64.2894 32.3776 64.583 32.6418 64.6798 32.995C64.8016 33.3732 64.6858 33.7728 64.4109 33.9679L61.7978 36.0924L62.8198 39.5361C62.9425 39.9145 62.8271 40.3175 62.5222 40.5127C62.404 40.61 62.2649 40.6911 62.0837 40.6911C61.8828 40.6911 61.7445 40.614 61.5912 40.5286L61.5795 40.5221L61.5681 40.5157L61.5579 40.5074L58.9577 38.3934L56.3575 40.5074L56.3576 40.5075L56.3523 40.5115C56.06 40.7284 55.6595 40.7352 55.3852 40.5061L55.3849 40.5065L55.3767 40.4984C55.1215 40.2498 55.0254 39.8624 55.1217 39.5389L56.0918 36.0933L53.4734 33.9646L53.473 33.965L53.4634 33.9556C53.2079 33.7066 53.1119 33.3186 53.2088 32.9948L53.2085 32.9948L53.2113 32.9871C53.3332 32.6476 53.5935 32.3776 53.9992 32.3776H57.2022L58.2211 28.9731ZM59.0263 32.1613L58.6163 33.531L58.6165 33.5311L58.6138 33.5387C58.4894 33.8851 58.2256 34.1182 57.8528 34.1182H56.5025L57.5961 34.9915L57.6019 34.9961L57.6072 35.0013C57.8649 35.2524 57.9567 35.6399 57.8629 35.9881L57.8629 35.9881L57.8625 35.9896L57.4501 37.4595L58.5393 36.5834C58.681 36.4654 58.8261 36.4294 59.0116 36.4294C59.1779 36.4294 59.3107 36.4692 59.4888 36.5684L59.5005 36.5749L59.5109 36.5834L60.5597 37.4429L60.135 36.0238C60.0099 35.6383 60.1335 35.2442 60.3976 35.0236L60.3975 35.0235L60.4017 35.0203L61.4847 34.1783H60.1704C59.803 34.1783 59.4764 33.9196 59.3788 33.557L59.3787 33.5571L59.3782 33.5548L59.0263 32.1613Z" fill="#212121" stroke="#212121" stroke-width="0.3"/>
<path d="M48.9915 42.227L48.9915 42.227L48.9892 42.2286C48.8533 42.3194 48.7123 42.4039 48.5285 42.4039C48.36 42.4039 48.2305 42.3478 48.0759 42.2808C48.0468 42.2683 48.0169 42.2553 47.9857 42.2423L47.9662 42.2341L47.9497 42.2209L45.8337 40.5253L43.7178 42.2209L43.7181 42.2213L43.7073 42.2286C43.4075 42.4289 43.0273 42.4902 42.741 42.2144C42.4552 41.9645 42.3593 41.5743 42.4562 41.2505L43.2898 38.4652L41.1578 36.7277L41.1574 36.7282L41.1478 36.7189C40.8901 36.4677 40.7983 36.0802 40.8921 35.7321L40.8916 35.732L40.8958 35.7204C41.0202 35.3741 41.2839 35.1409 41.6567 35.1409H44.2399L45.0702 32.3666L45.073 32.3572L45.0771 32.3482C45.2231 32.023 45.479 31.7494 45.8607 31.7494C46.2277 31.7494 46.5541 32.0077 46.652 32.3698L47.4296 35.1409H50.0646C50.4275 35.1409 50.7286 35.3648 50.8282 35.7283C50.9523 36.1132 50.8286 36.5063 50.565 36.7266L50.565 36.7266L50.5636 36.7277L48.4315 38.4652L49.2646 41.2488C49.3882 41.6297 49.2703 42.0329 48.9915 42.227ZM45.1432 38.3612L45.1432 38.3612L45.142 38.3652L44.9018 39.1677L45.4695 38.7161C45.5932 38.6131 45.7336 38.5324 45.9415 38.5324C46.0904 38.5324 46.2813 38.609 46.4291 38.7077L46.4294 38.7073L46.4391 38.715L47.0081 39.1677L46.7685 38.3669C46.6434 37.9814 46.767 37.5873 47.0311 37.3667L47.0311 37.3667L47.0332 37.365L47.6716 36.8515H46.9116C46.5443 36.8515 46.2177 36.5929 46.1201 36.2303L46.12 36.2303L46.1196 36.2286L45.9304 35.491L45.7079 36.2343L45.7081 36.2343L45.7054 36.242C45.5821 36.5853 45.293 36.8515 44.9175 36.8515H44.2384L44.8768 37.365L44.8823 37.3694L44.8874 37.3744C45.1451 37.6255 45.2369 38.0131 45.1432 38.3612Z" fill="#212121" stroke="#212121" stroke-width="0.3"/>
<path d="M76.7134 36.7266L76.7134 36.7266L76.712 36.7277L74.5799 38.4652L75.413 41.2488C75.5363 41.6288 75.4195 42.0337 75.1117 42.228C74.8203 42.441 74.4236 42.4467 74.1509 42.22L72.0361 40.5253L69.9213 42.22C69.7975 42.3231 69.657 42.4039 69.449 42.4039C69.3696 42.4039 69.2896 42.382 69.2073 42.3553C69.1689 42.3428 69.1204 42.3259 69.0661 42.3069C69.0117 42.2879 68.9514 42.2668 68.8895 42.2461L68.8613 42.2367L68.8388 42.2172C68.5431 41.9611 68.4866 41.5689 68.5474 41.2641L68.5467 41.264L68.5508 41.2505L69.3844 38.4652L67.2523 36.7277L67.2519 36.7282L67.2424 36.7189C66.9847 36.4677 66.8929 36.0802 66.9866 35.7321L66.9862 35.732L66.9903 35.7204C67.1173 35.3667 67.4124 35.1409 67.7782 35.1409H70.3873L71.1913 32.3679L71.1911 32.3678L71.1942 32.3589C71.3147 32.0235 71.5731 31.7494 71.9552 31.7494C72.3218 31.7494 72.6479 32.007 72.7462 32.3685L73.576 35.1409H76.1861C76.3599 35.1409 76.5263 35.1851 76.6669 35.2848C76.8081 35.3848 76.913 35.5334 76.9754 35.7245C77.1015 36.1107 76.9779 36.5056 76.7134 36.7266ZM71.2377 38.3612L71.2378 38.3612L71.2366 38.3652L70.9964 39.1677L71.5641 38.7161C71.6915 38.6101 71.8585 38.5324 72.0361 38.5324C72.2365 38.5324 72.4006 38.6087 72.5857 38.6971L72.6011 38.7044L72.6145 38.715L73.1835 39.1677L72.9438 38.3669C72.8188 37.9814 72.9424 37.5873 73.2065 37.3667L73.2064 37.3667L73.2086 37.365L73.8469 36.8515H73.087C72.7199 36.8515 72.3935 36.5932 72.2956 36.2309C72.2956 36.2307 72.2955 36.2305 72.2954 36.2303L72.09 35.4909L71.8841 36.2314L71.8845 36.2316L71.8808 36.242C71.7575 36.5853 71.4684 36.8515 71.0929 36.8515H70.333L70.9713 37.365L70.9769 37.3694L70.982 37.3744C71.2397 37.6255 71.3315 38.0131 71.2377 38.3612Z" fill="#212121" stroke="#212121" stroke-width="0.3"/>
<path d="M67.0172 58.2796C67.0172 63.2086 63.4619 67.1934 59.0253 67.1934C58.5622 67.1934 58.2016 66.8232 58.2016 66.3531C58.2016 65.8834 58.4815 65.4528 58.9714 65.4528C62.511 65.4528 65.3698 62.265 65.3698 58.2796C65.3698 57.7882 65.7492 57.3793 66.1935 57.3793C66.6684 57.3793 67.0172 57.7922 67.0172 58.2796Z" fill="#212121" stroke="#212121" stroke-width="0.3"/>
<defs>
<filter id="filter0_dd_784_15011" x="0" y="0.795898" width="117" height="117" filterUnits="userSpaceOnUse" color-interpolation-filters="sRGB">
<feFlood flood-opacity="0" result="BackgroundImageFix"/>
<feColorMatrix in="SourceAlpha" type="matrix" values="0 0 0 0 0 0 0 0 0 0 0 0 0 0 0 0 0 0 127 0" result="hardAlpha"/>
<feMorphology radius="4" operator="erode" in="SourceAlpha" result="effect1_dropShadow_784_15011"/>
<feOffset dy="8"/>
<feGaussianBlur stdDeviation="12"/>
<feComposite in2="hardAlpha" operator="out"/>
<feColorMatrix type="matrix" values="0 0 0 0 0 0 0 0 0 0 0 0 0 0 0 0 0 0 0.08 0"/>
<feBlend mode="normal" in2="BackgroundImageFix" result="effect1_dropShadow_784_15011"/>
<feColorMatrix in="SourceAlpha" type="matrix" values="0 0 0 0 0 0 0 0 0 0 0 0 0 0 0 0 0 0 127 0" result="hardAlpha"/>
<feMorphology radius="6" operator="erode" in="SourceAlpha" result="effect2_dropShadow_784_15011"/>
<feOffset dy="6"/>
<feGaussianBlur stdDeviation="6"/>
<feComposite in2="hardAlpha" operator="out"/>
<feColorMatrix type="matrix" values="0 0 0 0 0 0 0 0 0 0 0 0 0 0 0 0 0 0 0.12 0"/>
<feBlend mode="normal" in2="effect1_dropShadow_784_15011" result="effect2_dropShadow_784_15011"/>
<feBlend mode="normal" in="SourceGraphic" in2="effect2_dropShadow_784_15011" result="shape"/>
</filter>
</defs>
</svg>
