<svg width="117" height="118" viewBox="0 0 117 118" fill="none" xmlns="http://www.w3.org/2000/svg">
<g filter="url(#filter0_dd_784_14962)">
<circle cx="38.5" cy="38.5" r="38.5" transform="matrix(-1 0 0 1 97 12.2959)" fill="white"/>
</g>
<path d="M78.7836 55.7327C78.9279 55.7328 79.0701 55.6986 79.1987 55.633L86.1061 52.0751C86.3191 51.9655 86.48 51.776 86.5537 51.5482C86.6274 51.3203 86.6079 51.0725 86.4994 50.8589L78.3848 34.831C78.331 34.7245 78.2566 34.6298 78.1661 34.5522C78.0755 34.4745 77.9705 34.4156 77.8571 34.3786C77.7437 34.3416 77.6241 34.3274 77.5052 34.3368C77.3863 34.3461 77.2704 34.3789 77.1641 34.4331L70.5929 37.7863C70.3819 37.8936 70.2213 38.0792 70.1455 38.3035C70.0696 38.5277 70.0845 38.7727 70.1869 38.9861L77.9662 55.2153C78.0187 55.3244 78.0925 55.422 78.1833 55.5022C78.274 55.5825 78.3798 55.6439 78.4945 55.6829C78.5876 55.7147 78.6852 55.7315 78.7836 55.7327ZM84.4758 50.8752L79.1978 53.594L72.2033 39.0033L77.1786 36.4658L84.4758 50.8752Z" fill="#212121"/>
<path d="M69.3952 43.1211C69.5511 43.121 69.7044 43.0808 69.8402 43.0042L72.4738 41.5206C72.5775 41.4623 72.6687 41.384 72.7422 41.2904C72.8157 41.1968 72.87 41.0896 72.902 40.975C72.9341 40.8604 72.9433 40.7406 72.929 40.6224C72.9148 40.5042 72.8774 40.39 72.819 40.2863C72.7607 40.1826 72.6824 40.0914 72.5888 40.0179C72.4952 39.9444 72.388 39.8901 72.2734 39.858C72.1588 39.826 72.039 39.8168 71.9208 39.831C71.8027 39.8453 71.6885 39.8827 71.5847 39.941L69.4097 41.1654C68.5606 40.6506 66.7227 39.5423 65.5464 38.878C63.626 37.7905 62.2739 37.94 60.7215 39.4109C60.5516 39.5772 60.4538 39.8036 60.4492 40.0414C60.4447 40.2791 60.5338 40.5091 60.6973 40.6817C60.8608 40.8544 61.0856 40.9559 61.3232 40.9643C61.5609 40.9727 61.7923 40.8874 61.9676 40.7267C62.9319 39.8132 63.4339 39.7661 64.6546 40.4549C66.1663 41.3095 68.8932 42.9715 68.9213 42.9924C69.0644 43.0781 69.2284 43.1226 69.3952 43.1211Z" fill="#212121"/>
<path d="M45.5533 58.8892C46.2137 58.9062 46.8651 58.7342 47.4311 58.3935C48.2648 57.8371 51.9333 54.2393 52.6601 53.5242C52.8204 53.3537 52.9084 53.1278 52.9058 52.8938C52.9033 52.6598 52.8103 52.4358 52.6463 52.2688C52.4824 52.1018 52.2602 52.0047 52.0263 51.9979C51.7924 51.991 51.5649 52.0749 51.3914 52.2319C49.7601 53.8423 46.9616 56.5294 46.4278 56.8855C46.0838 57.0445 45.7033 57.1078 45.3263 57.0689C44.9493 57.03 44.5898 56.8903 44.2855 56.6644C44.143 56.5408 44.0293 56.3875 43.9526 56.2151C43.8758 56.0428 43.8379 55.8558 43.8413 55.6672C43.8448 55.4786 43.8896 55.2931 43.9726 55.1237C44.0556 54.9543 44.1748 54.8052 44.3217 54.687C45.2479 53.6448 49.0958 49.9427 49.9405 49.1307C52.8877 48.0504 55.7457 46.7408 58.4882 45.2139L59.4416 45.8374C59.6557 46.831 60.2267 47.7116 61.0466 48.3124C61.3343 48.5391 61.6684 48.6998 62.0252 48.7831C62.3819 48.8664 62.7526 48.8703 63.111 48.7945C63.5459 48.7403 63.9648 48.5959 64.3407 48.3706C64.7166 48.1453 65.0414 47.8439 65.2942 47.4859C65.7761 46.4562 65.8302 45.2775 65.4446 44.208C64.6716 41.114 63.4173 40.3175 61.6818 39.2155L61.3003 38.9717C59.3881 37.7437 57.7469 37.0894 55.9453 37.9005C54.8252 38.4053 50.8494 39.945 49.7203 40.3818L45.9358 39.1411C45.709 39.0722 45.4644 39.0948 45.2541 39.2041C45.0439 39.3134 44.8848 39.5007 44.8109 39.7258C44.7371 39.951 44.7544 40.1961 44.8591 40.4087C44.9638 40.6212 45.1476 40.7843 45.3712 40.863L49.4629 42.2043C49.661 42.2689 49.8753 42.2638 50.0701 42.1898C50.2848 42.1064 55.3399 40.1616 56.6857 39.5544C57.4932 39.1919 58.3459 39.229 60.3179 40.496L60.7076 40.7452C62.2908 41.7502 63.0856 42.2559 63.6838 44.6475C63.9901 45.8728 63.8487 46.3694 63.7372 46.5506C63.594 46.7899 63.2623 46.8869 62.734 47.0192C62.6206 47.0383 62.5043 47.0319 62.3937 47.0006C62.283 46.9692 62.1807 46.9137 62.0942 46.8379C61.8386 46.6453 61.6251 46.4025 61.4669 46.1243C61.3087 45.8461 61.2091 45.5384 61.1743 45.2203C61.1625 45.0836 61.1198 44.9515 61.0495 44.8337C60.9792 44.716 60.883 44.6158 60.7683 44.5406L59.0238 43.3996C58.8863 43.3102 58.7271 43.2597 58.5632 43.2537C58.3993 43.2476 58.2368 43.2862 58.0931 43.3652C58.0315 43.3987 51.9215 46.74 49.2454 47.4433C49.0966 47.483 48.9601 47.5594 48.8484 47.6653C48.6527 47.8529 44.0453 52.2645 42.9633 53.4853C42.6634 53.7755 42.4257 54.1236 42.2644 54.5085C42.1032 54.8933 42.0218 55.3069 42.0251 55.7242C42.0285 56.1415 42.1166 56.5537 42.2841 56.9359C42.4516 57.3181 42.695 57.6623 42.9995 57.9476C43.6968 58.5802 44.6123 58.9178 45.5533 58.8892Z" fill="#212121"/>
<path d="M43.6413 54.9914C43.8489 54.9912 44.0502 54.9198 44.2115 54.7889C44.3728 54.6581 44.4843 54.4759 44.5272 54.2727C44.5702 54.0696 44.5421 53.8578 44.4477 53.6729C44.3532 53.4879 44.1981 53.3411 44.0083 53.2568L40.8292 51.8485C40.7199 51.7969 40.6014 51.7677 40.4807 51.7625C40.3599 51.7574 40.2394 51.7765 40.1261 51.8186C40.0129 51.8608 39.9092 51.9251 39.8212 52.008C39.7332 52.0908 39.6626 52.1903 39.6137 52.3008C39.5647 52.4113 39.5383 52.5305 39.5361 52.6513C39.5339 52.7721 39.5559 52.8922 39.6007 53.0044C39.6456 53.1166 39.7124 53.2187 39.7973 53.3047C39.8822 53.3907 39.9835 53.4588 40.0951 53.5051L43.2751 54.9171C43.3907 54.967 43.5154 54.9923 43.6413 54.9914Z" fill="#212121"/>
<path d="M39.485 55.7327C39.6657 55.7327 39.8421 55.6786 39.9918 55.5775C40.1415 55.4764 40.2576 55.3329 40.3251 55.1654L47.1655 38.195C47.2112 38.0818 47.2336 37.9606 47.2313 37.8385C47.229 37.7165 47.2021 37.5962 47.1522 37.4848C47.1022 37.3734 47.0303 37.2733 46.9407 37.1904C46.8511 37.1075 46.7457 37.0435 46.6308 37.0024L39.321 34.3869C39.0999 34.3078 38.8567 34.3177 38.6426 34.4144C38.4286 34.5111 38.2605 34.6871 38.1737 34.9053L31.4674 51.738C31.4236 51.8493 31.4022 51.9681 31.4044 52.0877C31.4067 52.2073 31.4327 52.3253 31.4808 52.4348C31.5289 52.5444 31.5982 52.6433 31.6847 52.7259C31.7713 52.8085 31.8733 52.8731 31.9849 52.9161L39.1606 55.6693C39.2639 55.7102 39.3739 55.7317 39.485 55.7327ZM45.1346 38.3907L38.9802 53.6583L33.4938 51.5558L39.534 36.3879L45.1346 38.3907ZM49.6368 61.6379C50.3839 61.6603 51.1135 61.4092 51.6886 60.9319C52.9021 59.8535 56.0214 56.736 56.1537 56.6036C56.3188 56.4327 56.4101 56.2038 56.408 55.9662C56.406 55.7286 56.3107 55.5013 56.1426 55.3333C55.9746 55.1652 55.7473 55.0699 55.5097 55.0679C55.2721 55.0658 55.0432 55.1571 54.8722 55.3222C54.8405 55.3539 51.6578 58.5349 50.4851 59.5816C50.242 59.7297 49.9668 59.8169 49.6828 59.8358C49.3988 59.8548 49.1144 59.8048 48.8538 59.6903C48.4283 59.5452 48.0508 59.2859 47.7625 58.9409C47.4742 58.5959 47.2862 58.1783 47.219 57.7337C47.1987 57.6165 47.1556 57.5043 47.092 57.4037C47.0285 57.3031 46.9457 57.216 46.8484 57.1473C46.7512 57.0787 46.6414 57.0299 46.5253 57.0037C46.4092 56.9775 46.2891 56.9745 46.1718 56.9947C46.0545 57.0149 45.9424 57.0581 45.8417 57.1216C45.7411 57.1852 45.654 57.268 45.5854 57.3652C45.5168 57.4625 45.468 57.5723 45.4418 57.6884C45.4156 57.8045 45.4125 57.9246 45.4327 58.0419C45.5559 58.8032 45.883 59.517 46.3793 60.1073C46.8755 60.6977 47.5224 61.1427 48.2512 61.395C48.6962 61.553 49.1646 61.6351 49.6368 61.6379Z" fill="#212121"/>
<path d="M53.8556 63.8347C54.6011 63.8665 55.3296 63.6065 55.8865 63.1097L59.1055 59.8907L57.8231 58.6084L54.6041 61.8274C54.4049 61.9393 54.1845 62.008 53.957 62.0293C53.7296 62.0505 53.5002 62.0237 53.2837 61.9506C52.868 61.8486 52.4873 61.6367 52.1816 61.3371C51.8758 61.0376 51.6561 60.6613 51.5455 60.2478C51.512 60.1324 51.4559 60.0249 51.3805 59.9314C51.305 59.8379 51.2117 59.7604 51.106 59.7033C51.0003 59.6462 50.8843 59.6107 50.7648 59.5988C50.6453 59.5869 50.5246 59.599 50.4097 59.6342C50.2948 59.6694 50.1881 59.727 50.0958 59.8039C50.0034 59.8807 49.9272 59.9751 49.8717 60.0816C49.8162 60.1881 49.7823 60.3046 49.7722 60.4243C49.7621 60.544 49.7759 60.6645 49.8128 60.7789C50.0649 61.6571 50.5952 62.4298 51.3241 62.9809C52.0529 63.5319 52.9418 63.8316 53.8556 63.8347Z" fill="#212121"/>
<path d="M57.3079 66.2552C58.0488 66.2709 58.7733 66.0362 59.3642 65.5891C60.1806 64.9354 61.0007 64.2866 61.8247 63.6424C61.9204 63.5699 62.0008 63.479 62.0611 63.3751C62.1214 63.2712 62.1605 63.1564 62.176 63.0373C62.1915 62.9181 62.1832 62.7971 62.1515 62.6812C62.1199 62.5654 62.0655 62.4569 61.9915 62.3623C61.9176 62.2676 61.8256 62.1886 61.7208 62.1298C61.616 62.071 61.5006 62.0336 61.3813 62.0198C61.262 62.0061 61.1411 62.0162 61.0257 62.0495C60.9103 62.0829 60.8026 62.1389 60.7091 62.2142C60.7091 62.2142 59.5772 63.0978 58.2314 64.1744C57.9447 64.3451 57.6185 64.4384 57.285 64.4452C56.9514 64.452 56.6217 64.3721 56.3282 64.2134C56.0659 64.1006 55.8438 63.9109 55.6914 63.6693C55.539 63.4278 55.4634 63.1457 55.4746 62.8603C55.4819 62.6201 55.3935 62.3868 55.2288 62.2118C55.0641 62.0367 54.8366 61.9342 54.5964 61.9269C54.3569 61.9227 54.1252 62.0122 53.9508 62.1765C53.7764 62.3407 53.6731 62.5666 53.663 62.806C53.6416 63.4372 53.8061 64.0609 54.1361 64.5995C54.466 65.138 54.9469 65.5679 55.519 65.8356C56.0752 66.1109 56.6873 66.2545 57.3079 66.2552Z" fill="#212121"/>
<path d="M64.1004 65.8351C64.3949 65.834 64.6865 65.7755 64.9586 65.6629C65.6976 65.3003 66.3068 64.7187 66.7031 63.9972C67.3463 64.122 68.0128 64.0219 68.5909 63.7136C69.0758 63.3957 69.4926 62.9846 69.8172 62.5042C70.1417 62.0238 70.3675 61.4836 70.4813 60.9151C70.5291 60.6836 70.4845 60.4426 70.3571 60.2435C69.6204 59.0944 68.5093 57.3082 68.3435 56.9357C68.1942 56.6386 67.9825 56.3772 67.7229 56.1695C67.4632 55.9617 67.1617 55.8126 66.8391 55.7322C66.4002 55.6172 65.9411 55.6018 65.4955 55.6871C65.0498 55.7724 64.6289 55.9562 64.2635 56.2252C63.8586 56.4933 63.5334 56.8656 63.3222 57.3029C63.1111 57.7402 63.0217 58.2263 63.0636 58.7102C62.6326 58.7287 62.2105 58.8395 61.8259 59.0351C61.4413 59.2307 61.1032 59.5065 60.8343 59.8439C60.5731 60.2521 60.4063 60.7135 60.3463 61.1944C60.2862 61.6752 60.3344 62.1635 60.4872 62.6234C60.9625 63.95 61.9384 65.0378 63.2059 65.6539C63.4889 65.7735 63.7931 65.8351 64.1004 65.8351ZM65.177 63.0067C64.8925 63.4879 64.384 64.1785 63.9083 63.98C63.1183 63.5686 62.5102 62.8774 62.2027 62.0415C62.1422 61.8566 62.119 61.6614 62.1346 61.4674C62.1502 61.2734 62.2041 61.0844 62.2933 60.9114C62.4312 60.7764 62.5949 60.6706 62.7745 60.6002C62.9542 60.5298 63.1462 60.4963 63.3391 60.5018L65.177 63.0067ZM68.6126 60.877C68.4684 61.3806 68.1559 61.8194 67.7272 62.1204C67.5934 62.1891 67.4469 62.2296 67.2968 62.2394C67.1467 62.2492 66.9961 62.2281 66.8545 62.1775L64.9196 58.8606C64.8427 58.6556 64.8378 58.4306 64.9056 58.2224C64.9735 58.0143 65.1101 57.8354 65.293 57.7151C65.4322 57.6054 65.5928 57.526 65.7645 57.4822C65.9362 57.4383 66.1152 57.4309 66.2899 57.4604C66.4442 57.4859 66.585 57.5636 66.6886 57.6807C66.9279 58.2108 68.0788 60.0378 68.6126 60.877Z" fill="#212121"/>
<path d="M71.0268 62.2933C71.2415 62.2939 71.4552 62.2634 71.6611 62.2026C73.2135 61.7359 73.8216 59.7259 73.886 59.4984C73.9185 59.383 73.9278 59.2623 73.9133 59.1433C73.8988 59.0243 73.8609 58.9093 73.8017 58.8051C73.0314 57.4671 72.1794 56.1778 71.2506 54.9445C70.7843 54.3379 70.1087 53.9268 69.3556 53.7916C68.6026 53.6564 67.8261 53.8067 67.1779 54.2131C66.3224 54.8067 65.6953 56.0981 66.7447 57.7856C66.8075 57.8867 66.8896 57.9745 66.9863 58.044C67.083 58.1134 67.1925 58.1631 67.3084 58.1903C67.4243 58.2174 67.5444 58.2214 67.6619 58.2021C67.7794 58.1829 67.8919 58.1406 67.9931 58.0778C68.0942 58.0151 68.182 57.933 68.2515 57.8363C68.3209 57.7396 68.3706 57.6301 68.3978 57.5142C68.4249 57.3983 68.4289 57.2781 68.4097 57.1607C68.3904 57.0432 68.3481 56.9306 68.2853 56.8295C68.0524 56.4534 67.8503 55.954 68.2119 55.703C68.4762 55.5587 68.7836 55.5142 69.0779 55.5778C69.3723 55.6413 69.6339 55.8087 69.8151 56.0492C70.6112 57.1071 71.3479 58.2083 72.0218 59.348C71.8233 59.8219 71.4853 60.3648 71.14 60.4672C70.8346 60.5578 70.415 60.2442 70.1876 60.0503C70.0056 59.8931 69.7687 59.8146 69.5289 59.8321C69.2891 59.8496 69.066 59.9617 68.9088 60.1436C68.7517 60.3256 68.6732 60.5625 68.6907 60.8023C68.7082 61.0421 68.8202 61.2652 69.0022 61.4224C69.5471 61.9516 70.2678 62.2617 71.0268 62.2933Z" fill="#212121"/>
<path d="M73.016 60.1556C73.1156 60.1554 73.2145 60.1389 73.3087 60.1066C73.4619 60.055 77.0742 58.7926 77.0742 55.9632C77.0743 55.8682 77.0596 55.7737 77.0307 55.6832C76.7028 54.7808 76.2537 53.9271 75.6958 53.1457C75.2806 52.6496 74.7072 52.3117 74.072 52.1889C73.4368 52.0661 72.7788 52.1659 72.2086 52.4715C71.6718 52.7093 71.2437 53.1398 71.0088 53.6778C70.774 54.2159 70.7493 54.8225 70.9398 55.3778C71.5325 57.2864 72.1406 59.4677 72.1469 59.4904C72.2002 59.6809 72.3143 59.8488 72.4718 59.9684C72.6294 60.088 72.8218 60.1528 73.0197 60.1528L73.016 60.1556ZM75.2545 56.1037C75.1638 56.952 74.2957 57.5972 73.5997 57.9842C73.3631 57.1577 73.0124 55.9551 72.668 54.8431C72.6364 54.7725 72.6203 54.6959 72.6206 54.6185C72.621 54.5411 72.6378 54.4647 72.6701 54.3944C72.7023 54.324 72.7492 54.2614 72.8076 54.2106C72.8661 54.1599 72.9346 54.1221 73.0088 54.1C73.196 53.9944 73.4104 53.9466 73.6247 53.9627C73.8391 53.9789 74.0439 54.0582 74.2132 54.1906C74.6334 54.7857 74.9828 55.4278 75.2545 56.1037Z" fill="#212121"/>
<path d="M75.4243 55.3058C75.6067 55.3056 75.7849 55.2504 75.9354 55.1472L78.3125 53.516C78.5109 53.3802 78.6473 53.1711 78.6915 52.9348C78.7358 52.6985 78.6844 52.4543 78.5486 52.2559C78.4128 52.0574 78.2037 51.9211 77.9674 51.8768C77.7311 51.8326 77.4869 51.884 77.2884 52.0198L74.9113 53.651C74.7512 53.7603 74.6304 53.918 74.5665 54.101C74.5026 54.2841 74.4992 54.4828 74.5565 54.6679C74.6139 54.8531 74.7292 55.0149 74.8854 55.1298C75.0416 55.2446 75.2304 55.3063 75.4243 55.3058Z" fill="#212121"/>
<defs>
<filter id="filter0_dd_784_14962" x="0" y="0.295898" width="117" height="117" filterUnits="userSpaceOnUse" color-interpolation-filters="sRGB">
<feFlood flood-opacity="0" result="BackgroundImageFix"/>
<feColorMatrix in="SourceAlpha" type="matrix" values="0 0 0 0 0 0 0 0 0 0 0 0 0 0 0 0 0 0 127 0" result="hardAlpha"/>
<feMorphology radius="4" operator="erode" in="SourceAlpha" result="effect1_dropShadow_784_14962"/>
<feOffset dy="8"/>
<feGaussianBlur stdDeviation="12"/>
<feComposite in2="hardAlpha" operator="out"/>
<feColorMatrix type="matrix" values="0 0 0 0 0 0 0 0 0 0 0 0 0 0 0 0 0 0 0.08 0"/>
<feBlend mode="normal" in2="BackgroundImageFix" result="effect1_dropShadow_784_14962"/>
<feColorMatrix in="SourceAlpha" type="matrix" values="0 0 0 0 0 0 0 0 0 0 0 0 0 0 0 0 0 0 127 0" result="hardAlpha"/>
<feMorphology radius="6" operator="erode" in="SourceAlpha" result="effect2_dropShadow_784_14962"/>
<feOffset dy="6"/>
<feGaussianBlur stdDeviation="6"/>
<feComposite in2="hardAlpha" operator="out"/>
<feColorMatrix type="matrix" values="0 0 0 0 0 0 0 0 0 0 0 0 0 0 0 0 0 0 0.12 0"/>
<feBlend mode="normal" in2="effect1_dropShadow_784_14962" result="effect2_dropShadow_784_14962"/>
<feBlend mode="normal" in="SourceGraphic" in2="effect2_dropShadow_784_14962" result="shape"/>
</filter>
</defs>
</svg>
