<svg width="117" height="118" viewBox="0 0 117 118" fill="none" xmlns="http://www.w3.org/2000/svg">
<g filter="url(#filter0_dd_784_15044)">
<circle cx="38.5" cy="38.5" r="38.5" transform="matrix(-1 0 0 1 97 12.7959)" fill="white"/>
</g>
<path d="M56.7781 57.2684L56.7782 57.2681C56.8398 56.9683 57.0041 56.756 57.2176 56.6329C57.4278 56.5117 57.6766 56.482 57.9054 56.526C58.1341 56.57 58.3531 56.6898 58.5003 56.8809C58.6499 57.075 58.7175 57.333 58.6562 57.6324C57.8381 61.8464 55.4106 64.5689 53.2834 66.2089C55.2813 69.6008 58.0563 72.5266 61.4673 74.6768C65.296 67.3409 65.1495 58.4705 60.9988 51.2757C56.7758 43.9697 48.9755 39.3705 40.5636 39.1577C32.4664 53.9774 41.6416 72.3353 58.302 74.7867C53.2789 70.8697 49.8145 65.298 48.4869 59.0917C46.8333 59.0425 44.662 58.5912 42.6379 56.9593C42.3923 56.7741 42.2742 56.5343 42.2619 56.2887C42.2498 56.0469 42.3407 55.8125 42.4877 55.6302C42.6348 55.4478 42.8452 55.3086 43.0849 55.2656C43.3283 55.222 43.5908 55.28 43.8291 55.4739C45.3122 56.644 46.8763 57.0514 48.16 57.1382C47.9939 55.969 47.9108 54.7738 47.9108 53.5788C47.9108 53.2699 48.0315 53.0279 48.2197 52.8651C48.4049 52.705 48.6468 52.6285 48.8833 52.6285C49.1198 52.6285 49.3617 52.705 49.5469 52.8651C49.7351 53.0279 49.8557 53.2699 49.8557 53.5788C49.8557 57.3947 50.7348 61.1225 52.3775 64.4738C54.1464 63.0461 56.075 60.7281 56.7781 57.2684ZM63.9459 44.7214L63.9395 44.7278L63.9324 44.7334C62.844 45.5872 61.8125 46.5557 60.8658 47.6112C61.5104 48.4696 62.0991 49.3572 62.659 50.301L62.6599 50.3027C66.7018 57.3146 67.2325 65.79 64.253 73.2114C67.3711 70.7666 69.8305 67.6312 71.4517 64.1131C69.3217 62.4737 66.8876 59.7489 66.0382 55.4984C65.9771 55.1923 66.0439 54.9292 66.193 54.731C66.3399 54.5357 66.5592 54.4132 66.7891 54.369C67.0189 54.3247 67.2685 54.357 67.4789 54.4828C67.6923 54.6105 67.8553 54.8287 67.9164 55.1348L67.9165 55.135C68.5878 58.5238 70.4765 60.8077 72.2403 62.2633C73.254 59.501 73.803 56.5685 73.803 53.5788C73.803 53.0388 74.2355 52.6056 74.7754 52.6056C75.0692 52.6056 75.2928 52.7002 75.4504 52.8719C75.6032 53.0383 75.679 53.2609 75.7156 53.4904C75.7744 53.8603 75.7375 54.3015 75.7059 54.6669C76.5411 54.3423 77.2795 53.891 77.9687 53.3115L77.9705 53.3101C78.2084 53.1161 78.4706 53.0557 78.7144 53.0964C78.9544 53.1365 79.1661 53.2723 79.3155 53.4526C79.4648 53.6328 79.5586 53.8657 79.5517 54.108C79.5447 54.3542 79.4339 54.5981 79.1964 54.7921C78.1107 55.6975 76.9052 56.3684 75.5522 56.7741C74.7732 63.1129 71.7619 68.9765 67.0948 73.3166C69.683 72.1321 71.9827 70.5276 74.0613 68.502C81.6973 60.9799 83.4354 49.0887 78.2535 39.6181L77.2826 39.6737C77.2825 39.6737 77.2824 39.6737 77.2823 39.6737C72.4414 39.9766 67.8423 41.7322 64.0593 44.6381C64.0346 44.6608 64.0054 44.6802 63.9879 44.6918L63.984 44.6944C63.972 44.7024 63.9632 44.7083 63.9557 44.7138C63.9482 44.7193 63.9457 44.7216 63.9459 44.7214ZM52.3983 28.6612L52.3994 28.6618C53.9695 29.5513 55.4247 30.6125 56.7375 31.7899C58.3166 29.1568 60.3362 26.8199 62.7385 24.8661C62.991 24.6504 63.3543 24.5757 63.684 24.7207C69.8399 27.1008 74.9647 31.7866 77.8523 37.7227C77.918 37.7189 77.9853 37.7143 78.0536 37.7096C78.3065 37.6923 78.5716 37.6741 78.8051 37.6938C79.1429 37.7223 79.4703 37.8326 79.658 38.1696C84.3141 46.2644 84.3141 56.2905 79.6573 64.355L79.6572 64.3551C75.8586 70.9165 69.4557 75.5162 62.0107 76.9576C62.0105 76.9576 62.0104 76.9577 62.0102 76.9577L61.8588 76.988L61.8435 76.9911L61.8279 76.9909C52.4245 76.8989 43.8764 72.024 39.1582 63.898L39.1579 63.8975C34.5014 55.8029 34.5011 45.7768 39.1574 37.7122C39.3358 37.3917 39.6593 37.2093 39.9886 37.2093V37.2091L39.9959 37.2095L42.4065 37.3272C44.6689 33.7731 47.7751 30.7651 51.4259 28.6636C51.7204 28.4806 52.0826 28.4856 52.3983 28.6612ZM63.5021 26.7096C61.3515 28.5514 59.5765 30.7107 58.1766 33.1599C59.9146 34.9976 61.4191 37.0691 62.5704 39.3509C62.6455 38.3073 62.7516 37.2161 62.9072 36.2195C63.0903 35.0477 63.3443 33.9903 63.7067 33.2963C63.848 33.0225 64.0661 32.864 64.3074 32.8069C64.5449 32.7508 64.7941 32.7952 65.0025 32.905C65.2109 33.0148 65.3884 33.1952 65.4751 33.4237C65.563 33.6558 65.5526 33.9259 65.4038 34.1984C65.2535 34.4853 65.1162 34.9208 64.9949 35.4754C64.874 36.0282 64.7709 36.6899 64.6856 37.4224C64.5246 38.8045 64.4276 40.4318 64.3916 42.0424C67.7707 39.7848 71.6776 38.3506 75.76 37.8749C73.1283 32.8713 68.7553 28.8719 63.5021 26.7096ZM62.2938 43.5896C60.4456 38.1463 56.7659 33.5673 51.8989 30.6138C48.9704 32.3876 46.4419 34.7867 44.507 37.6176C47.1841 38.1013 49.7512 38.9661 52.131 40.2123C52.0281 38.4531 51.7617 37.0392 51.3638 36.0434C51.2492 35.7606 51.2692 35.4929 51.3792 35.2721C51.4876 35.0546 51.6787 34.8913 51.8943 34.801C52.1099 34.7107 52.3597 34.6895 52.5891 34.7696C52.8218 34.851 53.0203 35.0323 53.1344 35.3208C53.748 36.7652 54.0529 38.8026 54.0888 41.3619C56.1283 42.6718 57.9963 44.2407 59.6089 46.0968C60.4443 45.1894 61.356 44.3618 62.2938 43.5896Z" fill="#212121" stroke="#212121" stroke-width="0.3"/>
<defs>
<filter id="filter0_dd_784_15044" x="0" y="0.795898" width="117" height="117" filterUnits="userSpaceOnUse" color-interpolation-filters="sRGB">
<feFlood flood-opacity="0" result="BackgroundImageFix"/>
<feColorMatrix in="SourceAlpha" type="matrix" values="0 0 0 0 0 0 0 0 0 0 0 0 0 0 0 0 0 0 127 0" result="hardAlpha"/>
<feMorphology radius="4" operator="erode" in="SourceAlpha" result="effect1_dropShadow_784_15044"/>
<feOffset dy="8"/>
<feGaussianBlur stdDeviation="12"/>
<feComposite in2="hardAlpha" operator="out"/>
<feColorMatrix type="matrix" values="0 0 0 0 0 0 0 0 0 0 0 0 0 0 0 0 0 0 0.08 0"/>
<feBlend mode="normal" in2="BackgroundImageFix" result="effect1_dropShadow_784_15044"/>
<feColorMatrix in="SourceAlpha" type="matrix" values="0 0 0 0 0 0 0 0 0 0 0 0 0 0 0 0 0 0 127 0" result="hardAlpha"/>
<feMorphology radius="6" operator="erode" in="SourceAlpha" result="effect2_dropShadow_784_15044"/>
<feOffset dy="6"/>
<feGaussianBlur stdDeviation="6"/>
<feComposite in2="hardAlpha" operator="out"/>
<feColorMatrix type="matrix" values="0 0 0 0 0 0 0 0 0 0 0 0 0 0 0 0 0 0 0.12 0"/>
<feBlend mode="normal" in2="effect1_dropShadow_784_15044" result="effect2_dropShadow_784_15044"/>
<feBlend mode="normal" in="SourceGraphic" in2="effect2_dropShadow_784_15044" result="shape"/>
</filter>
</defs>
</svg>
