<svg width="20" height="20" viewBox="0 0 20 20" fill="none" xmlns="http://www.w3.org/2000/svg">
<circle cx="10" cy="10" r="10" fill="white"/>
<path fill-rule="evenodd" clip-rule="evenodd" d="M10.0007 3.33301C8.19009 3.33301 7.96306 3.34068 7.25199 3.37313C6.5424 3.40549 6.05778 3.5182 5.63373 3.68301C5.19534 3.85336 4.82355 4.08131 4.45291 4.45193C4.08229 4.82258 3.85433 5.19436 3.68399 5.63275C3.51918 6.0568 3.40647 6.54143 3.3741 7.25102C3.34166 7.96209 3.33398 8.18912 3.33398 9.99969C3.33398 11.8102 3.34166 12.0373 3.3741 12.7483C3.40647 13.4579 3.51918 13.9425 3.68399 14.3666C3.85433 14.805 4.08229 15.1768 4.45291 15.5474C4.82355 15.918 5.19534 16.146 5.63373 16.3164C6.05778 16.4812 6.5424 16.5939 7.25199 16.6262C7.96306 16.6587 8.19009 16.6663 10.0007 16.6663C11.8112 16.6663 12.0382 16.6587 12.7493 16.6262C13.4589 16.5939 13.9435 16.4812 14.3676 16.3164C14.806 16.146 15.1777 15.918 15.5484 15.5474C15.919 15.1768 16.147 14.805 16.3173 14.3666C16.4821 13.9425 16.5948 13.4579 16.6272 12.7483C16.6596 12.0373 16.6673 11.8102 16.6673 9.99969C16.6673 8.18912 16.6596 7.96209 16.6272 7.25102C16.5948 6.54143 16.4821 6.0568 16.3173 5.63275C16.147 5.19436 15.919 4.82258 15.5484 4.45193C15.1777 4.08131 14.806 3.85336 14.3676 3.68301C13.9435 3.5182 13.4589 3.40549 12.7493 3.37313C12.0382 3.34068 11.8112 3.33301 10.0007 3.33301ZM10.0007 4.53421C11.7807 4.53421 11.9916 4.54101 12.6946 4.57308C13.3446 4.60272 13.6975 4.71133 13.9325 4.80263C14.2436 4.92356 14.4657 5.06803 14.699 5.30133C14.9323 5.5346 15.0768 5.75668 15.1977 6.06787C15.289 6.30278 15.3976 6.65578 15.4272 7.30577C15.4593 8.00874 15.4661 8.2196 15.4661 9.99969C15.4661 11.7797 15.4593 11.9906 15.4272 12.6936C15.3976 13.3436 15.289 13.6966 15.1977 13.9315C15.0768 14.2427 14.9323 14.4647 14.699 14.698C14.4657 14.9313 14.2436 15.0758 13.9325 15.1967C13.6975 15.288 13.3446 15.3966 12.6946 15.4263C11.9917 15.4583 11.7809 15.4651 10.0007 15.4651C8.22045 15.4651 8.00964 15.4583 7.30675 15.4263C6.65675 15.3966 6.30376 15.288 6.06884 15.1967C5.75766 15.0758 5.53558 14.9313 5.3023 14.698C5.06903 14.4647 4.92454 14.2427 4.8036 13.9315C4.7123 13.6966 4.6037 13.3436 4.57406 12.6936C4.54198 11.9906 4.53518 11.7797 4.53518 9.99969C4.53518 8.2196 4.54198 8.00874 4.57406 7.30577C4.6037 6.65578 4.7123 6.30278 4.8036 6.06787C4.92454 5.75668 5.069 5.5346 5.3023 5.30133C5.53558 5.06803 5.75766 4.92356 6.06884 4.80263C6.30376 4.71133 6.65675 4.60272 7.30675 4.57308C8.00972 4.54101 8.22058 4.53421 10.0007 4.53421Z" fill="#283760"/>
<path fill-rule="evenodd" clip-rule="evenodd" d="M10.0016 12.2218C8.77424 12.2218 7.77932 11.2269 7.77932 9.99961C7.77932 8.77229 8.77424 7.77737 10.0016 7.77737C11.2289 7.77737 12.2238 8.77229 12.2238 9.99961C12.2238 11.2269 11.2289 12.2218 10.0016 12.2218ZM10.0016 6.57617C8.11083 6.57617 6.57812 8.10888 6.57812 9.99961C6.57812 11.8903 8.11083 13.423 10.0016 13.423C11.8923 13.423 13.425 11.8903 13.425 9.99961C13.425 8.10888 11.8923 6.57617 10.0016 6.57617Z" fill="#283760"/>
<path fill-rule="evenodd" clip-rule="evenodd" d="M14.3598 6.44064C14.3598 6.88247 14.0016 7.24063 13.5598 7.24063C13.1179 7.24063 12.7598 6.88247 12.7598 6.44064C12.7598 5.99881 13.1179 5.64062 13.5598 5.64062C14.0016 5.64062 14.3598 5.99881 14.3598 6.44064" fill="#283760"/>
</svg>
