<svg width="20" height="20" viewBox="0 0 20 20" fill="none" xmlns="http://www.w3.org/2000/svg">
<circle cx="10" cy="10" r="10" fill="white"/>
<path d="M5.19922 8.88431C5.19922 10.5882 5.19922 13.2474 5.19922 13.2474C5.19922 13.2474 5.19922 13.2474 5.19922 13.2474C5.19922 13.9102 5.73648 14.4474 6.39922 14.4474H13.5992C14.262 14.4474 14.7992 13.9102 14.7992 13.2474V8.60267M5.19922 8.88431C5.19922 8.67743 5.30579 8.48515 5.48122 8.37551L9.99922 5.55176L14.4934 8.07972C14.6823 8.18599 14.7992 8.3859 14.7992 8.60267M5.19922 8.88431C5.43922 8.88431 9.99922 11.8518 9.99922 11.8518L14.7992 8.60267" stroke="#283760" stroke-width="1.5" stroke-linecap="round" stroke-linejoin="round"/>
</svg>
