<svg width="20" height="20" viewBox="0 0 20 20" fill="none" xmlns="http://www.w3.org/2000/svg">
<circle cx="10" cy="10" r="10" fill="white"/>
<path d="M10.065 7.37313C10.705 7.48038 11.2863 7.78263 11.7504 8.24576C12.2144 8.70889 12.5149 9.28901 12.6248 9.92764M10.1628 5.2793C11.301 5.47186 12.339 6.01055 13.1646 6.83199C13.9902 7.65587 14.5275 8.69182 14.7205 9.8277M13.8314 14.3469C13.8314 14.3469 13.2134 14.9538 13.062 15.1317C12.8153 15.395 12.5246 15.5193 12.1436 15.5193C12.107 15.5193 12.0679 15.5193 12.0313 15.5169C11.3058 15.4705 10.6317 15.1878 10.1261 14.9465C8.74364 14.2786 7.52971 13.3304 6.52096 12.1287C5.68807 11.1269 5.13117 10.2006 4.76236 9.20613C4.5352 8.59919 4.45216 8.12631 4.48879 7.68025C4.51322 7.39506 4.62313 7.15862 4.82586 6.95631L5.65875 6.12511C5.77844 6.01299 5.90545 5.95205 6.03002 5.95205C6.18389 5.95205 6.30846 6.04468 6.38662 6.12268C6.38906 6.12511 6.39151 6.12755 6.39395 6.12999C6.54294 6.26893 6.68461 6.41274 6.8336 6.5663C6.90932 6.6443 6.98748 6.7223 7.06564 6.80274L7.73244 7.46818C7.99135 7.72656 7.99135 7.96544 7.73244 8.22381C7.66161 8.2945 7.59322 8.36519 7.52239 8.43344C7.31722 8.64307 7.47839 8.48222 7.26589 8.67235C7.26101 8.67722 7.25612 8.67966 7.25368 8.68453C7.04362 8.89416 7.0827 9.09891 7.12667 9.23785C7.12911 9.24516 7.13155 9.25248 7.134 9.25979C7.30741 9.67904 7.55166 10.0739 7.92292 10.5444L7.92537 10.5468C8.5995 11.3756 9.31027 12.0215 10.0943 12.5163C10.1945 12.5797 10.297 12.6309 10.3947 12.6796C10.4827 12.7235 10.5657 12.7649 10.6365 12.8088C10.6463 12.8137 10.6561 12.821 10.6659 12.8259C10.7489 12.8673 10.8271 12.8868 10.9077 12.8868C11.1104 12.8868 11.2374 12.7601 11.2789 12.7186L11.7577 12.2408C11.8407 12.158 11.9726 12.058 12.1265 12.058C12.2779 12.058 12.4025 12.1531 12.4782 12.236C12.4807 12.2384 12.4807 12.2384 12.4831 12.2408L13.8289 13.5839C14.0805 13.8325 13.8314 14.3469 13.8314 14.3469Z" stroke="#283760" stroke-width="1.5" stroke-linecap="round" stroke-linejoin="round"/>
</svg>
