<svg width="32" height="31" viewBox="0 0 32 31" fill="none" xmlns="http://www.w3.org/2000/svg">
<path d="M29.2049 7.29554C24.6331 0.208039 15.2706 -1.89196 8.02994 2.50491C0.964318 6.90179 -1.31068 16.483 3.26119 23.5487L3.63307 24.1174L2.10182 29.8487L7.83307 28.3174L8.40182 28.6893C10.8737 30.0237 13.5643 30.7893 16.2331 30.7893C19.0987 30.7893 21.9643 30.0237 24.4362 28.4924C31.5018 23.8987 33.6018 14.5143 29.2049 7.25179V7.29554ZM25.2018 22.0393C24.4362 23.1768 23.4737 23.9424 22.1393 24.1393C21.3737 24.1393 20.4112 24.5112 16.6049 23.0018C13.3674 21.4705 10.6768 18.9768 8.77369 16.1112C7.63619 14.7768 7.04557 13.0487 6.87057 11.3205C6.87057 9.78929 7.43932 8.45491 8.40182 7.49241C8.77369 7.12054 9.16744 6.92366 9.53932 6.92366H10.5018C10.8737 6.92366 11.2674 6.92366 11.4643 7.68929C11.8362 8.65179 12.7987 10.9487 12.7987 11.1455C12.9956 11.3424 12.9081 12.808 12.0331 13.6393C11.5518 14.1862 11.4643 14.208 11.6612 14.6018C12.4268 15.7393 13.3893 16.8987 14.3299 17.8612C15.4674 18.8237 16.6268 19.5893 17.9612 20.158C18.3331 20.3549 18.7268 20.3549 18.9237 19.9612C19.1206 19.5893 20.0612 18.6268 20.4549 18.233C20.8268 17.8612 21.0237 17.8612 21.4174 18.0362L24.4799 19.5674C24.8518 19.7643 25.2456 19.9393 25.4424 20.1362C25.6393 20.7049 25.6393 21.4705 25.2456 22.0393H25.2018Z" fill="#212121"/>
</svg>
