<svg width="198" height="120" viewBox="0 0 198 120" fill="none" xmlns="http://www.w3.org/2000/svg">
<path d="M197.76 0H0V120H197.76V0Z" fill="black"/>
<path d="M151.261 59.2883C150.999 59.7247 149.849 61.5641 146.157 64.1392C145.826 64.3761 145.476 64.6193 145.108 64.8562C143.365 66.0035 141.153 67.2629 138.36 68.6097C131.713 71.8145 132.076 77.7191 132.076 77.7191V79.6146L132.132 81.2295H128.721C127.884 81.0798 127.246 80.3503 127.246 79.4774V47.0302L121.099 51.3261V79.4774C121.099 80.3566 120.462 81.0798 119.625 81.2295H116.438C115.601 81.0798 114.964 80.3503 114.964 79.4774V58.9952L109.185 63.0293C108.954 63.1914 108.817 63.4596 108.817 63.7401V79.4774C108.817 80.3566 108.179 81.0798 107.342 81.2295H103.844C103.007 81.0798 102.369 80.3503 102.369 79.4774V73.6414C102.369 70.8543 100.108 68.5972 97.3153 68.5972H77.2925L98.6897 59.6873C102.045 59.0077 105.662 56.6197 105.662 53.1966V47.0239L99.3644 51.3199V54.9674C99.3644 56.1146 98.696 57.1621 97.6464 57.6547L97.4465 57.742L71.8198 68.7469V70.2745H92.1425C94.3853 70.2745 96.2033 72.0826 96.2033 74.3273V79.6458C96.1283 80.4439 95.5286 81.0923 94.7476 81.2295H67.2093C66.3846 81.0798 65.7599 80.3753 65.7412 79.5211V59.2322C65.7412 59.2322 65.7287 59.2696 65.7224 59.2821C65.46 59.7185 64.3105 61.5579 60.6183 64.1329C60.2872 64.3699 59.9374 64.613 59.5688 64.85C57.8258 65.9972 55.6142 67.2567 52.8216 68.6035C46.1744 71.8083 46.5368 77.7129 46.5368 77.7129C46.5368 77.7129 46.037 81.4914 47.7863 84.6712C47.9362 84.9456 48.0861 85.1638 48.3548 85.4257C49.4668 86.5542 51.0161 87.2463 52.7154 87.2463H54.1461C56.8074 87.2463 58.8816 85.5566 59.7499 83.1998C60.4434 85.407 61.949 87.2151 64.9852 87.2151C65.0852 87.2151 65.3663 87.2338 65.4538 87.2338C65.4913 87.2338 65.6037 87.2214 65.7349 87.2338L89.2062 87.2401H91.3553C94.1604 87.2401 96.4282 85.0079 96.5156 82.2333H96.5469C96.6343 85.0142 98.9021 87.2401 101.707 87.2401H103.856C106.661 87.2401 108.929 85.0079 109.017 82.2333H109.048C109.135 85.0142 111.403 87.2401 114.208 87.2401H116.357C119.162 87.2401 121.43 85.0079 121.518 82.2333H121.549C121.636 85.0142 123.904 87.2401 126.709 87.2401H128.858C130.732 87.2401 132.357 86.2362 133.263 84.7523C133.438 84.9705 133.631 85.195 133.869 85.4257C134.981 86.5542 136.53 87.2463 138.229 87.2463H139.66C142.321 87.2463 144.395 85.5566 145.264 83.1998C145.957 85.407 147.463 87.2151 150.499 87.2151C150.599 87.2151 150.88 87.2338 150.968 87.2338C151.005 87.2338 151.118 87.2214 151.249 87.2338V59.2322C151.249 59.2322 151.236 59.2696 151.23 59.2821L151.261 59.2883ZM59.5813 79.4151C59.5813 80.4439 58.7379 81.2731 57.7196 81.2731H54.5959C53.5651 81.2731 52.7342 80.4439 52.7342 79.4151V74.0342C52.7342 74.0342 52.6217 72.3071 54.0773 70.4802C54.0773 70.4678 54.0898 70.4615 54.0961 70.4491C54.4459 70.0126 54.8895 69.5824 55.4393 69.1522C55.4518 69.1397 55.458 69.1335 55.4768 69.121C55.8266 68.8404 56.2264 68.5848 56.6887 68.3291C57.8882 67.6807 58.8378 67.1632 59.5813 66.7392V79.4151ZM145.108 79.4151C145.108 80.4439 144.264 81.2731 143.246 81.2731H140.122C139.091 81.2731 138.26 80.4439 138.26 79.4151V74.0342C138.26 74.0342 138.148 72.3071 139.604 70.4802C139.604 70.4678 139.616 70.4615 139.622 70.4491C139.972 70.0126 140.416 69.5824 140.966 69.1522C140.978 69.1397 140.984 69.1335 141.003 69.121C141.353 68.8404 141.753 68.5848 142.215 68.3291C143.415 67.6807 144.364 67.1632 145.108 66.7392V79.4151Z" fill="white"/>
<path d="M110.914 89.504L107.186 93.2251L110.914 96.9462L114.642 93.2251L110.914 89.504Z" fill="white"/>
<path d="M118.369 89.5065L114.641 93.2275L118.369 96.9486L122.097 93.2275L118.369 89.5065Z" fill="white"/>
<path d="M128.509 95.0724L128.665 96.9055L136.174 92.0235L136.012 90.2402L128.509 95.0724Z" fill="#8C734C"/>
<path d="M79.9658 53.5782L79.8096 51.7949L72.3003 56.6271L72.4627 58.4602L79.9658 53.5782Z" fill="#8C734C"/>
<path d="M63.7546 36.5054C63.8358 36.4368 63.9545 36.5241 64.1044 36.6986C64.2544 36.8732 64.3231 37.0104 64.2419 37.079L63.9607 37.3159L64.017 37.3783C64.6417 38.114 64.3231 39.1178 62.7675 40.4272C61.4243 41.562 60.2248 41.986 59.294 40.8886C59.119 40.6828 58.8442 40.29 58.6567 39.9222L59.3752 39.5543C59.4939 39.8037 59.725 40.1529 59.9 40.3586C60.4372 40.9946 61.0495 40.8948 62.2865 39.8536C63.4047 38.9121 63.6484 38.3696 63.3548 38.0205C63.3173 37.9768 63.2798 37.9457 63.2423 37.9207L63.1736 37.9768C62.755 38.326 62.3364 38.4881 61.9491 38.4507L62.0366 37.6838C62.2427 37.7025 62.4176 37.6339 62.6925 37.4094L63.7671 36.5054H63.7546ZM63.2735 41.1442C63.436 41.3375 63.4172 41.5994 63.2298 41.7553C63.0486 41.9112 62.78 41.8862 62.6176 41.6929C62.4489 41.4934 62.4801 41.2315 62.6613 41.0819C62.8487 40.926 63.1049 40.9447 63.2735 41.1442ZM64.1232 40.4334C64.2856 40.6267 64.2669 40.8886 64.0794 41.0445C63.8983 41.2004 63.6296 41.1754 63.4672 40.9821C63.2985 40.7826 63.3298 40.5207 63.5109 40.3711C63.6984 40.2152 63.9545 40.2339 64.1232 40.4334Z" fill="white"/>
<path d="M64.7665 35.8894C64.854 35.827 64.9602 35.9205 65.0976 36.1076C65.2351 36.2946 65.2913 36.4318 65.2101 36.4942L64.2293 37.2049C64.1418 37.2673 64.0293 37.1675 63.8919 36.9805C63.7545 36.7934 63.7045 36.6625 63.7857 36.6002L64.7665 35.8894Z" fill="white"/>
<path d="M65.7352 35.2148C65.8227 35.1525 65.9289 35.2523 66.0601 35.4393C66.1913 35.6264 66.2475 35.7698 66.16 35.8259L65.1667 36.518C65.0792 36.5803 64.9668 36.4806 64.8356 36.2873C64.7044 36.094 64.6544 35.9631 64.7356 35.9007L65.729 35.2086L65.7352 35.2148Z" fill="white"/>
<path d="M67.0656 34.7737C67.1906 34.967 67.2468 35.1041 67.1593 35.1665L66.1473 35.8336C66.0598 35.8898 65.9473 35.79 65.8224 35.5967C65.6974 35.4034 65.6475 35.2663 65.7349 35.2101L66.747 34.543C66.8345 34.4869 66.9407 34.5804 67.0719 34.7737H67.0656Z" fill="white"/>
<path d="M67.7663 33.8944C67.8537 33.8383 67.9599 33.9381 68.0849 34.1314C68.2098 34.3247 68.2598 34.4681 68.1723 34.5242L67.1478 35.1726C67.0603 35.2287 66.9479 35.1227 66.8292 34.9295C66.7042 34.7362 66.6605 34.599 66.7479 34.5429L67.7725 33.8944H67.7663Z" fill="white"/>
<path d="M68.795 33.2694C68.8824 33.2133 68.9886 33.3193 69.1073 33.5125C69.226 33.7121 69.276 33.8555 69.1823 33.9054L68.1452 34.5351C68.0578 34.5912 67.9516 34.4852 67.8266 34.2857C67.7079 34.0862 67.6642 33.949 67.7516 33.8991L68.7887 33.2694H68.795Z" fill="white"/>
<path d="M70.9332 32.4782C71.0457 32.6777 71.0894 32.8211 70.9957 32.8772L69.1465 33.931C69.0528 33.9808 68.9528 33.8748 68.8404 33.6691C68.7279 33.4696 68.6842 33.3324 68.7779 33.2763L69.2464 33.0082L67.0474 29.1549L67.7471 28.7559L69.9461 32.6091L70.6271 32.2226C70.7208 32.1727 70.8208 32.2724 70.9332 32.4782Z" fill="white"/>
<path d="M77.4669 29.7339L77.1483 29.8836V29.9023L73.0126 31.8227C72.619 32.0035 72.2691 32.0534 71.963 31.9785C71.8381 32.2591 71.5819 32.4836 71.1696 32.6769L70.851 32.8265C70.7573 32.8702 70.6636 32.7517 70.5636 32.5459C70.4637 32.3402 70.4387 32.1968 70.5324 32.1531L70.7948 32.0347C71.2633 31.8164 71.3133 31.5857 71.1071 31.1493L70.4199 29.6653L71.1509 29.3286L71.8443 30.8188C71.9318 31.0121 71.988 31.1805 72.0192 31.3488C72.1754 31.3613 72.3566 31.3176 72.5753 31.2179H72.5815C72.2879 30.0207 72.4503 28.1939 74.0621 27.4457C75.3678 26.8409 76.4174 27.508 76.9297 28.6178L77.4544 29.7526L77.4669 29.7339ZM73.3187 30.8562L76.4299 29.4159L76.2112 28.9421C75.7926 28.0442 75.1179 27.7699 74.4057 28.1003C73.4749 28.5306 73.0626 29.7402 73.3187 30.8625V30.8562Z" fill="white"/>
<path d="M78.5861 23.0769L78.7485 23.532L77.3929 24.0059L77.2304 23.5507L77.3616 23.5071C77.2992 23.4385 77.2492 23.3637 77.2179 23.2764C77.093 22.9147 77.2992 22.5656 77.7052 22.4222C77.8864 22.3598 78.1051 22.3349 78.255 22.3474L78.205 22.8337C78.1176 22.8212 77.9739 22.8337 77.8802 22.8773C77.699 22.9397 77.6365 23.0644 77.674 23.1704C77.7052 23.2639 77.8302 23.345 77.9676 23.2951L78.5799 23.0769H78.5861ZM77.7927 24.1992L78.5549 23.9311L80.2729 28.8194L79.5107 29.0875L77.7927 24.1992Z" fill="white"/>
<path d="M122.736 28.4206C122.836 28.4518 122.83 28.5952 122.761 28.8197C122.693 29.0441 122.611 29.1688 122.512 29.1377H122.493C122.168 29.0254 121.912 28.8696 121.731 28.6576C121.212 29.5055 120.3 29.9545 119.238 29.6178C117.92 29.2062 117.482 27.9281 117.876 26.6873C117.957 26.4316 118.076 26.1698 118.22 25.9204L118.938 26.2695C118.813 26.494 118.707 26.7309 118.638 26.9429C118.351 27.8595 118.669 28.6451 119.463 28.8945C120.256 29.1439 120.975 28.6763 121.262 27.7597L122.543 23.7007L123.311 23.9439L122.037 27.9779V27.9904C122.124 28.1525 122.28 28.2772 122.512 28.3458L122.736 28.4144V28.4206Z" fill="white"/>
<path d="M123.81 28.8819C123.91 28.9193 123.892 29.0627 123.81 29.2747C123.729 29.4867 123.648 29.6176 123.548 29.5802L122.411 29.1562C122.311 29.1188 122.33 28.9692 122.411 28.7509C122.492 28.5327 122.573 28.4142 122.673 28.4517L123.81 28.8756V28.8819Z" fill="white"/>
<path d="M124.929 29.7221C124.841 29.9341 124.76 30.0588 124.66 30.0214L123.529 29.5787C123.429 29.5413 123.454 29.3917 123.535 29.1734C123.623 28.9614 123.704 28.843 123.804 28.8804L124.935 29.3231C125.035 29.3605 125.016 29.5039 124.929 29.7221Z" fill="white"/>
<path d="M126.028 30.1847C125.941 30.3967 125.847 30.5214 125.753 30.4778L124.635 30.0102C124.541 29.9728 124.56 29.8231 124.654 29.6049C124.741 29.3929 124.829 29.2744 124.928 29.3181L126.047 29.7857C126.14 29.8231 126.122 29.9665 126.034 30.1847H126.028Z" fill="white"/>
<path d="M127.146 30.2715C127.24 30.3152 127.215 30.4586 127.127 30.6706C127.034 30.8826 126.946 31.001 126.846 30.9574L125.734 30.4711C125.641 30.4274 125.666 30.2778 125.759 30.0658C125.853 29.8538 125.94 29.7416 126.04 29.7852L127.152 30.2715H127.146Z" fill="white"/>
<path d="M128.228 30.7771C128.321 30.8207 128.296 30.9641 128.196 31.1699C128.096 31.3756 128.003 31.4941 127.909 31.4505L126.81 30.9392C126.716 30.8955 126.747 30.7459 126.841 30.5401C126.941 30.3344 127.028 30.2222 127.122 30.2596L128.221 30.7708L128.228 30.7771Z" fill="white"/>
<path d="M134.149 33.9067C134.243 33.9566 134.205 34.0938 134.093 34.2995C133.981 34.4991 133.881 34.6113 133.787 34.5614L133.45 34.3744C133.1 34.1811 132.862 33.9317 132.737 33.6386C132.444 33.7072 132.113 33.6386 131.732 33.4329C131.35 33.2271 131.107 32.9715 130.988 32.6847C130.694 32.7532 130.363 32.6847 129.982 32.4789C129.601 32.2731 129.358 32.0175 129.239 31.7307C128.939 31.7993 128.602 31.7307 128.202 31.5062L127.896 31.3379C127.802 31.288 127.846 31.1446 127.952 30.9388C128.058 30.7331 128.158 30.6333 128.252 30.6832L128.502 30.8204C128.958 31.0698 129.17 30.97 129.401 30.546L130.02 29.4175L130.726 29.8041L130.107 30.9388C130.007 31.1197 129.901 31.2693 129.789 31.394C129.876 31.5312 130.02 31.6434 130.226 31.7619C130.713 32.0237 130.919 31.9427 131.157 31.5062L131.944 30.0722L132.65 30.4587L131.863 31.899C131.763 32.0799 131.657 32.2295 131.544 32.3542C131.632 32.4914 131.775 32.6036 131.981 32.7221C132.469 32.9839 132.675 32.9029 132.912 32.4664L133.868 30.7268L134.574 31.1134L133.618 32.8592C133.518 33.0401 133.412 33.1897 133.293 33.3206C133.362 33.4391 133.475 33.5389 133.631 33.6261L134.162 33.913L134.149 33.9067Z" fill="white"/>
<path d="M137.448 36.2018L137.029 36.8191L133.674 34.5557C133.587 34.4996 133.643 34.3562 133.768 34.1629C133.899 33.9696 134.005 33.8761 134.093 33.9322L134.805 34.4123C134.792 34.0694 134.892 33.7202 135.111 33.4022C135.711 32.5169 136.873 32.3548 137.766 32.9596C138.204 33.2526 138.535 33.6953 138.753 34.0756L138.085 34.4248C137.816 34.0008 137.585 33.7389 137.354 33.5831C136.804 33.209 136.142 33.3274 135.786 33.8512C135.505 34.2689 135.542 34.774 135.892 35.1418L137.454 36.1956L137.448 36.2018Z" fill="white"/>
<path d="M106.779 23.7313C105.711 22.3347 103.45 21.8608 101.657 21.7361C101.675 21.5989 101.688 21.4555 101.688 21.3059C101.688 19.8095 100.47 18.5874 98.9765 18.5874H98.7578C97.2647 18.5874 96.0465 19.8032 96.0465 21.3059C96.0465 21.4555 96.059 21.5927 96.0777 21.7361C94.2847 21.867 92.0232 22.3347 90.9549 23.7313C90.4863 24.3486 90.0428 25.421 90.6238 27.0359C90.8861 28.0647 92.423 29.6235 94.2472 29.6235H94.316C94.6533 29.6235 95.0281 29.5549 95.4092 29.4052C95.8091 30.2345 96.4026 30.9141 97.1023 31.3256L98.8765 33.0839L100.651 31.3256C101.35 30.9141 101.944 30.2345 102.344 29.4052C102.725 29.5549 103.093 29.6235 103.437 29.6235H103.506C105.33 29.6235 106.867 28.0647 107.129 27.0359C107.71 25.421 107.267 24.3486 106.798 23.7313H106.779ZM98.7516 20.0838H98.9702C99.6324 20.0838 100.182 20.6325 100.182 21.2997C100.182 21.4306 100.163 21.5615 100.113 21.68C99.6449 21.68 99.3138 21.6987 99.1951 21.7112H98.5329C98.4142 21.6987 98.0831 21.68 97.6146 21.68C97.5646 21.5615 97.5458 21.4306 97.5458 21.2997C97.5458 20.6325 98.0956 20.0838 98.7578 20.0838H98.7516ZM99.0202 24.6978H98.7016C98.7516 24.5169 98.814 24.3174 98.864 24.1179C98.914 24.3174 98.9765 24.5169 99.0265 24.6978H99.0202ZM98.7516 26.1942H98.9702C99.1576 26.1942 99.3513 26.1755 99.5387 26.1443C99.7574 26.6618 99.9886 27.1045 100.232 27.4848C99.8449 27.6469 99.4138 27.7218 98.9702 27.7218H98.7516C98.3143 27.7218 97.8832 27.6407 97.4896 27.4848C97.727 27.1045 97.9582 26.668 98.1831 26.1443C98.3705 26.1755 98.5642 26.1942 98.7516 26.1942ZM96.1902 26.7304C95.8903 27.198 95.5717 27.5472 95.2281 27.7904C95.1156 27.8589 95.0157 27.9213 94.9094 27.9587C94.697 28.0709 94.4909 28.1208 94.266 28.1208C93.1727 28.1832 92.1669 27.0546 92.0544 26.5932C91.742 25.7265 91.7733 25.103 92.1356 24.6354C92.7541 23.8186 94.216 23.4383 95.6279 23.2762C96.0402 23.2388 96.44 23.2076 96.8211 23.1889H97.1335C97.2834 23.1764 97.4209 23.1764 97.5521 23.1764C97.5146 23.3385 97.4709 23.4944 97.4334 23.6565C97.4146 23.7438 97.3834 23.8249 97.3647 23.9059C97.196 24.5045 97.0148 25.0469 96.8149 25.5146C96.6337 25.951 96.4463 26.3313 96.2339 26.6618C96.2214 26.693 96.2026 26.7117 96.1964 26.7304H96.1902ZM98.9702 30.2844H98.7516C97.9519 30.2844 97.2335 29.7045 96.7774 28.8191C97.3897 29.081 98.0581 29.2182 98.7516 29.2182H98.9702C99.6637 29.2182 100.332 29.081 100.944 28.8191C100.495 29.7108 99.7761 30.2844 98.9702 30.2844ZM105.667 26.587C105.555 27.0484 104.549 28.1769 103.456 28.1146C103.237 28.1146 103.025 28.0647 102.812 27.9525C102.7 27.9151 102.6 27.8527 102.494 27.7841C102.156 27.5472 101.832 27.1918 101.532 26.7242C101.519 26.7055 101.5 26.6867 101.494 26.6556C101.282 26.3251 101.094 25.9448 100.913 25.5083C100.713 25.0407 100.532 24.4982 100.363 23.8997C100.345 23.8186 100.313 23.7376 100.295 23.6503C100.257 23.4882 100.213 23.3323 100.176 23.1702C100.307 23.1702 100.445 23.1702 100.595 23.1826H100.907C101.288 23.2013 101.688 23.2325 102.1 23.2699C103.512 23.432 104.974 23.8124 105.592 24.6292C105.955 25.0968 105.98 25.7203 105.674 26.587H105.667Z" fill="#8C734C"/>
</svg>
