<svg width="195" height="92" viewBox="0 0 195 92" fill="none" xmlns="http://www.w3.org/2000/svg">
<path d="M26.2198 28.894C22.8525 28.894 20.1155 29.1849 17.6033 29.7315C11.2478 31.111 6.24533 33.3544 2.86483 35.2892C2.18168 35.6815 1.82467 36.4572 1.99215 37.2241C2.42849 39.203 3.16454 41.6315 4.46473 44.2451C5.53133 46.396 6.72574 48.1589 7.81878 49.5473C8.33886 50.2084 9.2556 50.4111 10.0093 50.0409C15.6684 47.2818 17.6033 46.1976 23.0288 45.8582C30.8344 45.3646 30.6801 47.7843 30.6801 53.6506C15.3996 54.51 0 61.5531 0 73.4003C0 84.7847 3.4995 91.9203 16.8408 91.9203C25.2369 91.9203 27.9343 89.1789 31.9583 84.0046V88.7249C31.9583 89.4257 32.2404 90.0604 32.6987 90.5187C33.426 91.246 34.3251 91.2636 34.4925 91.2636C36.5112 91.4179 38.6796 91.5148 40.9891 91.5148C43.3295 91.5192 45.5332 91.4223 47.5738 91.2636C48.9754 91.2636 50.1125 90.1265 50.1125 88.7249V51.4337C49.9979 37.1756 43.3515 28.894 26.2198 28.894ZM30.6801 67.772C30.6801 70.4561 29.3315 72.9683 27.0748 74.414C27.0484 74.4272 27.0264 74.4448 27.0043 74.4581C25.5234 75.4013 23.7252 75.7979 22.0107 75.4233C20.5519 75.106 19.2781 74.2465 19.2781 72.2279C19.2781 67.8557 21.9931 66.5908 27.9034 65.7887L30.6801 65.4625V67.772Z" fill="url(#paint0_linear_757_18105)"/>
<path d="M122.341 30.5294C122.072 30.0975 121.698 29.8507 121.363 29.7184C120.953 29.5465 120.596 29.5421 120.556 29.5421C118.736 29.2028 116.559 28.9339 114.104 28.8942C111.133 28.8458 108.542 29.1499 106.448 29.5421C104.637 29.5421 102.997 30.6131 102.27 32.2703L90.3609 59.473L78.5578 32.2836C75.8208 29.595 74.7806 29.5421 74.3751 29.5421C72.3521 29.1807 69.906 28.8987 67.1249 28.8942C64.2733 28.8898 61.7743 29.1763 59.716 29.5421C58.1602 29.5421 57.1421 31.1773 57.8384 32.5745L86.5661 90.3999C87.0289 91.3299 87.9809 91.9205 89.0166 91.9205H91.5465C92.5866 91.9205 93.5386 91.3255 94.0014 90.3911L120.005 37.5196L122.443 32.5656C122.786 31.8693 122.703 31.1112 122.341 30.5294Z" fill="url(#paint1_linear_757_18105)"/>
<path d="M141.333 12.7454C141.333 19.1758 136.388 23.8566 129.715 23.8566C122.918 23.8566 118.097 19.1803 118.097 12.7454C118.097 6.19596 122.918 1.63428 129.715 1.63428C136.388 1.63428 141.333 6.19596 141.333 12.7454Z" fill="url(#paint2_linear_757_18105)"/>
<path d="M139.425 32.1075V88.7298C139.425 89.9639 138.46 90.9864 137.226 91.0481C134.78 91.1715 132.219 91.2376 129.552 91.2376C127.005 91.2332 124.554 91.1671 122.205 91.0481C120.971 90.9864 120.006 89.9639 120.006 88.7298V32.1075C120.006 30.6311 121.161 29.4102 122.633 29.3441C125.026 29.2339 127.521 29.1722 130.112 29.181C132.417 29.1854 134.647 29.2471 136.794 29.3441C138.27 29.4102 139.425 30.6311 139.425 32.1075Z" fill="url(#paint3_linear_757_18105)"/>
<path d="M167.685 29.2563C151.007 29.2563 139.856 41.8396 139.856 60.8797C139.856 79.5848 150.615 91.9388 168.077 91.9388C173.014 91.9388 177.58 91.4628 181.687 90.2949C185.87 89.1049 189.043 87.1127 191.269 85.4775C192.058 84.8958 192.45 83.9173 192.252 82.9565C191.86 81.0789 191.238 78.884 190.229 76.5216C189.546 74.9129 188.792 73.4893 188.043 72.2597C187.347 71.1005 185.835 70.7215 184.667 71.409C180.286 73.9918 174.975 75.173 171.043 75.173C165.027 75.173 160.567 72.8987 158.892 65.9835H192.199C193.574 65.9835 194.685 64.8728 194.711 63.5021C195.082 42.5932 185.632 29.2563 167.685 29.2563ZM158.385 54.4669C158.385 54.4669 159.002 45.2377 167.667 45.2377C176.332 45.2377 176.504 54.4669 176.504 54.4669H158.385Z" fill="url(#paint4_linear_757_18105)"/>
<path d="M3.45053 0.0610352C3.45053 0.0610352 5.33251 6.72507 21.5563 5.38962C22.2042 5.33673 22.8565 5.34114 23.4955 5.46014C31.4554 6.95866 34.6772 16.2804 35.1091 20.0884C35.1091 20.0884 28.8417 7.86219 15.3418 8.68638C15.3418 8.68638 31.2835 11.5732 33.2536 21.4106C33.2536 21.4106 29.3442 20.0311 25.8271 20.7363C22.3099 21.4415 13.3937 23.0149 8.10478 17.726C2.81586 12.4371 3.45053 0.0610352 3.45053 0.0610352Z" fill="url(#paint5_linear_757_18105)"/>
<defs>
<linearGradient id="paint0_linear_757_18105" x1="-0.000837412" y1="60.4087" x2="50.1116" y2="60.4087" gradientUnits="userSpaceOnUse">
<stop stop-color="#2B3888"/>
<stop offset="1" stop-color="#282B66"/>
</linearGradient>
<linearGradient id="paint1_linear_757_18105" x1="57.6144" y1="60.4064" x2="122.66" y2="60.4064" gradientUnits="userSpaceOnUse">
<stop stop-color="#2B3888"/>
<stop offset="1" stop-color="#282B66"/>
</linearGradient>
<linearGradient id="paint2_linear_757_18105" x1="118.096" y1="12.7441" x2="141.333" y2="12.7441" gradientUnits="userSpaceOnUse">
<stop stop-color="#2B3888"/>
<stop offset="1" stop-color="#282B66"/>
</linearGradient>
<linearGradient id="paint3_linear_757_18105" x1="120.006" y1="60.2067" x2="139.425" y2="60.2067" gradientUnits="userSpaceOnUse">
<stop stop-color="#2B3888"/>
<stop offset="1" stop-color="#282B66"/>
</linearGradient>
<linearGradient id="paint4_linear_757_18105" x1="139.856" y1="60.5991" x2="194.721" y2="60.5991" gradientUnits="userSpaceOnUse">
<stop stop-color="#2B3888"/>
<stop offset="1" stop-color="#282B66"/>
</linearGradient>
<linearGradient id="paint5_linear_757_18105" x1="3.42444" y1="10.7863" x2="35.107" y2="10.7863" gradientUnits="userSpaceOnUse">
<stop stop-color="#87A43E"/>
<stop offset="1" stop-color="#71903D"/>
</linearGradient>
</defs>
</svg>
