<svg width="166" height="48" viewBox="0 0 166 48" fill="none" xmlns="http://www.w3.org/2000/svg">
<path d="M48.1897 22.6424C48.1897 29.7741 45.2389 36.2081 40.4911 40.7796C38.2958 40.1332 36.2691 39.0967 34.4924 37.7422C39.0412 34.2943 41.9818 28.8096 41.9818 22.6424C41.9818 16.4752 39.0412 10.9956 34.4924 7.54768C29.9386 10.9956 26.998 16.4752 26.998 22.6424C26.998 27.6551 28.938 32.2113 32.1032 35.5976C29.2392 32.5755 25.64 30.277 21.5916 28.984C21.0708 26.9574 20.79 24.8332 20.79 22.6424C20.79 15.5158 23.7409 9.07665 28.4887 4.50514C30.2602 2.79146 32.2819 1.34459 34.4924 0.21582C36.7081 1.34459 38.7247 2.79659 40.4962 4.50514C45.2338 9.08178 48.1897 15.5158 48.1897 22.6424Z" fill="#A4C241"/>
<path d="M34.4909 45.0696C33.5668 45.5416 32.607 45.9572 31.6115 46.3112C28.9772 47.2656 26.1387 47.7838 23.1777 47.7838C14.9226 47.7838 7.60678 43.7664 3.05292 37.5735C1.81746 35.8958 0.786204 34.0641 0 32.1093C1.71535 30.9446 3.57876 29.9903 5.55958 29.2822C6.31516 31.3037 7.40257 33.1662 8.76056 34.7927C12.2117 38.9229 17.3884 41.555 23.1777 41.555C24.99 41.555 26.7462 41.2985 28.4105 40.8111C28.4105 40.8111 28.4565 40.8008 28.482 40.7854C30.2535 42.4991 32.2752 43.9459 34.4858 45.0747L34.4909 45.0696Z" fill="#A4C241"/>
<path d="M64.8771 38.8967C60.2977 44.3301 53.4465 47.778 45.7989 47.778C43.1493 47.778 40.6018 47.3624 38.2023 46.5979C36.9158 46.1824 35.6701 45.6744 34.4857 45.0638C32.2701 43.9402 30.2535 42.4882 28.482 40.7745C28.4565 40.7848 28.4361 40.795 28.4105 40.8002C24.9645 36.6699 19.7878 34.0378 13.9985 34.0378C12.181 34.0378 10.4248 34.2944 8.76054 34.7818C7.40255 33.1553 6.31514 31.2929 5.55957 29.2714C8.19386 28.317 11.0375 27.7988 13.9985 27.7988C16.6481 27.7988 19.1956 28.2144 21.5951 28.9789C25.6435 30.2719 29.2427 32.5756 32.1067 35.5925C32.1322 35.6232 32.1629 35.654 32.1884 35.6797C32.898 36.4288 33.6689 37.1163 34.4908 37.7371C36.2675 39.0865 38.2993 40.1229 40.4895 40.7745C42.1742 41.2773 43.9559 41.539 45.7989 41.539C51.6444 41.539 56.8721 38.8556 60.3181 34.6535L64.8771 38.8864V38.8967Z" fill="url(#paint0_linear_3216_20195)"/>
<path d="M78.7944 40.8613V46.1358H78.1512L75.67 42.262V46.1358H74.9502V40.8613H75.6037L78.0848 44.7351V40.8613H78.7944Z" fill="#2B3888"/>
<path d="M84.2656 44.7197H82.1725L81.6773 46.1358H80.8809L82.8055 40.8613H83.6326L85.5572 46.1358H84.7608L84.2605 44.7197H84.2656ZM84.0308 44.0424L83.2191 41.7438L82.4073 44.0424H84.0257H84.0308Z" fill="#2B3888"/>
<path d="M90.5458 41.5386H88.9785V46.1358H88.2587V41.5386H86.6914V40.8613H90.5458V41.5386Z" fill="#2B3888"/>
<path d="M92.635 43.7346V40.8613H93.3752V43.7346C93.3752 45.0429 93.7122 45.5406 94.5954 45.5406C95.4786 45.5406 95.8104 45.0583 95.8104 43.7346V40.8613H96.5507V43.7346C96.5507 45.1712 96.1167 46.2332 94.5954 46.2332C93.074 46.2332 92.6299 45.202 92.6299 43.7346H92.635Z" fill="#2B3888"/>
<path d="M100.623 43.95H99.8116V46.1358H99.0918V40.8613H101.129C102.089 40.8613 102.676 41.4924 102.676 42.4057C102.676 43.2112 102.211 43.8064 101.44 43.9295L102.783 46.1358H101.884L100.623 43.95ZM99.8116 43.2574H101.124C101.65 43.2574 101.925 42.9547 101.925 42.4057C101.925 41.8567 101.65 41.554 101.124 41.554H99.8116V43.2574Z" fill="#2B3888"/>
<path d="M107.803 44.7197H105.71L105.214 46.1358H104.418L106.343 40.8613H107.17L109.094 46.1358H108.298L107.798 44.7197H107.803ZM107.573 44.0424L106.761 41.7438L105.95 44.0424H107.568H107.573Z" fill="#2B3888"/>
<path d="M114.348 45.4585V46.1358H111.193V40.8613H111.913V45.4585H114.348Z" fill="#2B3888"/>
<path d="M123.096 42.5955C123.096 43.6217 122.442 44.3349 121.38 44.3349H120.277V46.1358H119.558V40.8613H121.38C122.442 40.8613 123.096 41.5694 123.096 42.5955ZM122.345 42.5955C122.345 41.9337 121.998 41.554 121.37 41.554H120.277V43.6422H121.37C121.998 43.6422 122.345 43.2677 122.345 42.5955Z" fill="#2B3888"/>
<path d="M126.857 43.95H126.045V46.1358H125.325V40.8613H127.362C128.322 40.8613 128.909 41.4924 128.909 42.4057C128.909 43.2112 128.444 43.8064 127.674 43.9295L129.016 46.1358H128.118L126.857 43.95ZM126.045 43.2574H127.357C127.883 43.2574 128.159 42.9547 128.159 42.4057C128.159 41.8567 127.883 41.554 127.357 41.554H126.045V43.2574Z" fill="#2B3888"/>
<path d="M130.793 43.4984C130.793 41.8873 131.834 40.7637 133.243 40.7637C134.653 40.7637 135.704 41.8873 135.704 43.4984C135.704 45.1094 134.663 46.2331 133.243 46.2331C131.824 46.2331 130.793 45.1094 130.793 43.4984ZM134.954 43.4984C134.954 42.2875 134.254 41.4563 133.243 41.4563C132.233 41.4563 131.543 42.2875 131.543 43.4984C131.543 44.7092 132.233 45.5404 133.243 45.5404C134.254 45.5404 134.954 44.7144 134.954 43.4984Z" fill="#2B3888"/>
<path d="M142.155 43.4985C142.155 45.1096 141.113 46.1358 139.694 46.1358H137.933V40.8613H139.694C141.113 40.8613 142.155 41.8875 142.155 43.4985ZM141.404 43.4985C141.404 42.3133 140.735 41.554 139.694 41.554H138.652V45.4431H139.694C140.735 45.4431 141.404 44.6837 141.404 43.4985Z" fill="#2B3888"/>
<path d="M144.35 43.7346V40.8613H145.09V43.7346C145.09 45.0429 145.427 45.5406 146.31 45.5406C147.193 45.5406 147.525 45.0583 147.525 43.7346V40.8613H148.266V43.7346C148.266 45.1712 147.832 46.2332 146.31 46.2332C144.789 46.2332 144.345 45.202 144.345 43.7346H144.35Z" fill="#2B3888"/>
<path d="M150.466 43.4984C150.466 41.877 151.508 40.7637 152.886 40.7637C153.764 40.7637 154.453 41.2152 154.826 41.7642L154.229 42.1849C153.922 41.7077 153.432 41.4563 152.886 41.4563C151.921 41.4563 151.201 42.2772 151.201 43.4984C151.201 44.7195 151.901 45.5404 152.886 45.5404C153.447 45.5404 153.958 45.2685 154.264 44.7554L154.857 45.1761C154.407 45.8996 153.652 46.2331 152.876 46.2331C151.487 46.2331 150.461 45.1043 150.461 43.4984H150.466Z" fill="#2B3888"/>
<path d="M160.479 41.5386H158.912V46.1358H158.192V41.5386H156.625V40.8613H160.479V41.5386Z" fill="#2B3888"/>
<path d="M162.177 45.5822L162.529 44.9511C162.958 45.3051 163.586 45.5411 164.163 45.5463C164.801 45.5565 165.24 45.2589 165.24 44.7048C165.24 44.0635 164.668 43.9865 164.107 43.8685C162.718 43.5658 162.309 43.1913 162.309 42.4062C162.309 41.1389 163.361 40.7695 164.229 40.7695C164.857 40.7695 165.413 40.9594 165.888 41.2723L165.541 41.8829C165.107 41.5905 164.689 41.4622 164.209 41.4622C163.453 41.4622 163.07 41.8008 163.07 42.3601C163.07 42.8064 163.315 43.0065 164.239 43.1913C164.831 43.3041 166.001 43.4991 166.001 44.6843C166.001 45.6027 165.281 46.2646 164.147 46.2441C163.315 46.2287 162.514 45.8695 162.177 45.5873V45.5822Z" fill="#2B3888"/>
<path d="M78.1521 32.1599V35.2742C78.1521 35.3717 78.1776 35.4487 78.2338 35.5051C78.2848 35.5616 78.3359 35.5872 78.3971 35.5872H78.5605V36.1721H78.2184C77.9683 36.1721 77.7692 36.0746 77.6211 35.8848C77.2638 36.1362 76.886 36.2645 76.4725 36.2645C75.9007 36.2645 75.4463 36.0387 75.1145 35.5872C74.8388 35.2178 74.7061 34.7817 74.7061 34.2686C74.7061 33.6683 74.9052 33.1758 75.2983 32.7807C75.6454 32.4215 76.0742 32.2471 76.5848 32.2471C76.8758 32.2471 77.1668 32.3138 77.4629 32.4421L77.8151 32.1599H78.1572H78.1521ZM77.4578 33.0167C77.2178 32.8936 76.9728 32.8371 76.7277 32.8371C76.3142 32.8371 75.9773 33.0013 75.722 33.3297C75.5076 33.5965 75.4004 33.9197 75.4004 34.284C75.4004 34.7253 75.5025 35.069 75.7118 35.3204C75.916 35.5513 76.1866 35.6642 76.5286 35.6642C76.8247 35.6642 77.131 35.5872 77.4527 35.423V33.0116L77.4578 33.0167ZM76.7532 30.5693C76.8605 30.5693 76.9575 30.6104 77.034 30.6873C77.1106 30.7694 77.1515 30.8618 77.1515 30.9695C77.1515 31.0824 77.1106 31.185 77.034 31.262C76.9523 31.3389 76.8605 31.38 76.7532 31.38C76.646 31.38 76.549 31.3389 76.4725 31.262C76.3908 31.185 76.355 31.0824 76.355 30.9695C76.355 30.8567 76.3959 30.7643 76.4725 30.6873C76.549 30.6104 76.646 30.5693 76.7532 30.5693ZM77.7437 30.5693C77.856 30.5693 77.953 30.6104 78.0347 30.6873C78.1112 30.7694 78.1521 30.8618 78.1521 30.9695C78.1521 31.0824 78.1112 31.185 78.0347 31.262C77.953 31.3389 77.856 31.38 77.7437 31.38C77.6313 31.38 77.5394 31.3389 77.4629 31.262C77.3812 31.185 77.3455 31.0824 77.3455 30.9695C77.3455 30.8567 77.3863 30.7643 77.4629 30.6873C77.5394 30.6104 77.6364 30.5693 77.7437 30.5693Z" fill="#2B3888"/>
<path d="M80.0182 35.582V36.1669H78.502V35.582H80.0182Z" fill="#2B3888"/>
<path d="M87.1817 12.5086C85.4664 12.0314 83.7561 11.5542 82.0408 11.0771C81.423 10.9026 80.79 10.7282 80.2642 10.3536C78.9981 9.46088 79.2176 8.13202 80.3458 7.33675C81.76 6.34138 83.6744 6.12589 85.349 6.12589C87.3043 6.12589 90.6584 6.63383 93.1242 9.56863L96.2384 6.87498C96.3048 6.81341 95.3041 5.66925 95.2429 5.60255C91.659 1.72882 85.6553 0.995126 80.8002 2.47279C80.5909 2.53949 80.3765 2.60619 80.1723 2.67802C77.8443 3.49381 75.7512 5.02277 75.1436 7.54711C74.4493 10.4203 76.0421 12.9652 78.508 14.3248C80.7083 15.5357 83.2303 15.8949 85.6349 16.49C86.9163 16.8081 88.2079 17.1109 89.4382 17.5983C90.2142 17.9061 92.5218 18.7527 92.1338 19.9328C91.7254 21.1642 90.2704 21.6464 89.137 21.8825C86.9622 22.334 84.6751 22.2673 82.5309 21.6875C81.663 21.4566 80.8308 21.1026 80.06 20.6408C79.8302 20.5023 77.6094 18.7886 77.7473 18.6706C75.9145 20.2252 74.5616 21.4361 74.5616 21.4361C74.4595 21.5284 75.9554 22.9804 76.0473 23.0574C77.4869 24.3196 79.2176 25.2277 81.035 25.8075C85.3081 27.162 91.1944 27.0748 94.6251 23.7398C95.7687 22.6315 96.4324 21.1488 96.4324 19.548C96.4324 14.7661 90.7911 13.5193 87.1817 12.5137V12.5086Z" fill="#2B3888"/>
<path d="M104.192 1.95508H99.9551V26.2287H104.192V1.95508Z" fill="#2B3888"/>
<path d="M136.818 1.95508H132.581V26.2287H136.818V1.95508Z" fill="#2B3888"/>
<path d="M161.035 26.2287H165.977L154.96 3.7098L154.648 3.07358L154.102 1.95508H151.039L150.493 3.07871L150.181 3.7098L139.164 26.2287H144.106L147.23 19.7486H157.844L161.04 26.2287H161.035ZM149.344 15.3669L152.478 8.86621L155.685 15.3669H149.349H149.344Z" fill="#2B3888"/>
<path d="M124.409 3.28315C121.816 1.90298 118.932 1.91837 116.828 1.92863L111.754 1.95429H108.757V26.2279H112.994V19.0141C114.041 19.0141 115.082 19.0141 116.129 19.0141C116.486 19.0141 116.849 19.0141 117.206 19.0192C117.538 19.0192 117.87 19.0295 118.207 19.0295C118.268 19.0295 118.329 19.0295 118.395 19.0295C119.753 20.0505 120.769 20.9689 121.499 22.1233C121.622 22.3132 121.75 22.544 121.882 22.7852C122.327 23.5856 122.883 24.5809 123.858 25.3403C125.298 26.4537 126.952 26.6076 128.381 26.6076H128.392V22.1438H128.381C127.667 22.1438 126.952 22.1028 126.574 21.8052C126.319 21.6051 126.038 21.0972 125.762 20.6097C125.604 20.3224 125.436 20.0248 125.242 19.7221C124.833 19.0808 124.374 18.5061 123.889 17.9725C126.038 16.9259 127.723 15.0172 128.427 12.811C129.086 10.7433 128.938 8.56271 128.019 6.82851C127.243 5.35085 125.992 4.12973 124.409 3.28315ZM124.195 11.4513C123.848 12.5493 122.965 13.5036 121.836 14.0116C121.464 14.1809 121.066 14.304 120.647 14.3861C119.605 14.5914 118.462 14.576 117.257 14.5606C116.869 14.5606 116.486 14.5503 116.103 14.5503C115.067 14.5503 114.025 14.5503 112.989 14.5503V6.41292L116.849 6.3924C118.967 6.38213 120.841 6.43857 122.332 7.22871C123.113 7.6443 123.741 8.2446 124.093 8.91673C124.44 9.5786 124.481 10.5483 124.195 11.4513Z" fill="#2B3888"/>
<path d="M81.4752 35.582V36.1669H79.959V35.582H81.4752Z" fill="#2B3888"/>
<path d="M82.9323 35.582V36.1669H81.416V35.582H82.9323Z" fill="#2B3888"/>
<path d="M84.0181 33.7201C84.207 33.2378 84.5286 32.8632 84.9779 32.5913C85.3404 32.3809 85.7131 32.2783 86.101 32.2783C86.489 32.2783 86.8617 32.3809 87.214 32.5913C87.6684 32.8581 87.9849 33.2378 88.1738 33.7201L88.1023 33.9202C87.7245 34.0792 87.4182 34.2947 87.1782 34.5718C86.9332 34.8591 86.7749 35.1926 86.7137 35.5825H88.2606V36.1674H86.5963C86.4329 36.1674 86.2746 36.0905 86.1215 35.9263H86.0959C85.9479 36.0853 85.7896 36.1674 85.6212 36.1674H82.8848V35.5825H85.4986C85.4374 35.249 85.3046 34.9309 85.0902 34.6333C84.8452 34.3255 84.5184 34.0895 84.1049 33.915L84.0232 33.7149L84.0181 33.7201ZM87.4182 33.638C87.2395 33.3763 87.0353 33.1762 86.8056 33.0428C86.586 32.9299 86.3512 32.8684 86.101 32.8684C85.8509 32.8684 85.6212 32.9197 85.4221 33.0274C85.1821 33.1505 84.9677 33.3506 84.7839 33.638C85.0698 33.7662 85.3097 33.9407 85.5139 34.1716C85.7641 34.4589 85.9581 34.8129 86.0857 35.2439H86.1113C86.2491 34.7975 86.4431 34.4332 86.7035 34.151C86.9128 33.9304 87.1527 33.7611 87.4233 33.6431L87.4182 33.638Z" fill="#2B3888"/>
<path d="M89.7086 35.582V36.1669H88.1924V35.582H89.7086Z" fill="#2B3888"/>
<path d="M91.8242 32.3799V35.3865C91.8242 35.4532 91.814 35.5199 91.7987 35.5815H92.2327V36.1664H91.911L91.6711 35.8791H91.6455C91.4975 36.0689 91.3086 36.1664 91.0738 36.1664H89.6494V35.5815H90.8134C90.9002 35.5815 90.9717 35.5558 91.0278 35.4994C91.0942 35.4378 91.1248 35.3609 91.1248 35.2685V32.3799H91.8191H91.8242ZM90.4254 37.0232C90.5326 37.0232 90.6296 37.0643 90.7062 37.1412C90.7828 37.2182 90.8236 37.3157 90.8236 37.4234C90.8236 37.5363 90.7828 37.6338 90.7062 37.7159C90.6245 37.7928 90.5326 37.8339 90.4254 37.8339C90.3182 37.8339 90.2212 37.7928 90.1446 37.7159C90.068 37.6389 90.0272 37.5363 90.0272 37.4234C90.0272 37.3105 90.068 37.2182 90.1446 37.1412C90.2212 37.0591 90.3182 37.0232 90.4254 37.0232ZM91.4158 37.0232C91.5281 37.0232 91.6251 37.0643 91.7068 37.1412C91.7885 37.2182 91.8242 37.3157 91.8242 37.4234C91.8242 37.5363 91.7834 37.6338 91.7068 37.7159C91.6251 37.7928 91.5281 37.8339 91.4158 37.8339C91.3035 37.8339 91.2116 37.7928 91.135 37.7159C91.0584 37.6389 91.0176 37.5363 91.0176 37.4234C91.0176 37.3105 91.0584 37.2182 91.135 37.1412C91.2116 37.0591 91.3086 37.0232 91.4158 37.0232Z" fill="#2B3888"/>
<path d="M94.3447 32.3799V35.3865C94.3447 35.4532 94.3345 35.5199 94.3192 35.5815H94.7532V36.1664H94.4315L94.1916 35.8791H94.1661C94.018 36.0689 93.8291 36.1664 93.5943 36.1664H92.1699V35.5815H93.3339C93.4207 35.5815 93.4922 35.5558 93.5483 35.4994C93.6147 35.4378 93.6453 35.3609 93.6453 35.2685V32.3799H94.3396H94.3447ZM93.9363 37.0232C94.0486 37.0232 94.1456 37.0643 94.2273 37.1412C94.309 37.2182 94.3447 37.3157 94.3447 37.4234C94.3447 37.5363 94.3039 37.6338 94.2273 37.7159C94.1456 37.7928 94.0486 37.8339 93.9363 37.8339C93.824 37.8339 93.7321 37.7928 93.6555 37.7159C93.579 37.6389 93.5381 37.5363 93.5381 37.4234C93.5381 37.3105 93.579 37.2182 93.6555 37.1412C93.7321 37.0591 93.8291 37.0232 93.9363 37.0232Z" fill="#2B3888"/>
<path d="M96.8628 30.2708V34.1907C97.6031 32.9182 98.5884 32.282 99.8035 32.282C100.457 32.282 100.988 32.4821 101.386 32.8823C101.749 33.2517 101.927 33.7186 101.927 34.2881V35.381C101.927 35.4528 101.917 35.5195 101.902 35.576H102.188V36.1609H102.014L101.774 35.8735H101.749C101.595 36.0634 101.406 36.1609 101.177 36.1609H94.6982V35.576H96.1736V30.2656H96.8628V30.2708ZM101.223 34.2163C101.223 33.7597 101.054 33.4108 100.712 33.1696C100.452 32.9798 100.115 32.8823 99.7065 32.8823C99.2419 32.8823 98.8028 33.026 98.3944 33.3082C97.7614 33.7597 97.2508 34.5139 96.8628 35.5811H100.916C101.121 35.5811 101.218 35.4785 101.218 35.2681V34.2163H101.223Z" fill="#2B3888"/>
<path d="M104.289 30.2715V35.3869C104.289 35.6023 104.217 35.7819 104.074 35.9307C103.926 36.0898 103.748 36.1719 103.544 36.1719H102.119V35.587H103.283C103.385 35.587 103.467 35.551 103.523 35.4792C103.574 35.4176 103.595 35.3509 103.595 35.274V30.2766H104.289V30.2715Z" fill="#2B3888"/>
<path d="M106.117 30.2715V36.0846L105.765 36.372H105.423V30.2715H106.117Z" fill="#2B3888"/>
<path d="M115.463 32.3798V35.3864C115.463 35.5814 115.402 35.7558 115.284 35.8995C115.131 36.0791 114.947 36.1714 114.728 36.1714H110.041C109.725 36.1714 109.449 36.0688 109.224 35.8585C108.913 35.5917 108.76 35.2428 108.76 34.8118V33.2623L109.112 32.975H109.454V34.8118C109.454 35.0273 109.531 35.2069 109.684 35.3556C109.832 35.5096 110.016 35.5865 110.24 35.5865H114.457C114.667 35.5865 114.769 35.4839 114.769 35.2736V32.3849H115.463V32.3798ZM111.619 32.1592C111.726 32.1592 111.823 32.2002 111.899 32.2772C111.976 32.3541 112.017 32.4516 112.017 32.5696C112.017 32.6876 111.976 32.7749 111.899 32.8518C111.823 32.9288 111.726 32.9698 111.619 32.9698C111.511 32.9698 111.409 32.9288 111.333 32.8518C111.256 32.7749 111.22 32.6774 111.22 32.5696C111.22 32.4568 111.261 32.3593 111.333 32.2772C111.409 32.1951 111.506 32.1592 111.619 32.1592ZM112.609 32.1592C112.721 32.1592 112.818 32.2002 112.9 32.2772C112.982 32.3541 113.018 32.4516 113.018 32.5696C113.018 32.6876 112.977 32.7749 112.9 32.8518C112.824 32.9288 112.721 32.9698 112.609 32.9698C112.497 32.9698 112.405 32.9288 112.328 32.8518C112.247 32.7749 112.211 32.6774 112.211 32.5696C112.211 32.4568 112.252 32.3593 112.328 32.2772C112.405 32.1951 112.502 32.1592 112.609 32.1592Z" fill="#2B3888"/>
<path d="M117.292 30.2708V35.2681C117.292 35.3553 117.318 35.4323 117.374 35.4887C117.435 35.5503 117.512 35.5811 117.604 35.5811H117.711V36.166H117.333C117.159 36.166 117.006 36.1096 116.874 35.9916C116.69 35.8325 116.593 35.6273 116.593 35.381V30.2656H117.287L117.292 30.2708Z" fill="#2B3888"/>
<path d="M119.172 35.582V36.1669H117.656V35.582H119.172Z" fill="#2B3888"/>
<path d="M120.202 32.5195C120.702 32.3604 121.172 32.2783 121.611 32.2783C122.29 32.2783 122.806 32.4887 123.158 32.9145C123.464 33.2788 123.617 33.7508 123.617 34.3409V35.3876C123.617 35.4543 123.607 35.521 123.592 35.5825H123.878V36.1674H123.704L123.474 35.8801H123.449C123.296 36.07 123.107 36.1674 122.877 36.1674H119.109V35.5825H122.606C122.816 35.5825 122.918 35.4799 122.918 35.2696V34.3152C122.918 33.8894 122.806 33.5508 122.581 33.3045C122.336 33.0325 121.979 32.894 121.509 32.894C121.223 32.894 120.789 32.9556 120.197 33.0736V32.5195H120.202ZM121.177 37.0243C121.289 37.0243 121.386 37.0653 121.468 37.1423C121.55 37.2192 121.585 37.3167 121.585 37.4245C121.585 37.5374 121.545 37.6348 121.468 37.7169C121.386 37.7939 121.289 37.8349 121.177 37.8349C121.065 37.8349 120.973 37.7939 120.896 37.7169C120.82 37.6348 120.779 37.5374 120.779 37.4245C120.779 37.3116 120.82 37.2192 120.896 37.1423C120.973 37.0602 121.07 37.0243 121.177 37.0243Z" fill="#2B3888"/>
<path d="M125.339 35.582V36.1669H123.823V35.582H125.339Z" fill="#2B3888"/>
<path d="M127.452 32.3805V35.3871C127.452 35.4538 127.442 35.5205 127.427 35.5821H127.861V36.167H127.539L127.299 35.8797H127.273C127.125 36.0695 126.937 36.167 126.702 36.167H125.277V35.5821H126.441C126.528 35.5821 126.6 35.5564 126.656 35.5C126.722 35.4384 126.753 35.3615 126.753 35.2691V32.3805H127.447H127.452ZM126.125 30.5693C126.237 30.5693 126.334 30.6104 126.411 30.6873C126.487 30.7694 126.523 30.8618 126.523 30.9695C126.523 31.0824 126.487 31.185 126.411 31.262C126.334 31.3389 126.237 31.38 126.125 31.38C126.012 31.38 125.921 31.3389 125.844 31.262C125.762 31.185 125.727 31.0824 125.727 30.9695C125.727 30.8567 125.767 30.7643 125.844 30.6873C125.921 30.6104 126.018 30.5693 126.125 30.5693ZM127.125 30.5693C127.233 30.5693 127.33 30.6104 127.406 30.6873C127.483 30.7643 127.524 30.8618 127.524 30.9695C127.524 31.0824 127.483 31.185 127.406 31.262C127.33 31.3389 127.233 31.38 127.125 31.38C127.013 31.38 126.916 31.3389 126.834 31.262C126.753 31.185 126.717 31.0824 126.717 30.9695C126.717 30.8567 126.758 30.7643 126.834 30.6873C126.911 30.6104 127.008 30.5693 127.125 30.5693Z" fill="#2B3888"/>
<path d="M129.973 32.3805V35.3871C129.973 35.4538 129.962 35.5205 129.947 35.5821H130.381V36.167H130.059L129.82 35.8797H129.794C129.646 36.0695 129.457 36.167 129.222 36.167H127.798V35.5821H128.962C129.049 35.5821 129.12 35.5564 129.176 35.5C129.243 35.4384 129.273 35.3615 129.273 35.2691V32.3805H129.968H129.973ZM129.62 30.5693C129.733 30.5693 129.83 30.6104 129.911 30.6873C129.993 30.7643 130.029 30.8618 130.029 30.9695C130.029 31.0824 129.988 31.185 129.911 31.262C129.835 31.3389 129.738 31.38 129.62 31.38C129.503 31.38 129.416 31.3389 129.34 31.262C129.258 31.185 129.222 31.0824 129.222 30.9695C129.222 30.8567 129.263 30.7643 129.34 30.6873C129.416 30.6104 129.513 30.5693 129.62 30.5693Z" fill="#2B3888"/>
<path d="M131.943 35.582C131.719 35.2126 131.606 34.797 131.606 34.3199C131.606 33.658 131.79 33.1449 132.163 32.7806C132.495 32.4625 132.934 32.2983 133.48 32.2881C133.873 32.2881 134.2 32.3753 134.455 32.5446C134.848 32.8063 135.047 33.2219 135.047 33.7811V35.2691C135.047 35.346 135.068 35.4127 135.103 35.4692C135.155 35.541 135.216 35.5769 135.297 35.582H135.313V36.1669H135.109C134.864 36.1669 134.664 36.0695 134.521 35.8796C134.225 36.2388 133.853 36.4132 133.398 36.4132C132.944 36.4132 132.51 36.2336 132.163 35.8796H132.148L131.918 36.1669H130.33V35.582H131.943ZM134.353 33.7811C134.353 33.4938 134.261 33.2681 134.082 33.0987C133.924 32.95 133.72 32.8781 133.47 32.8781C133.123 32.8781 132.837 33.0064 132.627 33.2681C132.413 33.5297 132.306 33.8684 132.306 34.2942C132.306 34.7406 132.418 35.11 132.643 35.4076C132.857 35.6949 133.123 35.8334 133.444 35.8334C133.766 35.8334 134.062 35.6898 134.353 35.3973V33.7811Z" fill="#2B3888"/>
<path d="M137.422 30.2715V35.3869C137.422 35.6023 137.35 35.7819 137.207 35.9307C137.059 36.0898 136.881 36.1719 136.676 36.1719H135.252V35.587H136.416C136.518 35.587 136.6 35.551 136.656 35.4792C136.707 35.4176 136.727 35.3509 136.727 35.274V30.2766H137.422V30.2715Z" fill="#2B3888"/>
<path d="M140.756 30.2717V35.2691C140.756 35.3563 140.782 35.4333 140.838 35.4897C140.899 35.5513 140.976 35.5821 141.067 35.5821H141.175V36.167H140.797C140.623 36.167 140.47 36.1105 140.337 35.9925C140.154 35.8335 140.057 35.6282 140.057 35.382V30.2666H140.751L140.756 30.2717Z" fill="#2B3888"/>
<path d="M142.632 35.582V36.1669H141.116V35.582H142.632Z" fill="#2B3888"/>
<path d="M144.093 35.582V36.1669H142.577V35.582H144.093Z" fill="#2B3888"/>
<path d="M146.208 32.3799V35.3865C146.208 35.5917 146.141 35.7662 146.014 35.915C145.866 36.0843 145.682 36.1715 145.462 36.1715H144.038V35.5866H145.202C145.294 35.5866 145.371 35.5558 145.432 35.4891C145.488 35.4327 145.513 35.3609 145.513 35.2736V32.385H146.208V32.3799ZM144.732 37.0232C144.84 37.0232 144.937 37.0643 145.013 37.1412C145.09 37.2182 145.131 37.3157 145.131 37.4234C145.131 37.5363 145.09 37.6338 145.013 37.7159C144.931 37.7928 144.84 37.8339 144.732 37.8339C144.62 37.8339 144.518 37.7928 144.441 37.7159C144.365 37.6338 144.324 37.5363 144.324 37.4234C144.324 37.3105 144.365 37.2182 144.441 37.1412C144.518 37.0591 144.62 37.0232 144.732 37.0232ZM145.723 37.0232C145.835 37.0232 145.932 37.0643 146.009 37.1412C146.085 37.2182 146.121 37.3157 146.121 37.4234C146.121 37.5363 146.085 37.6338 146.009 37.7159C145.932 37.7928 145.835 37.8339 145.723 37.8339C145.61 37.8339 145.519 37.7928 145.442 37.7159C145.365 37.6389 145.325 37.5363 145.325 37.4234C145.325 37.3105 145.365 37.2182 145.442 37.1412C145.519 37.0591 145.616 37.0232 145.723 37.0232Z" fill="#2B3888"/>
<path d="M149.49 32.3801V35.5817H149.909V36.1666H149.49C149.475 36.8542 149.23 37.3672 148.76 37.7059C148.382 37.9881 147.892 38.1266 147.295 38.1266C147.203 38.1266 147.085 38.1266 146.942 38.1163L146.672 37.7777V37.516C146.83 37.5365 147.004 37.5468 147.188 37.5468C148.26 37.5468 148.796 37.0543 148.796 36.064V32.375H149.49V32.3801Z" fill="#2B3888"/>
<path d="M151.369 35.582V36.1669H149.853V35.582H151.369Z" fill="#2B3888"/>
<path d="M152.826 35.582V36.1669H151.31V35.582H152.826Z" fill="#2B3888"/>
<path d="M154.283 35.582V36.1669H152.767V35.582H154.283Z" fill="#2B3888"/>
<path d="M156.398 32.3799V35.3865C156.398 35.4532 156.388 35.5199 156.373 35.5815H156.807V36.1664H156.485L156.245 35.8791H156.22C156.072 36.0689 155.883 36.1664 155.648 36.1664H154.224V35.5815H155.388C155.474 35.5815 155.546 35.5558 155.602 35.4994C155.668 35.4378 155.699 35.3609 155.699 35.2685V32.3799H156.393H156.398ZM155 37.0232C155.107 37.0232 155.204 37.0643 155.28 37.1412C155.357 37.2182 155.398 37.3157 155.398 37.4234C155.398 37.5363 155.357 37.6338 155.28 37.7159C155.199 37.7928 155.107 37.8339 155 37.8339C154.892 37.8339 154.795 37.7928 154.719 37.7159C154.642 37.6389 154.601 37.5363 154.601 37.4234C154.601 37.3105 154.642 37.2182 154.719 37.1412C154.795 37.0591 154.892 37.0232 155 37.0232ZM155.99 37.0232C156.102 37.0232 156.199 37.0643 156.281 37.1412C156.363 37.2182 156.398 37.3157 156.398 37.4234C156.398 37.5363 156.358 37.6338 156.281 37.7159C156.199 37.7928 156.102 37.8339 155.99 37.8339C155.878 37.8339 155.786 37.7928 155.709 37.7159C155.633 37.6389 155.592 37.5363 155.592 37.4234C155.592 37.3105 155.633 37.2182 155.709 37.1412C155.786 37.0591 155.883 37.0232 155.99 37.0232Z" fill="#2B3888"/>
<path d="M158.268 35.582V36.1669H156.752V35.582H158.268Z" fill="#2B3888"/>
<path d="M166 32.3801V35.3868C166 35.6023 165.928 35.787 165.78 35.9409C165.637 36.0948 165.463 36.1718 165.259 36.1718H163.677L163.416 35.8844H163.391C163.238 36.0743 163.049 36.1718 162.819 36.1718H161.247L160.976 35.8844H160.95C160.797 36.0743 160.608 36.1718 160.379 36.1718H158.209V35.5869H160.108C160.317 35.5869 160.42 35.4842 160.42 35.2739V33.3293H161.114V35.3868C161.114 35.4586 161.109 35.5253 161.099 35.5817H162.548C162.758 35.5817 162.86 35.4791 162.86 35.2687V32.847H163.554V35.3816C163.554 35.4535 163.544 35.5202 163.529 35.5766H164.989C165.198 35.5766 165.3 35.474 165.3 35.2636V32.375H165.994L166 32.3801Z" fill="#2B3888"/>
<defs>
<linearGradient id="paint0_linear_3216_20195" x1="5.55957" y1="37.7936" x2="64.8771" y2="37.7936" gradientUnits="userSpaceOnUse">
<stop offset="0.06" stop-color="#A4C241"/>
<stop offset="0.32" stop-color="#58B0E0"/>
</linearGradient>
</defs>
</svg>
