<svg width="177" height="219" viewBox="0 0 177 219" fill="none" xmlns="http://www.w3.org/2000/svg">
<path d="M177 16.8476V180.23C177 189.07 169.835 196.234 160.996 196.234H144.469C133.012 205.049 112.23 210.942 88.4979 210.942C64.7654 210.942 43.9877 205.049 32.5309 196.234H16C7.16461 196.234 0 189.07 0 180.23V16.8476C0 8.01225 7.16461 0.847656 16 0.847656H160.996C169.84 0.847656 177 8.00814 177 16.8476Z" fill="#153D1F"/>
<path d="M146.444 57.1357C146.444 57.1357 140.979 63.9135 151.329 72.5802C161.679 81.2469 163.621 88.6543 159.737 94.7489C159.737 94.7489 162.469 87.9176 157.634 81.4567C157.634 81.4567 164.675 92.4897 151.436 105.728C142.819 113.712 131.79 103.416 131.79 103.416C131.79 103.416 139.724 105.621 149.074 102.049C158.424 98.4773 156.745 90.7036 154.119 87.6008C151.494 84.502 142.037 75.7283 141.667 68.5308C141.667 68.5308 143.453 73.5761 146.148 75.7448C146.148 75.753 136.934 64.753 146.444 57.1357Z" fill="#132818"/>
<path d="M129.966 71.9341C122.892 67.1687 127.217 63.9136 127.217 63.9136C127.217 63.9136 118.97 65 125.275 75.0164C125.275 75.0164 123.328 74.786 122.279 69.8477C122.279 69.8477 121.542 74.2634 124.485 76.4691C124.485 76.4691 120.789 80.1276 119.11 87.2716C117.427 94.4197 127.164 95.4691 127.164 95.4691C127.164 95.4691 123.942 99.251 117.567 97.7119C113.575 96.6584 110.283 90.2839 109.374 87.6955C108.464 85.1029 104.818 79.0082 97.3942 77.8189C89.9703 76.6255 73.5794 88.1152 67.9745 91.8971C62.3736 95.679 44.6864 106.885 26.7193 102.683C15.9498 99.6379 16.316 89.5514 16.423 87.7654C16.5259 85.9753 20.2049 66.9588 46.5753 74.6296L46.9251 73.0206C46.9251 73.0206 30.5136 65.0329 18.7111 76.1852C16.4436 78.3292 14.7481 80.9959 13.8222 83.9753C12.3777 88.6173 11.4601 96.3374 17.6823 103.103C27.1761 113.42 43.3531 106.716 43.9333 106.473C43.6617 106.667 39.6164 109.424 31.5506 109.827C31.5506 109.827 47.6617 113.399 71.3366 99.251C90.0403 87.0699 95.8551 86.572 95.8551 86.572C95.8551 86.572 101.316 85.2428 105.732 93.0165C110.143 100.79 114.452 104.996 120.649 103.593C126.851 102.193 129.896 97.642 130.596 96.1687L139.703 97.7119C139.703 97.7119 142.505 93.6461 143.275 86.0123C143.415 78.4485 137.04 76.6955 129.966 71.9341ZM130.386 88.465C130.386 88.465 124.501 87.7366 122.139 85.3745C121.97 85.2058 121.859 84.9918 121.798 84.7613C121.621 84.1193 121.892 83.4403 122.464 83.1029C123.695 82.3786 126.374 81.4074 128.18 82.4033C130.843 83.8765 130.386 88.465 130.386 88.465ZM133.118 89.4115L134.205 83.107C134.205 83.107 140.193 86.1523 140.3 90.8436L133.118 89.4115Z" fill="#132818"/>
<path d="M92.1064 23.3206C92.1064 23.3206 92.0364 19.2219 95.5755 16.5593C99.1146 13.8968 99.9706 19.5963 97.2216 22.5675C97.2216 22.5675 98.308 18.119 97.0981 17.2959C95.8883 16.4729 93.8224 19.9585 95.4767 23.8103C97.1311 27.6622 100.827 32.4605 104.399 35.6498C107.971 38.8391 115.501 46.3124 118.073 53.6704C119.213 56.4893 119.633 59.0819 119.423 61.1478C119.423 61.1478 117.777 54.1437 115.045 50.7815C115.045 50.7815 119.913 60.5511 119.176 67.4893C118.44 74.4235 112.086 80.0984 104.362 77.8391C96.6372 75.5799 94.2051 62.1478 104.818 56.0037C104.818 56.0037 92.9664 69.3165 104.674 76.3576C106.999 77.7568 109.995 77.5963 112.049 75.8268C115.608 72.7609 118.678 65.7033 111.822 54.4976C111.822 54.4976 106.357 45.4605 97.6743 37.6169C88.987 29.7733 91.4932 21.4729 91.4932 21.4729C91.4932 21.4729 91.1269 28.4441 93.9253 31.9791C93.9253 31.9708 92.0035 27.1519 92.1064 23.3206Z" fill="#132818"/>
<path d="M100.941 21.1233C100.994 20.6666 101.143 20.2262 101.373 19.8271C101.941 18.8517 103.052 17.2427 103.492 18.6007C104.097 20.4649 102.624 21.0164 101.916 21.5966C101.496 21.9917 101.258 23.6172 102.785 22.7242C104.307 21.8312 107.435 21.4649 105.044 26.4032C103.073 30.6336 100.422 29.3456 100.422 29.3456C100.422 29.3456 103.126 28.0328 103.994 25.7736C103.994 25.7736 100.328 27.2427 100.71 23.3044C100.813 22.2674 100.892 21.5678 100.941 21.1233Z" fill="#132818"/>
<path d="M76.9323 53.7902C58.887 78.9507 55.4549 59.0288 55.4549 59.0288L55.4014 57.8725L54.7183 57.7161C54.5455 57.7778 54.3767 57.8437 54.2121 57.9095C50.422 59.4363 47.9734 63.1605 47.8911 67.2428L47.8376 69.7819C46.0516 93.8272 21.78 93.07 21.78 93.07C26.1916 95.3293 34.1257 92.3334 34.1257 92.3334C31.2903 94.4363 27.0681 94.9095 27.0681 94.9095C51.4426 96.8725 50.1504 78.3622 50.5701 72.0042C50.9899 65.6461 55.5619 64.2305 55.5619 64.2305C55.5619 64.2305 58.7142 74.6832 66.6977 70.7984C81.9858 61.0782 81.0393 52.9383 79.5701 48.4692C78.9734 46.6544 77.385 45.9383 75.7142 45.7284C72.3356 45.3046 69.0681 47.0494 67.315 49.9712C64.4014 54.8149 61.9529 63.2758 64.6525 71.4815C68.6483 83.6214 85.4961 69.2758 85.4961 69.2758L104.471 51.7038L99.5084 53.856L104.471 50.5474V47.7696C100.829 49.3087 97.4673 47.6297 96.9076 47.4898C96.3479 47.3498 90.2533 42.1647 87.8706 45.8066C84.5084 50.6379 85.6977 59.9548 85.6977 59.9548L87.8706 76.4527L88.5002 75.4733L87.6607 59.819C87.6607 59.819 87.1175 53.8313 89.7018 51.3622C90.8911 50.0494 95.9611 53.1235 95.9611 53.1235C95.9611 53.1235 75.9611 75.4404 67.4179 71.3786C67.4179 71.3786 62.4426 65.354 67.8376 55.8972C71.0064 50.926 74.8335 51.5145 76.3685 52.0165C76.7841 52.1523 77.0846 52.5186 77.1422 52.9548C77.1792 53.2428 77.1051 53.5474 76.9323 53.7902Z" fill="#132818"/>
<path d="M51.4355 74.498C51.4355 74.498 63.4932 80.3046 67.0652 89.1812C67.0652 89.1812 61.2339 81.7203 51.4355 76.3087V74.498Z" fill="#132818"/>
<path d="M57.7893 48.7076C56.0568 51.2302 53.9333 54.0368 52.3572 52.2508C50.1226 49.2796 48.4148 50.2261 48.4148 50.2261C49.2913 48.9092 50.3489 47.6376 51.3695 46.8393C53.4601 47.4854 54.8387 48.8722 54.9457 48.9833C53.8387 47.259 52.5383 46.724 51.7522 46.5224C52.8716 45.8393 54.0815 45.7734 54.6946 47.0738C55.921 49.6788 57.6946 48.757 57.7893 48.7076Z" fill="#132818"/>
<path d="M89.1687 36.7652C87.4362 39.2878 85.3127 42.0944 83.7366 40.3084C81.502 37.3372 79.7942 38.2837 79.7942 38.2837C80.6707 36.9668 81.7283 35.6952 82.7489 34.8969C84.8395 35.543 86.2181 36.9298 86.3251 37.0409C85.2181 35.3166 83.9176 34.7817 83.1316 34.58C84.251 33.8969 85.4608 33.831 86.074 35.1315C87.3003 37.7364 89.074 36.8146 89.1687 36.7652Z" fill="#132818"/>
<path d="M98.6613 106.358C98.5173 106.317 95.5214 105.44 91.7806 108.514C87.9494 111.666 85.3732 110.827 83.509 108.934C83.4967 108.921 83.4844 108.909 83.4679 108.893C87.9905 108.946 91.1016 105.205 91.1016 105.205C85.4309 109.263 82.1428 107.506 81.0399 106.625C80.9041 106.498 80.7642 106.366 80.6243 106.234C80.6201 106.23 80.6201 106.23 80.6201 106.23C78.4226 104.144 75.9946 101.547 75.9946 99.584C75.9946 99.584 78.4144 103.971 82.6695 100.975C86.9247 97.9832 91.151 95.3536 94.435 99.0038C97.6448 102.576 98.6202 106.189 98.6613 106.358Z" fill="#132818"/>
<path d="M135.412 48.6787C135.412 48.6787 127.626 59.8474 132.905 63.0367C137.432 65.7693 137.424 56.6993 137.424 56.6993C137.424 56.6993 136.251 60.1849 133.519 59.2384C130.79 58.2919 135.412 48.6787 135.412 48.6787Z" fill="#132818"/>
<path d="M21.9832 56.0616H23.5881V60.3661H24.8103V56.0616H26.4194V54.9258H21.9832V56.0616Z" fill="#132818"/>
<path d="M31.5231 54.9258L29.8934 58.0945L28.2556 54.9258H26.9634V60.3661H28.1239V57.1439L29.5066 59.8393H30.2761L31.6465 57.148L31.6506 60.3661H32.8111V54.9258H31.5231Z" fill="#132818"/>
<path d="M145.638 56.3301C145.638 56.3301 140.173 63.1079 150.523 71.7745C160.873 80.4412 162.815 87.8486 158.931 93.9433C158.931 93.9433 161.663 87.112 156.828 80.6511C156.828 80.6511 163.869 91.684 150.63 104.923C142.013 112.906 130.984 102.61 130.984 102.61C130.984 102.61 138.918 104.816 148.268 101.244C157.618 97.6716 155.939 89.898 153.313 86.7951C150.688 83.6922 141.231 74.9227 140.861 67.7251C140.861 67.7251 142.647 72.7704 145.342 74.9391C145.342 74.9474 136.128 63.9515 145.638 56.3301Z" fill="url(#paint0_linear_737_13006)"/>
<path d="M129.156 71.128C122.082 66.3626 126.407 63.1074 126.407 63.1074C126.407 63.1074 118.161 64.1938 124.465 74.2103C124.465 74.2103 122.519 73.9799 121.469 69.0416C121.469 69.0416 120.733 73.4572 123.675 75.663C123.675 75.663 119.979 79.3214 118.3 86.4655C116.617 93.6136 126.354 94.663 126.354 94.663C126.354 94.663 123.132 98.4449 116.757 96.9058C112.765 95.8523 109.473 89.4778 108.564 86.8893C107.654 84.2967 104.008 78.2021 96.5844 77.0128C89.1605 75.8194 72.7696 87.3091 67.1646 91.091C61.5638 94.8729 43.8766 106.079 25.9095 101.877C15.1399 98.8317 15.5062 88.7453 15.6132 86.9593C15.7161 85.1692 19.3951 66.1527 45.7655 73.8235L46.1153 72.2144C46.1153 72.2144 29.7037 64.2268 17.9013 75.379C15.6338 77.5231 13.9383 80.1897 13.0124 83.1692C11.5679 87.8111 10.6502 95.5313 16.8725 102.297C26.3663 112.614 42.5432 105.91 43.1235 105.667C42.8519 105.861 38.8066 108.618 30.7408 109.021C30.7408 109.021 46.8519 112.593 70.5268 98.4449C89.2305 86.2638 95.0453 85.7659 95.0453 85.7659C95.0453 85.7659 100.506 84.4366 104.922 92.2103C109.333 99.984 113.642 104.19 119.84 102.786C126.041 101.387 129.086 96.8358 129.786 95.3626L138.893 96.9058C138.893 96.9058 141.695 92.8399 142.465 85.2062C142.609 77.6465 136.23 75.8893 129.156 71.128ZM129.58 87.6589C129.58 87.6589 123.696 86.9305 121.333 84.5683C121.165 84.3996 121.054 84.1856 120.992 83.9552C120.815 83.3132 121.086 82.6342 121.658 82.2967C122.889 81.5724 125.568 80.6013 127.375 81.5971C130.033 83.0745 129.58 87.6589 129.58 87.6589ZM132.313 88.6095L133.399 82.305C133.399 82.305 139.387 85.3502 139.494 90.0416L132.313 88.6095Z" fill="url(#paint1_linear_737_13006)"/>
<path d="M91.3007 22.5145C91.3007 22.5145 91.2307 18.4157 94.7698 15.7532C98.3089 13.0906 99.1649 18.7902 96.4159 21.7614C96.4159 21.7614 97.5024 17.3128 96.2925 16.4898C95.0826 15.6667 93.0168 19.1523 94.6711 23.0042C96.3254 26.856 100.021 31.6544 103.593 34.8437C107.165 38.0289 114.696 45.5062 117.268 52.8643C118.408 55.6832 118.827 58.2758 118.618 60.3416C118.618 60.3416 116.971 53.3375 114.239 49.9754C114.239 49.9754 119.107 59.7449 118.371 66.6832C117.634 73.6173 111.28 79.2922 103.556 77.033C95.8316 74.7737 93.3995 61.3416 104.013 55.1976C104.013 55.1976 92.1608 68.5104 103.869 75.5515C106.194 76.9507 109.19 76.7902 111.243 75.0206C114.803 71.9548 117.873 64.8972 111.017 53.6914C111.017 53.6914 105.552 44.6544 96.8686 36.8108C88.1814 28.9671 90.6875 20.6667 90.6875 20.6667C90.6875 20.6667 90.3213 27.6379 93.1196 31.1729C93.1196 31.1688 91.1978 26.3457 91.3007 22.5145Z" fill="url(#paint2_linear_737_13006)"/>
<path d="M100.135 20.3172C100.188 19.8604 100.337 19.4201 100.567 19.0209C101.135 18.0456 102.246 16.4365 102.686 17.7946C103.291 19.6588 101.818 20.2102 101.11 20.7904C100.691 21.1855 100.452 22.811 101.979 21.918C103.501 21.025 106.629 20.6588 104.238 25.597C102.267 29.8275 99.6165 28.5394 99.6165 28.5394C99.6165 28.5394 102.32 27.2267 103.188 24.9674C103.188 24.9674 99.5218 26.4365 99.9045 22.4983C100.007 21.4612 100.081 20.7616 100.135 20.3172Z" fill="url(#paint3_linear_737_13006)"/>
<path d="M76.1227 52.9843C58.0775 78.1448 54.6454 58.223 54.6454 58.223L54.5919 57.0666L53.9087 56.9102C53.7359 56.972 53.5672 57.0378 53.4026 57.1036C49.6124 58.6304 47.1639 62.3547 47.0816 66.437L47.0281 68.9761C45.2421 93.0213 20.9705 92.2641 20.9705 92.2641C25.382 94.5234 33.3161 91.5275 33.3161 91.5275C30.4807 93.6304 26.2585 94.1036 26.2585 94.1036C50.633 96.0666 49.3408 77.5563 49.7606 71.1983C50.1803 64.8403 54.7524 63.4246 54.7524 63.4246C54.7524 63.4246 57.9046 73.8773 65.8882 69.9925C81.1762 60.2724 80.2297 52.1324 78.7606 47.6633C78.1639 45.8485 76.5754 45.1324 74.9046 44.9226C71.526 44.4987 68.2585 46.2436 66.5054 49.1654C63.5919 54.009 61.1433 62.4699 63.8429 70.6757C67.8388 82.8156 84.6865 68.4699 84.6865 68.4699L103.662 50.8979L98.6989 53.0501L103.662 49.7415V46.9678C100.02 48.5069 96.6577 46.8279 96.0981 46.688C95.5384 46.5481 89.4437 41.3629 87.061 45.0049C83.6989 49.8362 84.8882 59.153 84.8882 59.153L87.061 75.651L87.6906 74.6715L86.8511 59.0172C86.8511 59.0172 86.3079 53.0296 88.8923 50.5604C90.0816 49.2477 95.1515 52.3218 95.1515 52.3218C95.1515 52.3218 75.1515 74.6386 66.6083 70.5769C66.6083 70.5769 61.633 64.5522 67.0281 55.0954C70.1968 50.1242 74.024 50.7127 75.5589 51.2148C75.9746 51.3506 76.275 51.7168 76.3326 52.1489C76.3738 52.437 76.2956 52.7415 76.1227 52.9843Z" fill="url(#paint4_linear_737_13006)"/>
<path d="M50.6296 73.6963C50.6296 73.6963 62.6873 79.5029 66.2593 88.3794C66.2593 88.3794 60.428 80.9185 50.6296 75.507V73.6963Z" fill="url(#paint5_linear_737_13006)"/>
<path d="M56.9834 47.9014C55.2509 50.4241 53.1274 53.2306 51.5513 51.4446C49.3167 48.4734 47.6089 49.42 47.6089 49.42C48.4854 48.1031 49.543 46.8315 50.5636 46.0331C52.6542 46.6792 54.0328 48.066 54.1397 48.1771C53.0328 46.4529 51.7323 45.9179 50.9463 45.7162C52.0657 45.0331 53.2756 44.9673 53.8887 46.2677C55.1109 48.8726 56.8846 47.9508 56.9834 47.9014Z" fill="url(#paint6_linear_737_13006)"/>
<path d="M88.3628 35.959C86.6302 38.4817 84.5068 41.2883 82.9307 39.5023C80.6961 36.5311 78.9883 37.4776 78.9883 37.4776C79.8648 36.1607 80.9224 34.8891 81.943 34.0907C84.0335 34.7368 85.4121 36.1237 85.5191 36.2348C84.4121 34.5105 83.1117 33.9755 82.3257 33.7739C83.4451 33.0907 84.655 33.0249 85.2681 34.3253C86.4945 36.9302 88.2681 36.0084 88.3628 35.959Z" fill="url(#paint7_linear_737_13006)"/>
<path d="M97.8515 105.556C97.7074 105.515 94.7116 104.638 90.9708 107.712C87.1395 110.865 84.5634 110.025 82.6992 108.132C82.6869 108.12 82.6745 108.107 82.6581 108.091C87.1807 108.144 90.2918 104.404 90.2918 104.404C84.621 108.461 81.333 106.704 80.2301 105.823C80.0943 105.696 79.9544 105.564 79.8144 105.432C79.8103 105.428 79.8103 105.428 79.8103 105.428C77.6128 103.342 75.1848 100.745 75.1848 98.7823C75.1848 98.7823 77.6046 103.169 81.8597 100.173C86.1148 97.1815 90.3412 94.5518 93.6251 98.202C96.835 101.77 97.8103 105.387 97.8515 105.556Z" fill="url(#paint8_linear_737_13006)"/>
<path d="M134.606 47.8721C134.606 47.8721 126.82 59.0408 132.1 62.2301C136.626 64.9626 136.618 55.8926 136.618 55.8926C136.618 55.8926 135.445 59.3782 132.713 58.4317C129.984 57.4852 134.606 47.8721 134.606 47.8721Z" fill="url(#paint9_linear_737_13006)"/>
<path d="M21.1772 55.2591H22.7781V59.5595H24.0044V55.2591H25.6135V54.1191H21.1772V55.2591Z" fill="url(#paint10_linear_737_13006)"/>
<path d="M30.713 54.1191L29.0875 57.2879L27.4497 54.1191H26.1575V59.5595H27.318V56.3414L28.7007 59.0327H29.4702L30.8406 56.3414L30.8447 59.5595H32.0052V54.1191H30.713Z" fill="url(#paint11_linear_737_13006)"/>
<path d="M35.2874 131.534C34.7565 131.016 34.131 130.612 33.4108 130.32C32.6906 130.028 31.9746 129.88 31.2627 129.88C30.6042 129.88 29.9993 130.003 29.4396 130.246C28.88 130.489 28.3902 130.831 27.9746 131.263C27.5549 131.695 27.2297 132.201 26.9993 132.773C26.7688 133.345 26.6536 133.966 26.6536 134.637C26.6536 135.308 26.7729 135.933 27.0116 136.514C27.2503 137.094 27.5795 137.604 27.9952 138.045C28.4149 138.485 28.9046 138.826 29.4602 139.073C30.0199 139.316 30.6248 139.44 31.2832 139.44C31.8841 139.44 32.5343 139.308 33.2339 139.04C33.9335 138.777 34.5672 138.419 35.1392 137.97L37.024 140.296C36.5055 140.658 35.917 140.987 35.2544 141.279C34.5919 141.571 33.8964 141.802 33.168 141.97C32.4396 142.139 31.7442 142.221 31.0734 142.221C29.954 142.221 28.9252 142.028 27.9828 141.645C27.0404 141.263 26.2133 140.728 25.5013 140.04C24.7894 139.357 24.238 138.551 23.847 137.621C23.4561 136.691 23.2585 135.695 23.2585 134.633C23.2585 133.571 23.4602 132.584 23.8676 131.666C24.2709 130.752 24.8347 129.95 25.5548 129.267C26.275 128.584 27.1228 128.053 28.1022 127.674C29.0816 127.296 30.1351 127.11 31.2668 127.11C31.9952 127.11 32.7112 127.197 33.4273 127.374C34.1392 127.547 34.8182 127.798 35.4602 128.119C36.1022 128.44 36.6701 128.822 37.1598 129.271L35.2874 131.534ZM34.1557 134.612H37.0281V140.291H34.1557V134.612Z" fill="white"/>
<path d="M45.1594 127.32C47.073 127.32 48.5586 127.765 49.6121 128.65C50.6656 129.538 51.1923 130.785 51.1923 132.39C51.1923 134.082 50.6656 135.398 49.6121 136.341C48.5586 137.283 47.073 137.757 45.1594 137.757H42.0977V141.991H38.7849V127.32H45.1594ZM45.1594 135.073C46.0689 135.073 46.7767 134.859 47.287 134.436C47.7973 134.008 48.0524 133.361 48.0524 132.497C48.0524 131.658 47.7973 131.032 47.287 130.612C46.7767 130.193 46.0689 129.983 45.1594 129.983H42.0977V135.078H45.1594V135.073ZM44.7602 136.522H47.9866L51.5503 141.991H47.7973L44.7602 136.522Z" fill="white"/>
<path d="M52.8308 127.32H63.9995V129.983H56.1394V133.296H63.2012V135.958H56.1394V139.333H64.23V141.995H52.8308V127.32Z" fill="white"/>
<path d="M65.698 127.32H76.8667V129.983H69.0066V133.296H76.0684V135.958H69.0066V139.333H77.0972V141.995H65.698V127.32Z" fill="white"/>
<path d="M91.8305 127.32V141.991L83.8881 135.333L81.7317 133.526V141.991H78.563V127.32L86.5301 133.995L88.7112 135.822V127.32H91.8305Z" fill="white"/>
<path d="M110.887 131.534C110.357 131.016 109.731 130.612 109.011 130.32C108.291 130.028 107.575 129.88 106.863 129.88C106.204 129.88 105.599 130.003 105.04 130.246C104.48 130.489 103.99 130.831 103.575 131.263C103.155 131.695 102.83 132.201 102.599 132.773C102.369 133.345 102.254 133.966 102.254 134.637C102.254 135.308 102.373 135.933 102.612 136.514C102.85 137.094 103.18 137.604 103.595 138.045C104.015 138.485 104.505 138.826 105.064 139.073C105.624 139.316 106.229 139.44 106.887 139.44C107.488 139.44 108.139 139.308 108.838 139.04C109.538 138.777 110.171 138.419 110.743 137.97L112.628 140.296C112.11 140.658 111.521 140.987 110.859 141.279C110.196 141.571 109.501 141.802 108.772 141.97C108.044 142.139 107.348 142.221 106.678 142.221C105.558 142.221 104.529 142.028 103.587 141.645C102.645 141.263 101.818 140.728 101.106 140.04C100.394 139.357 99.8422 138.551 99.4513 137.621C99.0603 136.691 98.8628 135.695 98.8628 134.633C98.8628 133.571 99.0644 132.584 99.4718 131.666C99.8751 130.752 100.439 129.95 101.159 129.267C101.879 128.584 102.727 128.053 103.706 127.674C104.686 127.296 105.739 127.11 106.871 127.11C107.599 127.11 108.315 127.197 109.032 127.374C109.743 127.547 110.422 127.798 111.064 128.119C111.706 128.44 112.274 128.822 112.764 129.271L110.887 131.534ZM109.756 134.612H112.628V140.291H109.756V134.612Z" fill="white"/>
<path d="M121.221 127.11C122.34 127.11 123.377 127.3 124.332 127.674C125.286 128.053 126.122 128.584 126.838 129.267C127.55 129.95 128.105 130.748 128.504 131.658C128.904 132.567 129.101 133.559 129.101 134.633C129.101 135.695 128.904 136.686 128.504 137.608C128.105 138.53 127.55 139.337 126.838 140.028C126.126 140.719 125.29 141.259 124.332 141.641C123.373 142.024 122.336 142.217 121.221 142.217C120.101 142.217 119.064 142.024 118.109 141.641C117.151 141.259 116.319 140.719 115.603 140.028C114.891 139.337 114.336 138.53 113.937 137.608C113.537 136.686 113.34 135.695 113.34 134.633C113.34 133.559 113.537 132.563 113.937 131.645C114.336 130.732 114.891 129.933 115.603 129.254C116.315 128.575 117.151 128.049 118.109 127.67C119.064 127.3 120.101 127.11 121.221 127.11ZM121.262 129.896C120.648 129.896 120.064 130.016 119.513 130.254C118.961 130.493 118.48 130.826 118.068 131.259C117.657 131.691 117.332 132.197 117.093 132.769C116.854 133.341 116.735 133.962 116.735 134.633C116.735 135.304 116.854 135.929 117.093 136.51C117.332 137.09 117.661 137.6 118.076 138.04C118.496 138.481 118.978 138.822 119.521 139.069C120.064 139.316 120.644 139.435 121.262 139.435C121.875 139.435 122.451 139.312 122.99 139.069C123.529 138.826 123.998 138.481 124.406 138.04C124.809 137.6 125.13 137.09 125.36 136.51C125.591 135.929 125.706 135.304 125.706 134.633C125.706 133.962 125.591 133.341 125.36 132.769C125.13 132.197 124.813 131.695 124.406 131.259C123.998 130.826 123.529 130.489 122.99 130.254C122.451 130.016 121.875 129.896 121.262 129.896Z" fill="white"/>
<path d="M130.147 127.32H133.46V139.205H139.728V141.991H130.147V127.32Z" fill="white"/>
<path d="M146.789 127.32C147.933 127.32 148.978 127.497 149.921 127.855C150.863 128.213 151.678 128.715 152.361 129.366C153.044 130.016 153.575 130.785 153.954 131.682C154.332 132.575 154.522 133.567 154.522 134.658C154.522 135.732 154.332 136.719 153.954 137.612C153.575 138.506 153.04 139.283 152.34 139.938C151.641 140.596 150.814 141.102 149.859 141.456C148.9 141.814 147.843 141.991 146.682 141.991H140.583V127.32H146.789ZM146.871 139.287C147.501 139.287 148.073 139.176 148.591 138.954C149.11 138.732 149.559 138.415 149.945 137.999C150.328 137.588 150.624 137.102 150.834 136.543C151.044 135.983 151.147 135.361 151.147 134.678C151.147 133.995 151.036 133.37 150.814 132.802C150.591 132.238 150.283 131.74 149.892 131.312C149.501 130.884 149.036 130.563 148.497 130.337C147.958 130.115 147.369 130.003 146.727 130.003H143.9V139.287H146.871Z" fill="white"/>
<path d="M36.1682 149.958H37.1188L40.09 153.996L39.8267 154.086V149.958H40.802V155.21H39.8431L36.8884 151.181L37.1518 151.09V155.21H36.1682V149.958Z" fill="url(#paint12_linear_737_13006)"/>
<path d="M43.6333 149.958H44.6621L46.9337 155.21H45.8597L44.1107 150.971L42.3699 155.21H41.3206L43.6333 149.958ZM42.5304 153.247H45.658V154.065H42.5304V153.247Z" fill="url(#paint13_linear_737_13006)"/>
<path d="M46.3411 149.958H50.625V150.806H48.9913V155.21H47.9789V150.806H46.3452V149.958H46.3411Z" fill="url(#paint14_linear_737_13006)"/>
<path d="M52.1223 153.049C52.1223 153.481 52.2416 153.819 52.4762 154.061C52.7108 154.308 53.0277 154.428 53.4227 154.428C53.8137 154.428 54.1223 154.308 54.3528 154.065C54.5832 153.823 54.6984 153.485 54.6984 153.049V149.958H55.7026V153.049C55.7026 153.51 55.612 153.905 55.4268 154.238C55.2417 154.572 54.9824 154.827 54.6408 155.008C54.2993 155.189 53.8919 155.279 53.4227 155.279C52.9495 155.279 52.5379 155.189 52.1923 155.008C51.8466 154.827 51.5832 154.572 51.398 154.238C51.2128 153.905 51.1223 153.51 51.1223 153.049V149.958H52.1264V153.049H52.1223Z" fill="url(#paint15_linear_737_13006)"/>
<path d="M58.9588 149.958C59.6378 149.958 60.1646 150.115 60.535 150.432C60.9053 150.749 61.0905 151.189 61.0905 151.761C61.0905 152.358 60.9053 152.819 60.535 153.148C60.1646 153.477 59.6378 153.642 58.9588 153.642H57.7736V155.21H56.7695V149.958H58.9588ZM58.9588 152.81C59.3333 152.81 59.6255 152.724 59.8271 152.555C60.0329 152.386 60.1358 152.127 60.1358 151.782C60.1358 151.452 60.0329 151.205 59.8271 151.045C59.6214 150.88 59.3333 150.802 58.9588 150.802H57.7736V152.81H58.9588ZM58.9218 153.259H59.9053L61.1975 155.21H60.0576L58.9218 153.259Z" fill="url(#paint16_linear_737_13006)"/>
<path d="M63.728 149.958H64.7568L67.0285 155.21H65.9544L64.2054 150.971L62.4647 155.21H61.4153L63.728 149.958ZM62.6252 153.247H65.7527V154.065H62.6252V153.247Z" fill="url(#paint17_linear_737_13006)"/>
<path d="M67.5551 149.958H68.5593V154.354H70.8226V155.21H67.551V149.958H67.5551Z" fill="url(#paint18_linear_737_13006)"/>
<path d="M73.3992 149.958H74.4033V152.222H77.0206V149.958H78.0329V155.21H77.0206V153.057H74.4033V155.21H73.3992V149.958Z" fill="url(#paint19_linear_737_13006)"/>
<path d="M79.2009 149.958H83.0487V150.798H80.205V152.156H82.7565V152.987H80.205V154.366H83.1392V155.205H79.2009V149.958Z" fill="url(#paint20_linear_737_13006)"/>
<path d="M86.2293 149.958C86.9084 149.958 87.4351 150.115 87.8055 150.432C88.1759 150.749 88.361 151.189 88.361 151.761C88.361 152.358 88.1759 152.819 87.8055 153.148C87.4351 153.477 86.9084 153.642 86.2293 153.642H85.0442V155.21H84.04V149.958H86.2293ZM86.2293 152.81C86.6038 152.81 86.896 152.724 87.0977 152.555C87.3034 152.386 87.4063 152.127 87.4063 151.782C87.4063 151.452 87.3034 151.205 87.0977 151.045C86.8919 150.88 86.6038 150.802 86.2293 150.802H85.0442V152.81H86.2293ZM86.1923 153.259H87.1759L88.468 155.21H87.3281L86.1923 153.259Z" fill="url(#paint21_linear_737_13006)"/>
<path d="M91.6781 149.958C92.0526 149.958 92.3777 150.011 92.6452 150.114C92.9168 150.221 93.1225 150.369 93.2666 150.563C93.4106 150.756 93.4847 150.995 93.4847 151.267C93.4847 151.559 93.4024 151.806 93.2419 152.016C93.0773 152.225 92.8551 152.361 92.5711 152.427C92.9168 152.493 93.1884 152.641 93.39 152.876C93.5917 153.11 93.6904 153.402 93.6904 153.752C93.6904 154.053 93.6123 154.312 93.4518 154.53C93.2913 154.748 93.0691 154.913 92.781 155.028C92.4929 155.143 92.1514 155.201 91.7481 155.201H89.3489V149.95H91.6781V149.958ZM91.6246 152.118C91.8839 152.118 92.0896 152.057 92.2378 151.937C92.3859 151.818 92.46 151.649 92.46 151.435C92.46 151.23 92.3859 151.069 92.2378 150.954C92.0896 150.839 91.888 150.785 91.6246 150.789H90.3489V152.118H91.6246ZM91.6246 154.378C91.9456 154.382 92.1966 154.32 92.3736 154.188C92.5546 154.057 92.6452 153.876 92.6452 153.641C92.6452 153.423 92.5546 153.246 92.3736 153.118C92.1925 152.991 91.9456 152.929 91.6246 152.929H90.3489V154.378H91.6246Z" fill="url(#paint22_linear_737_13006)"/>
<path d="M97.8427 151.254C97.6575 151.139 97.4682 151.044 97.2748 150.97C97.0813 150.896 96.9003 150.843 96.7315 150.81C96.5628 150.777 96.4064 150.76 96.2665 150.76C96.0319 150.76 95.8426 150.806 95.6986 150.896C95.5546 150.987 95.4846 151.118 95.4846 151.295C95.4846 151.456 95.534 151.587 95.6369 151.686C95.7398 151.785 95.8756 151.867 96.0402 151.933C96.2089 151.999 96.39 152.061 96.5916 152.122C96.7933 152.184 96.9908 152.25 97.1924 152.32C97.3941 152.394 97.5752 152.485 97.7439 152.6C97.9126 152.715 98.0443 152.863 98.1431 153.044C98.2418 153.225 98.2912 153.448 98.2912 153.719C98.2912 154.044 98.2048 154.32 98.0278 154.55C97.8509 154.781 97.6122 154.958 97.3118 155.081C97.0072 155.205 96.6657 155.271 96.2789 155.271C95.999 155.271 95.7233 155.234 95.4558 155.164C95.1883 155.09 94.9373 154.991 94.6986 154.867C94.4599 154.744 94.2459 154.596 94.0566 154.431L94.4764 153.612C94.6575 153.777 94.8509 153.921 95.0608 154.036C95.2706 154.155 95.4805 154.242 95.6945 154.308C95.9085 154.369 96.106 154.402 96.2912 154.402C96.5752 154.402 96.7974 154.349 96.9538 154.238C97.1101 154.127 97.1883 153.974 97.1883 153.773C97.1883 153.608 97.1389 153.476 97.0361 153.373C96.9332 153.275 96.8015 153.188 96.6328 153.122C96.4641 153.057 96.283 152.995 96.0813 152.941C95.8797 152.888 95.678 152.826 95.4764 152.752C95.2748 152.678 95.0937 152.587 94.9249 152.476C94.7562 152.365 94.6204 152.221 94.5217 152.044C94.4188 151.871 94.3694 151.645 94.3694 151.378C94.3694 151.073 94.4517 150.81 94.6163 150.587C94.7809 150.365 95.0114 150.192 95.3036 150.069C95.5957 149.946 95.9414 149.884 96.3365 149.884C96.6863 149.884 97.0278 149.933 97.3612 150.032C97.6945 150.131 97.9867 150.266 98.2336 150.431L97.8427 151.254Z" fill="url(#paint23_linear_737_13006)"/>
<path d="M103.185 149.959C103.851 149.959 104.366 150.115 104.728 150.432C105.094 150.749 105.275 151.189 105.275 151.761C105.275 152.358 105.094 152.819 104.728 153.148C104.362 153.477 103.847 153.642 103.185 153.642H101.6L102.045 153.197V155.206H101.041V149.955H103.185V149.959ZM103.14 152.811C103.514 152.811 103.802 152.724 104.008 152.555C104.214 152.387 104.312 152.127 104.312 151.782C104.312 151.453 104.21 151.206 104.008 151.045C103.806 150.881 103.518 150.802 103.14 150.802H101.6L102.045 150.358V153.255L101.6 152.811H103.14Z" fill="url(#paint24_linear_737_13006)"/>
<path d="M108.172 149.958C108.851 149.958 109.377 150.115 109.748 150.432C110.118 150.749 110.303 151.189 110.303 151.761C110.303 152.358 110.118 152.819 109.748 153.148C109.377 153.477 108.855 153.642 108.172 153.642H106.987V155.21H105.982V149.958H108.172ZM108.172 152.81C108.546 152.81 108.838 152.724 109.044 152.555C109.25 152.386 109.353 152.127 109.353 151.782C109.353 151.452 109.25 151.205 109.044 151.045C108.838 150.88 108.55 150.802 108.172 150.802H106.987V152.81H108.172ZM108.135 153.259H109.118L110.41 155.21H109.27L108.135 153.259Z" fill="url(#paint25_linear_737_13006)"/>
<path d="M113.67 149.9C114.065 149.9 114.432 149.966 114.773 150.102C115.115 150.238 115.411 150.427 115.662 150.674C115.913 150.917 116.111 151.205 116.255 151.526C116.399 151.847 116.469 152.201 116.469 152.579C116.469 152.954 116.399 153.308 116.255 153.637C116.111 153.966 115.913 154.254 115.662 154.501C115.411 154.748 115.115 154.937 114.773 155.073C114.432 155.209 114.065 155.279 113.67 155.279C113.275 155.279 112.909 155.209 112.572 155.073C112.234 154.937 111.938 154.744 111.683 154.501C111.428 154.254 111.23 153.97 111.086 153.641C110.942 153.312 110.872 152.958 110.872 152.579C110.872 152.201 110.942 151.847 111.086 151.522C111.23 151.197 111.428 150.913 111.683 150.67C111.938 150.427 112.234 150.238 112.572 150.102C112.909 149.966 113.275 149.9 113.67 149.9ZM113.687 150.748C113.44 150.748 113.214 150.793 112.996 150.888C112.782 150.979 112.592 151.11 112.424 151.279C112.259 151.448 112.131 151.641 112.037 151.859C111.946 152.077 111.897 152.32 111.897 152.579C111.897 152.839 111.946 153.081 112.041 153.304C112.135 153.526 112.267 153.723 112.432 153.892C112.596 154.061 112.786 154.197 113.004 154.291C113.218 154.386 113.448 154.435 113.687 154.435C113.926 154.435 114.152 154.386 114.366 154.291C114.58 154.197 114.765 154.065 114.926 153.892C115.086 153.723 115.214 153.526 115.304 153.304C115.395 153.081 115.444 152.839 115.444 152.579C115.444 152.32 115.399 152.077 115.304 151.859C115.214 151.637 115.086 151.444 114.926 151.279C114.765 151.11 114.58 150.983 114.366 150.888C114.152 150.793 113.926 150.748 113.687 150.748Z" fill="url(#paint26_linear_737_13006)"/>
<path d="M119.415 149.958C119.814 149.958 120.18 150.024 120.514 150.147C120.847 150.275 121.135 150.456 121.378 150.69C121.621 150.925 121.81 151.205 121.946 151.522C122.082 151.843 122.147 152.193 122.147 152.579C122.147 152.958 122.082 153.308 121.946 153.629C121.81 153.95 121.621 154.225 121.374 154.46C121.131 154.695 120.835 154.876 120.497 155.007C120.156 155.139 119.785 155.201 119.386 155.201H117.234V149.95H119.415V149.958ZM119.44 154.369C119.678 154.369 119.901 154.324 120.106 154.238C120.312 154.151 120.489 154.028 120.641 153.872C120.794 153.715 120.913 153.526 121.003 153.308C121.09 153.09 121.135 152.851 121.135 152.592C121.135 152.328 121.09 152.086 120.999 151.867C120.909 151.649 120.785 151.46 120.633 151.295C120.477 151.135 120.296 151.007 120.086 150.925C119.876 150.839 119.645 150.797 119.394 150.797H118.238V154.369H119.44Z" fill="url(#paint27_linear_737_13006)"/>
<path d="M123.819 153.049C123.819 153.481 123.938 153.819 124.173 154.061C124.408 154.308 124.724 154.428 125.119 154.428C125.51 154.428 125.819 154.308 126.05 154.065C126.28 153.823 126.395 153.485 126.395 153.049V149.958H127.399V153.049C127.399 153.51 127.309 153.905 127.124 154.238C126.943 154.572 126.679 154.827 126.338 155.008C125.996 155.189 125.589 155.279 125.119 155.279C124.642 155.279 124.235 155.189 123.889 155.008C123.543 154.827 123.28 154.572 123.095 154.238C122.91 153.905 122.819 153.51 122.819 153.049V149.958H123.823V153.049H123.819Z" fill="url(#paint28_linear_737_13006)"/>
<path d="M132.263 151.423C132.078 151.213 131.86 151.049 131.604 150.925C131.349 150.802 131.094 150.74 130.839 150.74C130.592 150.74 130.366 150.785 130.152 150.88C129.938 150.974 129.753 151.102 129.588 151.271C129.427 151.439 129.3 151.633 129.209 151.851C129.119 152.073 129.074 152.308 129.074 152.563C129.074 152.818 129.119 153.057 129.209 153.279C129.3 153.501 129.427 153.695 129.588 153.859C129.753 154.024 129.938 154.156 130.152 154.25C130.366 154.345 130.592 154.394 130.839 154.394C131.094 154.394 131.345 154.337 131.596 154.225C131.847 154.114 132.069 153.958 132.263 153.765L132.855 154.386C132.678 154.567 132.477 154.723 132.25 154.859C132.024 154.995 131.785 155.098 131.539 155.172C131.292 155.246 131.041 155.279 130.785 155.279C130.399 155.279 130.041 155.209 129.707 155.073C129.374 154.937 129.086 154.744 128.839 154.501C128.592 154.258 128.399 153.97 128.259 153.637C128.119 153.308 128.049 152.954 128.049 152.579C128.049 152.201 128.119 151.847 128.259 151.526C128.399 151.205 128.596 150.921 128.851 150.674C129.106 150.427 129.399 150.238 129.732 150.102C130.065 149.966 130.427 149.9 130.823 149.9C131.078 149.9 131.325 149.933 131.567 150.003C131.81 150.069 132.041 150.168 132.263 150.287C132.485 150.411 132.678 150.559 132.847 150.732L132.263 151.423Z" fill="url(#paint29_linear_737_13006)"/>
<path d="M132.979 149.958H137.263V150.806H135.629V155.21H134.617V150.806H132.983V149.958H132.979Z" fill="url(#paint30_linear_737_13006)"/>
<path d="M141.155 151.254C140.97 151.139 140.781 151.044 140.587 150.97C140.394 150.896 140.213 150.843 140.044 150.81C139.876 150.777 139.719 150.76 139.579 150.76C139.345 150.76 139.155 150.806 139.011 150.896C138.867 150.987 138.797 151.118 138.797 151.295C138.797 151.456 138.847 151.587 138.95 151.686C139.053 151.785 139.188 151.867 139.353 151.933C139.522 151.999 139.703 152.061 139.904 152.122C140.106 152.184 140.304 152.25 140.505 152.32C140.707 152.394 140.888 152.485 141.057 152.6C141.225 152.715 141.357 152.863 141.456 153.044C141.555 153.225 141.604 153.448 141.604 153.719C141.604 154.044 141.518 154.32 141.341 154.55C141.164 154.781 140.925 154.958 140.625 155.081C140.32 155.205 139.978 155.271 139.592 155.271C139.312 155.271 139.036 155.234 138.769 155.164C138.501 155.09 138.25 154.991 138.011 154.867C137.773 154.744 137.559 154.596 137.369 154.431L137.789 153.612C137.97 153.777 138.164 153.921 138.374 154.036C138.583 154.155 138.793 154.242 139.007 154.308C139.221 154.369 139.419 154.402 139.604 154.402C139.888 154.402 140.11 154.349 140.266 154.238C140.423 154.127 140.501 153.974 140.501 153.773C140.501 153.608 140.452 153.476 140.349 153.373C140.246 153.275 140.114 153.188 139.946 153.122C139.777 153.057 139.596 152.995 139.394 152.941C139.192 152.888 138.991 152.826 138.789 152.752C138.587 152.678 138.406 152.587 138.238 152.476C138.069 152.365 137.933 152.221 137.834 152.044C137.732 151.871 137.682 151.645 137.682 151.378C137.682 151.073 137.764 150.81 137.929 150.587C138.094 150.365 138.324 150.192 138.616 150.069C138.908 149.946 139.254 149.884 139.649 149.884C139.999 149.884 140.341 149.933 140.674 150.032C141.007 150.131 141.299 150.266 141.546 150.431L141.155 151.254Z" fill="url(#paint31_linear_737_13006)"/>
<path d="M146.543 154.044C147.352 154.044 148.008 153.388 148.008 152.579C148.008 151.77 147.352 151.114 146.543 151.114C145.734 151.114 145.078 151.77 145.078 152.579C145.078 153.388 145.734 154.044 146.543 154.044Z" fill="url(#paint32_linear_737_13006)"/>
<path d="M31.2382 154.044C32.0473 154.044 32.7032 153.388 32.7032 152.579C32.7032 151.77 32.0473 151.114 31.2382 151.114C30.4291 151.114 29.7732 151.77 29.7732 152.579C29.7732 153.388 30.4291 154.044 31.2382 154.044Z" fill="url(#paint33_linear_737_13006)"/>
<path d="M177 180.231V187.44C177 196.28 169.835 203.444 160.996 203.444H144.469C133.012 212.259 112.23 218.152 88.4979 218.152C64.7654 218.152 43.9877 212.259 32.5309 203.444H16C7.16461 203.444 0 196.28 0 187.44V180.231C0 189.07 7.16461 196.235 16 196.235H32.5309C43.9877 205.049 64.7654 210.942 88.4979 210.942C110.951 210.942 130.761 205.667 142.535 197.634H142.395C99.8107 162.675 49.4815 191.663 48.4979 192.235C108.177 152.819 149.889 196.025 149.889 196.025V196.235H160.996C169.84 196.235 177 189.066 177 180.231Z" fill="url(#paint34_linear_737_13006)"/>
<defs>
<linearGradient id="paint0_linear_737_13006" x1="56.3469" y1="0.362173" x2="165.094" y2="105.327" gradientUnits="userSpaceOnUse">
<stop stop-color="#CE9F41"/>
<stop offset="0.1229" stop-color="#D3AB43"/>
<stop offset="0.2514" stop-color="#F6ECDF"/>
<stop offset="0.3547" stop-color="#D3AB43"/>
<stop offset="0.5168" stop-color="#CE9F41"/>
<stop offset="0.6844" stop-color="#F6ECDF"/>
<stop offset="0.8464" stop-color="#CE9F41"/>
<stop offset="0.9888" stop-color="#CE9F41"/>
</linearGradient>
<linearGradient id="paint1_linear_737_13006" x1="22.5674" y1="35.358" x2="131.314" y2="140.323" gradientUnits="userSpaceOnUse">
<stop stop-color="#CE9F41"/>
<stop offset="0.1229" stop-color="#D3AB43"/>
<stop offset="0.2514" stop-color="#F6ECDF"/>
<stop offset="0.3547" stop-color="#D3AB43"/>
<stop offset="0.5168" stop-color="#CE9F41"/>
<stop offset="0.6844" stop-color="#F6ECDF"/>
<stop offset="0.8464" stop-color="#CE9F41"/>
<stop offset="0.9888" stop-color="#CE9F41"/>
</linearGradient>
<linearGradient id="paint2_linear_737_13006" x1="54.3731" y1="2.40607" x2="163.12" y2="107.371" gradientUnits="userSpaceOnUse">
<stop stop-color="#CE9F41"/>
<stop offset="0.1229" stop-color="#D3AB43"/>
<stop offset="0.2514" stop-color="#F6ECDF"/>
<stop offset="0.3547" stop-color="#D3AB43"/>
<stop offset="0.5168" stop-color="#CE9F41"/>
<stop offset="0.6844" stop-color="#F6ECDF"/>
<stop offset="0.8464" stop-color="#CE9F41"/>
<stop offset="0.9888" stop-color="#CE9F41"/>
</linearGradient>
<linearGradient id="paint3_linear_737_13006" x1="66.608" y1="-10.2706" x2="175.355" y2="94.6938" gradientUnits="userSpaceOnUse">
<stop stop-color="#CE9F41"/>
<stop offset="0.1229" stop-color="#D3AB43"/>
<stop offset="0.2514" stop-color="#F6ECDF"/>
<stop offset="0.3547" stop-color="#D3AB43"/>
<stop offset="0.5168" stop-color="#CE9F41"/>
<stop offset="0.6844" stop-color="#F6ECDF"/>
<stop offset="0.8464" stop-color="#CE9F41"/>
<stop offset="0.9888" stop-color="#CE9F41"/>
</linearGradient>
<linearGradient id="paint4_linear_737_13006" x1="24.6208" y1="33.2301" x2="133.368" y2="138.195" gradientUnits="userSpaceOnUse">
<stop stop-color="#CE9F41"/>
<stop offset="0.1229" stop-color="#D3AB43"/>
<stop offset="0.2514" stop-color="#F6ECDF"/>
<stop offset="0.3547" stop-color="#D3AB43"/>
<stop offset="0.5168" stop-color="#CE9F41"/>
<stop offset="0.6844" stop-color="#F6ECDF"/>
<stop offset="0.8464" stop-color="#CE9F41"/>
<stop offset="0.9888" stop-color="#CE9F41"/>
</linearGradient>
<linearGradient id="paint5_linear_737_13006" x1="17.1707" y1="40.9495" x2="125.918" y2="145.914" gradientUnits="userSpaceOnUse">
<stop stop-color="#CE9F41"/>
<stop offset="0.1229" stop-color="#D3AB43"/>
<stop offset="0.2514" stop-color="#F6ECDF"/>
<stop offset="0.3547" stop-color="#D3AB43"/>
<stop offset="0.5168" stop-color="#CE9F41"/>
<stop offset="0.6844" stop-color="#F6ECDF"/>
<stop offset="0.8464" stop-color="#CE9F41"/>
<stop offset="0.9888" stop-color="#CE9F41"/>
</linearGradient>
<linearGradient id="paint6_linear_737_13006" x1="30.2563" y1="27.3916" x2="139.003" y2="132.356" gradientUnits="userSpaceOnUse">
<stop stop-color="#CE9F41"/>
<stop offset="0.1229" stop-color="#D3AB43"/>
<stop offset="0.2514" stop-color="#F6ECDF"/>
<stop offset="0.3547" stop-color="#D3AB43"/>
<stop offset="0.5168" stop-color="#CE9F41"/>
<stop offset="0.6844" stop-color="#F6ECDF"/>
<stop offset="0.8464" stop-color="#CE9F41"/>
<stop offset="0.9888" stop-color="#CE9F41"/>
</linearGradient>
<linearGradient id="paint7_linear_737_13006" x1="51.3607" y1="5.5275" x2="160.108" y2="110.492" gradientUnits="userSpaceOnUse">
<stop stop-color="#CE9F41"/>
<stop offset="0.1229" stop-color="#D3AB43"/>
<stop offset="0.2514" stop-color="#F6ECDF"/>
<stop offset="0.3547" stop-color="#D3AB43"/>
<stop offset="0.5168" stop-color="#CE9F41"/>
<stop offset="0.6844" stop-color="#F6ECDF"/>
<stop offset="0.8464" stop-color="#CE9F41"/>
<stop offset="0.9888" stop-color="#CE9F41"/>
</linearGradient>
<linearGradient id="paint8_linear_737_13006" x1="20.3067" y1="37.6997" x2="129.054" y2="142.664" gradientUnits="userSpaceOnUse">
<stop stop-color="#CE9F41"/>
<stop offset="0.1229" stop-color="#D3AB43"/>
<stop offset="0.2514" stop-color="#F6ECDF"/>
<stop offset="0.3547" stop-color="#D3AB43"/>
<stop offset="0.5168" stop-color="#CE9F41"/>
<stop offset="0.6844" stop-color="#F6ECDF"/>
<stop offset="0.8464" stop-color="#CE9F41"/>
<stop offset="0.9888" stop-color="#CE9F41"/>
</linearGradient>
<linearGradient id="paint9_linear_737_13006" x1="66.1251" y1="-9.76931" x2="174.872" y2="95.1951" gradientUnits="userSpaceOnUse">
<stop stop-color="#CE9F41"/>
<stop offset="0.1229" stop-color="#D3AB43"/>
<stop offset="0.2514" stop-color="#F6ECDF"/>
<stop offset="0.3547" stop-color="#D3AB43"/>
<stop offset="0.5168" stop-color="#CE9F41"/>
<stop offset="0.6844" stop-color="#F6ECDF"/>
<stop offset="0.8464" stop-color="#CE9F41"/>
<stop offset="0.9888" stop-color="#CE9F41"/>
</linearGradient>
<linearGradient id="paint10_linear_737_13006" x1="12.6189" y1="45.6647" x2="121.366" y2="150.629" gradientUnits="userSpaceOnUse">
<stop stop-color="#CE9F41"/>
<stop offset="0.1229" stop-color="#D3AB43"/>
<stop offset="0.2514" stop-color="#F6ECDF"/>
<stop offset="0.3547" stop-color="#D3AB43"/>
<stop offset="0.5168" stop-color="#CE9F41"/>
<stop offset="0.6844" stop-color="#F6ECDF"/>
<stop offset="0.8464" stop-color="#CE9F41"/>
<stop offset="0.9888" stop-color="#CE9F41"/>
</linearGradient>
<linearGradient id="paint11_linear_737_13006" x1="14.9752" y1="43.2242" x2="123.722" y2="148.189" gradientUnits="userSpaceOnUse">
<stop stop-color="#CE9F41"/>
<stop offset="0.1229" stop-color="#D3AB43"/>
<stop offset="0.2514" stop-color="#F6ECDF"/>
<stop offset="0.3547" stop-color="#D3AB43"/>
<stop offset="0.5168" stop-color="#CE9F41"/>
<stop offset="0.6844" stop-color="#F6ECDF"/>
<stop offset="0.8464" stop-color="#CE9F41"/>
<stop offset="0.9888" stop-color="#CE9F41"/>
</linearGradient>
<linearGradient id="paint12_linear_737_13006" x1="29.6641" y1="152.631" x2="148.813" y2="152.001" gradientUnits="userSpaceOnUse">
<stop stop-color="#CE9F41"/>
<stop offset="0.1229" stop-color="#D3AB43"/>
<stop offset="0.2514" stop-color="#F6ECDF"/>
<stop offset="0.3547" stop-color="#D3AB43"/>
<stop offset="0.5168" stop-color="#CE9F41"/>
<stop offset="0.6844" stop-color="#F6ECDF"/>
<stop offset="0.8464" stop-color="#CE9F41"/>
<stop offset="0.9888" stop-color="#CE9F41"/>
</linearGradient>
<linearGradient id="paint13_linear_737_13006" x1="29.6644" y1="152.667" x2="148.813" y2="152.037" gradientUnits="userSpaceOnUse">
<stop stop-color="#CE9F41"/>
<stop offset="0.1229" stop-color="#D3AB43"/>
<stop offset="0.2514" stop-color="#F6ECDF"/>
<stop offset="0.3547" stop-color="#D3AB43"/>
<stop offset="0.5168" stop-color="#CE9F41"/>
<stop offset="0.6844" stop-color="#F6ECDF"/>
<stop offset="0.8464" stop-color="#CE9F41"/>
<stop offset="0.9888" stop-color="#CE9F41"/>
</linearGradient>
<linearGradient id="paint14_linear_737_13006" x1="29.6644" y1="152.68" x2="148.813" y2="152.049" gradientUnits="userSpaceOnUse">
<stop stop-color="#CE9F41"/>
<stop offset="0.1229" stop-color="#D3AB43"/>
<stop offset="0.2514" stop-color="#F6ECDF"/>
<stop offset="0.3547" stop-color="#D3AB43"/>
<stop offset="0.5168" stop-color="#CE9F41"/>
<stop offset="0.6844" stop-color="#F6ECDF"/>
<stop offset="0.8464" stop-color="#CE9F41"/>
<stop offset="0.9888" stop-color="#CE9F41"/>
</linearGradient>
<linearGradient id="paint15_linear_737_13006" x1="29.6641" y1="152.738" x2="148.813" y2="152.107" gradientUnits="userSpaceOnUse">
<stop stop-color="#CE9F41"/>
<stop offset="0.1229" stop-color="#D3AB43"/>
<stop offset="0.2514" stop-color="#F6ECDF"/>
<stop offset="0.3547" stop-color="#D3AB43"/>
<stop offset="0.5168" stop-color="#CE9F41"/>
<stop offset="0.6844" stop-color="#F6ECDF"/>
<stop offset="0.8464" stop-color="#CE9F41"/>
<stop offset="0.9888" stop-color="#CE9F41"/>
</linearGradient>
<linearGradient id="paint16_linear_737_13006" x1="29.6653" y1="152.739" x2="148.814" y2="152.109" gradientUnits="userSpaceOnUse">
<stop stop-color="#CE9F41"/>
<stop offset="0.1229" stop-color="#D3AB43"/>
<stop offset="0.2514" stop-color="#F6ECDF"/>
<stop offset="0.3547" stop-color="#D3AB43"/>
<stop offset="0.5168" stop-color="#CE9F41"/>
<stop offset="0.6844" stop-color="#F6ECDF"/>
<stop offset="0.8464" stop-color="#CE9F41"/>
<stop offset="0.9888" stop-color="#CE9F41"/>
</linearGradient>
<linearGradient id="paint17_linear_737_13006" x1="29.665" y1="152.773" x2="148.814" y2="152.143" gradientUnits="userSpaceOnUse">
<stop stop-color="#CE9F41"/>
<stop offset="0.1229" stop-color="#D3AB43"/>
<stop offset="0.2514" stop-color="#F6ECDF"/>
<stop offset="0.3547" stop-color="#D3AB43"/>
<stop offset="0.5168" stop-color="#CE9F41"/>
<stop offset="0.6844" stop-color="#F6ECDF"/>
<stop offset="0.8464" stop-color="#CE9F41"/>
<stop offset="0.9888" stop-color="#CE9F41"/>
</linearGradient>
<linearGradient id="paint18_linear_737_13006" x1="29.665" y1="152.794" x2="148.814" y2="152.163" gradientUnits="userSpaceOnUse">
<stop stop-color="#CE9F41"/>
<stop offset="0.1229" stop-color="#D3AB43"/>
<stop offset="0.2514" stop-color="#F6ECDF"/>
<stop offset="0.3547" stop-color="#D3AB43"/>
<stop offset="0.5168" stop-color="#CE9F41"/>
<stop offset="0.6844" stop-color="#F6ECDF"/>
<stop offset="0.8464" stop-color="#CE9F41"/>
<stop offset="0.9888" stop-color="#CE9F41"/>
</linearGradient>
<linearGradient id="paint19_linear_737_13006" x1="29.6656" y1="152.828" x2="148.815" y2="152.198" gradientUnits="userSpaceOnUse">
<stop stop-color="#CE9F41"/>
<stop offset="0.1229" stop-color="#D3AB43"/>
<stop offset="0.2514" stop-color="#F6ECDF"/>
<stop offset="0.3547" stop-color="#D3AB43"/>
<stop offset="0.5168" stop-color="#CE9F41"/>
<stop offset="0.6844" stop-color="#F6ECDF"/>
<stop offset="0.8464" stop-color="#CE9F41"/>
<stop offset="0.9888" stop-color="#CE9F41"/>
</linearGradient>
<linearGradient id="paint20_linear_737_13006" x1="29.6654" y1="152.857" x2="148.814" y2="152.226" gradientUnits="userSpaceOnUse">
<stop stop-color="#CE9F41"/>
<stop offset="0.1229" stop-color="#D3AB43"/>
<stop offset="0.2514" stop-color="#F6ECDF"/>
<stop offset="0.3547" stop-color="#D3AB43"/>
<stop offset="0.5168" stop-color="#CE9F41"/>
<stop offset="0.6844" stop-color="#F6ECDF"/>
<stop offset="0.8464" stop-color="#CE9F41"/>
<stop offset="0.9888" stop-color="#CE9F41"/>
</linearGradient>
<linearGradient id="paint21_linear_737_13006" x1="29.6648" y1="152.884" x2="148.814" y2="152.253" gradientUnits="userSpaceOnUse">
<stop stop-color="#CE9F41"/>
<stop offset="0.1229" stop-color="#D3AB43"/>
<stop offset="0.2514" stop-color="#F6ECDF"/>
<stop offset="0.3547" stop-color="#D3AB43"/>
<stop offset="0.5168" stop-color="#CE9F41"/>
<stop offset="0.6844" stop-color="#F6ECDF"/>
<stop offset="0.8464" stop-color="#CE9F41"/>
<stop offset="0.9888" stop-color="#CE9F41"/>
</linearGradient>
<linearGradient id="paint22_linear_737_13006" x1="29.6652" y1="152.906" x2="148.814" y2="152.276" gradientUnits="userSpaceOnUse">
<stop stop-color="#CE9F41"/>
<stop offset="0.1229" stop-color="#D3AB43"/>
<stop offset="0.2514" stop-color="#F6ECDF"/>
<stop offset="0.3547" stop-color="#D3AB43"/>
<stop offset="0.5168" stop-color="#CE9F41"/>
<stop offset="0.6844" stop-color="#F6ECDF"/>
<stop offset="0.8464" stop-color="#CE9F41"/>
<stop offset="0.9888" stop-color="#CE9F41"/>
</linearGradient>
<linearGradient id="paint23_linear_737_13006" x1="29.6654" y1="152.929" x2="148.814" y2="152.299" gradientUnits="userSpaceOnUse">
<stop stop-color="#CE9F41"/>
<stop offset="0.1229" stop-color="#D3AB43"/>
<stop offset="0.2514" stop-color="#F6ECDF"/>
<stop offset="0.3547" stop-color="#D3AB43"/>
<stop offset="0.5168" stop-color="#CE9F41"/>
<stop offset="0.6844" stop-color="#F6ECDF"/>
<stop offset="0.8464" stop-color="#CE9F41"/>
<stop offset="0.9888" stop-color="#CE9F41"/>
</linearGradient>
<linearGradient id="paint24_linear_737_13006" x1="29.6658" y1="152.965" x2="148.815" y2="152.334" gradientUnits="userSpaceOnUse">
<stop stop-color="#CE9F41"/>
<stop offset="0.1229" stop-color="#D3AB43"/>
<stop offset="0.2514" stop-color="#F6ECDF"/>
<stop offset="0.3547" stop-color="#D3AB43"/>
<stop offset="0.5168" stop-color="#CE9F41"/>
<stop offset="0.6844" stop-color="#F6ECDF"/>
<stop offset="0.8464" stop-color="#CE9F41"/>
<stop offset="0.9888" stop-color="#CE9F41"/>
</linearGradient>
<linearGradient id="paint25_linear_737_13006" x1="29.6654" y1="153" x2="148.814" y2="152.369" gradientUnits="userSpaceOnUse">
<stop stop-color="#CE9F41"/>
<stop offset="0.1229" stop-color="#D3AB43"/>
<stop offset="0.2514" stop-color="#F6ECDF"/>
<stop offset="0.3547" stop-color="#D3AB43"/>
<stop offset="0.5168" stop-color="#CE9F41"/>
<stop offset="0.6844" stop-color="#F6ECDF"/>
<stop offset="0.8464" stop-color="#CE9F41"/>
<stop offset="0.9888" stop-color="#CE9F41"/>
</linearGradient>
<linearGradient id="paint26_linear_737_13006" x1="29.6662" y1="153.032" x2="148.815" y2="152.402" gradientUnits="userSpaceOnUse">
<stop stop-color="#CE9F41"/>
<stop offset="0.1229" stop-color="#D3AB43"/>
<stop offset="0.2514" stop-color="#F6ECDF"/>
<stop offset="0.3547" stop-color="#D3AB43"/>
<stop offset="0.5168" stop-color="#CE9F41"/>
<stop offset="0.6844" stop-color="#F6ECDF"/>
<stop offset="0.8464" stop-color="#CE9F41"/>
<stop offset="0.9888" stop-color="#CE9F41"/>
</linearGradient>
<linearGradient id="paint27_linear_737_13006" x1="29.6662" y1="153.053" x2="148.815" y2="152.422" gradientUnits="userSpaceOnUse">
<stop stop-color="#CE9F41"/>
<stop offset="0.1229" stop-color="#D3AB43"/>
<stop offset="0.2514" stop-color="#F6ECDF"/>
<stop offset="0.3547" stop-color="#D3AB43"/>
<stop offset="0.5168" stop-color="#CE9F41"/>
<stop offset="0.6844" stop-color="#F6ECDF"/>
<stop offset="0.8464" stop-color="#CE9F41"/>
<stop offset="0.9888" stop-color="#CE9F41"/>
</linearGradient>
<linearGradient id="paint28_linear_737_13006" x1="29.6673" y1="153.117" x2="148.816" y2="152.487" gradientUnits="userSpaceOnUse">
<stop stop-color="#CE9F41"/>
<stop offset="0.1229" stop-color="#D3AB43"/>
<stop offset="0.2514" stop-color="#F6ECDF"/>
<stop offset="0.3547" stop-color="#D3AB43"/>
<stop offset="0.5168" stop-color="#CE9F41"/>
<stop offset="0.6844" stop-color="#F6ECDF"/>
<stop offset="0.8464" stop-color="#CE9F41"/>
<stop offset="0.9888" stop-color="#CE9F41"/>
</linearGradient>
<linearGradient id="paint29_linear_737_13006" x1="29.6662" y1="153.123" x2="148.816" y2="152.492" gradientUnits="userSpaceOnUse">
<stop stop-color="#CE9F41"/>
<stop offset="0.1229" stop-color="#D3AB43"/>
<stop offset="0.2514" stop-color="#F6ECDF"/>
<stop offset="0.3547" stop-color="#D3AB43"/>
<stop offset="0.5168" stop-color="#CE9F41"/>
<stop offset="0.6844" stop-color="#F6ECDF"/>
<stop offset="0.8464" stop-color="#CE9F41"/>
<stop offset="0.9888" stop-color="#CE9F41"/>
</linearGradient>
<linearGradient id="paint30_linear_737_13006" x1="29.6669" y1="153.138" x2="148.816" y2="152.508" gradientUnits="userSpaceOnUse">
<stop stop-color="#CE9F41"/>
<stop offset="0.1229" stop-color="#D3AB43"/>
<stop offset="0.2514" stop-color="#F6ECDF"/>
<stop offset="0.3547" stop-color="#D3AB43"/>
<stop offset="0.5168" stop-color="#CE9F41"/>
<stop offset="0.6844" stop-color="#F6ECDF"/>
<stop offset="0.8464" stop-color="#CE9F41"/>
<stop offset="0.9888" stop-color="#CE9F41"/>
</linearGradient>
<linearGradient id="paint31_linear_737_13006" x1="29.6667" y1="153.158" x2="148.815" y2="152.528" gradientUnits="userSpaceOnUse">
<stop stop-color="#CE9F41"/>
<stop offset="0.1229" stop-color="#D3AB43"/>
<stop offset="0.2514" stop-color="#F6ECDF"/>
<stop offset="0.3547" stop-color="#D3AB43"/>
<stop offset="0.5168" stop-color="#CE9F41"/>
<stop offset="0.6844" stop-color="#F6ECDF"/>
<stop offset="0.8464" stop-color="#CE9F41"/>
<stop offset="0.9888" stop-color="#CE9F41"/>
</linearGradient>
<linearGradient id="paint32_linear_737_13006" x1="31.3109" y1="153.19" x2="150.46" y2="152.559" gradientUnits="userSpaceOnUse">
<stop stop-color="#CE9F41"/>
<stop offset="0.1229" stop-color="#D3AB43"/>
<stop offset="0.2514" stop-color="#F6ECDF"/>
<stop offset="0.3547" stop-color="#D3AB43"/>
<stop offset="0.5168" stop-color="#CE9F41"/>
<stop offset="0.6844" stop-color="#F6ECDF"/>
<stop offset="0.8464" stop-color="#CE9F41"/>
<stop offset="0.9888" stop-color="#CE9F41"/>
</linearGradient>
<linearGradient id="paint33_linear_737_13006" x1="28.021" y1="152.597" x2="147.17" y2="151.967" gradientUnits="userSpaceOnUse">
<stop stop-color="#CE9F41"/>
<stop offset="0.1229" stop-color="#D3AB43"/>
<stop offset="0.2514" stop-color="#F6ECDF"/>
<stop offset="0.3547" stop-color="#D3AB43"/>
<stop offset="0.5168" stop-color="#CE9F41"/>
<stop offset="0.6844" stop-color="#F6ECDF"/>
<stop offset="0.8464" stop-color="#CE9F41"/>
<stop offset="0.9888" stop-color="#CE9F41"/>
</linearGradient>
<linearGradient id="paint34_linear_737_13006" x1="5.94724" y1="196.898" x2="218.188" y2="196.898" gradientUnits="userSpaceOnUse">
<stop stop-color="#CE9F41"/>
<stop offset="0.1229" stop-color="#D3AB43"/>
<stop offset="0.2407" stop-color="#F6ECDF"/>
<stop offset="0.3209" stop-color="#D3AB43"/>
<stop offset="0.3863" stop-color="#AE782B"/>
<stop offset="0.5168" stop-color="#CE9F41"/>
<stop offset="0.6844" stop-color="#F6ECDF"/>
<stop offset="0.8464" stop-color="#CE9F41"/>
<stop offset="0.9888" stop-color="#CE9F41"/>
</linearGradient>
</defs>
</svg>
