<svg width="18" height="19" viewBox="0 0 18 19" fill="none" xmlns="http://www.w3.org/2000/svg">
<path d="M9 0.202148L0 5.26465C0 6.54771 0 15.9521 0 15.9521C0 17.1947 1.00744 18.2021 2.25 18.2021H15.75C16.9926 18.2021 18 17.1947 18 15.9521C18 15.9521 18 6.49541 18 5.26465L9 0.202148ZM1.125 15.9521V7.16309L6.22462 11.2316L1.17844 16.2778C1.14694 16.1738 1.125 16.0664 1.125 15.9521ZM1.99968 17.0468L7.16738 11.8796L9 13.1396L10.8326 11.8796L16.0003 17.0468C15.9193 17.0654 2.08068 17.0654 1.99968 17.0468ZM16.875 15.9521C16.875 16.0664 16.8531 16.1738 16.8216 16.2778L11.7754 11.2316L16.875 7.16309V15.9521ZM9 11.8211L1.125 5.82715L8.98876 1.51335L16.875 5.82715L9 11.8211Z" fill="#212121"/>
</svg>
