<svg width="80" height="27" viewBox="0 0 80 27" fill="none" xmlns="http://www.w3.org/2000/svg">
<g filter="url(#filter0_d_4029_8799)">
<path d="M9.12659 0.225204V1.15579C8.95412 1.13644 8.78067 1.12715 8.60712 1.12798C6.77058 1.12798 5.80036 2.3595 5.80036 4.68923V7.05494H7.50192V7.92746H5.79709V18.1385H4.87268V4.58374C4.87268 3.08564 5.26126 1.90483 5.99588 1.16969C6.63724 0.530219 7.51419 0.203125 8.60385 0.203125C8.79364 0.203125 8.96298 0.210485 9.12659 0.225204Z" fill="white"/>
<path d="M53.6241 0.261719H52.6996V18.18H53.6241V0.261719Z" fill="white"/>
<path d="M60.7951 2.6117C60.6753 2.46265 60.5863 2.29126 60.5334 2.10752C60.4804 1.92378 60.4645 1.73135 60.4866 1.54141C60.5087 1.35148 60.5684 1.16783 60.6621 1.00115C60.7559 0.834472 60.8818 0.68809 61.0327 0.570517C61.1836 0.452945 61.3563 0.366528 61.5409 0.316293C61.7255 0.266058 61.9182 0.253007 62.1078 0.2779C62.2975 0.302792 62.4803 0.365131 62.6457 0.461291C62.811 0.557451 62.9556 0.685513 63.071 0.838029L67.1613 6.07154C67.1924 6.11161 67.2275 6.15331 67.2619 6.19011C66.761 6.27184 66.2887 6.47816 65.8884 6.7901C65.4881 7.10204 65.1728 7.50958 64.9713 7.97523C64.9454 7.93008 64.9161 7.88689 64.8838 7.84603L60.7951 2.6117Z" fill="white"/>
<path d="M74.8063 15.8525C74.9267 16.0013 75.0163 16.1726 75.0698 16.3563C75.1233 16.5401 75.1398 16.7326 75.1181 16.9228C75.0965 17.113 75.0372 17.2969 74.9437 17.4639C74.8502 17.631 74.7244 17.7777 74.5737 17.8957C74.4229 18.0136 74.2501 18.1004 74.0655 18.1509C73.8808 18.2015 73.6879 18.2148 73.4981 18.1901C73.3082 18.1654 73.1252 18.1032 72.9596 18.0071C72.794 17.911 72.6493 17.7829 72.5337 17.6303L68.4434 12.3968C68.3763 12.3092 68.2979 12.2308 68.2103 12.1637C68.7228 12.0853 69.2067 11.8766 69.6153 11.5575C70.024 11.2385 70.3439 10.8199 70.5442 10.3418C70.5904 10.44 70.6475 10.5327 70.7143 10.6182L74.8063 15.8525Z" fill="white"/>
<path d="M67.3662 12.1843C67.2911 12.2467 67.223 12.3172 67.1633 12.3944L63.073 17.6279C62.8372 17.9296 62.4911 18.1253 62.1109 18.1719C61.7308 18.2185 61.3476 18.1123 61.0458 17.8765C60.744 17.6408 60.5483 17.2949 60.5017 16.9148C60.455 16.5348 60.5613 16.1519 60.7972 15.8502L64.8874 10.6167C64.9275 10.5648 64.9638 10.5101 64.9963 10.4531C65.2122 10.9188 65.5434 11.3216 65.9585 11.6237C66.3737 11.9257 66.859 12.117 67.3686 12.1794" fill="white"/>
<path d="M68.3094 6.21827C68.3568 6.17367 68.4008 6.12556 68.4411 6.07435L72.5314 0.840836C72.6479 0.69173 72.7927 0.567033 72.9575 0.473864C73.1223 0.380696 73.3038 0.320882 73.4917 0.297836C73.6796 0.27479 73.8702 0.288964 74.0526 0.339549C74.235 0.390134 74.4057 0.476138 74.5548 0.592653C74.704 0.709167 74.8287 0.85391 74.9219 1.01862C75.0151 1.18332 75.075 1.36477 75.098 1.55259C75.1211 1.74041 75.1069 1.93093 75.0563 2.11328C75.0057 2.29562 74.9197 2.46622 74.8031 2.61532L70.7128 7.84883C70.6533 7.92501 70.6021 8.00724 70.5598 8.09416C70.374 7.61679 70.0699 7.19442 69.6762 6.8666C69.2824 6.53879 68.8118 6.31627 68.3085 6.2199" fill="white"/>
<path d="M69.7044 9.23327C69.7045 9.60949 69.5931 9.97732 69.3841 10.2902C69.1751 10.6031 68.878 10.847 68.5303 10.9911C68.1826 11.1352 67.8 11.173 67.4308 11.0997C67.0617 11.0264 66.7225 10.8453 66.4564 10.5793C66.1902 10.3134 66.0089 9.97444 65.9354 9.60546C65.8619 9.23647 65.8995 8.85399 66.0435 8.50639C66.1875 8.15879 66.4314 7.86168 66.7443 7.65264C67.0573 7.44361 67.4252 7.33203 67.8015 7.33203C68.3061 7.33203 68.7899 7.53231 69.1467 7.88884C69.5036 8.24537 69.7041 8.72895 69.7044 9.23327Z" fill="white"/>
<path d="M15.5735 6.98438C12.4011 6.98438 10.0107 9.39343 10.0107 12.5883V12.6292C10.0107 15.8004 12.4027 18.1898 15.5735 18.1898C18.7443 18.1898 21.1363 15.7816 21.1363 12.5867V12.5507C21.1363 9.37952 18.7435 6.9901 15.5735 6.9901M20.2512 12.5679V12.6088C20.2512 15.3073 18.2494 17.3443 15.5956 17.3443C12.9622 17.3443 10.8991 15.264 10.8991 12.6088V12.5679C10.8991 9.86935 12.9001 7.83237 15.5539 7.83237C18.188 7.83237 20.2512 9.91269 20.2512 12.5679Z" fill="white"/>
<path d="M47.3831 8.1988C46.5871 7.40314 45.4238 7 43.926 7C42.6719 7 41.5282 7.28703 40.2177 7.93058L40.0304 8.02299L40.3723 8.79166L40.5744 8.69435C41.79 8.10967 42.8175 7.84881 43.9055 7.84881C46.3147 7.84881 47.5868 9.04352 47.5868 11.3037V11.8655C46.4004 11.4997 45.1659 11.3131 43.9243 11.3119C40.9965 11.3119 39.1035 12.6857 39.1035 14.8102V14.8519C39.1035 17.1285 41.2174 18.1646 43.1815 18.1646C45.3633 18.1646 46.8628 17.1416 47.5868 16.1317V18.1915H48.4564V11.2825C48.4564 9.96838 48.085 8.90205 47.3815 8.1988M47.5868 12.7552V13.9238C47.5868 15.5552 45.9106 17.3157 43.202 17.3157C41.7221 17.3157 39.9944 16.6656 39.9944 14.8315V14.7898C39.9944 12.8517 42.0354 12.1616 43.9456 12.1616C45.3036 12.1616 46.462 12.3504 47.5868 12.7552Z" fill="white"/>
<path d="M30.837 7.84749C31.8024 7.83737 32.7453 8.13846 33.526 8.70612L33.5407 8.71675H34.8643L34.7653 8.62434C34.0446 7.92845 32.8544 7.00195 30.8567 7.00195C27.8388 7.00195 25.3822 9.50259 25.3822 12.5756V12.6149C25.3822 15.6904 27.8298 18.1919 30.837 18.1919C32.3578 18.1919 33.6421 17.6538 34.7637 16.5466L34.8594 16.4517H33.544L33.5293 16.4623C32.7601 17.0427 31.8203 17.3521 30.8567 17.3422C28.3289 17.3422 26.2755 15.2161 26.2755 12.5953V12.556C26.2755 9.91637 28.2806 7.84913 30.8403 7.84913" fill="white"/>
</g>
<defs>
<filter id="filter0_d_4029_8799" x="0.872681" y="0.203125" width="78.2547" height="26" filterUnits="userSpaceOnUse" color-interpolation-filters="sRGB">
<feFlood flood-opacity="0" result="BackgroundImageFix"/>
<feColorMatrix in="SourceAlpha" type="matrix" values="0 0 0 0 0 0 0 0 0 0 0 0 0 0 0 0 0 0 127 0" result="hardAlpha"/>
<feOffset dy="4"/>
<feGaussianBlur stdDeviation="2"/>
<feComposite in2="hardAlpha" operator="out"/>
<feColorMatrix type="matrix" values="0 0 0 0 0 0 0 0 0 0 0 0 0 0 0 0 0 0 0.25 0"/>
<feBlend mode="normal" in2="BackgroundImageFix" result="effect1_dropShadow_4029_8799"/>
<feBlend mode="normal" in="SourceGraphic" in2="effect1_dropShadow_4029_8799" result="shape"/>
</filter>
</defs>
</svg>
