<svg width="100" height="81" viewBox="0 0 100 81" fill="none" xmlns="http://www.w3.org/2000/svg">
<circle cx="20" cy="40.2021" r="20" fill="#212121"/>
<path d="M27.7841 45.9831L28.6709 40.2016H23.1237V36.4498C23.1237 34.8681 23.8986 33.3264 26.3832 33.3264H28.9053V28.4043C28.9053 28.4043 26.6164 28.0137 24.4281 28.0137C19.8594 28.0137 16.8733 30.7825 16.8733 35.7952V40.2016H11.7949V45.9831H16.8733V59.9594C17.8916 60.1192 18.9353 60.2024 19.9985 60.2024C21.0617 60.2024 22.1054 60.1192 23.1237 59.9594V45.9831H27.7841Z" fill="white"/>
<path d="M27.7841 45.9831L28.6709 40.2016H23.1237V36.4498C23.1237 34.8681 23.8986 33.3264 26.3832 33.3264H28.9053V28.4043C28.9053 28.4043 26.6164 28.0137 24.4281 28.0137C19.8594 28.0137 16.8733 30.7825 16.8733 35.7952V40.2016H11.7949V45.9831H16.8733V59.9594C17.8916 60.1192 18.9353 60.2024 19.9985 60.2024C21.0617 60.2024 22.1054 60.1192 23.1237 59.9594V45.9831H27.7841" stroke="black"/>
<path d="M27.7841 45.9831L28.6709 40.2016H23.1237V36.4498C23.1237 34.8681 23.8986 33.3264 26.3832 33.3264H28.9053V28.4043C28.9053 28.4043 26.6164 28.0137 24.4281 28.0137C19.8594 28.0137 16.8733 30.7825 16.8733 35.7952V40.2016H11.7949V45.9831H16.8733V59.9594C17.8916 60.1192 18.9353 60.2024 19.9985 60.2024C21.0617 60.2024 22.1054 60.1192 23.1237 59.9594V45.9831H27.7841" stroke="black" stroke-opacity="0.2"/>
<path d="M27.7841 45.9831L28.6709 40.2016H23.1237V36.4498C23.1237 34.8681 23.8986 33.3264 26.3832 33.3264H28.9053V28.4043C28.9053 28.4043 26.6164 28.0137 24.4281 28.0137C19.8594 28.0137 16.8733 30.7825 16.8733 35.7952V40.2016H11.7949V45.9831H16.8733V59.9594C17.8916 60.1192 18.9353 60.2024 19.9985 60.2024C21.0617 60.2024 22.1054 60.1192 23.1237 59.9594V45.9831H27.7841" stroke="black" stroke-opacity="0.2"/>
<path d="M27.7841 45.9831L28.6709 40.2016H23.1237V36.4498C23.1237 34.8681 23.8986 33.3264 26.3832 33.3264H28.9053V28.4043C28.9053 28.4043 26.6164 28.0137 24.4281 28.0137C19.8594 28.0137 16.8733 30.7825 16.8733 35.7952V40.2016H11.7949V45.9831H16.8733V59.9594C17.8916 60.1192 18.9353 60.2024 19.9985 60.2024C21.0617 60.2024 22.1054 60.1192 23.1237 59.9594V45.9831H27.7841" stroke="black" stroke-opacity="0.2"/>
<circle cx="80" cy="40.2021" r="20" fill="#212121"/>
<path fill-rule="evenodd" clip-rule="evenodd" d="M80.0004 26.8691C76.3792 26.8691 75.9252 26.8845 74.503 26.9494C73.0838 27.0141 72.1146 27.2395 71.2665 27.5691C70.3897 27.9098 69.6461 28.3658 68.9048 29.107C68.1636 29.8483 67.7077 30.5918 67.367 31.4686C67.0374 32.3167 66.812 33.286 66.7472 34.7052C66.6823 36.1273 66.667 36.5814 66.667 40.2025C66.667 43.8236 66.6823 44.2776 66.7472 45.6998C66.812 47.119 67.0374 48.0882 67.367 48.9363C67.7077 49.8131 68.1636 50.5567 68.9048 51.298C69.6461 52.0392 70.3897 52.4951 71.2665 52.8359C72.1146 53.1654 73.0838 53.3908 74.503 53.4556C75.9252 53.5205 76.3792 53.5358 80.0004 53.5358C83.6214 53.5358 84.0755 53.5205 85.4976 53.4556C86.9168 53.3908 87.8861 53.1654 88.7342 52.8359C89.6109 52.4951 90.3545 52.0392 91.0958 51.298C91.837 50.5567 92.293 49.8131 92.6337 48.9363C92.9633 48.0882 93.1887 47.119 93.2534 45.6998C93.3183 44.2776 93.3337 43.8236 93.3337 40.2025C93.3337 36.5814 93.3183 36.1273 93.2534 34.7052C93.1887 33.286 92.9633 32.3167 92.6337 31.4686C92.293 30.5918 91.837 29.8483 91.0958 29.107C90.3545 28.3658 89.6109 27.9098 88.7342 27.5691C87.8861 27.2395 86.9168 27.0141 85.4976 26.9494C84.0755 26.8845 83.6214 26.8691 80.0004 26.8691ZM80.0004 29.2715C83.5605 29.2715 83.9822 29.2851 85.3881 29.3493C86.6881 29.4086 87.3941 29.6258 87.8639 29.8084C88.4863 30.0503 88.9305 30.3392 89.397 30.8058C89.8636 31.2723 90.1526 31.7165 90.3944 32.3389C90.577 32.8087 90.7942 33.5147 90.8535 34.8147C90.9177 36.2206 90.9313 36.6423 90.9313 40.2025C90.9313 43.7626 90.9177 44.1843 90.8535 45.5903C90.7942 46.8903 90.577 47.5963 90.3944 48.0661C90.1526 48.6885 89.8636 49.1326 89.397 49.5992C88.9305 50.0658 88.4863 50.3547 87.8639 50.5966C87.3941 50.7792 86.6881 50.9964 85.3881 51.0557C83.9824 51.1198 83.5607 51.1334 80.0004 51.1334C76.4399 51.1334 76.0183 51.1198 74.6125 51.0557C73.3125 50.9964 72.6065 50.7792 72.1367 50.5966C71.5143 50.3547 71.0702 50.0658 70.6036 49.5992C70.1371 49.1326 69.8481 48.6885 69.6062 48.0661C69.4236 47.5963 69.2064 46.8903 69.1471 45.5903C69.083 44.1843 69.0694 43.7626 69.0694 40.2025C69.0694 36.6423 69.083 36.2206 69.1471 34.8147C69.2064 33.5147 69.4236 32.8087 69.6062 32.3389C69.8481 31.7165 70.137 31.2723 70.6036 30.8058C71.0702 30.3392 71.5143 30.0503 72.1367 29.8084C72.6065 29.6258 73.3125 29.4086 74.6125 29.3493C76.0185 29.2851 76.4402 29.2715 80.0004 29.2715Z" fill="white"/>
<path fill-rule="evenodd" clip-rule="evenodd" d="M80.0002 44.6468C77.5456 44.6468 75.5557 42.6569 75.5557 40.2023C75.5557 37.7477 77.5456 35.7579 80.0002 35.7579C82.4548 35.7579 84.4446 37.7477 84.4446 40.2023C84.4446 42.6569 82.4548 44.6468 80.0002 44.6468ZM80.0002 33.3555C76.2187 33.3555 73.1533 36.4209 73.1533 40.2023C73.1533 43.9837 76.2187 47.0492 80.0002 47.0492C83.7816 47.0492 86.847 43.9837 86.847 40.2023C86.847 36.4209 83.7816 33.3555 80.0002 33.3555Z" fill="white"/>
<path fill-rule="evenodd" clip-rule="evenodd" d="M88.7176 33.0854C88.7176 33.969 88.0012 34.6854 87.1176 34.6854C86.2339 34.6854 85.5176 33.969 85.5176 33.0854C85.5176 32.2017 86.2339 31.4854 87.1176 31.4854C88.0012 31.4854 88.7176 32.2017 88.7176 33.0854Z" fill="white"/>
</svg>
