<svg width="99" height="72" viewBox="0 0 99 72" fill="none" xmlns="http://www.w3.org/2000/svg">
<path d="M72.8629 33.8676C72.8629 44.5733 68.4012 54.2316 61.2223 61.0941C57.903 60.1237 54.8384 58.5679 52.1521 56.5345C59.03 51.3588 63.4763 43.1254 63.4763 33.8676C63.4763 24.6098 59.03 16.384 52.1521 11.2083C45.2665 16.384 40.8202 24.6098 40.8202 33.8676C40.8202 41.3924 43.7536 48.2318 48.5395 53.3151C44.209 48.7786 38.7669 45.3281 32.6455 43.3872C31.8582 40.3449 31.4336 37.1563 31.4336 33.8676C31.4336 23.1695 35.8953 13.5035 43.0743 6.64102C45.7529 4.06855 48.8097 1.89659 52.1521 0.202148C55.5023 1.89659 58.5514 4.07625 61.23 6.64102C68.3935 13.5112 72.8629 23.1695 72.8629 33.8676Z" fill="#9BC352"/>
<path d="M52.1514 67.533C50.7542 68.2416 49.303 68.8655 47.7978 69.3969C43.8146 70.8295 39.5227 71.6074 35.0455 71.6074C22.5634 71.6074 11.5017 65.5767 4.61613 56.2804C2.74806 53.7619 1.18877 51.0122 0 48.0778C2.59368 46.3294 5.41121 44.8969 8.40629 43.834C9.54875 46.8686 11.193 49.6644 13.2463 52.1059C18.4645 58.306 26.2919 62.2572 35.0455 62.2572C37.7859 62.2572 40.4413 61.8721 42.9578 61.1404C42.9578 61.1404 43.0272 61.125 43.0658 61.1019C45.7444 63.6743 48.8013 65.8463 52.1437 67.5407L52.1514 67.533Z" fill="#9BC352"/>
<path d="M98.0965 58.2678C91.1723 66.4242 80.8131 71.6 69.2496 71.6C65.2433 71.6 61.3914 70.9761 57.7633 69.8285C55.818 69.2046 53.9345 68.4421 52.1437 67.5256C48.7935 65.8389 45.7444 63.6592 43.0658 61.0867C43.0272 61.1021 42.9963 61.1175 42.9577 61.1252C37.7472 54.9251 29.9199 50.974 21.1662 50.974C18.4181 50.974 15.7627 51.3591 13.2462 52.0908C11.1929 49.6493 9.5487 46.8535 8.40625 43.8189C12.3894 42.3863 16.689 41.6084 21.1662 41.6084C25.1725 41.6084 29.0244 42.2323 32.6525 43.3799C38.7739 45.3208 44.216 48.779 48.5465 53.3077C48.5851 53.3539 48.6314 53.4002 48.67 53.4387C49.743 54.5632 50.9086 55.5952 52.1514 56.5272C54.8377 58.5528 57.91 60.1086 61.2215 61.0867C63.7689 61.8415 66.4629 62.2343 69.2496 62.2343C78.0882 62.2343 85.9927 58.2062 91.2032 51.8983L98.0965 58.2524V58.2678Z" fill="url(#paint0_linear_3038_1783)"/>
<defs>
<linearGradient id="paint0_linear_3038_1783" x1="8.40625" y1="56.6119" x2="98.0965" y2="56.6119" gradientUnits="userSpaceOnUse">
<stop offset="0.06" stop-color="#A4C241"/>
<stop offset="0.32" stop-color="#58B0E0"/>
</linearGradient>
</defs>
</svg>
