<svg width="26" height="28" viewBox="0 0 26 28" fill="none" xmlns="http://www.w3.org/2000/svg">
<path d="M25.7465 12.045L20.5961 8.6741C20.5558 8.64806 20.5114 8.6382 20.4681 8.62365V7.46103C20.4681 7.15057 20.2207 6.89912 19.9148 6.89912H17.8607L13.57 4.17546C13.3907 4.0613 13.1627 4.0613 12.9833 4.17546L8.69256 6.89912H6.08518C5.77949 6.89912 5.53192 7.1504 5.53192 7.46103V8.62332C5.48862 8.63788 5.44404 8.6479 5.40392 8.6741L0.253463 12.045C0.0956854 12.1487 0 12.3266 0 12.5174V27.1251C0 27.4356 0.247413 27.687 0.553256 27.687H25.4467C25.7524 27.687 26 27.4357 26 27.1251V12.5175C26 12.3266 25.9043 12.1489 25.7465 12.045ZM13.2767 5.31463L15.7733 6.89912H10.7801L13.2767 5.31463ZM6.63843 8.02277H19.3617V20.6641C19.3617 20.6657 19.3627 20.667 19.3627 20.6688L17.4913 21.8228L12.9882 19.3283C12.8203 19.2361 12.616 19.2366 12.4491 19.3338L8.33991 21.7187L6.63764 20.6689C6.63764 20.6673 6.63859 20.666 6.63859 20.6644L6.63843 8.02277ZM1.10651 12.8236L5.53192 9.92759V19.9872L1.10651 17.2581V12.8236ZM1.10651 18.5722L7.242 22.3555L1.10651 25.9164V18.5722ZM2.2213 26.5635L12.73 20.465L23.7386 26.5635H2.2213ZM24.8936 25.9234L18.6138 22.4446L24.8936 18.572V25.9234ZM24.8936 17.2581L20.4681 19.9871V9.92759L24.8936 12.8238V17.2581Z" fill="#212121"/>
<path d="M8.85092 13.6412H15.4892C15.7949 13.6412 16.0425 13.39 16.0425 13.0793V9.70839C16.0425 9.39793 15.795 9.14648 15.4892 9.14648H8.85092C8.54524 9.14648 8.29767 9.39777 8.29767 9.70839V13.0793C8.29767 13.39 8.54524 13.6412 8.85092 13.6412ZM9.40402 10.2701H14.9359V12.5174H9.40402V10.2701Z" fill="#212121"/>
<path d="M17.1486 14.7637H8.29767V15.8873H17.1486V14.7637Z" fill="#212121"/>
<path d="M17.1486 17.0137H8.29767V18.1373H17.1486V17.0137Z" fill="#212121"/>
<path d="M23.2338 7.45943C23.3753 7.45943 23.5169 7.40461 23.625 7.29482L25.5805 5.30867C25.7966 5.08924 25.7966 4.73367 25.5805 4.51424C25.3645 4.29465 25.0144 4.29481 24.7983 4.51424L22.8428 6.50039C22.6267 6.71982 22.6267 7.07539 22.8428 7.29482C22.9507 7.40461 23.0922 7.45943 23.2338 7.45943Z" fill="#212121"/>
<path d="M2.37573 7.29671C2.48384 7.40651 2.62538 7.46132 2.76691 7.46132C2.90845 7.46132 3.04999 7.40651 3.15809 7.29671C3.37414 7.07729 3.37414 6.72171 3.15809 6.50228L1.20235 4.51613C0.986306 4.29671 0.636202 4.29671 0.420154 4.51613C0.204106 4.73556 0.204106 5.09113 0.420154 5.31056L2.37573 7.29671Z" fill="#212121"/>
<path d="M18.6035 4.61175C18.6705 4.63924 18.7402 4.65169 18.8087 4.65169C19.0281 4.65169 19.236 4.51828 19.3225 4.29837L20.4288 1.48917C20.5423 1.20118 20.404 0.874067 20.1204 0.758937C19.8396 0.644292 19.5148 0.78303 19.4014 1.07215L18.2951 3.88135C18.1816 4.1695 18.3198 4.49662 18.6035 4.61175Z" fill="#212121"/>
<path d="M7.23149 4.29844C7.31794 4.51851 7.52587 4.65175 7.74526 4.65175C7.81388 4.65175 7.88362 4.63914 7.95049 4.61165C8.23404 4.49636 8.37239 4.1694 8.25888 3.88142L7.15252 1.07222C7.03901 0.783097 6.71501 0.644198 6.43353 0.759004C6.14997 0.874296 6.01162 1.20125 6.12514 1.48924L7.23149 4.29844Z" fill="#212121"/>
</svg>
