<svg width="40" height="41" viewBox="0 0 40 41" fill="none" xmlns="http://www.w3.org/2000/svg">
<circle cx="20" cy="20.2021" r="20" fill="#212121"/>
<path d="M27.7841 25.9831L28.6709 20.2016H23.1237V16.4498C23.1237 14.8681 23.8986 13.3264 26.3832 13.3264H28.9053V8.40431C28.9053 8.40431 26.6164 8.01367 24.4281 8.01367C19.8594 8.01367 16.8733 10.7825 16.8733 15.7952V20.2016H11.7949V25.9831H16.8733V39.9594C17.8916 40.1192 18.9353 40.2024 19.9985 40.2024C21.0617 40.2024 22.1054 40.1192 23.1237 39.9594V25.9831H27.7841Z" fill="white"/>
<path d="M27.7841 25.9831L28.6709 20.2016H23.1237V16.4498C23.1237 14.8681 23.8986 13.3264 26.3832 13.3264H28.9053V8.40431C28.9053 8.40431 26.6164 8.01367 24.4281 8.01367C19.8594 8.01367 16.8733 10.7825 16.8733 15.7952V20.2016H11.7949V25.9831H16.8733V39.9594C17.8916 40.1192 18.9353 40.2024 19.9985 40.2024C21.0617 40.2024 22.1054 40.1192 23.1237 39.9594V25.9831H27.7841" stroke="black"/>
<path d="M27.7841 25.9831L28.6709 20.2016H23.1237V16.4498C23.1237 14.8681 23.8986 13.3264 26.3832 13.3264H28.9053V8.40431C28.9053 8.40431 26.6164 8.01367 24.4281 8.01367C19.8594 8.01367 16.8733 10.7825 16.8733 15.7952V20.2016H11.7949V25.9831H16.8733V39.9594C17.8916 40.1192 18.9353 40.2024 19.9985 40.2024C21.0617 40.2024 22.1054 40.1192 23.1237 39.9594V25.9831H27.7841" stroke="black" stroke-opacity="0.2"/>
<path d="M27.7841 25.9831L28.6709 20.2016H23.1237V16.4498C23.1237 14.8681 23.8986 13.3264 26.3832 13.3264H28.9053V8.40431C28.9053 8.40431 26.6164 8.01367 24.4281 8.01367C19.8594 8.01367 16.8733 10.7825 16.8733 15.7952V20.2016H11.7949V25.9831H16.8733V39.9594C17.8916 40.1192 18.9353 40.2024 19.9985 40.2024C21.0617 40.2024 22.1054 40.1192 23.1237 39.9594V25.9831H27.7841" stroke="black" stroke-opacity="0.2"/>
<path d="M27.7841 25.9831L28.6709 20.2016H23.1237V16.4498C23.1237 14.8681 23.8986 13.3264 26.3832 13.3264H28.9053V8.40431C28.9053 8.40431 26.6164 8.01367 24.4281 8.01367C19.8594 8.01367 16.8733 10.7825 16.8733 15.7952V20.2016H11.7949V25.9831H16.8733V39.9594C17.8916 40.1192 18.9353 40.2024 19.9985 40.2024C21.0617 40.2024 22.1054 40.1192 23.1237 39.9594V25.9831H27.7841" stroke="black" stroke-opacity="0.2"/>
</svg>
