<svg width="40" height="41" viewBox="0 0 40 41" fill="none" xmlns="http://www.w3.org/2000/svg">
<circle cx="20" cy="20.2021" r="20" fill="#212121"/>
<path fill-rule="evenodd" clip-rule="evenodd" d="M20.0004 6.86914C16.3792 6.86914 15.9252 6.88449 14.503 6.94938C13.0838 7.01411 12.1146 7.23952 11.2665 7.56915C10.3897 7.90984 9.64613 8.36575 8.90484 9.10699C8.1636 9.84828 7.70769 10.5918 7.367 11.4686C7.03737 12.3167 6.81196 13.286 6.74723 14.7052C6.68234 16.1273 6.66699 16.5814 6.66699 20.2025C6.66699 23.8236 6.68234 24.2776 6.74723 25.6998C6.81196 27.119 7.03737 28.0882 7.367 28.9363C7.70769 29.8131 8.1636 30.5567 8.90484 31.298C9.64613 32.0392 10.3897 32.4951 11.2665 32.8359C12.1146 33.1654 13.0838 33.3908 14.503 33.4556C15.9252 33.5205 16.3792 33.5358 20.0004 33.5358C23.6214 33.5358 24.0755 33.5205 25.4976 33.4556C26.9168 33.3908 27.8861 33.1654 28.7342 32.8359C29.6109 32.4951 30.3545 32.0392 31.0958 31.298C31.837 30.5567 32.293 29.8131 32.6337 28.9363C32.9633 28.0882 33.1887 27.119 33.2534 25.6998C33.3183 24.2776 33.3337 23.8236 33.3337 20.2025C33.3337 16.5814 33.3183 16.1273 33.2534 14.7052C33.1887 13.286 32.9633 12.3167 32.6337 11.4686C32.293 10.5918 31.837 9.84828 31.0958 9.10699C30.3545 8.36575 29.6109 7.90984 28.7342 7.56915C27.8861 7.23952 26.9168 7.01411 25.4976 6.94938C24.0755 6.88449 23.6214 6.86914 20.0004 6.86914ZM20.0004 9.27154C23.5605 9.27154 23.9822 9.28514 25.3881 9.34929C26.6881 9.40857 27.3941 9.62578 27.8639 9.80838C28.4863 10.0503 28.9305 10.3392 29.397 10.8058C29.8636 11.2723 30.1526 11.7165 30.3944 12.3389C30.577 12.8087 30.7942 13.5147 30.8535 14.8147C30.9177 16.2206 30.9313 16.6423 30.9313 20.2025C30.9313 23.7626 30.9177 24.1843 30.8535 25.5903C30.7942 26.8903 30.577 27.5963 30.3944 28.0661C30.1526 28.6885 29.8636 29.1326 29.397 29.5992C28.9305 30.0658 28.4863 30.3547 27.8639 30.5966C27.3941 30.7792 26.6881 30.9964 25.3881 31.0557C23.9824 31.1198 23.5607 31.1334 20.0004 31.1334C16.4399 31.1334 16.0183 31.1198 14.6125 31.0557C13.3125 30.9964 12.6065 30.7792 12.1367 30.5966C11.5143 30.3547 11.0702 30.0658 10.6036 29.5992C10.1371 29.1326 9.8481 28.6885 9.60623 28.0661C9.42363 27.5963 9.20642 26.8903 9.14714 25.5903C9.08299 24.1843 9.06939 23.7626 9.06939 20.2025C9.06939 16.6423 9.08299 16.2206 9.14714 14.8147C9.20642 13.5147 9.42363 12.8087 9.60623 12.3389C9.8481 11.7165 10.137 11.2723 10.6036 10.8058C11.0702 10.3392 11.5143 10.0503 12.1367 9.80838C12.6065 9.62578 13.3125 9.40857 14.6125 9.34929C16.0185 9.28514 16.4402 9.27154 20.0004 9.27154Z" fill="white"/>
<path fill-rule="evenodd" clip-rule="evenodd" d="M20.0002 24.6468C17.5456 24.6468 15.5557 22.6569 15.5557 20.2023C15.5557 17.7477 17.5456 15.7579 20.0002 15.7579C22.4548 15.7579 24.4446 17.7477 24.4446 20.2023C24.4446 22.6569 22.4548 24.6468 20.0002 24.6468ZM20.0002 13.3555C16.2187 13.3555 13.1533 16.4209 13.1533 20.2023C13.1533 23.9837 16.2187 27.0492 20.0002 27.0492C23.7816 27.0492 26.847 23.9837 26.847 20.2023C26.847 16.4209 23.7816 13.3555 20.0002 13.3555Z" fill="white"/>
<path fill-rule="evenodd" clip-rule="evenodd" d="M28.7176 13.0854C28.7176 13.969 28.0012 14.6854 27.1176 14.6854C26.2339 14.6854 25.5176 13.969 25.5176 13.0854C25.5176 12.2017 26.2339 11.4854 27.1176 11.4854C28.0012 11.4854 28.7176 12.2017 28.7176 13.0854Z" fill="white"/>
</svg>
