<svg width="19" height="34" viewBox="0 0 19 34" fill="none" xmlns="http://www.w3.org/2000/svg">
<path d="M16.7841 18.9831L17.6709 13.2016H12.1237V9.44982C12.1237 7.86812 12.8986 6.32638 15.3832 6.32638H17.9053V1.40431C17.9053 1.40431 15.6164 1.01367 13.4281 1.01367C8.85938 1.01367 5.87334 3.78253 5.87334 8.79523V13.2016H0.794922V18.9831H5.87334V32.9594C6.89165 33.1192 7.93534 33.2024 8.99853 33.2024C10.0617 33.2024 11.1054 33.1192 12.1237 32.9594V18.9831H16.7841Z" fill="white"/>
<path d="M16.7841 18.9831L17.6709 13.2016H12.1237V9.44982C12.1237 7.86812 12.8986 6.32638 15.3832 6.32638H17.9053V1.40431C17.9053 1.40431 15.6164 1.01367 13.4281 1.01367C8.85938 1.01367 5.87334 3.78253 5.87334 8.79523V13.2016H0.794922V18.9831H5.87334V32.9594C6.89165 33.1192 7.93534 33.2024 8.99853 33.2024C10.0617 33.2024 11.1054 33.1192 12.1237 32.9594V18.9831H16.7841" stroke="black"/>
<path d="M16.7841 18.9831L17.6709 13.2016H12.1237V9.44982C12.1237 7.86812 12.8986 6.32638 15.3832 6.32638H17.9053V1.40431C17.9053 1.40431 15.6164 1.01367 13.4281 1.01367C8.85938 1.01367 5.87334 3.78253 5.87334 8.79523V13.2016H0.794922V18.9831H5.87334V32.9594C6.89165 33.1192 7.93534 33.2024 8.99853 33.2024C10.0617 33.2024 11.1054 33.1192 12.1237 32.9594V18.9831H16.7841" stroke="black" stroke-opacity="0.2"/>
<path d="M16.7841 18.9831L17.6709 13.2016H12.1237V9.44982C12.1237 7.86812 12.8986 6.32638 15.3832 6.32638H17.9053V1.40431C17.9053 1.40431 15.6164 1.01367 13.4281 1.01367C8.85938 1.01367 5.87334 3.78253 5.87334 8.79523V13.2016H0.794922V18.9831H5.87334V32.9594C6.89165 33.1192 7.93534 33.2024 8.99853 33.2024C10.0617 33.2024 11.1054 33.1192 12.1237 32.9594V18.9831H16.7841" stroke="black" stroke-opacity="0.2"/>
<path d="M16.7841 18.9831L17.6709 13.2016H12.1237V9.44982C12.1237 7.86812 12.8986 6.32638 15.3832 6.32638H17.9053V1.40431C17.9053 1.40431 15.6164 1.01367 13.4281 1.01367C8.85938 1.01367 5.87334 3.78253 5.87334 8.79523V13.2016H0.794922V18.9831H5.87334V32.9594C6.89165 33.1192 7.93534 33.2024 8.99853 33.2024C10.0617 33.2024 11.1054 33.1192 12.1237 32.9594V18.9831H16.7841" stroke="black" stroke-opacity="0.2"/>
</svg>
