<svg width="20" height="20" viewBox="0 0 20 20" fill="none" xmlns="http://www.w3.org/2000/svg">
<path d="M11.0985 5.26282C12.0584 5.42369 12.9304 5.87707 13.6265 6.57176C14.3226 7.26645 14.7733 8.13665 14.9382 9.09459M11.2451 2.12207C12.9524 2.41092 14.5095 3.21895 15.7479 4.45112C16.9862 5.68694 17.7922 7.24085 18.0817 8.94467M16.748 15.7234C16.748 15.7234 15.8211 16.6338 15.594 16.9007C15.2239 17.2956 14.7879 17.4821 14.2164 17.4821C14.1614 17.4821 14.1028 17.4821 14.0479 17.4784C12.9597 17.4089 11.9485 16.9848 11.1901 16.6228C9.11644 15.621 7.29555 14.1987 5.78242 12.3962C4.53307 10.8935 3.69774 9.50408 3.14451 8.01232C2.80378 7.10191 2.67921 6.39259 2.73417 5.7235C2.77081 5.29571 2.93568 4.94105 3.23977 4.63758L4.48911 3.39079C4.66863 3.22261 4.85915 3.1312 5.046 3.1312C5.27682 3.1312 5.46367 3.27014 5.58091 3.38714C5.58457 3.39079 5.58824 3.39445 5.5919 3.39811C5.81539 3.60651 6.02789 3.82223 6.25138 4.05258C6.36495 4.16958 6.48219 4.28658 6.59943 4.40724L7.59964 5.4054C7.988 5.79297 7.988 6.15128 7.59964 6.53884C7.49339 6.64488 7.39081 6.75091 7.28456 6.85328C6.9768 7.16772 7.21856 6.92646 6.89981 7.21165C6.89249 7.21896 6.88516 7.22261 6.88149 7.22993C6.56641 7.54437 6.62503 7.85149 6.69098 8.0599C6.69464 8.07087 6.69831 8.08184 6.70197 8.09281C6.9621 8.72169 7.32847 9.314 7.88536 10.0197L7.88903 10.0233C8.90023 11.2665 9.96638 12.2354 11.1424 12.9776C11.2927 13.0726 11.4465 13.1494 11.5931 13.2226C11.725 13.2884 11.8496 13.3505 11.9558 13.4163C11.9705 13.4236 11.9851 13.4346 11.9998 13.4419C12.1243 13.5041 12.2416 13.5333 12.3625 13.5333C12.6666 13.5333 12.8571 13.3432 12.9194 13.2811L13.6375 12.5644C13.7621 12.4401 13.9599 12.2902 14.1907 12.2902C14.4179 12.2902 14.6047 12.4328 14.7183 12.5571C14.722 12.5607 14.722 12.5607 14.7257 12.5644L16.7444 14.579C17.1217 14.9519 16.748 15.7234 16.748 15.7234Z" stroke="#212121" stroke-width="1.5" stroke-linecap="round" stroke-linejoin="round"/>
</svg>
