<svg width="25" height="26" viewBox="0 0 25 26" fill="none" xmlns="http://www.w3.org/2000/svg">
<circle cx="12.5" cy="12.6611" r="12.5" fill="#2B3888"/>
<path fill-rule="evenodd" clip-rule="evenodd" d="M12.5003 4.32764C10.2371 4.32764 9.95334 4.33723 9.0645 4.37778C8.17752 4.41824 7.57174 4.55913 7.04168 4.76514C6.49369 4.97807 6.02896 5.26302 5.56565 5.72629C5.10237 6.1896 4.81743 6.65433 4.6045 7.20232C4.39848 7.73238 4.2576 8.33816 4.21714 9.22515C4.17659 10.114 4.16699 10.3978 4.16699 12.661C4.16699 14.9242 4.17659 15.208 4.21714 16.0968C4.2576 16.9838 4.39848 17.5896 4.6045 18.1196C4.81743 18.6676 5.10237 19.1323 5.56565 19.5956C6.02896 20.0589 6.49369 20.3439 7.04168 20.5568C7.57174 20.7628 8.17752 20.9037 9.0645 20.9442C9.95334 20.9847 10.2371 20.9943 12.5003 20.9943C14.7635 20.9943 15.0473 20.9847 15.9361 20.9442C16.8231 20.9037 17.4289 20.7628 17.959 20.5568C18.507 20.3439 18.9717 20.0589 19.435 19.5956C19.8983 19.1323 20.1832 18.6676 20.3962 18.1196C20.6022 17.5896 20.7431 16.9838 20.7835 16.0968C20.8241 15.208 20.8337 14.9242 20.8337 12.661C20.8337 10.3978 20.8241 10.114 20.7835 9.22515C20.7431 8.33816 20.6022 7.73238 20.3962 7.20232C20.1832 6.65433 19.8983 6.1896 19.435 5.72629C18.9717 5.26302 18.507 4.97807 17.959 4.76514C17.4289 4.55913 16.8231 4.41824 15.9361 4.37778C15.0473 4.33723 14.7635 4.32764 12.5003 4.32764ZM12.5003 5.82914C14.7254 5.82914 14.989 5.83764 15.8677 5.87773C16.6802 5.91478 17.1214 6.05054 17.4151 6.16466C17.8041 6.31583 18.0817 6.49641 18.3733 6.78804C18.6649 7.07963 18.8455 7.35723 18.9966 7.74621C19.1108 8.03985 19.2465 8.4811 19.2836 9.29359C19.3237 10.1723 19.3322 10.4359 19.3322 12.661C19.3322 14.8861 19.3237 15.1496 19.2836 16.0284C19.2465 16.8408 19.1108 17.2821 18.9966 17.5757C18.8455 17.9647 18.6649 18.2423 18.3733 18.5339C18.0817 18.8255 17.8041 19.0061 17.4151 19.1573C17.1214 19.2714 16.6802 19.4072 15.8677 19.4442C14.9891 19.4843 14.7256 19.4928 12.5003 19.4928C10.2751 19.4928 10.0116 19.4843 9.13294 19.4442C8.32045 19.4072 7.87921 19.2714 7.58556 19.1573C7.19659 19.0061 6.91899 18.8255 6.62739 18.5339C6.3358 18.2423 6.15519 17.9647 6.00401 17.5757C5.88989 17.2821 5.75413 16.8408 5.71708 16.0284C5.67699 15.1496 5.66849 14.8861 5.66849 12.661C5.66849 10.4359 5.67699 10.1723 5.71708 9.29359C5.75413 8.4811 5.88989 8.03985 6.00401 7.74621C6.15519 7.35723 6.33577 7.07963 6.62739 6.78804C6.91899 6.49641 7.19659 6.31583 7.58556 6.16466C7.87921 6.05054 8.32045 5.91478 9.13294 5.87773C10.0117 5.83764 10.2752 5.82914 12.5003 5.82914Z" fill="white"/>
<path fill-rule="evenodd" clip-rule="evenodd" d="M12.5 15.4389C10.9658 15.4389 9.7222 14.1952 9.7222 12.6611C9.7222 11.127 10.9658 9.88334 12.5 9.88334C14.0341 9.88334 15.2778 11.127 15.2778 12.6611C15.2778 14.1952 14.0341 15.4389 12.5 15.4389ZM12.5 8.38184C10.1366 8.38184 8.2207 10.2977 8.2207 12.6611C8.2207 15.0245 10.1366 16.9404 12.5 16.9404C14.8634 16.9404 16.7793 15.0245 16.7793 12.6611C16.7793 10.2977 14.8634 8.38184 12.5 8.38184Z" fill="white"/>
<path fill-rule="evenodd" clip-rule="evenodd" d="M17.9482 8.21242C17.9482 8.76471 17.5005 9.21241 16.9482 9.21241C16.396 9.21241 15.9482 8.76471 15.9482 8.21242C15.9482 7.66013 16.396 7.2124 16.9482 7.2124C17.5005 7.2124 17.9482 7.66013 17.9482 8.21242Z" fill="white"/>
</svg>
