<svg width="117" height="118" viewBox="0 0 117 118" fill="none" xmlns="http://www.w3.org/2000/svg">
<g filter="url(#filter0_dd_995_19160)">
<circle cx="38.5" cy="38.5" r="38.5" transform="matrix(-1 0 0 1 97 12.5)" fill="white"/>
</g>
<path d="M78.7836 55.9378C78.9279 55.9378 79.0701 55.9037 79.1987 55.8381L86.1061 52.2802C86.3191 52.1706 86.48 51.9811 86.5537 51.7532C86.6274 51.5253 86.6079 51.2775 86.4994 51.064L78.3848 35.036C78.331 34.9296 78.2566 34.8349 78.1661 34.7572C78.0755 34.6796 77.9705 34.6206 77.8571 34.5837C77.7437 34.5467 77.6241 34.5325 77.5052 34.5419C77.3863 34.5512 77.2704 34.584 77.1641 34.6382L70.5929 37.9913C70.3819 38.0987 70.2213 38.2843 70.1455 38.5086C70.0696 38.7328 70.0845 38.9778 70.1869 39.1912L77.9662 55.4203C78.0187 55.5295 78.0925 55.627 78.1833 55.7073C78.274 55.7876 78.3798 55.849 78.4945 55.888C78.5876 55.9197 78.6852 55.9366 78.7836 55.9378ZM84.4758 51.0803L79.1978 53.799L72.2033 39.2084L77.1786 36.6709L84.4758 51.0803Z" fill="#212121"/>
<path d="M69.3952 43.3261C69.5511 43.3261 69.7044 43.2858 69.8402 43.2092L72.4738 41.7257C72.5775 41.6673 72.6687 41.5891 72.7422 41.4955C72.8157 41.4019 72.87 41.2947 72.902 41.1801C72.9341 41.0654 72.9433 40.9456 72.929 40.8275C72.9148 40.7093 72.8774 40.5951 72.819 40.4914C72.7607 40.3877 72.6824 40.2965 72.5888 40.223C72.4952 40.1495 72.388 40.0952 72.2734 40.0631C72.1588 40.0311 72.039 40.0219 71.9208 40.0361C71.8027 40.0504 71.6885 40.0877 71.5847 40.1461L69.4097 41.3705C68.5606 40.8557 66.7227 39.7474 65.5464 39.0831C63.626 37.9956 62.2739 38.1451 60.7215 39.616C60.5516 39.7823 60.4538 40.0087 60.4492 40.2464C60.4447 40.4842 60.5338 40.7142 60.6973 40.8868C60.8608 41.0595 61.0856 41.161 61.3232 41.1694C61.5609 41.1778 61.7923 41.0925 61.9676 40.9318C62.9319 40.0183 63.4339 39.9712 64.6546 40.66C66.1663 41.5145 68.8932 43.1766 68.9213 43.1975C69.0644 43.2832 69.2284 43.3277 69.3952 43.3261Z" fill="#212121"/>
<path d="M45.5533 59.0933C46.2137 59.1103 46.8651 58.9383 47.4311 58.5976C48.2648 58.0412 51.9333 54.4434 52.6601 53.7283C52.8204 53.5578 52.9084 53.3319 52.9058 53.0979C52.9033 52.8639 52.8103 52.6399 52.6463 52.4729C52.4824 52.3059 52.2602 52.2088 52.0263 52.202C51.7924 52.1951 51.5649 52.279 51.3914 52.436C49.7601 54.0464 46.9616 56.7335 46.4278 57.0896C46.0838 57.2486 45.7033 57.3119 45.3263 57.273C44.9493 57.2341 44.5898 57.0944 44.2855 56.8685C44.143 56.7449 44.0293 56.5916 43.9526 56.4193C43.8758 56.2469 43.8379 56.0599 43.8413 55.8713C43.8448 55.6827 43.8896 55.4972 43.9726 55.3278C44.0556 55.1584 44.1748 55.0093 44.3217 54.8911C45.2479 53.8489 49.0958 50.1468 49.9405 49.3348C52.8877 48.2545 55.7457 46.9449 58.4882 45.418L59.4416 46.0415C59.6557 47.0351 60.2267 47.9157 61.0466 48.5165C61.3343 48.7432 61.6684 48.9039 62.0252 48.9872C62.3819 49.0705 62.7526 49.0744 63.111 48.9986C63.5459 48.9444 63.9648 48.8 64.3407 48.5747C64.7166 48.3494 65.0414 48.048 65.2942 47.69C65.7761 46.6603 65.8302 45.4816 65.4446 44.4121C64.6716 41.3182 63.4173 40.5216 61.6818 39.4196L61.3003 39.1758C59.3881 37.9478 57.7469 37.2935 55.9453 38.1046C54.8252 38.6094 50.8494 40.1491 49.7203 40.5859L45.9358 39.3452C45.709 39.2763 45.4644 39.2989 45.2541 39.4082C45.0439 39.5175 44.8848 39.7048 44.8109 39.9299C44.7371 40.1551 44.7544 40.4002 44.8591 40.6128C44.9638 40.8253 45.1476 40.9884 45.3712 41.0671L49.4629 42.4084C49.661 42.473 49.8753 42.4679 50.0701 42.3939C50.2848 42.3105 55.3399 40.3657 56.6857 39.7585C57.4932 39.396 58.3459 39.4332 60.3179 40.7001L60.7076 40.9493C62.2908 41.9543 63.0856 42.46 63.6838 44.8516C63.9901 46.0769 63.8487 46.5735 63.7372 46.7547C63.594 46.994 63.2623 47.091 62.734 47.2233C62.6206 47.2424 62.5043 47.236 62.3937 47.2047C62.283 47.1733 62.1807 47.1178 62.0942 47.042C61.8386 46.8494 61.6251 46.6066 61.4669 46.3284C61.3087 46.0502 61.2091 45.7425 61.1743 45.4244C61.1625 45.2877 61.1198 45.1556 61.0495 45.0378C60.9792 44.9201 60.883 44.8199 60.7683 44.7447L59.0238 43.6037C58.8863 43.5143 58.7271 43.4638 58.5632 43.4578C58.3993 43.4517 58.2368 43.4903 58.0931 43.5693C58.0315 43.6028 51.9215 46.9441 49.2454 47.6474C49.0966 47.6871 48.9601 47.7635 48.8484 47.8694C48.6527 48.057 44.0453 52.4687 42.9633 53.6894C42.6634 53.9796 42.4257 54.3277 42.2644 54.7126C42.1032 55.0974 42.0218 55.511 42.0251 55.9283C42.0285 56.3456 42.1166 56.7578 42.2841 57.14C42.4516 57.5222 42.695 57.8664 42.9995 58.1517C43.6968 58.7843 44.6123 59.1219 45.5533 59.0933Z" fill="#212121"/>
<path d="M43.6413 55.1964C43.8489 55.1963 44.0502 55.1248 44.2115 54.994C44.3728 54.8632 44.4843 54.681 44.5272 54.4778C44.5702 54.2746 44.5421 54.0629 44.4477 53.8779C44.3532 53.693 44.1981 53.5461 44.0083 53.4619L40.8292 52.0536C40.7199 52.002 40.6014 51.9727 40.4807 51.9676C40.3599 51.9625 40.2394 51.9816 40.1261 52.0237C40.0129 52.0659 39.9092 52.1302 39.8212 52.213C39.7332 52.2958 39.6626 52.3954 39.6137 52.5059C39.5647 52.6164 39.5383 52.7356 39.5361 52.8564C39.5339 52.9772 39.5559 53.0973 39.6007 53.2095C39.6456 53.3217 39.7124 53.4238 39.7973 53.5098C39.8822 53.5958 39.9835 53.6639 40.0951 53.7102L43.2751 55.1221C43.3907 55.1721 43.5154 55.1974 43.6413 55.1964Z" fill="#212121"/>
<path d="M39.485 55.9378C39.6657 55.9377 39.8421 55.8837 39.9918 55.7826C40.1415 55.6815 40.2576 55.538 40.3251 55.3705L47.1655 38.4001C47.2112 38.2869 47.2336 38.1657 47.2313 38.0436C47.229 37.9216 47.2021 37.8013 47.1522 37.6899C47.1022 37.5785 47.0303 37.4784 46.9407 37.3955C46.8511 37.3126 46.7457 37.2486 46.6308 37.2074L39.321 34.592C39.0999 34.5129 38.8567 34.5227 38.6426 34.6194C38.4286 34.7161 38.2605 34.8922 38.1737 35.1104L31.4674 51.9431C31.4236 52.0544 31.4022 52.1732 31.4044 52.2928C31.4067 52.4124 31.4327 52.5304 31.4808 52.6399C31.5289 52.7494 31.5982 52.8484 31.6847 52.931C31.7713 53.0136 31.8733 53.0782 31.9849 53.1212L39.1606 55.8744C39.2639 55.9152 39.3739 55.9367 39.485 55.9378ZM45.1346 38.5958L38.9802 53.8634L33.4938 51.7609L39.534 36.593L45.1346 38.5958ZM49.6368 61.8429C50.3839 61.8653 51.1135 61.6143 51.6886 61.137C52.9021 60.0585 56.0214 56.941 56.1537 56.8087C56.3188 56.6378 56.4101 56.4089 56.408 56.1713C56.406 55.9337 56.3107 55.7064 56.1426 55.5383C55.9746 55.3703 55.7473 55.275 55.5097 55.2729C55.2721 55.2709 55.0432 55.3622 54.8722 55.5273C54.8405 55.559 51.6578 58.7399 50.4851 59.7867C50.242 59.9348 49.9668 60.022 49.6828 60.0409C49.3988 60.0598 49.1144 60.0099 48.8538 59.8954C48.4283 59.7503 48.0508 59.491 47.7625 59.146C47.4742 58.801 47.2862 58.3834 47.219 57.9388C47.1987 57.8215 47.1556 57.7094 47.092 57.6088C47.0285 57.5082 46.9457 57.421 46.8484 57.3524C46.7512 57.2838 46.6414 57.235 46.5253 57.2088C46.4092 57.1826 46.2891 57.1795 46.1718 57.1998C46.0545 57.22 45.9424 57.2631 45.8417 57.3267C45.7411 57.3903 45.654 57.4731 45.5854 57.5703C45.5168 57.6675 45.468 57.7773 45.4418 57.8934C45.4156 58.0095 45.4125 58.1297 45.4327 58.2469C45.5559 59.0083 45.883 59.722 46.3793 60.3124C46.8755 60.9028 47.5224 61.3478 48.2512 61.6001C48.6962 61.758 49.1646 61.8401 49.6368 61.8429Z" fill="#212121"/>
<path d="M53.8556 64.0388C54.6011 64.0706 55.3296 63.8106 55.8865 63.3138L59.1055 60.0948L57.8231 58.8125L54.6041 62.0315C54.4049 62.1434 54.1845 62.2121 53.957 62.2334C53.7296 62.2546 53.5002 62.2278 53.2837 62.1547C52.868 62.0527 52.4873 61.8408 52.1816 61.5412C51.8758 61.2417 51.6561 60.8654 51.5455 60.4519C51.512 60.3365 51.4559 60.229 51.3805 60.1355C51.305 60.042 51.2117 59.9645 51.106 59.9074C51.0003 59.8503 50.8843 59.8148 50.7648 59.8029C50.6453 59.791 50.5246 59.8031 50.4097 59.8383C50.2948 59.8735 50.1881 59.9312 50.0958 60.008C50.0034 60.0848 49.9272 60.1792 49.8717 60.2857C49.8162 60.3922 49.7823 60.5087 49.7722 60.6284C49.7621 60.7481 49.7759 60.8686 49.8128 60.983C50.0649 61.8612 50.5952 62.6339 51.3241 63.185C52.0529 63.736 52.9418 64.0357 53.8556 64.0388Z" fill="#212121"/>
<path d="M57.3079 66.4612C58.0488 66.477 58.7733 66.2423 59.3642 65.7951C60.1806 65.1415 61.0007 64.4926 61.8247 63.8485C61.9204 63.7759 62.0008 63.6851 62.0611 63.5812C62.1214 63.4773 62.1605 63.3624 62.176 63.2433C62.1915 63.1242 62.1832 63.0032 62.1515 62.8873C62.1199 62.7714 62.0655 62.663 61.9915 62.5683C61.9176 62.4736 61.8256 62.3946 61.7208 62.3358C61.616 62.277 61.5006 62.2397 61.3813 62.2259C61.262 62.2121 61.1411 62.2222 61.0257 62.2556C60.9103 62.2889 60.8026 62.3449 60.7091 62.4202C60.7091 62.4202 59.5772 63.3038 58.2314 64.3805C57.9447 64.5511 57.6185 64.6444 57.285 64.6512C56.9514 64.6581 56.6217 64.5782 56.3282 64.4194C56.0659 64.3066 55.8438 64.1169 55.6914 63.8754C55.539 63.6338 55.4634 63.3518 55.4746 63.0664C55.4819 62.8262 55.3935 62.5929 55.2288 62.4178C55.0641 62.2428 54.8366 62.1403 54.5964 62.133C54.3569 62.1287 54.1252 62.2183 53.9508 62.3825C53.7764 62.5468 53.6731 62.7727 53.663 63.012C53.6416 63.6433 53.8061 64.2669 54.1361 64.8055C54.466 65.3441 54.9469 65.7739 55.519 66.0416C56.0752 66.3169 56.6873 66.4605 57.3079 66.4612Z" fill="#212121"/>
<path d="M64.1004 66.0402C64.3949 66.0391 64.6865 65.9806 64.9586 65.868C65.6976 65.5054 66.3068 64.9237 66.7031 64.2023C67.3463 64.3271 68.0128 64.2269 68.5909 63.9186C69.0758 63.6008 69.4926 63.1897 69.8172 62.7093C70.1417 62.2288 70.3675 61.6886 70.4813 61.1201C70.5291 60.8887 70.4845 60.6477 70.3571 60.4486C69.6204 59.2995 68.5093 57.5133 68.3435 57.1408C68.1942 56.8436 67.9825 56.5823 67.7229 56.3745C67.4632 56.1668 67.1617 56.0177 66.8391 55.9373C66.4002 55.8223 65.9411 55.8069 65.4955 55.8922C65.0498 55.9775 64.6289 56.1613 64.2635 56.4303C63.8586 56.6984 63.5334 57.0706 63.3222 57.508C63.1111 57.9453 63.0217 58.4314 63.0636 58.9152C62.6326 58.9338 62.2105 59.0446 61.8259 59.2402C61.4413 59.4358 61.1032 59.7116 60.8343 60.049C60.5731 60.4572 60.4063 60.9185 60.3463 61.3994C60.2862 61.8803 60.3344 62.3685 60.4872 62.8284C60.9625 64.1551 61.9384 65.2429 63.2059 65.8589C63.4889 65.9786 63.7931 66.0402 64.1004 66.0402ZM65.177 63.2118C64.8925 63.693 64.384 64.3836 63.9083 64.1851C63.1183 63.7737 62.5102 63.0825 62.2027 62.2466C62.1422 62.0616 62.119 61.8665 62.1346 61.6725C62.1502 61.4785 62.2041 61.2895 62.2933 61.1165C62.4312 60.9815 62.5949 60.8756 62.7745 60.8053C62.9542 60.7349 63.1462 60.7014 63.3391 60.7069L65.177 63.2118ZM68.6126 61.0821C68.4684 61.5856 68.1559 62.0245 67.7272 62.3255C67.5934 62.3941 67.4469 62.4346 67.2968 62.4445C67.1467 62.4543 66.9961 62.4332 66.8545 62.3826L64.9196 59.0657C64.8427 58.8607 64.8378 58.6357 64.9056 58.4275C64.9735 58.2194 65.1101 58.0405 65.293 57.9202C65.4322 57.8105 65.5928 57.7311 65.7645 57.6873C65.9362 57.6434 66.1152 57.636 66.2899 57.6655C66.4442 57.691 66.585 57.7687 66.6886 57.8857C66.9279 58.4159 68.0788 60.2429 68.6126 61.0821Z" fill="#212121"/>
<path d="M71.0268 62.4974C71.2415 62.498 71.4552 62.4675 71.6611 62.4067C73.2135 61.94 73.8216 59.93 73.886 59.7025C73.9185 59.5871 73.9278 59.4664 73.9133 59.3474C73.8988 59.2284 73.8609 59.1134 73.8017 59.0092C73.0314 57.6712 72.1794 56.3819 71.2506 55.1486C70.7843 54.542 70.1087 54.1309 69.3556 53.9957C68.6026 53.8605 67.8261 54.0108 67.1779 54.4172C66.3224 55.0108 65.6953 56.3022 66.7447 57.9897C66.8075 58.0908 66.8896 58.1786 66.9863 58.2481C67.083 58.3175 67.1925 58.3672 67.3084 58.3944C67.4243 58.4215 67.5444 58.4255 67.6619 58.4062C67.7794 58.387 67.8919 58.3447 67.9931 58.2819C68.0942 58.2192 68.182 58.1371 68.2515 58.0404C68.3209 57.9437 68.3706 57.8342 68.3978 57.7183C68.4249 57.6024 68.4289 57.4822 68.4097 57.3648C68.3904 57.2473 68.3481 57.1347 68.2853 57.0336C68.0524 56.6575 67.8503 56.1581 68.2119 55.9071C68.4762 55.7628 68.7836 55.7183 69.0779 55.7819C69.3723 55.8454 69.6339 56.0128 69.8151 56.2533C70.6112 57.3112 71.3479 58.4124 72.0218 59.5521C71.8233 60.026 71.4853 60.5689 71.14 60.6713C70.8346 60.7619 70.415 60.4483 70.1876 60.2544C70.0056 60.0972 69.7687 60.0187 69.5289 60.0362C69.2891 60.0537 69.066 60.1658 68.9088 60.3477C68.7517 60.5297 68.6732 60.7666 68.6907 61.0064C68.7082 61.2462 68.8202 61.4693 69.0022 61.6265C69.5471 62.1557 70.2678 62.4658 71.0268 62.4974Z" fill="#212121"/>
<path d="M73.016 60.3597C73.1156 60.3595 73.2145 60.343 73.3087 60.3107C73.4619 60.2591 77.0742 58.9967 77.0742 56.1674C77.0743 56.0723 77.0596 55.9778 77.0307 55.8873C76.7028 54.9849 76.2537 54.1312 75.6958 53.3498C75.2806 52.8537 74.7072 52.5158 74.072 52.393C73.4368 52.2702 72.7788 52.37 72.2086 52.6756C71.6718 52.9134 71.2437 53.3439 71.0088 53.8819C70.774 54.42 70.7493 55.0266 70.9398 55.5819C71.5325 57.4905 72.1406 59.6718 72.1469 59.6945C72.2002 59.885 72.3143 60.0529 72.4718 60.1725C72.6294 60.2921 72.8218 60.3569 73.0197 60.3569L73.016 60.3597ZM75.2545 56.3078C75.1638 57.1561 74.2957 57.8013 73.5997 58.1883C73.3631 57.3618 73.0124 56.1592 72.668 55.0472C72.6364 54.9766 72.6203 54.9 72.6206 54.8226C72.621 54.7452 72.6378 54.6688 72.6701 54.5985C72.7023 54.5281 72.7492 54.4655 72.8076 54.4147C72.8661 54.364 72.9346 54.3262 73.0088 54.3041C73.196 54.1985 73.4104 54.1507 73.6247 54.1668C73.8391 54.183 74.0439 54.2623 74.2132 54.3947C74.6334 54.9898 74.9828 55.6319 75.2545 56.3078Z" fill="#212121"/>
<path d="M75.4243 55.5109C75.6067 55.5107 75.7849 55.4554 75.9354 55.3523L78.3125 53.7211C78.5109 53.5853 78.6473 53.3762 78.6915 53.1399C78.7358 52.9036 78.6844 52.6593 78.5486 52.4609C78.4128 52.2625 78.2037 52.1262 77.9674 52.0819C77.7311 52.0376 77.4869 52.0891 77.2884 52.2249L74.9113 53.8561C74.7512 53.9654 74.6304 54.1231 74.5665 54.3061C74.5026 54.4891 74.4992 54.6878 74.5565 54.873C74.6139 55.0581 74.7292 55.22 74.8854 55.3348C75.0416 55.4497 75.2304 55.5114 75.4243 55.5109Z" fill="#212121"/>
<defs>
<filter id="filter0_dd_995_19160" x="0" y="0.5" width="117" height="117" filterUnits="userSpaceOnUse" color-interpolation-filters="sRGB">
<feFlood flood-opacity="0" result="BackgroundImageFix"/>
<feColorMatrix in="SourceAlpha" type="matrix" values="0 0 0 0 0 0 0 0 0 0 0 0 0 0 0 0 0 0 127 0" result="hardAlpha"/>
<feMorphology radius="4" operator="erode" in="SourceAlpha" result="effect1_dropShadow_995_19160"/>
<feOffset dy="8"/>
<feGaussianBlur stdDeviation="12"/>
<feComposite in2="hardAlpha" operator="out"/>
<feColorMatrix type="matrix" values="0 0 0 0 0 0 0 0 0 0 0 0 0 0 0 0 0 0 0.08 0"/>
<feBlend mode="normal" in2="BackgroundImageFix" result="effect1_dropShadow_995_19160"/>
<feColorMatrix in="SourceAlpha" type="matrix" values="0 0 0 0 0 0 0 0 0 0 0 0 0 0 0 0 0 0 127 0" result="hardAlpha"/>
<feMorphology radius="6" operator="erode" in="SourceAlpha" result="effect2_dropShadow_995_19160"/>
<feOffset dy="6"/>
<feGaussianBlur stdDeviation="6"/>
<feComposite in2="hardAlpha" operator="out"/>
<feColorMatrix type="matrix" values="0 0 0 0 0 0 0 0 0 0 0 0 0 0 0 0 0 0 0.12 0"/>
<feBlend mode="normal" in2="effect1_dropShadow_995_19160" result="effect2_dropShadow_995_19160"/>
<feBlend mode="normal" in="SourceGraphic" in2="effect2_dropShadow_995_19160" result="shape"/>
</filter>
</defs>
</svg>
