<svg width="117" height="117" viewBox="0 0 117 117" fill="none" xmlns="http://www.w3.org/2000/svg">
<g filter="url(#filter0_dd_995_19190)">
<circle cx="38.5" cy="38.5" r="38.5" transform="matrix(-1 0 0 1 97 12)" fill="white"/>
</g>
<path d="M55.9996 56.5271H61.4542C61.6953 56.5271 61.9265 56.4312 62.097 56.2606C62.2675 56.0899 62.3633 55.8585 62.3633 55.6172V50.1579C62.3633 49.9166 62.2675 49.6852 62.097 49.5145C61.9265 49.3439 61.6953 49.248 61.4542 49.248H55.9996C55.7585 49.248 55.5273 49.3439 55.3568 49.5145C55.1863 49.6852 55.0906 49.9166 55.0906 50.1579V55.6172C55.0906 55.8585 55.1863 56.0899 55.3568 56.2606C55.5273 56.4312 55.7585 56.5271 55.9996 56.5271ZM60.5451 54.7073H56.9087V51.0678H60.5451V54.7073Z" fill="#212121"/>
<path d="M43.6364 56.5271H49.0909C49.332 56.5271 49.5632 56.4312 49.7337 56.2606C49.9042 56.0899 50 55.8585 50 55.6172V50.1579C50 49.9166 49.9042 49.6852 49.7337 49.5145C49.5632 49.3439 49.332 49.248 49.0909 49.248H43.6364C43.3953 49.248 43.164 49.3439 42.9935 49.5145C42.8231 49.6852 42.7273 49.9166 42.7273 50.1579V55.6172C42.7273 55.8585 42.8231 56.0899 42.9935 56.2606C43.164 56.4312 43.3953 56.5271 43.6364 56.5271ZM48.1818 54.7073H44.5455V51.0678H48.1818V54.7073Z" fill="#212121"/>
<path d="M43.6364 65.9913H49.0909C49.332 65.9913 49.5632 65.8859 49.7337 65.6982C49.9042 65.5105 50 65.2559 50 64.9904V58.9852C50 58.7198 49.9042 58.4652 49.7337 58.2775C49.5632 58.0898 49.332 57.9844 49.0909 57.9844H43.6364C43.3953 57.9844 43.164 58.0898 42.9935 58.2775C42.8231 58.4652 42.7273 58.7198 42.7273 58.9852V64.9904C42.7273 65.2559 42.8231 65.5105 42.9935 65.6982C43.164 65.8859 43.3953 65.9913 43.6364 65.9913ZM48.1818 63.9896H44.5455V59.9861H48.1818V63.9896Z" fill="#212121"/>
<path d="M55.9996 65.9913H61.4542C61.6953 65.9913 61.9265 65.8859 62.097 65.6982C62.2675 65.5105 62.3633 65.2559 62.3633 64.9904V58.9852C62.3633 58.7198 62.2675 58.4652 62.097 58.2775C61.9265 58.0898 61.6953 57.9844 61.4542 57.9844H55.9996C55.7585 57.9844 55.5273 58.0898 55.3568 58.2775C55.1863 58.4652 55.0906 58.7198 55.0906 58.9852V64.9904C55.0906 65.2559 55.1863 65.5105 55.3568 65.6982C55.5273 65.8859 55.7585 65.9913 55.9996 65.9913ZM60.5451 63.9896H56.9087V59.9861H60.5451V63.9896Z" fill="#212121"/>
<path d="M68.3629 56.5271H73.8175C74.0586 56.5271 74.2898 56.4312 74.4603 56.2606C74.6308 56.0899 74.7266 55.8585 74.7266 55.6172V50.1579C74.7266 49.9166 74.6308 49.6852 74.4603 49.5145C74.2898 49.3439 74.0586 49.248 73.8175 49.248H68.3629C68.1218 49.248 67.8906 49.3439 67.7201 49.5145C67.5496 49.6852 67.4538 49.9166 67.4538 50.1579V55.6172C67.4538 55.8585 67.5496 56.0899 67.7201 56.2606C67.8906 56.4312 68.1218 56.5271 68.3629 56.5271ZM72.9084 54.7073H69.272V51.0678H72.9084V54.7073Z" fill="#212121"/>
<path d="M68.3629 65.9913H73.8175C74.0586 65.9913 74.2898 65.8859 74.4603 65.6982C74.6308 65.5105 74.7266 65.2559 74.7266 64.9904V58.9852C74.7266 58.7198 74.6308 58.4652 74.4603 58.2775C74.2898 58.0898 74.0586 57.9844 73.8175 57.9844H68.3629C68.1218 57.9844 67.8906 58.0898 67.7201 58.2775C67.5496 58.4652 67.4538 58.7198 67.4538 58.9852V64.9904C67.4538 65.2559 67.5496 65.5105 67.7201 65.6982C67.8906 65.8859 68.1218 65.9913 68.3629 65.9913ZM72.9084 63.9896H69.272V59.9861H72.9084V63.9896Z" fill="#212121"/>
<path d="M40.1091 70.3586H77.3455C78.5799 70.3586 79.7638 69.8642 80.6367 68.9841C81.5096 68.1039 82 66.9102 82 65.6656V39.3845C82 38.1398 81.5096 36.9461 80.6367 36.066C79.7638 35.1859 78.5799 34.6914 77.3455 34.6914H73.6218C73.3749 34.6914 73.1381 34.7903 72.9636 34.9663C72.789 35.1423 72.6909 35.3811 72.6909 35.63V37.5072C72.6909 38.0051 72.4948 38.4826 72.1456 38.8346C71.7964 39.1867 71.3229 39.3845 70.8291 39.3845C70.3353 39.3845 69.8617 39.1867 69.5126 38.8346C69.1634 38.4826 68.9673 38.0051 68.9673 37.5072V35.63C68.9673 35.3811 68.8692 35.1423 68.6946 34.9663C68.52 34.7903 68.2833 34.6914 68.0364 34.6914H61.52C61.2731 34.6914 61.0363 34.7903 60.8617 34.9663C60.6872 35.1423 60.5891 35.3811 60.5891 35.63V37.5072C60.5891 38.0051 60.3929 38.4826 60.0438 38.8346C59.6946 39.1867 59.2211 39.3845 58.7273 39.3845C58.2335 39.3845 57.7599 39.1867 57.4108 38.8346C57.0616 38.4826 56.8655 38.0051 56.8655 37.5072V35.63C56.8655 35.3811 56.7674 35.1423 56.5928 34.9663C56.4182 34.7903 56.1814 34.6914 55.9345 34.6914H49.4182C49.1713 34.6914 48.9345 34.7903 48.7599 34.9663C48.5854 35.1423 48.4873 35.3811 48.4873 35.63V37.5072C48.4873 38.0051 48.2911 38.4826 47.942 38.8346C47.5928 39.1867 47.1192 39.3845 46.6255 39.3845C46.1317 39.3845 45.6581 39.1867 45.3089 38.8346C44.9598 38.4826 44.7636 38.0051 44.7636 37.5072V35.63C44.7636 35.3811 44.6656 35.1423 44.491 34.9663C44.3164 34.7903 44.0796 34.6914 43.8327 34.6914H40.1091C38.8746 34.6914 37.6907 35.1859 36.8178 36.066C35.9449 36.9461 35.4545 38.1398 35.4545 39.3845V65.6656C35.4545 66.9102 35.9449 68.1039 36.8178 68.9841C37.6907 69.8642 38.8746 70.3586 40.1091 70.3586ZM77.3455 36.5686C78.0861 36.5686 78.7965 36.8653 79.3202 37.3934C79.8439 37.9214 80.1382 38.6377 80.1382 39.3845V65.6656C80.1382 66.4124 79.8439 67.1286 79.3202 67.6567C78.7965 68.1847 78.0861 68.4814 77.3455 68.4814H40.1091C39.3684 68.4814 38.6581 68.1847 38.1343 67.6567C37.6106 67.1286 37.3164 66.4124 37.3164 65.6656V39.3845C37.3164 38.6377 37.6106 37.9214 38.1343 37.3934C38.6581 36.8653 39.3684 36.5686 40.1091 36.5686H42.9018V37.5072C42.9018 38.503 43.2941 39.4579 43.9924 40.162C44.6908 40.8661 45.6379 41.2617 46.6255 41.2617C47.613 41.2617 48.5601 40.8661 49.2585 40.162C49.9568 39.4579 50.3491 38.503 50.3491 37.5072V36.5686H55.0036V37.5072C55.0036 38.503 55.3959 39.4579 56.0943 40.162C56.7926 40.8661 57.7397 41.2617 58.7273 41.2617C59.7148 41.2617 60.662 40.8661 61.3603 40.162C62.0586 39.4579 62.4509 38.503 62.4509 37.5072V36.5686H67.1055V37.5072C67.1055 38.503 67.4978 39.4579 68.1961 40.162C68.8944 40.8661 69.8415 41.2617 70.8291 41.2617C71.8167 41.2617 72.7638 40.8661 73.4621 40.162C74.1604 39.4579 74.5527 38.503 74.5527 37.5072V36.5686H77.3455Z" fill="#212121"/>
<path d="M36.3855 46.3361H81.0691C81.316 46.3361 81.5528 46.2212 81.7273 46.0166C81.9019 45.812 82 45.5345 82 45.2452C82 44.9559 81.9019 44.6784 81.7273 44.4738C81.5528 44.2692 81.316 44.1543 81.0691 44.1543H36.3855C36.1386 44.1543 35.9018 44.2692 35.7272 44.4738C35.5526 44.6784 35.4545 44.9559 35.4545 45.2452C35.4545 45.5345 35.5526 45.812 35.7272 46.0166C35.9018 46.2212 36.1386 46.3361 36.3855 46.3361Z" fill="#212121"/>
<path d="M58.7269 41.2428C59.6913 41.2428 60.6163 40.8593 61.2982 40.1768C61.9802 39.4942 62.3633 38.5685 62.3633 37.6032V33.9637C62.3633 32.9985 61.9802 32.0727 61.2982 31.3902C60.6163 30.7077 59.6913 30.3242 58.7269 30.3242C57.7625 30.3242 56.8376 30.7077 56.1556 31.3902C55.4737 32.0727 55.0906 32.9985 55.0906 33.9637V37.6032C55.0906 38.5685 55.4737 39.4942 56.1556 40.1768C56.8376 40.8593 57.7625 41.2428 58.7269 41.2428ZM58.7269 32.144C59.2091 32.144 59.6716 32.3357 60.0126 32.677C60.3535 33.0182 60.5451 33.4811 60.5451 33.9637V37.6032C60.5451 38.0859 60.3535 38.5487 60.0126 38.89C59.6716 39.2313 59.2091 39.423 58.7269 39.423C58.2447 39.423 57.7822 39.2313 57.4413 38.89C57.1003 38.5487 56.9087 38.0859 56.9087 37.6032V33.9637C56.9087 33.4811 57.1003 33.0182 57.4413 32.677C57.7822 32.3357 58.2447 32.144 58.7269 32.144Z" fill="#212121"/>
<path d="M46.3636 41.2428C47.3281 41.2428 48.253 40.8593 48.9349 40.1768C49.6169 39.4942 50 38.5685 50 37.6032V33.9637C50 32.9985 49.6169 32.0727 48.9349 31.3902C48.253 30.7077 47.3281 30.3242 46.3636 30.3242C45.3992 30.3242 44.4743 30.7077 43.7923 31.3902C43.1104 32.0727 42.7273 32.9985 42.7273 33.9637V37.6032C42.7273 38.5685 43.1104 39.4942 43.7923 40.1768C44.4743 40.8593 45.3992 41.2428 46.3636 41.2428ZM46.3636 32.144C46.8458 32.144 47.3083 32.3357 47.6493 32.677C47.9903 33.0182 48.1818 33.4811 48.1818 33.9637V37.6032C48.1818 38.0859 47.9903 38.5487 47.6493 38.89C47.3083 39.2313 46.8458 39.423 46.3636 39.423C45.8814 39.423 45.419 39.2313 45.078 38.89C44.737 38.5487 44.5455 38.0859 44.5455 37.6032V33.9637C44.5455 33.4811 44.737 33.0182 45.078 32.677C45.419 32.3357 45.8814 32.144 46.3636 32.144Z" fill="#212121"/>
<path d="M71.0902 41.2428C72.0546 41.2428 72.9795 40.8593 73.6615 40.1768C74.3434 39.4942 74.7266 38.5685 74.7266 37.6032V33.9637C74.7266 32.9985 74.3434 32.0727 73.6615 31.3902C72.9795 30.7077 72.0546 30.3242 71.0902 30.3242C70.1258 30.3242 69.2009 30.7077 68.5189 31.3902C67.837 32.0727 67.4538 32.9985 67.4538 33.9637V37.6032C67.4538 38.5685 67.837 39.4942 68.5189 40.1768C69.2009 40.8593 70.1258 41.2428 71.0902 41.2428ZM71.0902 32.144C71.5724 32.144 72.0349 32.3357 72.3758 32.677C72.7168 33.0182 72.9084 33.4811 72.9084 33.9637V37.6032C72.9084 38.0859 72.7168 38.5487 72.3758 38.89C72.0349 39.2313 71.5724 39.423 71.0902 39.423C70.608 39.423 70.1455 39.2313 69.8046 38.89C69.4636 38.5487 69.272 38.0859 69.272 37.6032V33.9637C69.272 33.4811 69.4636 33.0182 69.8046 32.677C70.1455 32.3357 70.608 32.144 71.0902 32.144Z" fill="#212121"/>
<defs>
<filter id="filter0_dd_995_19190" x="0" y="0" width="117" height="117" filterUnits="userSpaceOnUse" color-interpolation-filters="sRGB">
<feFlood flood-opacity="0" result="BackgroundImageFix"/>
<feColorMatrix in="SourceAlpha" type="matrix" values="0 0 0 0 0 0 0 0 0 0 0 0 0 0 0 0 0 0 127 0" result="hardAlpha"/>
<feMorphology radius="4" operator="erode" in="SourceAlpha" result="effect1_dropShadow_995_19190"/>
<feOffset dy="8"/>
<feGaussianBlur stdDeviation="12"/>
<feComposite in2="hardAlpha" operator="out"/>
<feColorMatrix type="matrix" values="0 0 0 0 0 0 0 0 0 0 0 0 0 0 0 0 0 0 0.08 0"/>
<feBlend mode="normal" in2="BackgroundImageFix" result="effect1_dropShadow_995_19190"/>
<feColorMatrix in="SourceAlpha" type="matrix" values="0 0 0 0 0 0 0 0 0 0 0 0 0 0 0 0 0 0 127 0" result="hardAlpha"/>
<feMorphology radius="6" operator="erode" in="SourceAlpha" result="effect2_dropShadow_995_19190"/>
<feOffset dy="6"/>
<feGaussianBlur stdDeviation="6"/>
<feComposite in2="hardAlpha" operator="out"/>
<feColorMatrix type="matrix" values="0 0 0 0 0 0 0 0 0 0 0 0 0 0 0 0 0 0 0.12 0"/>
<feBlend mode="normal" in2="effect1_dropShadow_995_19190" result="effect2_dropShadow_995_19190"/>
<feBlend mode="normal" in="SourceGraphic" in2="effect2_dropShadow_995_19190" result="shape"/>
</filter>
</defs>
</svg>
