<svg width="117" height="118" viewBox="0 0 117 118" fill="none" xmlns="http://www.w3.org/2000/svg">
<g filter="url(#filter0_dd_995_19178)">
<circle cx="38.5" cy="38.5" r="38.5" transform="matrix(-1 0 0 1 97 12.2031)" fill="white"/>
</g>
<path d="M73.2983 43.1797V43.0297H73.4483H75.1094H75.2594V43.1797V44.0102V44.1602H75.1094H73.4483H73.2983V44.0102V43.1797Z" fill="#212121" stroke="#212121" stroke-width="0.3"/>
<path d="M73.2983 46.5039V46.3539H73.4483H75.1094H75.2594V46.5039V47.3344V47.4844H75.1094H73.4483H73.2983V47.3344V46.5039Z" fill="#212121" stroke="#212121" stroke-width="0.3"/>
<mask id="path-4-outside-1_995_19178" maskUnits="userSpaceOnUse" x="33.4414" y="24.8965" width="19" height="51" fill="black">
<rect fill="white" x="33.4414" y="24.8965" width="19" height="51"/>
<path d="M34.0127 43.4936L34.3911 41.9786C34.7059 40.7185 35.6765 39.7141 36.9243 39.3574L40.6445 38.2934V36.3702L39.9396 36.0174C39.3624 35.7286 38.9588 35.1996 38.8322 34.5661L38.1633 31.2184L37.3348 27.9015C37.3076 27.7927 37.3256 27.6777 37.3845 27.5823C37.4434 27.4869 37.5383 27.4193 37.6476 27.3951L44.0746 25.9657C44.8503 25.793 45.6748 25.9472 46.3359 26.3884C47.4324 27.1201 47.9072 28.505 47.4905 29.7563L47.2777 30.3953L46.5916 34.5153C46.4828 35.1688 46.0643 35.736 45.4722 36.0324L44.7972 36.3702V38.2934L48.5174 39.3574C49.7652 39.7141 50.7358 40.7185 51.0506 41.9786L51.429 43.4937C51.4597 43.6168 51.4326 43.7473 51.3553 43.8478L48.9498 46.9777V74.3506C48.9498 74.5801 48.7639 74.7662 48.5345 74.7662H36.9072C36.6778 74.7662 36.4919 74.5801 36.4919 74.3506V46.9777L34.0864 43.8478C34.0091 43.7473 33.982 43.6168 34.0127 43.4936ZM45.8752 27.08C45.4012 26.7638 44.8106 26.6534 44.2548 26.777L38.244 28.1139L38.884 30.6764L46.5646 29.9077L46.7026 29.4935C47.0012 28.5968 46.661 27.6043 45.8752 27.08ZM45.7725 34.3786L46.3747 30.7622L39.0652 31.4937L39.6465 34.403C39.7226 34.7832 39.9648 35.1006 40.3111 35.2739L42.7209 36.4798L45.1007 35.2888C45.4561 35.111 45.7071 34.7708 45.7725 34.3786ZM42.9066 37.3163C42.8481 37.3455 42.7845 37.3601 42.7209 37.3601C42.6572 37.3601 42.5936 37.3455 42.5351 37.3163L41.4751 36.7858V38.519C41.7421 39.1048 42.2875 39.317 42.7209 39.317C43.1542 39.317 43.6997 39.1048 43.9666 38.519V36.7858L42.9066 37.3163ZM43.2344 48.478L44.6599 50.4399C44.7606 50.5784 44.8409 50.7255 44.9052 50.8769L47.9086 46.9691L45.5935 45.2313L43.2344 48.478ZM39.8482 45.2313L37.5331 46.9691L41.8226 52.5503C42.0598 52.8589 42.4185 53.0504 42.8068 53.0757C43.1954 53.1002 43.5756 52.9575 43.8508 52.6821C44.3242 52.2082 44.382 51.4708 43.9881 50.9288L39.8482 45.2313ZM48.1193 73.935C48.1193 72.56 47.0015 71.4413 45.6277 71.4413C44.2539 71.4413 43.1361 72.56 43.1361 73.935H48.1193ZM42.3056 73.935C42.3056 72.56 41.1878 71.4413 39.814 71.4413C38.4402 71.4413 37.3224 72.56 37.3224 73.935H42.3056ZM39.814 70.61C40.8055 70.61 41.6964 71.0476 42.3056 71.7393V57.7257H43.1361V71.7393C43.7453 71.0476 44.6362 70.61 45.6277 70.61C46.6192 70.61 47.5101 71.0476 48.1193 71.7393V54.8163H37.3224V71.7393C37.9316 71.0476 38.8225 70.61 39.814 70.61ZM37.3224 53.9851H48.1193V48.0584L45.0557 52.0445C44.9891 52.494 44.7823 52.9251 44.438 53.2698C44.0274 53.6808 43.4715 53.9098 42.8945 53.9098C42.8475 53.9098 42.8002 53.9082 42.753 53.9051C42.1262 53.8644 41.5472 53.5553 41.1642 53.057L37.3224 48.0583V53.9851ZM37.0267 46.3102L39.3596 44.5589L38.2323 43.0077L38.9041 42.5188L42.7209 47.7714L46.5376 42.5188L47.2094 43.0077L46.0821 44.5589L48.415 46.3102L50.5746 43.5003L50.2448 42.1802C50.0019 41.2075 49.2525 40.432 48.2893 40.1565L44.5975 39.1008C44.2021 39.7547 43.5123 40.1482 42.7209 40.1482C41.9294 40.1482 41.2396 39.7547 40.8442 39.1008L37.1524 40.1565C36.1892 40.432 35.4398 41.2075 35.1969 42.1802L34.8671 43.5003L37.0267 46.3102Z"/>
</mask>
<path d="M34.0127 43.4936L34.3911 41.9786C34.7059 40.7185 35.6765 39.7141 36.9243 39.3574L40.6445 38.2934V36.3702L39.9396 36.0174C39.3624 35.7286 38.9588 35.1996 38.8322 34.5661L38.1633 31.2184L37.3348 27.9015C37.3076 27.7927 37.3256 27.6777 37.3845 27.5823C37.4434 27.4869 37.5383 27.4193 37.6476 27.3951L44.0746 25.9657C44.8503 25.793 45.6748 25.9472 46.3359 26.3884C47.4324 27.1201 47.9072 28.505 47.4905 29.7563L47.2777 30.3953L46.5916 34.5153C46.4828 35.1688 46.0643 35.736 45.4722 36.0324L44.7972 36.3702V38.2934L48.5174 39.3574C49.7652 39.7141 50.7358 40.7185 51.0506 41.9786L51.429 43.4937C51.4597 43.6168 51.4326 43.7473 51.3553 43.8478L48.9498 46.9777V74.3506C48.9498 74.5801 48.7639 74.7662 48.5345 74.7662H36.9072C36.6778 74.7662 36.4919 74.5801 36.4919 74.3506V46.9777L34.0864 43.8478C34.0091 43.7473 33.982 43.6168 34.0127 43.4936ZM45.8752 27.08C45.4012 26.7638 44.8106 26.6534 44.2548 26.777L38.244 28.1139L38.884 30.6764L46.5646 29.9077L46.7026 29.4935C47.0012 28.5968 46.661 27.6043 45.8752 27.08ZM45.7725 34.3786L46.3747 30.7622L39.0652 31.4937L39.6465 34.403C39.7226 34.7832 39.9648 35.1006 40.3111 35.2739L42.7209 36.4798L45.1007 35.2888C45.4561 35.111 45.7071 34.7708 45.7725 34.3786ZM42.9066 37.3163C42.8481 37.3455 42.7845 37.3601 42.7209 37.3601C42.6572 37.3601 42.5936 37.3455 42.5351 37.3163L41.4751 36.7858V38.519C41.7421 39.1048 42.2875 39.317 42.7209 39.317C43.1542 39.317 43.6997 39.1048 43.9666 38.519V36.7858L42.9066 37.3163ZM43.2344 48.478L44.6599 50.4399C44.7606 50.5784 44.8409 50.7255 44.9052 50.8769L47.9086 46.9691L45.5935 45.2313L43.2344 48.478ZM39.8482 45.2313L37.5331 46.9691L41.8226 52.5503C42.0598 52.8589 42.4185 53.0504 42.8068 53.0757C43.1954 53.1002 43.5756 52.9575 43.8508 52.6821C44.3242 52.2082 44.382 51.4708 43.9881 50.9288L39.8482 45.2313ZM48.1193 73.935C48.1193 72.56 47.0015 71.4413 45.6277 71.4413C44.2539 71.4413 43.1361 72.56 43.1361 73.935H48.1193ZM42.3056 73.935C42.3056 72.56 41.1878 71.4413 39.814 71.4413C38.4402 71.4413 37.3224 72.56 37.3224 73.935H42.3056ZM39.814 70.61C40.8055 70.61 41.6964 71.0476 42.3056 71.7393V57.7257H43.1361V71.7393C43.7453 71.0476 44.6362 70.61 45.6277 70.61C46.6192 70.61 47.5101 71.0476 48.1193 71.7393V54.8163H37.3224V71.7393C37.9316 71.0476 38.8225 70.61 39.814 70.61ZM37.3224 53.9851H48.1193V48.0584L45.0557 52.0445C44.9891 52.494 44.7823 52.9251 44.438 53.2698C44.0274 53.6808 43.4715 53.9098 42.8945 53.9098C42.8475 53.9098 42.8002 53.9082 42.753 53.9051C42.1262 53.8644 41.5472 53.5553 41.1642 53.057L37.3224 48.0583V53.9851ZM37.0267 46.3102L39.3596 44.5589L38.2323 43.0077L38.9041 42.5188L42.7209 47.7714L46.5376 42.5188L47.2094 43.0077L46.0821 44.5589L48.415 46.3102L50.5746 43.5003L50.2448 42.1802C50.0019 41.2075 49.2525 40.432 48.2893 40.1565L44.5975 39.1008C44.2021 39.7547 43.5123 40.1482 42.7209 40.1482C41.9294 40.1482 41.2396 39.7547 40.8442 39.1008L37.1524 40.1565C36.1892 40.432 35.4398 41.2075 35.1969 42.1802L34.8671 43.5003L37.0267 46.3102Z" fill="#212121"/>
<path d="M34.0127 43.4936L34.3911 41.9786C34.7059 40.7185 35.6765 39.7141 36.9243 39.3574L40.6445 38.2934V36.3702L39.9396 36.0174C39.3624 35.7286 38.9588 35.1996 38.8322 34.5661L38.1633 31.2184L37.3348 27.9015C37.3076 27.7927 37.3256 27.6777 37.3845 27.5823C37.4434 27.4869 37.5383 27.4193 37.6476 27.3951L44.0746 25.9657C44.8503 25.793 45.6748 25.9472 46.3359 26.3884C47.4324 27.1201 47.9072 28.505 47.4905 29.7563L47.2777 30.3953L46.5916 34.5153C46.4828 35.1688 46.0643 35.736 45.4722 36.0324L44.7972 36.3702V38.2934L48.5174 39.3574C49.7652 39.7141 50.7358 40.7185 51.0506 41.9786L51.429 43.4937C51.4597 43.6168 51.4326 43.7473 51.3553 43.8478L48.9498 46.9777V74.3506C48.9498 74.5801 48.7639 74.7662 48.5345 74.7662H36.9072C36.6778 74.7662 36.4919 74.5801 36.4919 74.3506V46.9777L34.0864 43.8478C34.0091 43.7473 33.982 43.6168 34.0127 43.4936ZM45.8752 27.08C45.4012 26.7638 44.8106 26.6534 44.2548 26.777L38.244 28.1139L38.884 30.6764L46.5646 29.9077L46.7026 29.4935C47.0012 28.5968 46.661 27.6043 45.8752 27.08ZM45.7725 34.3786L46.3747 30.7622L39.0652 31.4937L39.6465 34.403C39.7226 34.7832 39.9648 35.1006 40.3111 35.2739L42.7209 36.4798L45.1007 35.2888C45.4561 35.111 45.7071 34.7708 45.7725 34.3786ZM42.9066 37.3163C42.8481 37.3455 42.7845 37.3601 42.7209 37.3601C42.6572 37.3601 42.5936 37.3455 42.5351 37.3163L41.4751 36.7858V38.519C41.7421 39.1048 42.2875 39.317 42.7209 39.317C43.1542 39.317 43.6997 39.1048 43.9666 38.519V36.7858L42.9066 37.3163ZM43.2344 48.478L44.6599 50.4399C44.7606 50.5784 44.8409 50.7255 44.9052 50.8769L47.9086 46.9691L45.5935 45.2313L43.2344 48.478ZM39.8482 45.2313L37.5331 46.9691L41.8226 52.5503C42.0598 52.8589 42.4185 53.0504 42.8068 53.0757C43.1954 53.1002 43.5756 52.9575 43.8508 52.6821C44.3242 52.2082 44.382 51.4708 43.9881 50.9288L39.8482 45.2313ZM48.1193 73.935C48.1193 72.56 47.0015 71.4413 45.6277 71.4413C44.2539 71.4413 43.1361 72.56 43.1361 73.935H48.1193ZM42.3056 73.935C42.3056 72.56 41.1878 71.4413 39.814 71.4413C38.4402 71.4413 37.3224 72.56 37.3224 73.935H42.3056ZM39.814 70.61C40.8055 70.61 41.6964 71.0476 42.3056 71.7393V57.7257H43.1361V71.7393C43.7453 71.0476 44.6362 70.61 45.6277 70.61C46.6192 70.61 47.5101 71.0476 48.1193 71.7393V54.8163H37.3224V71.7393C37.9316 71.0476 38.8225 70.61 39.814 70.61ZM37.3224 53.9851H48.1193V48.0584L45.0557 52.0445C44.9891 52.494 44.7823 52.9251 44.438 53.2698C44.0274 53.6808 43.4715 53.9098 42.8945 53.9098C42.8475 53.9098 42.8002 53.9082 42.753 53.9051C42.1262 53.8644 41.5472 53.5553 41.1642 53.057L37.3224 48.0583V53.9851ZM37.0267 46.3102L39.3596 44.5589L38.2323 43.0077L38.9041 42.5188L42.7209 47.7714L46.5376 42.5188L47.2094 43.0077L46.0821 44.5589L48.415 46.3102L50.5746 43.5003L50.2448 42.1802C50.0019 41.2075 49.2525 40.432 48.2893 40.1565L44.5975 39.1008C44.2021 39.7547 43.5123 40.1482 42.7209 40.1482C41.9294 40.1482 41.2396 39.7547 40.8442 39.1008L37.1524 40.1565C36.1892 40.432 35.4398 41.2075 35.1969 42.1802L34.8671 43.5003L37.0267 46.3102Z" stroke="#212121" stroke-width="0.6" mask="url(#path-4-outside-1_995_19178)"/>
<mask id="path-5-outside-2_995_19178" maskUnits="userSpaceOnUse" x="50.5586" y="24.7227" width="16" height="51" fill="black">
<rect fill="white" x="50.5586" y="24.7227" width="16" height="51"/>
<path d="M51.8371 42.3957C52.0328 41.4162 52.5352 40.5496 53.2517 39.9021L53.098 39.5117C52.0137 36.7986 51.8583 33.757 52.6605 30.9474L53.1012 29.4034C53.1332 27.3683 54.7972 25.7227 56.838 25.7227H59.6306C61.1277 25.7227 62.4761 26.6126 63.0658 27.9897C64.1658 30.5584 64.4271 33.3583 63.8212 36.0868L63.0842 39.4047C64.1528 40.0641 64.9097 41.1371 65.1611 42.3957L65.5505 44.3442C65.5716 44.4493 65.5512 44.5584 65.4937 44.6489L63.8975 47.1593V51.8294C64.9764 54.5809 65.0573 57.6356 64.123 60.4412L63.8762 61.1821C63.8197 61.3518 63.661 61.4663 63.4823 61.4663H62.2033L61.407 71.0303C61.9096 71.41 62.2365 72.0108 62.2365 72.6881V74.3506C62.2365 74.5801 62.0505 74.7662 61.8212 74.7662H55.177C54.9477 74.7662 54.7617 74.5801 54.7617 74.3506V72.6881C54.7617 72.0108 55.0886 71.41 55.5912 71.0303L54.7949 61.4663H53.5159C53.3372 61.4663 53.1785 61.3518 53.122 61.1821L52.8752 60.4412C51.9409 57.6356 52.0218 54.5809 53.1007 51.8294V47.1593L51.5045 44.6489C51.447 44.5584 51.4266 44.4493 51.4477 44.3442L51.8371 42.3957ZM62.3024 28.3172C61.8437 27.246 60.795 26.5539 59.6306 26.5539H56.838C55.2352 26.5539 53.9312 27.859 53.9312 29.4633C53.9312 29.5019 53.9258 29.5403 53.9152 29.5774L53.4589 31.1757C52.7072 33.8092 52.8529 36.66 53.87 39.2051L53.942 39.3881C54.1565 39.2579 54.382 39.1426 54.6198 39.0475L56.4228 38.3256V35.9878C55.2431 34.8571 54.4361 33.361 54.1621 31.7158L53.9369 30.3628C53.9069 30.1829 53.9977 30.0044 54.1607 29.9227L57.4828 28.2602C57.61 28.1966 57.7606 28.2025 57.8822 28.2757L62.0348 30.7694C62.1854 30.8597 62.2628 31.0351 62.2284 31.2072L61.9851 32.4246C61.754 33.5817 61.2695 34.6457 60.5754 35.5574V38.3256L62.3181 39.0234L63.0105 35.9064C63.5783 33.3491 63.3334 30.7249 62.3024 28.3172ZM57.2533 38.5489L58.4991 42.9128L59.7449 38.5489V36.4796C59.4323 36.7746 59.0942 37.0469 58.7294 37.2903C58.66 37.3367 58.5797 37.3601 58.4991 37.3601C58.4356 37.3601 58.3721 37.3456 58.3134 37.3163L58.284 37.3016C57.9219 37.1203 57.5778 36.9111 57.2533 36.678V38.5489ZM58.4681 36.4606C59.8736 35.4505 60.8297 33.9684 61.1708 32.2616L61.3567 31.3314L57.6504 29.1058L54.8065 30.529L54.9813 31.5792C55.327 33.6547 56.6239 35.4644 58.4681 36.4606ZM58.0053 50.9039C57.6792 51.3934 57.8118 52.0572 58.3009 52.3836C58.5414 52.5441 58.8293 52.5997 59.1125 52.5397C59.3952 52.4801 59.6365 52.3127 59.7916 52.0686L62.4317 47.9163L60.3433 47.3937L58.0053 50.9039ZM56.6549 47.3937L54.5664 47.9163L57.0181 51.7723C56.9491 51.3063 57.0512 50.8376 57.3142 50.4428L58.0001 49.4132L56.6549 47.3937ZM61.1432 51.4913H63.067V48.4655L61.1432 51.4913ZM61.3699 61.4663H58.9144V71.0296C59.2618 70.7674 59.6924 70.61 60.1602 70.61C60.3128 70.61 60.4611 70.6277 60.6044 70.6591L61.3699 61.4663ZM61.4059 72.6881C61.4059 72.0006 60.8471 71.4413 60.1602 71.4413C59.4732 71.4413 58.9144 72.0006 58.9144 72.6881V73.935H61.4059V72.6881ZM55.5922 73.935H58.0838V72.6881C58.0838 72.0006 57.525 71.4413 56.838 71.4413C56.1511 71.4413 55.5922 72.0006 55.5922 72.6881V73.935ZM56.3938 70.6591C56.5371 70.6277 56.6855 70.61 56.838 70.61C57.3057 70.61 57.7363 70.7674 58.0838 71.0296V61.4663H55.6283L56.3938 70.6591ZM53.6631 60.1784L53.8152 60.635H63.183L63.3351 60.1784C64.1866 57.6214 64.1332 54.8434 63.1945 52.3226H60.6147L60.4924 52.5149C60.2162 52.9492 59.7871 53.2468 59.2839 53.3531C59.152 53.381 59.0193 53.3947 58.8877 53.3947C58.7561 53.3947 58.6257 53.3803 58.498 53.3531C58.3653 53.3813 58.2322 53.3956 58.1005 53.3956C57.4645 53.3956 56.8617 53.0746 56.5058 52.5149L56.3835 52.3226H53.8037C52.8649 54.8434 52.8116 57.6214 53.6631 60.1784ZM53.9312 51.4913H55.855L53.9312 48.4655V51.4913ZM54.0964 47.177L56.1657 46.6593L54.8315 44.6563L55.5225 44.1952L58.4991 48.6639L61.4757 44.1952L62.1667 44.6563L60.8325 46.6593L62.9018 47.177L64.7034 44.3434L64.3468 42.5587C64.0982 41.3145 63.2471 40.2904 62.07 39.8193L60.433 39.1639L58.8983 44.5399C58.8474 44.7184 58.6845 44.8413 58.4991 44.8413C58.3137 44.8413 58.1507 44.7184 58.0998 44.5399L56.5652 39.1639L54.9282 39.8193C53.7511 40.2904 52.9 41.3145 52.6514 42.5587L52.2948 44.3435L54.0964 47.177Z"/>
</mask>
<path d="M51.8371 42.3957C52.0328 41.4162 52.5352 40.5496 53.2517 39.9021L53.098 39.5117C52.0137 36.7986 51.8583 33.757 52.6605 30.9474L53.1012 29.4034C53.1332 27.3683 54.7972 25.7227 56.838 25.7227H59.6306C61.1277 25.7227 62.4761 26.6126 63.0658 27.9897C64.1658 30.5584 64.4271 33.3583 63.8212 36.0868L63.0842 39.4047C64.1528 40.0641 64.9097 41.1371 65.1611 42.3957L65.5505 44.3442C65.5716 44.4493 65.5512 44.5584 65.4937 44.6489L63.8975 47.1593V51.8294C64.9764 54.5809 65.0573 57.6356 64.123 60.4412L63.8762 61.1821C63.8197 61.3518 63.661 61.4663 63.4823 61.4663H62.2033L61.407 71.0303C61.9096 71.41 62.2365 72.0108 62.2365 72.6881V74.3506C62.2365 74.5801 62.0505 74.7662 61.8212 74.7662H55.177C54.9477 74.7662 54.7617 74.5801 54.7617 74.3506V72.6881C54.7617 72.0108 55.0886 71.41 55.5912 71.0303L54.7949 61.4663H53.5159C53.3372 61.4663 53.1785 61.3518 53.122 61.1821L52.8752 60.4412C51.9409 57.6356 52.0218 54.5809 53.1007 51.8294V47.1593L51.5045 44.6489C51.447 44.5584 51.4266 44.4493 51.4477 44.3442L51.8371 42.3957ZM62.3024 28.3172C61.8437 27.246 60.795 26.5539 59.6306 26.5539H56.838C55.2352 26.5539 53.9312 27.859 53.9312 29.4633C53.9312 29.5019 53.9258 29.5403 53.9152 29.5774L53.4589 31.1757C52.7072 33.8092 52.8529 36.66 53.87 39.2051L53.942 39.3881C54.1565 39.2579 54.382 39.1426 54.6198 39.0475L56.4228 38.3256V35.9878C55.2431 34.8571 54.4361 33.361 54.1621 31.7158L53.9369 30.3628C53.9069 30.1829 53.9977 30.0044 54.1607 29.9227L57.4828 28.2602C57.61 28.1966 57.7606 28.2025 57.8822 28.2757L62.0348 30.7694C62.1854 30.8597 62.2628 31.0351 62.2284 31.2072L61.9851 32.4246C61.754 33.5817 61.2695 34.6457 60.5754 35.5574V38.3256L62.3181 39.0234L63.0105 35.9064C63.5783 33.3491 63.3334 30.7249 62.3024 28.3172ZM57.2533 38.5489L58.4991 42.9128L59.7449 38.5489V36.4796C59.4323 36.7746 59.0942 37.0469 58.7294 37.2903C58.66 37.3367 58.5797 37.3601 58.4991 37.3601C58.4356 37.3601 58.3721 37.3456 58.3134 37.3163L58.284 37.3016C57.9219 37.1203 57.5778 36.9111 57.2533 36.678V38.5489ZM58.4681 36.4606C59.8736 35.4505 60.8297 33.9684 61.1708 32.2616L61.3567 31.3314L57.6504 29.1058L54.8065 30.529L54.9813 31.5792C55.327 33.6547 56.6239 35.4644 58.4681 36.4606ZM58.0053 50.9039C57.6792 51.3934 57.8118 52.0572 58.3009 52.3836C58.5414 52.5441 58.8293 52.5997 59.1125 52.5397C59.3952 52.4801 59.6365 52.3127 59.7916 52.0686L62.4317 47.9163L60.3433 47.3937L58.0053 50.9039ZM56.6549 47.3937L54.5664 47.9163L57.0181 51.7723C56.9491 51.3063 57.0512 50.8376 57.3142 50.4428L58.0001 49.4132L56.6549 47.3937ZM61.1432 51.4913H63.067V48.4655L61.1432 51.4913ZM61.3699 61.4663H58.9144V71.0296C59.2618 70.7674 59.6924 70.61 60.1602 70.61C60.3128 70.61 60.4611 70.6277 60.6044 70.6591L61.3699 61.4663ZM61.4059 72.6881C61.4059 72.0006 60.8471 71.4413 60.1602 71.4413C59.4732 71.4413 58.9144 72.0006 58.9144 72.6881V73.935H61.4059V72.6881ZM55.5922 73.935H58.0838V72.6881C58.0838 72.0006 57.525 71.4413 56.838 71.4413C56.1511 71.4413 55.5922 72.0006 55.5922 72.6881V73.935ZM56.3938 70.6591C56.5371 70.6277 56.6855 70.61 56.838 70.61C57.3057 70.61 57.7363 70.7674 58.0838 71.0296V61.4663H55.6283L56.3938 70.6591ZM53.6631 60.1784L53.8152 60.635H63.183L63.3351 60.1784C64.1866 57.6214 64.1332 54.8434 63.1945 52.3226H60.6147L60.4924 52.5149C60.2162 52.9492 59.7871 53.2468 59.2839 53.3531C59.152 53.381 59.0193 53.3947 58.8877 53.3947C58.7561 53.3947 58.6257 53.3803 58.498 53.3531C58.3653 53.3813 58.2322 53.3956 58.1005 53.3956C57.4645 53.3956 56.8617 53.0746 56.5058 52.5149L56.3835 52.3226H53.8037C52.8649 54.8434 52.8116 57.6214 53.6631 60.1784ZM53.9312 51.4913H55.855L53.9312 48.4655V51.4913ZM54.0964 47.177L56.1657 46.6593L54.8315 44.6563L55.5225 44.1952L58.4991 48.6639L61.4757 44.1952L62.1667 44.6563L60.8325 46.6593L62.9018 47.177L64.7034 44.3434L64.3468 42.5587C64.0982 41.3145 63.2471 40.2904 62.07 39.8193L60.433 39.1639L58.8983 44.5399C58.8474 44.7184 58.6845 44.8413 58.4991 44.8413C58.3137 44.8413 58.1507 44.7184 58.0998 44.5399L56.5652 39.1639L54.9282 39.8193C53.7511 40.2904 52.9 41.3145 52.6514 42.5587L52.2948 44.3435L54.0964 47.177Z" fill="#212121"/>
<path d="M51.8371 42.3957C52.0328 41.4162 52.5352 40.5496 53.2517 39.9021L53.098 39.5117C52.0137 36.7986 51.8583 33.757 52.6605 30.9474L53.1012 29.4034C53.1332 27.3683 54.7972 25.7227 56.838 25.7227H59.6306C61.1277 25.7227 62.4761 26.6126 63.0658 27.9897C64.1658 30.5584 64.4271 33.3583 63.8212 36.0868L63.0842 39.4047C64.1528 40.0641 64.9097 41.1371 65.1611 42.3957L65.5505 44.3442C65.5716 44.4493 65.5512 44.5584 65.4937 44.6489L63.8975 47.1593V51.8294C64.9764 54.5809 65.0573 57.6356 64.123 60.4412L63.8762 61.1821C63.8197 61.3518 63.661 61.4663 63.4823 61.4663H62.2033L61.407 71.0303C61.9096 71.41 62.2365 72.0108 62.2365 72.6881V74.3506C62.2365 74.5801 62.0505 74.7662 61.8212 74.7662H55.177C54.9477 74.7662 54.7617 74.5801 54.7617 74.3506V72.6881C54.7617 72.0108 55.0886 71.41 55.5912 71.0303L54.7949 61.4663H53.5159C53.3372 61.4663 53.1785 61.3518 53.122 61.1821L52.8752 60.4412C51.9409 57.6356 52.0218 54.5809 53.1007 51.8294V47.1593L51.5045 44.6489C51.447 44.5584 51.4266 44.4493 51.4477 44.3442L51.8371 42.3957ZM62.3024 28.3172C61.8437 27.246 60.795 26.5539 59.6306 26.5539H56.838C55.2352 26.5539 53.9312 27.859 53.9312 29.4633C53.9312 29.5019 53.9258 29.5403 53.9152 29.5774L53.4589 31.1757C52.7072 33.8092 52.8529 36.66 53.87 39.2051L53.942 39.3881C54.1565 39.2579 54.382 39.1426 54.6198 39.0475L56.4228 38.3256V35.9878C55.2431 34.8571 54.4361 33.361 54.1621 31.7158L53.9369 30.3628C53.9069 30.1829 53.9977 30.0044 54.1607 29.9227L57.4828 28.2602C57.61 28.1966 57.7606 28.2025 57.8822 28.2757L62.0348 30.7694C62.1854 30.8597 62.2628 31.0351 62.2284 31.2072L61.9851 32.4246C61.754 33.5817 61.2695 34.6457 60.5754 35.5574V38.3256L62.3181 39.0234L63.0105 35.9064C63.5783 33.3491 63.3334 30.7249 62.3024 28.3172ZM57.2533 38.5489L58.4991 42.9128L59.7449 38.5489V36.4796C59.4323 36.7746 59.0942 37.0469 58.7294 37.2903C58.66 37.3367 58.5797 37.3601 58.4991 37.3601C58.4356 37.3601 58.3721 37.3456 58.3134 37.3163L58.284 37.3016C57.9219 37.1203 57.5778 36.9111 57.2533 36.678V38.5489ZM58.4681 36.4606C59.8736 35.4505 60.8297 33.9684 61.1708 32.2616L61.3567 31.3314L57.6504 29.1058L54.8065 30.529L54.9813 31.5792C55.327 33.6547 56.6239 35.4644 58.4681 36.4606ZM58.0053 50.9039C57.6792 51.3934 57.8118 52.0572 58.3009 52.3836C58.5414 52.5441 58.8293 52.5997 59.1125 52.5397C59.3952 52.4801 59.6365 52.3127 59.7916 52.0686L62.4317 47.9163L60.3433 47.3937L58.0053 50.9039ZM56.6549 47.3937L54.5664 47.9163L57.0181 51.7723C56.9491 51.3063 57.0512 50.8376 57.3142 50.4428L58.0001 49.4132L56.6549 47.3937ZM61.1432 51.4913H63.067V48.4655L61.1432 51.4913ZM61.3699 61.4663H58.9144V71.0296C59.2618 70.7674 59.6924 70.61 60.1602 70.61C60.3128 70.61 60.4611 70.6277 60.6044 70.6591L61.3699 61.4663ZM61.4059 72.6881C61.4059 72.0006 60.8471 71.4413 60.1602 71.4413C59.4732 71.4413 58.9144 72.0006 58.9144 72.6881V73.935H61.4059V72.6881ZM55.5922 73.935H58.0838V72.6881C58.0838 72.0006 57.525 71.4413 56.838 71.4413C56.1511 71.4413 55.5922 72.0006 55.5922 72.6881V73.935ZM56.3938 70.6591C56.5371 70.6277 56.6855 70.61 56.838 70.61C57.3057 70.61 57.7363 70.7674 58.0838 71.0296V61.4663H55.6283L56.3938 70.6591ZM53.6631 60.1784L53.8152 60.635H63.183L63.3351 60.1784C64.1866 57.6214 64.1332 54.8434 63.1945 52.3226H60.6147L60.4924 52.5149C60.2162 52.9492 59.7871 53.2468 59.2839 53.3531C59.152 53.381 59.0193 53.3947 58.8877 53.3947C58.7561 53.3947 58.6257 53.3803 58.498 53.3531C58.3653 53.3813 58.2322 53.3956 58.1005 53.3956C57.4645 53.3956 56.8617 53.0746 56.5058 52.5149L56.3835 52.3226H53.8037C52.8649 54.8434 52.8116 57.6214 53.6631 60.1784ZM53.9312 51.4913H55.855L53.9312 48.4655V51.4913ZM54.0964 47.177L56.1657 46.6593L54.8315 44.6563L55.5225 44.1952L58.4991 48.6639L61.4757 44.1952L62.1667 44.6563L60.8325 46.6593L62.9018 47.177L64.7034 44.3434L64.3468 42.5587C64.0982 41.3145 63.2471 40.2904 62.07 39.8193L60.433 39.1639L58.8983 44.5399C58.8474 44.7184 58.6845 44.8413 58.4991 44.8413C58.3137 44.8413 58.1507 44.7184 58.0998 44.5399L56.5652 39.1639L54.9282 39.8193C53.7511 40.2904 52.9 41.3145 52.6514 42.5587L52.2948 44.3435L54.0964 47.177Z" stroke="#212121" stroke-width="0.6" mask="url(#path-5-outside-2_995_19178)"/>
<mask id="path-6-outside-3_995_19178" maskUnits="userSpaceOnUse" x="65" y="24.7227" width="19" height="51" fill="black">
<rect fill="white" x="65" y="24.7227" width="19" height="51"/>
<path d="M66.102 42.1999C66.3211 41.3232 66.9472 40.5873 67.777 40.2314L72.2031 38.3329V36.5319C70.7216 35.7345 69.8765 34.0964 70.1192 32.396L70.5191 29.5941C69.5119 28.765 68.881 27.5104 68.881 26.1383C68.881 25.9088 69.0669 25.7227 69.2963 25.7227H74.2794C76.3402 25.7227 78.0168 27.4007 78.0168 29.4633V31.0849L78.2469 32.2365C78.5868 33.9376 77.805 35.6391 76.3557 36.5056V38.3329L80.7817 40.2314C81.6116 40.5873 82.2378 41.3232 82.4569 42.2L82.9876 44.325C83.0166 44.4409 82.9942 44.5639 82.9262 44.6623L81.3369 46.9598L80.5065 54.4405L78.8459 74.3851L78.8439 74.385C78.8261 74.5981 78.6496 74.7663 78.4321 74.7663H70.1268C69.9092 74.7663 69.7327 74.5981 69.715 74.385L69.7129 74.3851L68.0523 54.4405L67.2219 46.9598L65.6327 44.6623C65.5646 44.5639 65.5422 44.4409 65.5712 44.325L66.102 42.1999ZM70.4389 39.9941L71.8408 41.3971L73.6277 40.2049L72.5236 39.0999L70.4389 39.9941ZM75.5252 36.8824C75.1191 37.0144 74.6994 37.0815 74.2794 37.0815C73.8596 37.0815 73.4398 37.0144 73.0336 36.8825V38.4349L74.2794 39.6817L75.5252 38.4349V36.8824ZM77.1863 29.4633C77.1863 27.859 75.8823 26.5539 74.2794 26.5539H69.7353C69.9139 28.1034 71.0785 29.3962 72.6353 29.7078L77.1863 30.6188L77.1863 29.4633ZM77.4326 32.3994L77.2487 31.4789L72.4725 30.5228C72.0506 30.4384 71.6527 30.2944 71.2856 30.1023L70.9414 32.5135C70.7309 33.9877 71.5489 35.4037 72.9306 35.9568L73.0851 36.0188C73.8553 36.327 74.7035 36.327 75.4737 36.0188C76.9126 35.4426 77.7365 33.9205 77.4326 32.3994ZM76.0352 39.0999L74.9312 40.2049L76.7181 41.3971L78.12 39.9941L76.0352 39.0999ZM74.7929 50.4523L75.4135 51.3064C75.9409 52.0322 75.9527 52.9791 75.4875 53.7059C75.6638 53.6108 75.82 53.4752 75.9393 53.3029L77.5441 50.9827L75.4316 49.5732L74.7929 50.4523ZM73.1272 49.5733L71.0148 50.9827L72.6196 53.3028C72.8398 53.6213 73.1872 53.8238 73.5726 53.8586C73.958 53.893 74.336 53.7562 74.6097 53.4824C75.0653 53.0264 75.1209 52.3169 74.7418 51.7953L73.1272 49.5733ZM72.2031 70.61C72.8407 70.61 73.423 70.8513 73.8642 71.247V56.8944H74.6947V71.247C75.1359 70.8513 75.7181 70.61 76.3557 70.61C77.1153 70.61 77.7961 70.9524 78.2535 71.4905L79.6418 54.8163H68.9171L70.3054 71.4905C70.7628 70.9524 71.4435 70.61 72.2031 70.61ZM76.6222 53.776C76.5711 53.8498 76.516 53.9195 76.4573 53.9851H79.7215L80.3416 48.3989L76.6222 53.776ZM78.0168 73.1038C78.0168 72.1871 77.2716 71.4413 76.3557 71.4413C75.4398 71.4413 74.6947 72.1871 74.6947 73.1038V73.935H78.0168V73.1038ZM70.542 73.935H73.8642V73.1038C73.8642 72.1871 73.119 71.4413 72.2031 71.4413C71.2872 71.4413 70.542 72.1871 70.542 73.1038V73.935ZM68.8374 53.9851H72.1022C72.0433 53.9192 71.9877 53.8497 71.9367 53.7759L68.2173 48.3988L68.8374 53.9851ZM70.542 50.2992L72.6383 48.9005L68.9604 43.8389L69.6321 43.35L74.2794 49.7456L78.9267 43.35L79.5985 43.8389L75.9205 48.9004L78.0169 50.2992L82.1362 44.3439L81.6511 42.4016C81.4946 41.7753 81.0473 41.2497 80.4546 40.9955L78.9421 40.3468L77.0646 42.2258C76.9844 42.3062 76.8781 42.3476 76.7709 42.3476C76.6911 42.3476 76.6109 42.3247 76.5407 42.2778L74.2794 40.769L72.0182 42.2778C71.9479 42.3247 71.8677 42.3476 71.7879 42.3476C71.6808 42.3476 71.5744 42.3062 71.4942 42.2258L69.6167 40.3467L68.1042 40.9955C67.5115 41.2497 67.0642 41.7753 66.9078 42.4015L66.4227 44.3439L70.542 50.2992Z"/>
</mask>
<path d="M66.102 42.1999C66.3211 41.3232 66.9472 40.5873 67.777 40.2314L72.2031 38.3329V36.5319C70.7216 35.7345 69.8765 34.0964 70.1192 32.396L70.5191 29.5941C69.5119 28.765 68.881 27.5104 68.881 26.1383C68.881 25.9088 69.0669 25.7227 69.2963 25.7227H74.2794C76.3402 25.7227 78.0168 27.4007 78.0168 29.4633V31.0849L78.2469 32.2365C78.5868 33.9376 77.805 35.6391 76.3557 36.5056V38.3329L80.7817 40.2314C81.6116 40.5873 82.2378 41.3232 82.4569 42.2L82.9876 44.325C83.0166 44.4409 82.9942 44.5639 82.9262 44.6623L81.3369 46.9598L80.5065 54.4405L78.8459 74.3851L78.8439 74.385C78.8261 74.5981 78.6496 74.7663 78.4321 74.7663H70.1268C69.9092 74.7663 69.7327 74.5981 69.715 74.385L69.7129 74.3851L68.0523 54.4405L67.2219 46.9598L65.6327 44.6623C65.5646 44.5639 65.5422 44.4409 65.5712 44.325L66.102 42.1999ZM70.4389 39.9941L71.8408 41.3971L73.6277 40.2049L72.5236 39.0999L70.4389 39.9941ZM75.5252 36.8824C75.1191 37.0144 74.6994 37.0815 74.2794 37.0815C73.8596 37.0815 73.4398 37.0144 73.0336 36.8825V38.4349L74.2794 39.6817L75.5252 38.4349V36.8824ZM77.1863 29.4633C77.1863 27.859 75.8823 26.5539 74.2794 26.5539H69.7353C69.9139 28.1034 71.0785 29.3962 72.6353 29.7078L77.1863 30.6188L77.1863 29.4633ZM77.4326 32.3994L77.2487 31.4789L72.4725 30.5228C72.0506 30.4384 71.6527 30.2944 71.2856 30.1023L70.9414 32.5135C70.7309 33.9877 71.5489 35.4037 72.9306 35.9568L73.0851 36.0188C73.8553 36.327 74.7035 36.327 75.4737 36.0188C76.9126 35.4426 77.7365 33.9205 77.4326 32.3994ZM76.0352 39.0999L74.9312 40.2049L76.7181 41.3971L78.12 39.9941L76.0352 39.0999ZM74.7929 50.4523L75.4135 51.3064C75.9409 52.0322 75.9527 52.9791 75.4875 53.7059C75.6638 53.6108 75.82 53.4752 75.9393 53.3029L77.5441 50.9827L75.4316 49.5732L74.7929 50.4523ZM73.1272 49.5733L71.0148 50.9827L72.6196 53.3028C72.8398 53.6213 73.1872 53.8238 73.5726 53.8586C73.958 53.893 74.336 53.7562 74.6097 53.4824C75.0653 53.0264 75.1209 52.3169 74.7418 51.7953L73.1272 49.5733ZM72.2031 70.61C72.8407 70.61 73.423 70.8513 73.8642 71.247V56.8944H74.6947V71.247C75.1359 70.8513 75.7181 70.61 76.3557 70.61C77.1153 70.61 77.7961 70.9524 78.2535 71.4905L79.6418 54.8163H68.9171L70.3054 71.4905C70.7628 70.9524 71.4435 70.61 72.2031 70.61ZM76.6222 53.776C76.5711 53.8498 76.516 53.9195 76.4573 53.9851H79.7215L80.3416 48.3989L76.6222 53.776ZM78.0168 73.1038C78.0168 72.1871 77.2716 71.4413 76.3557 71.4413C75.4398 71.4413 74.6947 72.1871 74.6947 73.1038V73.935H78.0168V73.1038ZM70.542 73.935H73.8642V73.1038C73.8642 72.1871 73.119 71.4413 72.2031 71.4413C71.2872 71.4413 70.542 72.1871 70.542 73.1038V73.935ZM68.8374 53.9851H72.1022C72.0433 53.9192 71.9877 53.8497 71.9367 53.7759L68.2173 48.3988L68.8374 53.9851ZM70.542 50.2992L72.6383 48.9005L68.9604 43.8389L69.6321 43.35L74.2794 49.7456L78.9267 43.35L79.5985 43.8389L75.9205 48.9004L78.0169 50.2992L82.1362 44.3439L81.6511 42.4016C81.4946 41.7753 81.0473 41.2497 80.4546 40.9955L78.9421 40.3468L77.0646 42.2258C76.9844 42.3062 76.8781 42.3476 76.7709 42.3476C76.6911 42.3476 76.6109 42.3247 76.5407 42.2778L74.2794 40.769L72.0182 42.2778C71.9479 42.3247 71.8677 42.3476 71.7879 42.3476C71.6808 42.3476 71.5744 42.3062 71.4942 42.2258L69.6167 40.3467L68.1042 40.9955C67.5115 41.2497 67.0642 41.7753 66.9078 42.4015L66.4227 44.3439L70.542 50.2992Z" fill="#212121"/>
<path d="M66.102 42.1999C66.3211 41.3232 66.9472 40.5873 67.777 40.2314L72.2031 38.3329V36.5319C70.7216 35.7345 69.8765 34.0964 70.1192 32.396L70.5191 29.5941C69.5119 28.765 68.881 27.5104 68.881 26.1383C68.881 25.9088 69.0669 25.7227 69.2963 25.7227H74.2794C76.3402 25.7227 78.0168 27.4007 78.0168 29.4633V31.0849L78.2469 32.2365C78.5868 33.9376 77.805 35.6391 76.3557 36.5056V38.3329L80.7817 40.2314C81.6116 40.5873 82.2378 41.3232 82.4569 42.2L82.9876 44.325C83.0166 44.4409 82.9942 44.5639 82.9262 44.6623L81.3369 46.9598L80.5065 54.4405L78.8459 74.3851L78.8439 74.385C78.8261 74.5981 78.6496 74.7663 78.4321 74.7663H70.1268C69.9092 74.7663 69.7327 74.5981 69.715 74.385L69.7129 74.3851L68.0523 54.4405L67.2219 46.9598L65.6327 44.6623C65.5646 44.5639 65.5422 44.4409 65.5712 44.325L66.102 42.1999ZM70.4389 39.9941L71.8408 41.3971L73.6277 40.2049L72.5236 39.0999L70.4389 39.9941ZM75.5252 36.8824C75.1191 37.0144 74.6994 37.0815 74.2794 37.0815C73.8596 37.0815 73.4398 37.0144 73.0336 36.8825V38.4349L74.2794 39.6817L75.5252 38.4349V36.8824ZM77.1863 29.4633C77.1863 27.859 75.8823 26.5539 74.2794 26.5539H69.7353C69.9139 28.1034 71.0785 29.3962 72.6353 29.7078L77.1863 30.6188L77.1863 29.4633ZM77.4326 32.3994L77.2487 31.4789L72.4725 30.5228C72.0506 30.4384 71.6527 30.2944 71.2856 30.1023L70.9414 32.5135C70.7309 33.9877 71.5489 35.4037 72.9306 35.9568L73.0851 36.0188C73.8553 36.327 74.7035 36.327 75.4737 36.0188C76.9126 35.4426 77.7365 33.9205 77.4326 32.3994ZM76.0352 39.0999L74.9312 40.2049L76.7181 41.3971L78.12 39.9941L76.0352 39.0999ZM74.7929 50.4523L75.4135 51.3064C75.9409 52.0322 75.9527 52.9791 75.4875 53.7059C75.6638 53.6108 75.82 53.4752 75.9393 53.3029L77.5441 50.9827L75.4316 49.5732L74.7929 50.4523ZM73.1272 49.5733L71.0148 50.9827L72.6196 53.3028C72.8398 53.6213 73.1872 53.8238 73.5726 53.8586C73.958 53.893 74.336 53.7562 74.6097 53.4824C75.0653 53.0264 75.1209 52.3169 74.7418 51.7953L73.1272 49.5733ZM72.2031 70.61C72.8407 70.61 73.423 70.8513 73.8642 71.247V56.8944H74.6947V71.247C75.1359 70.8513 75.7181 70.61 76.3557 70.61C77.1153 70.61 77.7961 70.9524 78.2535 71.4905L79.6418 54.8163H68.9171L70.3054 71.4905C70.7628 70.9524 71.4435 70.61 72.2031 70.61ZM76.6222 53.776C76.5711 53.8498 76.516 53.9195 76.4573 53.9851H79.7215L80.3416 48.3989L76.6222 53.776ZM78.0168 73.1038C78.0168 72.1871 77.2716 71.4413 76.3557 71.4413C75.4398 71.4413 74.6947 72.1871 74.6947 73.1038V73.935H78.0168V73.1038ZM70.542 73.935H73.8642V73.1038C73.8642 72.1871 73.119 71.4413 72.2031 71.4413C71.2872 71.4413 70.542 72.1871 70.542 73.1038V73.935ZM68.8374 53.9851H72.1022C72.0433 53.9192 71.9877 53.8497 71.9367 53.7759L68.2173 48.3988L68.8374 53.9851ZM70.542 50.2992L72.6383 48.9005L68.9604 43.8389L69.6321 43.35L74.2794 49.7456L78.9267 43.35L79.5985 43.8389L75.9205 48.9004L78.0169 50.2992L82.1362 44.3439L81.6511 42.4016C81.4946 41.7753 81.0473 41.2497 80.4546 40.9955L78.9421 40.3468L77.0646 42.2258C76.9844 42.3062 76.8781 42.3476 76.7709 42.3476C76.6911 42.3476 76.6109 42.3247 76.5407 42.2778L74.2794 40.769L72.0182 42.2778C71.9479 42.3247 71.8677 42.3476 71.7879 42.3476C71.6808 42.3476 71.5744 42.3062 71.4942 42.2258L69.6167 40.3467L68.1042 40.9955C67.5115 41.2497 67.0642 41.7753 66.9078 42.4015L66.4227 44.3439L70.542 50.2992Z" stroke="#212121" stroke-width="0.6" mask="url(#path-6-outside-3_995_19178)"/>
<defs>
<filter id="filter0_dd_995_19178" x="0" y="0.203125" width="117" height="117" filterUnits="userSpaceOnUse" color-interpolation-filters="sRGB">
<feFlood flood-opacity="0" result="BackgroundImageFix"/>
<feColorMatrix in="SourceAlpha" type="matrix" values="0 0 0 0 0 0 0 0 0 0 0 0 0 0 0 0 0 0 127 0" result="hardAlpha"/>
<feMorphology radius="4" operator="erode" in="SourceAlpha" result="effect1_dropShadow_995_19178"/>
<feOffset dy="8"/>
<feGaussianBlur stdDeviation="12"/>
<feComposite in2="hardAlpha" operator="out"/>
<feColorMatrix type="matrix" values="0 0 0 0 0 0 0 0 0 0 0 0 0 0 0 0 0 0 0.08 0"/>
<feBlend mode="normal" in2="BackgroundImageFix" result="effect1_dropShadow_995_19178"/>
<feColorMatrix in="SourceAlpha" type="matrix" values="0 0 0 0 0 0 0 0 0 0 0 0 0 0 0 0 0 0 127 0" result="hardAlpha"/>
<feMorphology radius="6" operator="erode" in="SourceAlpha" result="effect2_dropShadow_995_19178"/>
<feOffset dy="6"/>
<feGaussianBlur stdDeviation="6"/>
<feComposite in2="hardAlpha" operator="out"/>
<feColorMatrix type="matrix" values="0 0 0 0 0 0 0 0 0 0 0 0 0 0 0 0 0 0 0.12 0"/>
<feBlend mode="normal" in2="effect1_dropShadow_995_19178" result="effect2_dropShadow_995_19178"/>
<feBlend mode="normal" in="SourceGraphic" in2="effect2_dropShadow_995_19178" result="shape"/>
</filter>
</defs>
</svg>
