<svg width="109" height="51" viewBox="0 0 109 51" fill="none" xmlns="http://www.w3.org/2000/svg">
<path d="M14.5541 16.0049C12.6849 16.0049 11.1656 16.1664 9.77113 16.4697C6.24326 17.2355 3.46646 18.4808 1.58999 19.5548C1.21078 19.7725 1.01261 20.2031 1.10558 20.6288C1.34778 21.7273 1.75635 23.0753 2.47807 24.5261C3.07013 25.72 3.73313 26.6986 4.33987 27.4692C4.62855 27.8362 5.13743 27.9488 5.55578 27.7432C8.69711 26.2117 9.77113 25.6099 12.7828 25.4215C17.1156 25.1475 17.0299 26.4906 17.0299 29.7469C8.54787 30.224 -0.000244141 34.1335 -0.000244141 40.7098C-0.000244141 47.0291 1.94228 50.99 9.34788 50.99C14.0085 50.99 15.5057 49.4683 17.7394 46.5961V49.2163C17.7394 49.6053 17.896 49.9576 18.1504 50.212C18.5541 50.6157 19.0532 50.6255 19.1462 50.6255C20.2667 50.7111 21.4703 50.7649 22.7523 50.7649C24.0514 50.7674 25.2747 50.7136 26.4074 50.6255C27.1854 50.6255 27.8166 49.9943 27.8166 49.2163V28.5163C27.753 20.6019 24.0637 16.0049 14.5541 16.0049ZM17.0299 37.5856C17.0299 39.0755 16.2813 40.47 15.0287 41.2725C15.014 41.2798 15.0018 41.2896 14.9895 41.2969C14.1675 41.8205 13.1693 42.0407 12.2176 41.8327C11.4078 41.6566 10.7008 41.1795 10.7008 40.059C10.7008 37.6321 12.2079 36.9299 15.4886 36.4846L17.0299 36.3036V37.5856Z" fill="url(#paint0_linear_784_14817)"/>
<path d="M67.9101 16.9124C67.7608 16.6727 67.5529 16.5357 67.3669 16.4623C67.1394 16.3669 66.9412 16.3644 66.9192 16.3644C65.9088 16.176 64.7002 16.0268 63.3375 16.0048C61.6886 15.9779 60.25 16.1467 59.0879 16.3644C58.0824 16.3644 57.1723 16.9589 56.7686 17.8788L50.1582 32.9787L43.6064 17.8861C42.0871 16.3938 41.5097 16.3644 41.2847 16.3644C40.1617 16.1638 38.8039 16.0072 37.2601 16.0048C35.6772 16.0023 34.2901 16.1614 33.1476 16.3644C32.2839 16.3644 31.7188 17.2721 32.1053 18.0476L48.0517 50.1459C48.3086 50.6621 48.837 50.9899 49.412 50.9899H50.8163C51.3936 50.9899 51.9221 50.6596 52.179 50.141L66.6134 20.7926L67.9663 18.0427C68.1571 17.6562 68.1107 17.2354 67.9101 16.9124Z" fill="url(#paint1_linear_784_14817)"/>
<path d="M78.452 7.0407C78.452 10.6102 75.707 13.2084 72.003 13.2084C68.2304 13.2084 65.554 10.6126 65.554 7.0407C65.554 3.40518 68.2304 0.873047 72.003 0.873047C75.707 0.873047 78.452 3.40518 78.452 7.0407Z" fill="url(#paint2_linear_784_14817)"/>
<path d="M77.3927 17.789V49.2194C77.3927 49.9044 76.857 50.472 76.1719 50.5062C74.8141 50.5747 73.3927 50.6114 71.9125 50.6114C70.4985 50.609 69.1382 50.5723 67.8342 50.5062C67.1492 50.472 66.6134 49.9044 66.6134 49.2194V17.789C66.6134 16.9694 67.2544 16.2917 68.0715 16.255C69.4 16.1939 70.7847 16.1596 72.2233 16.1645C73.5028 16.167 74.7407 16.2012 75.9322 16.255C76.7517 16.2917 77.3927 16.9694 77.3927 17.789Z" fill="url(#paint3_linear_784_14817)"/>
<path d="M93.0799 16.2061C83.8222 16.2061 77.6326 23.1908 77.6326 33.7598C77.6326 44.1428 83.6045 51.0003 93.2976 51.0003C96.0377 51.0003 98.5723 50.7361 100.852 50.0878C103.174 49.4272 104.936 48.3214 106.171 47.4138C106.609 47.0908 106.827 46.5477 106.717 46.0144C106.499 44.9721 106.154 43.7538 105.594 42.4425C105.215 41.5495 104.796 40.7593 104.38 40.0767C103.994 39.4332 103.155 39.2228 102.506 39.6045C100.074 41.0382 97.1264 41.6938 94.9441 41.6938C91.6046 41.6938 89.1287 40.4314 88.1991 36.5928H106.687C107.451 36.5928 108.067 35.9763 108.082 35.2155C108.287 23.6092 103.042 16.2061 93.0799 16.2061ZM87.9177 30.2001C87.9177 30.2001 88.2602 25.0771 93.0701 25.0771C97.8799 25.0771 97.9753 30.2001 97.9753 30.2001H87.9177Z" fill="url(#paint4_linear_784_14817)"/>
<path d="M1.9153 0C1.9153 0 2.95996 3.69913 11.9656 2.95783C12.3252 2.92847 12.6873 2.93092 13.042 2.99698C17.4604 3.82879 19.2488 9.00317 19.4886 11.117C19.4886 11.117 16.0097 4.33033 8.51599 4.78783C8.51599 4.78783 17.365 6.39029 18.4586 11.8509C18.4586 11.8509 16.2886 11.0851 14.3362 11.4766C12.3839 11.868 7.43463 12.7414 4.49881 9.80563C1.563 6.86981 1.9153 0 1.9153 0Z" fill="url(#paint5_linear_784_14817)"/>
<defs>
<linearGradient id="paint0_linear_784_14817" x1="-0.000708978" y1="33.4983" x2="27.8161" y2="33.4983" gradientUnits="userSpaceOnUse">
<stop stop-color="#2B3888"/>
<stop offset="1" stop-color="#282B66"/>
</linearGradient>
<linearGradient id="paint1_linear_784_14817" x1="31.981" y1="33.4968" x2="68.087" y2="33.4968" gradientUnits="userSpaceOnUse">
<stop stop-color="#2B3888"/>
<stop offset="1" stop-color="#282B66"/>
</linearGradient>
<linearGradient id="paint2_linear_784_14817" x1="65.5535" y1="7.03997" x2="78.4524" y2="7.03997" gradientUnits="userSpaceOnUse">
<stop stop-color="#2B3888"/>
<stop offset="1" stop-color="#282B66"/>
</linearGradient>
<linearGradient id="paint3_linear_784_14817" x1="66.6133" y1="33.3865" x2="77.3929" y2="33.3865" gradientUnits="userSpaceOnUse">
<stop stop-color="#2B3888"/>
<stop offset="1" stop-color="#282B66"/>
</linearGradient>
<linearGradient id="paint4_linear_784_14817" x1="77.6321" y1="33.6041" x2="108.087" y2="33.6041" gradientUnits="userSpaceOnUse">
<stop stop-color="#2B3888"/>
<stop offset="1" stop-color="#282B66"/>
</linearGradient>
<linearGradient id="paint5_linear_784_14817" x1="1.90081" y1="5.95344" x2="19.4874" y2="5.95344" gradientUnits="userSpaceOnUse">
<stop stop-color="#87A43E"/>
<stop offset="1" stop-color="#71903D"/>
</linearGradient>
</defs>
</svg>
