<svg width="96" height="115" viewBox="0 0 96 115" fill="none" xmlns="http://www.w3.org/2000/svg">
<g filter="url(#filter0_d_784_14862)">
<path d="M91.1542 7.87834V88.3274C91.1542 92.68 87.6264 96.2078 83.2738 96.2078H75.1361C69.4948 100.548 59.2619 103.45 47.5761 103.45C35.8903 103.45 25.6594 100.548 20.0181 96.2078H11.8783C7.52783 96.2078 4 92.68 4 88.3274V7.87834C4 3.52782 7.52783 0 11.8783 0H83.2738C87.6284 0 91.1542 3.5258 91.1542 7.87834Z" fill="#153D1F"/>
<path d="M76.1087 27.7158C76.1087 27.7158 73.4177 31.0532 78.5139 35.3206C83.6101 39.588 84.5665 43.2354 82.6537 46.2364C82.6537 46.2364 83.9992 42.8727 81.6183 39.6914C81.6183 39.6914 85.0853 45.124 78.5666 51.6426C74.3235 55.5737 68.8929 50.5038 68.8929 50.5038C68.8929 50.5038 72.7997 51.59 77.4035 49.8311C82.0073 48.0723 81.1806 44.2445 79.8878 42.7167C78.595 41.1909 73.9385 36.8707 73.7561 33.3267C73.7561 33.3267 74.6355 35.811 75.9628 36.8789C75.9628 36.8829 71.4258 31.4665 76.1087 27.7158Z" fill="#212121"/>
<path d="M67.9951 35.002C64.5118 32.6556 66.6415 31.0527 66.6415 31.0527C66.6415 31.0527 62.5807 31.5877 65.685 36.5198C65.685 36.5198 64.7266 36.4063 64.2099 33.9747C64.2099 33.9747 63.8472 36.1489 65.296 37.235C65.296 37.235 63.4763 39.0364 62.6496 42.5541C61.8208 46.0739 66.6151 46.5906 66.6151 46.5906C66.6151 46.5906 65.0285 48.4528 61.8897 47.6949C59.9242 47.1762 58.3031 44.0374 57.8553 42.7629C57.4075 41.4863 55.6122 38.4853 51.9567 37.8997C48.3012 37.312 40.2304 42.9695 37.4705 44.8317C34.7127 46.6939 26.0036 52.2116 17.1566 50.1427C11.8537 48.6432 12.0341 43.6767 12.0868 42.7973C12.1374 41.9159 13.949 32.5522 26.9336 36.3293L27.1059 35.537C27.1059 35.537 19.0249 31.6039 13.2134 37.0952C12.0969 38.1509 11.2621 39.464 10.8061 40.9311C10.0949 43.2168 9.64302 47.0181 12.7068 50.3494C17.3816 55.4294 25.347 52.1285 25.6327 52.009C25.499 52.1042 23.5071 53.4618 19.5355 53.6604C19.5355 53.6604 27.4686 55.4193 39.126 48.4528C48.3357 42.4548 51.1989 42.2097 51.1989 42.2097C51.1989 42.2097 53.8878 41.5552 56.062 45.3829C58.2342 49.2106 60.3558 51.2815 63.4075 50.5905C66.4611 49.9016 67.9606 47.6605 68.3051 46.9351L72.7893 47.6949C72.7893 47.6949 74.1693 45.6929 74.5482 41.9341C74.6171 38.2097 71.4783 37.3465 67.9951 35.002ZM68.2017 43.1418C68.2017 43.1418 65.3041 42.7831 64.141 41.62C64.0579 41.5369 64.0032 41.4316 63.9728 41.3181C63.8857 41.002 64.0194 40.6676 64.3011 40.5015C64.9069 40.1448 66.2261 39.6666 67.1156 40.157C68.4267 40.8824 68.2017 43.1418 68.2017 43.1418ZM69.5472 43.6078L70.0822 40.5035C70.0822 40.5035 73.0305 42.003 73.0831 44.313L69.5472 43.6078Z" fill="#212121"/>
<path d="M49.3529 11.0653C49.3529 11.0653 49.3184 9.04711 51.061 7.73608C52.8037 6.42505 53.2252 9.2315 51.8716 10.6945C51.8716 10.6945 52.4065 8.50406 51.8108 8.09879C51.2151 7.69353 50.1978 9.40982 51.0124 11.3065C51.827 13.2031 53.6466 15.5658 55.4055 17.1362C57.1643 18.7066 60.8725 22.3864 62.139 26.0095C62.7002 27.3975 62.9069 28.6741 62.8036 29.6913C62.8036 29.6913 61.9931 26.2425 60.6476 24.587C60.6476 24.587 63.0447 29.3975 62.682 32.8139C62.3193 36.2282 59.1907 39.0225 55.3872 37.9101C51.5838 36.7976 50.3863 30.1837 55.6122 27.1584C55.6122 27.1584 49.7764 33.7135 55.5412 37.1806C56.6861 37.8695 58.1613 37.7905 59.1724 36.9192C60.9252 35.4096 62.4368 31.9344 59.061 26.4167C59.061 26.4167 56.37 21.9669 52.0945 18.1048C47.8169 14.2426 49.0509 10.1555 49.0509 10.1555C49.0509 10.1555 48.8706 13.5881 50.2485 15.3287C50.2485 15.3247 49.3022 12.9518 49.3529 11.0653Z" fill="#212121"/>
<path d="M53.7036 9.98359C53.7299 9.75867 53.8029 9.54186 53.9163 9.3453C54.196 8.86506 54.7431 8.07277 54.9599 8.74146C55.2578 9.65938 54.5323 9.93091 54.1838 10.2166C53.9771 10.4111 53.8596 11.2115 54.6114 10.7718C55.3611 10.3321 56.9011 10.1518 55.7238 12.5834C54.7532 14.6664 53.4482 14.0322 53.4482 14.0322C53.4482 14.0322 54.7795 13.3858 55.2071 12.2733C55.2071 12.2733 53.4016 12.9967 53.5901 11.0575C53.6407 10.5469 53.6792 10.2024 53.7036 9.98359Z" fill="#212121"/>
<path d="M41.8819 26.0684C32.9965 38.4574 31.3065 28.6479 31.3065 28.6479L31.2802 28.0785L30.9438 28.0016C30.8587 28.0319 30.7756 28.0644 30.6946 28.0968C28.8283 28.8486 27.6226 30.6824 27.5821 32.6925L27.5558 33.9427C26.6764 45.7825 14.7251 45.4097 14.7251 45.4097C16.8973 46.5221 20.8041 45.047 20.8041 45.047C19.4079 46.0824 17.3289 46.3155 17.3289 46.3155C29.3308 47.282 28.6946 38.1676 28.9013 35.0369C29.1079 31.9063 31.3592 31.2092 31.3592 31.2092C31.3592 31.2092 32.9113 36.3561 36.8424 34.4432C44.3702 29.6571 43.9042 25.649 43.1808 23.4484C42.8869 22.5548 42.1048 22.2022 41.2821 22.0989C39.6185 21.8902 38.0096 22.7493 37.1464 24.188C35.7117 26.573 34.5061 30.7391 35.8353 34.7796C37.8029 40.7573 46.0987 33.6935 46.0987 33.6935L55.442 25.0411L52.9983 26.1009L55.442 24.4717V23.1039C53.6487 23.8618 51.9932 23.035 51.7177 22.9661C51.4421 22.8972 48.4411 20.3441 47.2678 22.1374C45.6123 24.5163 46.198 29.1039 46.198 29.1039L47.2678 37.2274L47.5779 36.7451L47.1645 29.037C47.1645 29.037 46.897 26.0887 48.1696 24.8729C48.7552 24.2265 51.2516 25.7402 51.2516 25.7402C51.2516 25.7402 41.4037 36.7289 37.197 34.7289C37.197 34.7289 34.7472 31.7624 37.4037 27.1059C38.964 24.6581 40.8485 24.9479 41.6043 25.1951C41.8089 25.262 41.9569 25.4423 41.9852 25.6571C42.0035 25.7989 41.967 25.9489 41.8819 26.0684Z" fill="#212121"/>
<path d="M29.3269 36.2646C29.3269 36.2646 35.264 39.1238 37.0229 43.4946C37.0229 43.4946 34.1516 39.8208 29.3269 37.1562V36.2646Z" fill="#212121"/>
<path d="M32.4556 23.566C31.6025 24.8081 30.5569 26.19 29.7808 25.3106C28.6805 23.8476 27.8396 24.3137 27.8396 24.3137C28.2712 23.6652 28.792 23.0391 29.2945 22.646C30.3239 22.9641 31.0027 23.647 31.0554 23.7017C30.5103 22.8527 29.87 22.5893 29.483 22.49C30.0341 22.1536 30.6298 22.1212 30.9318 22.7615C31.5356 24.0442 32.409 23.5903 32.4556 23.566Z" fill="#212121"/>
<path d="M47.9061 17.6851C47.053 18.9272 46.0075 20.3092 45.2314 19.4298C44.1311 17.9667 43.2902 18.4328 43.2902 18.4328C43.7218 17.7844 44.2425 17.1582 44.7451 16.7651C45.7744 17.0833 46.4533 17.7661 46.5059 17.8209C45.9609 16.9718 45.3205 16.7084 44.9335 16.6091C45.4847 16.2727 46.0804 16.2403 46.3823 16.8806C46.9862 18.1633 47.8595 17.7094 47.9061 17.6851Z" fill="#212121"/>
<path d="M52.5809 51.9529C52.51 51.9326 51.0348 51.501 49.1929 53.0147C47.3064 54.5669 46.0379 54.1535 45.12 53.2214C45.1139 53.2153 45.1078 53.2092 45.0997 53.2011C47.3267 53.2275 48.8586 51.3855 48.8586 51.3855C46.0663 53.3835 44.4473 52.5183 43.9042 52.0846C43.8373 52.0218 43.7684 51.957 43.6995 51.8921C43.6975 51.8901 43.6975 51.8901 43.6975 51.8901C42.6155 50.8627 41.4199 49.5841 41.4199 48.6176C41.4199 48.6176 42.6114 50.7776 44.7066 49.3025C46.8018 47.8293 48.8829 46.5345 50.4999 48.3319C52.0804 50.0907 52.5607 51.8698 52.5809 51.9529Z" fill="#212121"/>
<path d="M70.6761 23.5518C70.6761 23.5518 66.8423 29.0512 69.442 30.6216C71.671 31.9671 71.6669 27.5011 71.6669 27.5011C71.6669 27.5011 71.0894 29.2174 69.744 28.7513C68.4005 28.2852 70.6761 23.5518 70.6761 23.5518Z" fill="#212121"/>
<path d="M14.8246 27.1872H15.6149V29.3067H16.2167V27.1872H17.009V26.6279H14.8246V27.1872Z" fill="#212121"/>
<path d="M19.5217 26.6279L18.7192 28.1882L17.9128 26.6279H17.2765V29.3067H17.8479V27.7201L18.5288 29.0474H18.9077L19.5824 27.7221L19.5845 29.3067H20.1559V26.6279H19.5217Z" fill="#212121"/>
<path d="M75.7116 27.3193C75.7116 27.3193 73.0206 30.6567 78.1168 34.9241C83.213 39.1916 84.1695 42.8389 82.2566 45.8399C82.2566 45.8399 83.6021 42.4762 81.2212 39.2949C81.2212 39.2949 84.6882 44.7275 78.1695 51.2462C73.9264 55.1772 68.4958 50.1074 68.4958 50.1074C68.4958 50.1074 72.4026 51.1935 77.0064 49.4346C81.6102 47.6758 80.7835 43.8481 79.4907 42.3202C78.1979 40.7924 73.5414 36.4743 73.359 32.9302C73.359 32.9302 74.2385 35.4145 75.5657 36.4824C75.5657 36.4864 71.0288 31.0721 75.7116 27.3193Z" fill="url(#paint0_linear_784_14862)"/>
<path d="M67.5961 34.6056C64.1129 32.2591 66.2425 30.6562 66.2425 30.6562C66.2425 30.6562 62.1818 31.1912 65.2861 36.1233C65.2861 36.1233 64.3277 36.0098 63.811 33.5782C63.811 33.5782 63.4482 35.7525 64.8971 36.8386C64.8971 36.8386 63.0774 38.64 62.2507 42.1577C61.4219 45.6774 66.2162 46.1941 66.2162 46.1941C66.2162 46.1941 64.6296 48.0563 61.4908 47.2984C59.5253 46.7797 57.9042 43.6409 57.4564 42.3664C57.0086 41.0898 55.2133 38.0888 51.5578 37.5032C47.9023 36.9156 39.8314 42.5731 37.0716 44.4352C34.3138 46.2974 25.6046 51.8151 16.7577 49.7462C11.4548 48.2468 11.6352 43.2802 11.6878 42.4008C11.7385 41.5194 13.55 32.1557 26.5347 35.9328L26.7069 35.1405C26.7069 35.1405 18.626 31.2074 12.8145 36.6987C11.698 37.7545 10.8631 39.0675 10.4072 40.5346C9.69597 42.8203 9.2441 46.6217 12.3079 49.9529C16.9826 55.0329 24.9481 51.732 25.2338 51.6125C25.1001 51.7077 23.1082 53.0654 19.1366 53.2639C19.1366 53.2639 27.0697 55.0228 38.7271 48.0563C47.9367 42.0584 50.7999 41.8132 50.7999 41.8132C50.7999 41.8132 53.4889 41.1587 55.6631 44.9864C57.8353 48.8141 59.9569 50.885 63.0085 50.1941C66.0622 49.5051 67.5617 47.264 67.9062 46.5386L72.3904 47.2984C72.3904 47.2984 73.7703 45.2964 74.1493 41.5376C74.2202 37.8153 71.0794 36.95 67.5961 34.6056ZM67.8048 42.7453C67.8048 42.7453 64.9072 42.3866 63.7441 41.2235C63.661 41.1405 63.6063 41.0351 63.5759 40.9216C63.4888 40.6055 63.6225 40.2712 63.9042 40.105C64.51 39.7484 65.8292 39.2702 66.7187 39.7605C68.0277 40.488 67.8048 42.7453 67.8048 42.7453ZM69.1503 43.2134L69.6853 40.1091C69.6853 40.1091 72.6336 41.6085 72.6862 43.9185L69.1503 43.2134Z" fill="url(#paint1_linear_784_14862)"/>
<path d="M48.956 10.6688C48.956 10.6688 48.9216 8.65062 50.6642 7.33959C52.4068 6.02856 52.8283 8.83502 51.4747 10.298C51.4747 10.298 52.0097 8.10757 51.4139 7.7023C50.8182 7.29704 49.801 9.01334 50.6156 10.91C51.4301 12.8066 53.2498 15.1693 55.0086 16.7397C56.7675 18.3081 60.4757 21.9899 61.7421 25.613C62.3034 27.001 62.5101 28.2776 62.4067 29.2948C62.4067 29.2948 61.5962 25.846 60.2507 24.1905C60.2507 24.1905 62.6479 29.001 62.2852 32.4174C61.9225 35.8317 58.7938 38.626 54.9904 37.5136C51.187 36.4011 49.9894 29.7872 55.2153 26.7619C55.2153 26.7619 49.3795 33.3171 55.1444 36.7841C56.2893 37.473 57.7644 37.394 58.7756 36.5227C60.5283 35.0131 62.04 31.5379 58.6641 26.0203C58.6641 26.0203 55.9732 21.5705 51.6976 17.7083C47.4201 13.8461 48.6541 9.75902 48.6541 9.75902C48.6541 9.75902 48.4737 13.1916 49.8516 14.9322C49.8516 14.9302 48.9053 12.5553 48.956 10.6688Z" fill="url(#paint2_linear_784_14862)"/>
<path d="M53.3066 9.58711C53.3329 9.36219 53.4059 9.14537 53.5193 8.94882C53.799 8.46858 54.3461 7.67628 54.5629 8.34497C54.8608 9.2629 54.1354 9.53442 53.7868 9.82013C53.5801 10.0147 53.4626 10.8151 54.2144 10.3753C54.9641 9.93563 56.5041 9.75529 55.3268 12.1869C54.3562 14.2699 53.0513 13.6357 53.0513 13.6357C53.0513 13.6357 54.3826 12.9893 54.8101 11.8769C54.8101 11.8769 53.0047 12.6002 53.1931 10.6611C53.2438 10.1504 53.2802 9.80595 53.3066 9.58711Z" fill="url(#paint3_linear_784_14862)"/>
<path d="M41.4828 25.6719C32.5974 38.0608 30.9075 28.2514 30.9075 28.2514L30.8811 27.682L30.5447 27.605C30.4596 27.6354 30.3766 27.6678 30.2955 27.7002C28.4293 28.452 27.2236 30.2858 27.1831 32.2959L27.1567 33.5462C26.2773 45.386 14.326 45.0131 14.326 45.0131C16.4983 46.1256 20.405 44.6504 20.405 44.6504C19.0089 45.6859 16.9299 45.9189 16.9299 45.9189C28.9318 46.8855 28.2955 37.7711 28.5022 34.6404C28.7089 31.5097 30.9601 30.8127 30.9601 30.8127C30.9601 30.8127 32.5123 35.9595 36.4434 34.0467C43.9712 29.2605 43.5051 25.2524 42.7817 23.0518C42.4879 22.1582 41.7057 21.8057 40.883 21.7023C39.2194 21.4936 37.6105 22.3528 36.7473 23.7915C35.3127 26.1764 34.107 30.3426 35.4363 34.383C37.4038 40.3607 45.6996 33.2969 45.6996 33.2969L55.043 24.6445L52.5993 25.7043L55.043 24.0751V22.7094C53.2497 23.4672 51.5942 22.6405 51.3186 22.5716C51.043 22.5027 48.042 19.9495 46.8688 21.7428C45.2133 24.1217 45.7989 28.7093 45.7989 28.7093L46.8688 36.8329L47.1788 36.3506L46.7655 28.6425C46.7655 28.6425 46.498 25.6942 47.7705 24.4784C48.3561 23.832 50.8525 25.3456 50.8525 25.3456C50.8525 25.3456 41.0046 36.3344 36.798 34.3344C36.798 34.3344 34.3482 31.3679 37.0047 26.7114C38.5649 24.2636 40.4494 24.5534 41.2052 24.8006C41.4099 24.8674 41.5578 25.0478 41.5862 25.2605C41.6064 25.4024 41.5679 25.5523 41.4828 25.6719Z" fill="url(#paint4_linear_784_14862)"/>
<path d="M28.9298 35.8701C28.9298 35.8701 34.8669 38.7293 36.6258 43.1C36.6258 43.1 33.7545 39.4263 28.9298 36.7617V35.8701Z" fill="url(#paint5_linear_784_14862)"/>
<path d="M32.0583 23.1695C31.2053 24.4116 30.1597 25.7936 29.3836 24.9141C28.2833 23.4511 27.4424 23.9172 27.4424 23.9172C27.874 23.2688 28.3948 22.6426 28.8973 22.2495C29.9267 22.5676 30.6055 23.2505 30.6582 23.3052C30.1131 22.4562 29.4728 22.1928 29.0857 22.0935C29.6369 21.7571 30.2326 21.7247 30.5346 22.365C31.1364 23.6477 32.0097 23.1938 32.0583 23.1695Z" fill="url(#paint6_linear_784_14862)"/>
<path d="M47.5093 17.2886C46.6562 18.5307 45.6106 19.9127 44.8345 19.0333C43.7342 17.5703 42.8933 18.0363 42.8933 18.0363C43.3249 17.3879 43.8457 16.7618 44.3482 16.3687C45.3776 16.6868 46.0564 17.3697 46.1091 17.4244C45.564 16.5753 44.9237 16.3119 44.5367 16.2126C45.0878 15.8763 45.6836 15.8438 45.9855 16.4842C46.5893 17.7668 47.4627 17.3129 47.5093 17.2886Z" fill="url(#paint7_linear_784_14862)"/>
<path d="M52.1819 51.5584C52.1109 51.5381 50.6358 51.1065 48.7938 52.6202C46.9073 54.1723 45.6389 53.759 44.7209 52.8269C44.7149 52.8208 44.7088 52.8147 44.7007 52.8066C46.9276 52.8329 48.4595 50.991 48.4595 50.991C45.6672 52.989 44.0482 52.1237 43.5051 51.6901C43.4383 51.6273 43.3694 51.5624 43.3005 51.4976C43.2985 51.4956 43.2985 51.4956 43.2985 51.4956C42.2164 50.4682 41.0209 49.1896 41.0209 48.2231C41.0209 48.2231 42.2123 50.3831 44.3076 48.908C46.4028 47.4348 48.4838 46.14 50.1008 47.9373C51.6814 49.6942 52.1616 51.4753 52.1819 51.5584Z" fill="url(#paint8_linear_784_14862)"/>
<path d="M70.2792 23.1553C70.2792 23.1553 66.4454 28.6547 69.0452 30.2251C71.2741 31.5706 71.2701 27.1046 71.2701 27.1046C71.2701 27.1046 70.6926 28.8209 69.3471 28.3548C68.0037 27.8888 70.2792 23.1553 70.2792 23.1553Z" fill="url(#paint9_linear_784_14862)"/>
<path d="M14.4274 26.7927H15.2156V28.9102H15.8195V26.7927H16.6117V26.2314H14.4274V26.7927Z" fill="url(#paint10_linear_784_14862)"/>
<path d="M19.1225 26.2314L18.3221 27.7917L17.5157 26.2314H16.8794V28.9102H17.4508V27.3257L18.1317 28.6509H18.5106L19.1854 27.3257L19.1874 28.9102H19.7588V26.2314H19.1225Z" fill="url(#paint11_linear_784_14862)"/>
<path d="M21.3758 64.3502C21.1144 64.0949 20.8064 63.8963 20.4518 63.7524C20.0972 63.6085 19.7446 63.5356 19.3941 63.5356C19.0699 63.5356 18.772 63.5964 18.4964 63.7159C18.2208 63.8355 17.9797 64.0037 17.7751 64.2164C17.5684 64.4292 17.4083 64.6784 17.2948 64.9601C17.1813 65.2418 17.1246 65.5477 17.1246 65.878C17.1246 66.2083 17.1834 66.5163 17.3009 66.802C17.4184 67.0877 17.5805 67.339 17.7852 67.5558C17.9919 67.7726 18.233 67.9408 18.5066 68.0624C18.7821 68.182 19.08 68.2427 19.4042 68.2427C19.7001 68.2427 20.0202 68.1779 20.3647 68.0462C20.7092 67.9165 21.0212 67.7402 21.3029 67.5193L22.2309 68.6642C21.9756 68.8425 21.6858 69.0046 21.3596 69.1485C21.0334 69.2924 20.6909 69.4058 20.3323 69.4889C19.9736 69.572 19.6312 69.6125 19.3009 69.6125C18.7497 69.6125 18.2431 69.5173 17.7791 69.3289C17.3151 69.1404 16.9078 68.877 16.5572 68.5386C16.2067 68.2022 15.9352 67.8051 15.7426 67.3471C15.5501 66.8892 15.4529 66.3988 15.4529 65.876C15.4529 65.3532 15.5522 64.8669 15.7528 64.415C15.9514 63.9652 16.229 63.57 16.5836 63.2337C16.9382 62.8973 17.3556 62.6359 17.8379 62.4495C18.3201 62.2631 18.8389 62.1719 19.3961 62.1719C19.7548 62.1719 20.1073 62.2144 20.4599 62.3016C20.8105 62.3867 21.1448 62.5103 21.4609 62.6683C21.777 62.8264 22.0567 63.0148 22.2978 63.2357L21.3758 64.3502ZM20.8186 65.8659H22.233V68.6622H20.8186V65.8659Z" fill="white"/>
<path d="M26.2369 62.2754C27.1792 62.2754 27.9107 62.4942 28.4294 62.9299C28.9481 63.3676 29.2075 63.9816 29.2075 64.7718C29.2075 65.6046 28.9481 66.2531 28.4294 66.7171C27.9107 67.1811 27.1792 67.4141 26.2369 67.4141H24.7293V69.4992H23.0981V62.2754H26.2369ZM26.2369 66.093C26.6847 66.093 27.0333 65.9876 27.2845 65.7789C27.5358 65.5682 27.6614 65.25 27.6614 64.8245C27.6614 64.4111 27.5358 64.1031 27.2845 63.8964C27.0333 63.6898 26.6847 63.5864 26.2369 63.5864H24.7293V66.095H26.2369V66.093ZM26.0404 66.8062H27.629L29.3838 69.4992H27.5358L26.0404 66.8062Z" fill="white"/>
<path d="M30.0139 62.2754H35.5134V63.5864H31.6431V65.2176H35.1202V66.5286H31.6431V68.1902H35.6268V69.5013H30.0139V62.2754Z" fill="white"/>
<path d="M36.3503 62.2754H41.8498V63.5864H37.9795V65.2176H41.4567V66.5286H37.9795V68.1902H41.9633V69.5013H36.3503V62.2754Z" fill="white"/>
<path d="M49.2174 62.2754V69.4992L45.3066 66.2206L44.2448 65.3311V69.4992H42.6846V62.2754L46.6075 65.5621L47.6815 66.4618V62.2754H49.2174Z" fill="white"/>
<path d="M58.6015 64.3502C58.3401 64.0949 58.0321 63.8963 57.6775 63.7524C57.3229 63.6085 56.9703 63.5356 56.6197 63.5356C56.2955 63.5356 55.9976 63.5964 55.7221 63.7159C55.4465 63.8355 55.2053 64.0037 55.0007 64.2164C54.794 64.4292 54.6339 64.6784 54.5204 64.9601C54.407 65.2418 54.3502 65.5477 54.3502 65.878C54.3502 66.2083 54.409 66.5163 54.5265 66.802C54.644 67.0877 54.8062 67.339 55.0108 67.5558C55.2175 67.7726 55.4586 67.9408 55.7342 68.0624C56.0098 68.182 56.3077 68.2427 56.6319 68.2427C56.9277 68.2427 57.2479 68.1779 57.5923 68.0462C57.9368 67.9165 58.2489 67.7402 58.5305 67.5193L59.4586 68.6642C59.2033 68.8425 58.9135 69.0046 58.5873 69.1485C58.261 69.2924 57.9186 69.4058 57.5599 69.4889C57.2013 69.572 56.8588 69.6125 56.5285 69.6125C55.9774 69.6125 55.4708 69.5173 55.0068 69.3289C54.5427 69.1404 54.1354 68.877 53.7849 68.5386C53.4343 68.2022 53.1628 67.8051 52.9703 67.3471C52.7778 66.8892 52.6805 66.3988 52.6805 65.876C52.6805 65.3532 52.7798 64.8669 52.9804 64.415C53.179 63.9652 53.4566 63.57 53.8112 63.2337C54.1658 62.8973 54.5833 62.6359 55.0655 62.4495C55.5478 62.2631 56.0665 62.1719 56.6238 62.1719C56.9824 62.1719 57.335 62.2144 57.6876 62.3016C58.0381 62.3867 58.3725 62.5103 58.6886 62.6683C59.0047 62.8264 59.2843 63.0148 59.5255 63.2357L58.6015 64.3502ZM58.0442 65.8659H59.4586V68.6622H58.0442V65.8659Z" fill="white"/>
<path d="M63.6895 62.1719C64.2407 62.1719 64.7513 62.2651 65.2214 62.4495C65.6915 62.6359 66.1028 62.8973 66.4554 63.2337C66.806 63.57 67.0795 63.9631 67.2761 64.411C67.4726 64.8588 67.5699 65.3471 67.5699 65.876C67.5699 66.3988 67.4726 66.8871 67.2761 67.341C67.0795 67.7949 66.806 68.1921 66.4554 68.5325C66.1049 68.8729 65.6935 69.1384 65.2214 69.3268C64.7493 69.5153 64.2386 69.6105 63.6895 69.6105C63.1383 69.6105 62.6277 69.5153 62.1576 69.3268C61.6855 69.1384 61.2761 68.8729 60.9236 68.5325C60.573 68.1921 60.2995 67.7949 60.1029 67.341C59.9063 66.8871 59.8091 66.3988 59.8091 65.876C59.8091 65.3471 59.9063 64.8568 60.1029 64.4049C60.2995 63.955 60.573 63.5619 60.9236 63.2276C61.2741 62.8933 61.6855 62.6339 62.1576 62.4475C62.6277 62.2651 63.1383 62.1719 63.6895 62.1719ZM63.7098 63.5437C63.4078 63.5437 63.1201 63.6025 62.8486 63.72C62.577 63.8375 62.34 64.0016 62.1373 64.2144C61.9347 64.4272 61.7746 64.6764 61.6571 64.9581C61.5396 65.2397 61.4808 65.5457 61.4808 65.876C61.4808 66.2063 61.5396 66.5143 61.6571 66.8C61.7746 67.0857 61.9367 67.337 62.1414 67.5538C62.3481 67.7706 62.5851 67.9388 62.8526 68.0604C63.1201 68.1819 63.4058 68.2407 63.7098 68.2407C64.0117 68.2407 64.2954 68.1799 64.5608 68.0604C64.8263 67.9408 65.0573 67.7706 65.2579 67.5538C65.4564 67.337 65.6145 67.0857 65.728 66.8C65.8415 66.5143 65.8982 66.2063 65.8982 65.876C65.8982 65.5457 65.8415 65.2397 65.728 64.9581C65.6145 64.6764 65.4585 64.4292 65.2579 64.2144C65.0573 64.0016 64.8263 63.8355 64.5608 63.72C64.2954 63.6025 64.0117 63.5437 63.7098 63.5437Z" fill="white"/>
<path d="M68.0847 62.2754H69.7159V68.1274H72.802V69.4992H68.0847V62.2754Z" fill="white"/>
<path d="M76.2791 62.2754C76.8424 62.2754 77.3571 62.3625 77.8211 62.5388C78.2851 62.7151 78.6864 62.9623 79.0227 63.2825C79.3591 63.6026 79.6205 63.9815 79.8069 64.4233C79.9933 64.863 80.0865 65.3514 80.0865 65.8883C80.0865 66.4172 79.9933 66.9035 79.8069 67.3432C79.6205 67.7829 79.3571 68.1659 79.0126 68.4881C78.6681 68.8123 78.2608 69.0615 77.7907 69.2358C77.3186 69.4121 76.7978 69.4992 76.2264 69.4992H73.2234V62.2754H76.2791ZM76.3196 68.1679C76.6296 68.1679 76.9113 68.1132 77.1666 68.0038C77.4219 67.8944 77.6428 67.7384 77.8333 67.5337C78.0217 67.3311 78.1676 67.092 78.271 66.8164C78.3743 66.5408 78.425 66.2348 78.425 65.8985C78.425 65.5621 78.3702 65.2541 78.2608 64.9745C78.1514 64.6968 77.9994 64.4517 77.8069 64.2409C77.6144 64.0302 77.3855 63.8721 77.12 63.7607C76.8546 63.6513 76.5648 63.5966 76.2487 63.5966H74.8566V68.1679H76.3196Z" fill="white"/>
<path d="M21.8096 73.4219H22.2777L23.7407 75.4097L23.611 75.4543V73.4219H24.0912V76.0075H23.6191L22.1642 74.0237L22.2939 73.9791V76.0075H21.8096V73.4219Z" fill="url(#paint12_linear_784_14862)"/>
<path d="M25.4854 73.4219H25.9919L27.1105 76.0075H26.5816L25.7204 73.9204L24.8633 76.0075H24.3466L25.4854 73.4219ZM24.9423 75.0409H26.4823V75.4441H24.9423V75.0409Z" fill="url(#paint13_linear_784_14862)"/>
<path d="M26.8186 73.4219H28.928V73.8393H28.1236V76.0075H27.6251V73.8393H26.8206V73.4219H26.8186Z" fill="url(#paint14_linear_784_14862)"/>
<path d="M29.6657 74.9436C29.6657 75.1564 29.7245 75.3226 29.84 75.4421C29.9555 75.5637 30.1115 75.6225 30.3061 75.6225C30.4986 75.6225 30.6505 75.5637 30.764 75.4441C30.8775 75.3246 30.9342 75.1584 30.9342 74.9436V73.4219H31.4286V74.9436C31.4286 75.1706 31.3841 75.3651 31.2929 75.5292C31.2017 75.6934 31.074 75.819 30.9058 75.9082C30.7377 75.9973 30.5371 76.0419 30.3061 76.0419C30.073 76.0419 29.8704 75.9973 29.7002 75.9082C29.53 75.819 29.4003 75.6934 29.3091 75.5292C29.2179 75.3651 29.1733 75.1706 29.1733 74.9436V73.4219H29.6678V74.9436H29.6657Z" fill="url(#paint15_linear_784_14862)"/>
<path d="M33.0312 73.4219C33.3656 73.4219 33.625 73.4989 33.8073 73.6549C33.9897 73.8109 34.0809 74.0277 34.0809 74.3094C34.0809 74.6032 33.9897 74.8302 33.8073 74.9923C33.625 75.1544 33.3656 75.2354 33.0312 75.2354H32.4477V76.0075H31.9532V73.4219H33.0312ZM33.0312 74.8261C33.2156 74.8261 33.3595 74.7836 33.4588 74.7005C33.5601 74.6174 33.6108 74.4897 33.6108 74.3195C33.6108 74.1574 33.5601 74.0359 33.4588 73.9568C33.3575 73.8758 33.2156 73.8373 33.0312 73.8373H32.4477V74.8261H33.0312ZM33.013 75.047H33.4973L34.1336 76.0075H33.5723L33.013 75.047Z" fill="url(#paint16_linear_784_14862)"/>
<path d="M35.38 73.4219H35.8866L37.0051 76.0075H36.4762L35.6151 73.9204L34.7579 76.0075H34.2412L35.38 73.4219ZM34.837 75.0409H36.377V75.4441H34.837V75.0409Z" fill="url(#paint17_linear_784_14862)"/>
<path d="M37.2644 73.4219H37.7588V75.586H38.8733V76.0075H37.2623V73.4219H37.2644Z" fill="url(#paint18_linear_784_14862)"/>
<path d="M40.1417 73.4219H40.6361V74.5364H41.9249V73.4219H42.4234V76.0075H41.9249V74.9477H40.6361V76.0075H40.1417V73.4219Z" fill="url(#paint19_linear_784_14862)"/>
<path d="M42.9989 73.4219H44.8935V73.8352H43.4933V74.5039H44.7496V74.9132H43.4933V75.5921H44.9381V76.0054H42.9989V73.4219Z" fill="url(#paint20_linear_784_14862)"/>
<path d="M46.4597 73.4219C46.7941 73.4219 47.0534 73.4989 47.2358 73.6549C47.4182 73.8109 47.5094 74.0277 47.5094 74.3094C47.5094 74.6032 47.4182 74.8302 47.2358 74.9923C47.0534 75.1544 46.7941 75.2354 46.4597 75.2354H45.8761V76.0075H45.3817V73.4219H46.4597ZM46.4597 74.8261C46.6441 74.8261 46.788 74.7836 46.8873 74.7005C46.9886 74.6174 47.0393 74.4897 47.0393 74.3195C47.0393 74.1574 46.9886 74.0359 46.8873 73.9568C46.786 73.8758 46.6441 73.8373 46.4597 73.8373H45.8761V74.8261H46.4597ZM46.4415 75.047H46.9258L47.562 76.0075H47.0008L46.4415 75.047Z" fill="url(#paint21_linear_784_14862)"/>
<path d="M49.1426 73.422C49.327 73.422 49.4871 73.4484 49.6188 73.499C49.7526 73.5517 49.8539 73.6247 49.9248 73.7199C49.9957 73.8151 50.0322 73.9327 50.0322 74.0664C50.0322 74.2103 49.9917 74.3318 49.9126 74.4352C49.8316 74.5385 49.7222 74.6054 49.5823 74.6378C49.7526 74.6702 49.8863 74.7432 49.9856 74.8587C50.0849 74.9742 50.1335 75.1181 50.1335 75.2903C50.1335 75.4382 50.095 75.5659 50.016 75.6733C49.937 75.7807 49.8275 75.8617 49.6857 75.9185C49.5438 75.9752 49.3757 76.0036 49.1771 76.0036H47.9957V73.418H49.1426V73.422ZM49.1163 74.4858C49.2439 74.4858 49.3453 74.4554 49.4182 74.3967C49.4912 74.3379 49.5276 74.2548 49.5276 74.1495C49.5276 74.0482 49.4912 73.9691 49.4182 73.9124C49.3453 73.8557 49.246 73.8293 49.1163 73.8313H48.4881V74.4858H49.1163ZM49.1163 75.5983C49.2743 75.6003 49.3979 75.5699 49.4851 75.5051C49.5742 75.4402 49.6188 75.3511 49.6188 75.2356C49.6188 75.1282 49.5742 75.0411 49.4851 74.9782C49.3959 74.9154 49.2743 74.885 49.1163 74.885H48.4881V75.5983H49.1163Z" fill="url(#paint22_linear_784_14862)"/>
<path d="M52.1779 74.0605C52.0868 74.0038 51.9935 73.9572 51.8983 73.9207C51.8031 73.8842 51.7139 73.8579 51.6308 73.8417C51.5478 73.8255 51.4708 73.8174 51.4019 73.8174C51.2864 73.8174 51.1931 73.8396 51.1222 73.8842C51.0513 73.9288 51.0168 73.9936 51.0168 74.0808C51.0168 74.1598 51.0412 74.2246 51.0918 74.2733C51.1425 74.3219 51.2094 74.3624 51.2904 74.3948C51.3735 74.4273 51.4626 74.4577 51.5619 74.4881C51.6612 74.5185 51.7585 74.5509 51.8578 74.5853C51.9571 74.6218 52.0462 74.6664 52.1293 74.7231C52.2124 74.7798 52.2772 74.8528 52.3259 74.942C52.3745 75.0311 52.3988 75.1405 52.3988 75.2743C52.3988 75.4344 52.3563 75.5701 52.2691 75.6836C52.182 75.7971 52.0645 75.8842 51.9165 75.945C51.7666 76.0058 51.5984 76.0382 51.4079 76.0382C51.2702 76.0382 51.1344 76.02 51.0027 75.9855C50.871 75.949 50.7474 75.9004 50.6298 75.8396C50.5123 75.7788 50.4069 75.7059 50.3137 75.6248L50.5204 75.2216C50.6096 75.3026 50.7048 75.3736 50.8081 75.4303C50.9115 75.4891 51.0148 75.5316 51.1202 75.564C51.2256 75.5944 51.3228 75.6106 51.414 75.6106C51.5538 75.6106 51.6632 75.5843 51.7402 75.5296C51.8172 75.4749 51.8557 75.3999 51.8557 75.3006C51.8557 75.2196 51.8314 75.1547 51.7808 75.1041C51.7301 75.0554 51.6653 75.0129 51.5822 74.9805C51.4991 74.948 51.41 74.9176 51.3107 74.8913C51.2114 74.865 51.1121 74.8346 51.0128 74.7981C50.9135 74.7616 50.8244 74.717 50.7413 74.6623C50.6582 74.6076 50.5913 74.5367 50.5427 74.4496C50.492 74.3645 50.4677 74.253 50.4677 74.1213C50.4677 73.9714 50.5082 73.8417 50.5893 73.7322C50.6704 73.6228 50.7838 73.5377 50.9277 73.4769C51.0716 73.4161 51.2418 73.3857 51.4363 73.3857C51.6085 73.3857 51.7767 73.4101 51.9409 73.4587C52.105 73.5073 52.2489 73.5742 52.3704 73.6552L52.1779 74.0605Z" fill="url(#paint23_linear_784_14862)"/>
<path d="M54.8083 73.422C55.1365 73.422 55.3898 73.4989 55.5682 73.655C55.7485 73.811 55.8377 74.0278 55.8377 74.3095C55.8377 74.6033 55.7485 74.8302 55.5682 74.9924C55.3878 75.1545 55.1345 75.2355 54.8083 75.2355H54.0282L54.247 75.0167V76.0055H53.7526V73.4199H54.8083V73.422ZM54.786 74.8262C54.9704 74.8262 55.1122 74.7836 55.2135 74.7006C55.3149 74.6175 55.3635 74.4898 55.3635 74.3196C55.3635 74.1575 55.3128 74.0359 55.2135 73.9569C55.1143 73.8758 54.9724 73.8373 54.786 73.8373H54.0282L54.247 73.6185V75.045L54.0282 74.8262H54.786Z" fill="url(#paint24_linear_784_14862)"/>
<path d="M57.264 73.4219C57.5984 73.4219 57.8578 73.4989 58.0401 73.6549C58.2225 73.8109 58.3137 74.0277 58.3137 74.3094C58.3137 74.6032 58.2225 74.8302 58.0401 74.9923C57.8578 75.1544 57.6004 75.2354 57.264 75.2354H56.6805V76.0075H56.186V73.4219H57.264ZM57.264 74.8261C57.4484 74.8261 57.5923 74.7836 57.6936 74.7005C57.7949 74.6174 57.8456 74.4897 57.8456 74.3195C57.8456 74.1574 57.7949 74.0359 57.6936 73.9568C57.5923 73.8758 57.4505 73.8373 57.264 73.8373H56.6805V74.8261H57.264ZM57.2458 75.047H57.7301L58.3664 76.0075H57.8051L57.2458 75.047Z" fill="url(#paint25_linear_784_14862)"/>
<path d="M59.9714 73.3936C60.1659 73.3936 60.3463 73.426 60.5145 73.4928C60.6827 73.5597 60.8285 73.6529 60.9521 73.7745C61.0758 73.8941 61.173 74.0359 61.2439 74.194C61.3149 74.352 61.3493 74.5263 61.3493 74.7127C61.3493 74.8971 61.3149 75.0714 61.2439 75.2335C61.173 75.3956 61.0758 75.5374 60.9521 75.659C60.8285 75.7806 60.6827 75.8738 60.5145 75.9406C60.3463 76.0075 60.1659 76.042 59.9714 76.042C59.7769 76.042 59.5965 76.0075 59.4304 75.9406C59.2642 75.8738 59.1183 75.7785 58.9927 75.659C58.8671 75.5374 58.7698 75.3976 58.6989 75.2355C58.628 75.0734 58.5935 74.8991 58.5935 74.7127C58.5935 74.5263 58.628 74.352 58.6989 74.1919C58.7698 74.0318 58.8671 73.892 58.9927 73.7725C59.1183 73.6529 59.2642 73.5597 59.4304 73.4928C59.5965 73.426 59.7769 73.3936 59.9714 73.3936ZM59.9795 73.811C59.8579 73.811 59.7465 73.8333 59.6391 73.8799C59.5337 73.9245 59.4405 73.9893 59.3574 74.0724C59.2764 74.1555 59.2136 74.2507 59.167 74.3581C59.1224 74.4655 59.0981 74.585 59.0981 74.7127C59.0981 74.8404 59.1224 74.9599 59.169 75.0693C59.2156 75.1787 59.2804 75.276 59.3615 75.3591C59.4425 75.4422 59.5357 75.509 59.6431 75.5556C59.7485 75.6022 59.862 75.6266 59.9795 75.6266C60.097 75.6266 60.2085 75.6022 60.3139 75.5556C60.4192 75.509 60.5104 75.4442 60.5894 75.3591C60.6685 75.276 60.7313 75.1787 60.7759 75.0693C60.8204 74.9599 60.8447 74.8404 60.8447 74.7127C60.8447 74.585 60.8225 74.4655 60.7759 74.3581C60.7313 74.2487 60.6685 74.1534 60.5894 74.0724C60.5104 73.9893 60.4192 73.9265 60.3139 73.8799C60.2085 73.8333 60.097 73.811 59.9795 73.811Z" fill="url(#paint26_linear_784_14862)"/>
<path d="M62.8001 73.422C62.9967 73.422 63.177 73.4545 63.3412 73.5152C63.5053 73.5781 63.6472 73.6672 63.7667 73.7827C63.8863 73.8982 63.9795 74.036 64.0463 74.192C64.1132 74.3501 64.1456 74.5223 64.1456 74.7128C64.1456 74.8992 64.1132 75.0714 64.0463 75.2295C63.9795 75.3876 63.8863 75.5233 63.7647 75.6388C63.6451 75.7543 63.4992 75.8435 63.3331 75.9083C63.1649 75.9732 62.9825 76.0036 62.786 76.0036H61.7262V73.418H62.8001V73.422ZM62.8123 75.5942C62.9298 75.5942 63.0393 75.5719 63.1406 75.5294C63.2419 75.4868 63.329 75.4261 63.404 75.3491C63.479 75.2721 63.5377 75.1789 63.5823 75.0715C63.6249 74.9641 63.6471 74.8465 63.6471 74.7189C63.6471 74.5892 63.6249 74.4696 63.5803 74.3622C63.5357 74.2548 63.4749 74.1616 63.3999 74.0806C63.3229 74.0016 63.2338 73.9387 63.1304 73.8982C63.0271 73.8557 62.9136 73.8354 62.79 73.8354H62.2206V75.5942H62.8123Z" fill="url(#paint27_linear_784_14862)"/>
<path d="M64.9683 74.9436C64.9683 75.1564 65.0271 75.3226 65.1426 75.4421C65.2581 75.5637 65.4141 75.6225 65.6087 75.6225C65.8012 75.6225 65.9531 75.5637 66.0666 75.4441C66.1801 75.3246 66.2368 75.1584 66.2368 74.9436V73.4219H66.7313V74.9436C66.7313 75.1706 66.6867 75.3651 66.5955 75.5292C66.5063 75.6934 66.3766 75.819 66.2085 75.9082C66.0403 75.9973 65.8397 76.0419 65.6087 76.0419C65.3736 76.0419 65.173 75.9973 65.0028 75.9082C64.8326 75.819 64.7029 75.6934 64.6117 75.5292C64.5205 75.3651 64.476 75.1706 64.476 74.9436V73.4219H64.9704V74.9436H64.9683Z" fill="url(#paint28_linear_784_14862)"/>
<path d="M69.1261 74.1433C69.0349 74.04 68.9275 73.9589 68.8019 73.8981C68.6763 73.8373 68.5506 73.8069 68.425 73.8069C68.3034 73.8069 68.192 73.8292 68.0866 73.8758C67.9812 73.9224 67.8901 73.9852 67.809 74.0683C67.73 74.1514 67.6672 74.2466 67.6226 74.354C67.578 74.4635 67.5557 74.579 67.5557 74.7046C67.5557 74.8302 67.578 74.9477 67.6226 75.0572C67.6672 75.1666 67.73 75.2618 67.809 75.3429C67.8901 75.4239 67.9812 75.4888 68.0866 75.5354C68.192 75.582 68.3034 75.6063 68.425 75.6063C68.5506 75.6063 68.6742 75.5779 68.7978 75.5232C68.9214 75.4685 69.0309 75.3915 69.1261 75.2963L69.4179 75.6023C69.3308 75.6914 69.2315 75.7684 69.12 75.8353C69.0086 75.9021 68.8911 75.9528 68.7695 75.9893C68.6479 76.0257 68.5243 76.042 68.3987 76.042C68.2082 76.042 68.0319 76.0075 67.8678 75.9406C67.7036 75.8738 67.5618 75.7785 67.4402 75.659C67.3186 75.5394 67.2234 75.3976 67.1545 75.2335C67.0856 75.0714 67.0511 74.8971 67.0511 74.7127C67.0511 74.5263 67.0856 74.352 67.1545 74.194C67.2234 74.0359 67.3207 73.8961 67.4463 73.7745C67.5719 73.6529 67.7158 73.5597 67.8799 73.4928C68.0441 73.426 68.2224 73.3936 68.4169 73.3936C68.5425 73.3936 68.6641 73.4098 68.7837 73.4442C68.9032 73.4766 69.0167 73.5253 69.1261 73.584C69.2355 73.6448 69.3308 73.7178 69.4138 73.8029L69.1261 74.1433Z" fill="url(#paint29_linear_784_14862)"/>
<path d="M69.4788 73.4219H71.5882V73.8393H70.7837V76.0075H70.2852V73.8393H69.4808V73.4219H69.4788Z" fill="url(#paint30_linear_784_14862)"/>
<path d="M73.5051 74.0605C73.4139 74.0038 73.3207 73.9572 73.2255 73.9207C73.1302 73.8842 73.0411 73.8579 72.958 73.8417C72.8749 73.8255 72.7979 73.8174 72.729 73.8174C72.6135 73.8174 72.5203 73.8396 72.4494 73.8842C72.3784 73.9288 72.344 73.9936 72.344 74.0808C72.344 74.1598 72.3683 74.2246 72.419 74.2733C72.4696 74.3219 72.5365 74.3624 72.6176 74.3948C72.7006 74.4273 72.7898 74.4577 72.8891 74.4881C72.9884 74.5185 73.0856 74.5509 73.1849 74.5853C73.2842 74.6218 73.3734 74.6664 73.4565 74.7231C73.5395 74.7798 73.6044 74.8528 73.653 74.942C73.7016 75.0311 73.726 75.1405 73.726 75.2743C73.726 75.4344 73.6834 75.5701 73.5963 75.6836C73.5091 75.7971 73.3916 75.8842 73.2437 75.945C73.0937 76.0058 72.9256 76.0382 72.7351 76.0382C72.5973 76.0382 72.4615 76.02 72.3298 75.9855C72.1981 75.949 72.0745 75.9004 71.957 75.8396C71.8394 75.7788 71.7341 75.7059 71.6409 75.6248L71.8476 75.2216C71.9367 75.3026 72.032 75.3736 72.1353 75.4303C72.2386 75.4891 72.342 75.5316 72.4473 75.564C72.5527 75.5944 72.65 75.6106 72.7412 75.6106C72.881 75.6106 72.9904 75.5843 73.0674 75.5296C73.1444 75.4749 73.1829 75.3999 73.1829 75.3006C73.1829 75.2196 73.1586 75.1547 73.1079 75.1041C73.0573 75.0554 72.9924 75.0129 72.9093 74.9805C72.8263 74.948 72.7371 74.9176 72.6378 74.8913C72.5385 74.865 72.4392 74.8346 72.34 74.7981C72.2407 74.7616 72.1515 74.717 72.0684 74.6623C71.9853 74.6076 71.9185 74.5367 71.8698 74.4496C71.8192 74.3645 71.7949 74.253 71.7949 74.1213C71.7949 73.9714 71.8354 73.8417 71.9164 73.7322C71.9975 73.6228 72.111 73.5377 72.2549 73.4769C72.3987 73.4161 72.5689 73.3857 72.7634 73.3857C72.9357 73.3857 73.1039 73.4101 73.268 73.4587C73.4321 73.5073 73.576 73.5742 73.6976 73.6552L73.5051 74.0605Z" fill="url(#paint31_linear_784_14862)"/>
<path d="M76.1576 75.434C76.5561 75.434 76.879 75.111 76.879 74.7126C76.879 74.3142 76.5561 73.9912 76.1576 73.9912C75.7592 73.9912 75.4363 74.3142 75.4363 74.7126C75.4363 75.111 75.7592 75.434 76.1576 75.434Z" fill="url(#paint32_linear_784_14862)"/>
<path d="M19.382 75.434C19.7804 75.434 20.1034 75.111 20.1034 74.7126C20.1034 74.3142 19.7804 73.9912 19.382 73.9912C18.9836 73.9912 18.6606 74.3142 18.6606 74.7126C18.6606 75.111 18.9836 75.434 19.382 75.434Z" fill="url(#paint33_linear_784_14862)"/>
<path d="M91.1542 88.3277V91.8779C91.1542 96.2304 87.6264 99.7582 83.2738 99.7582H75.1361C69.4948 104.099 59.2619 107 47.5761 107C35.8903 107 25.6594 104.099 20.0181 99.7582H11.8783C7.52783 99.7582 4 96.2304 4 91.8779V88.3277C4 92.6803 7.52783 96.2081 11.8783 96.2081H20.0181C25.6594 100.548 35.8903 103.45 47.5761 103.45C58.6317 103.45 68.3864 100.852 74.1837 96.897H74.1148C53.1464 79.6834 28.3645 93.9569 27.8802 94.2385C57.266 74.8304 77.8048 96.1048 77.8048 96.1048V96.2081H83.2738C87.6284 96.2081 91.1542 92.6782 91.1542 88.3277Z" fill="url(#paint34_linear_784_14862)"/>
</g>
<defs>
<filter id="filter0_d_784_14862" x="0" y="0" width="95.1542" height="115" filterUnits="userSpaceOnUse" color-interpolation-filters="sRGB">
<feFlood flood-opacity="0" result="BackgroundImageFix"/>
<feColorMatrix in="SourceAlpha" type="matrix" values="0 0 0 0 0 0 0 0 0 0 0 0 0 0 0 0 0 0 127 0" result="hardAlpha"/>
<feOffset dy="4"/>
<feGaussianBlur stdDeviation="2"/>
<feComposite in2="hardAlpha" operator="out"/>
<feColorMatrix type="matrix" values="0 0 0 0 0 0 0 0 0 0 0 0 0 0 0 0 0 0 0.25 0"/>
<feBlend mode="normal" in2="BackgroundImageFix" result="effect1_dropShadow_784_14862"/>
<feBlend mode="normal" in="SourceGraphic" in2="effect1_dropShadow_784_14862" result="shape"/>
</filter>
<linearGradient id="paint0_linear_784_14862" x1="31.7448" y1="-0.239066" x2="85.2914" y2="51.4451" gradientUnits="userSpaceOnUse">
<stop stop-color="#CE9F41"/>
<stop offset="0.1229" stop-color="#D3AB43"/>
<stop offset="0.2514" stop-color="#F6ECDF"/>
<stop offset="0.3547" stop-color="#D3AB43"/>
<stop offset="0.5168" stop-color="#CE9F41"/>
<stop offset="0.6844" stop-color="#F6ECDF"/>
<stop offset="0.8464" stop-color="#CE9F41"/>
<stop offset="0.9888" stop-color="#CE9F41"/>
</linearGradient>
<linearGradient id="paint1_linear_784_14862" x1="15.112" y1="16.9925" x2="68.6587" y2="68.6767" gradientUnits="userSpaceOnUse">
<stop stop-color="#CE9F41"/>
<stop offset="0.1229" stop-color="#D3AB43"/>
<stop offset="0.2514" stop-color="#F6ECDF"/>
<stop offset="0.3547" stop-color="#D3AB43"/>
<stop offset="0.5168" stop-color="#CE9F41"/>
<stop offset="0.6844" stop-color="#F6ECDF"/>
<stop offset="0.8464" stop-color="#CE9F41"/>
<stop offset="0.9888" stop-color="#CE9F41"/>
</linearGradient>
<linearGradient id="paint2_linear_784_14862" x1="30.773" y1="0.767539" x2="84.3196" y2="52.4517" gradientUnits="userSpaceOnUse">
<stop stop-color="#CE9F41"/>
<stop offset="0.1229" stop-color="#D3AB43"/>
<stop offset="0.2514" stop-color="#F6ECDF"/>
<stop offset="0.3547" stop-color="#D3AB43"/>
<stop offset="0.5168" stop-color="#CE9F41"/>
<stop offset="0.6844" stop-color="#F6ECDF"/>
<stop offset="0.8464" stop-color="#CE9F41"/>
<stop offset="0.9888" stop-color="#CE9F41"/>
</linearGradient>
<linearGradient id="paint3_linear_784_14862" x1="36.798" y1="-5.4742" x2="90.3446" y2="46.2099" gradientUnits="userSpaceOnUse">
<stop stop-color="#CE9F41"/>
<stop offset="0.1229" stop-color="#D3AB43"/>
<stop offset="0.2514" stop-color="#F6ECDF"/>
<stop offset="0.3547" stop-color="#D3AB43"/>
<stop offset="0.5168" stop-color="#CE9F41"/>
<stop offset="0.6844" stop-color="#F6ECDF"/>
<stop offset="0.8464" stop-color="#CE9F41"/>
<stop offset="0.9888" stop-color="#CE9F41"/>
</linearGradient>
<linearGradient id="paint4_linear_784_14862" x1="16.1235" y1="15.945" x2="69.6701" y2="67.6292" gradientUnits="userSpaceOnUse">
<stop stop-color="#CE9F41"/>
<stop offset="0.1229" stop-color="#D3AB43"/>
<stop offset="0.2514" stop-color="#F6ECDF"/>
<stop offset="0.3547" stop-color="#D3AB43"/>
<stop offset="0.5168" stop-color="#CE9F41"/>
<stop offset="0.6844" stop-color="#F6ECDF"/>
<stop offset="0.8464" stop-color="#CE9F41"/>
<stop offset="0.9888" stop-color="#CE9F41"/>
</linearGradient>
<linearGradient id="paint5_linear_784_14862" x1="12.4547" y1="19.7457" x2="66.0014" y2="71.4299" gradientUnits="userSpaceOnUse">
<stop stop-color="#CE9F41"/>
<stop offset="0.1229" stop-color="#D3AB43"/>
<stop offset="0.2514" stop-color="#F6ECDF"/>
<stop offset="0.3547" stop-color="#D3AB43"/>
<stop offset="0.5168" stop-color="#CE9F41"/>
<stop offset="0.6844" stop-color="#F6ECDF"/>
<stop offset="0.8464" stop-color="#CE9F41"/>
<stop offset="0.9888" stop-color="#CE9F41"/>
</linearGradient>
<linearGradient id="paint6_linear_784_14862" x1="18.898" y1="13.0705" x2="72.4447" y2="64.7546" gradientUnits="userSpaceOnUse">
<stop stop-color="#CE9F41"/>
<stop offset="0.1229" stop-color="#D3AB43"/>
<stop offset="0.2514" stop-color="#F6ECDF"/>
<stop offset="0.3547" stop-color="#D3AB43"/>
<stop offset="0.5168" stop-color="#CE9F41"/>
<stop offset="0.6844" stop-color="#F6ECDF"/>
<stop offset="0.8464" stop-color="#CE9F41"/>
<stop offset="0.9888" stop-color="#CE9F41"/>
</linearGradient>
<linearGradient id="paint7_linear_784_14862" x1="29.2896" y1="2.30422" x2="82.8363" y2="53.9883" gradientUnits="userSpaceOnUse">
<stop stop-color="#CE9F41"/>
<stop offset="0.1229" stop-color="#D3AB43"/>
<stop offset="0.2514" stop-color="#F6ECDF"/>
<stop offset="0.3547" stop-color="#D3AB43"/>
<stop offset="0.5168" stop-color="#CE9F41"/>
<stop offset="0.6844" stop-color="#F6ECDF"/>
<stop offset="0.8464" stop-color="#CE9F41"/>
<stop offset="0.9888" stop-color="#CE9F41"/>
</linearGradient>
<linearGradient id="paint8_linear_784_14862" x1="13.9991" y1="18.1462" x2="67.5457" y2="69.8304" gradientUnits="userSpaceOnUse">
<stop stop-color="#CE9F41"/>
<stop offset="0.1229" stop-color="#D3AB43"/>
<stop offset="0.2514" stop-color="#F6ECDF"/>
<stop offset="0.3547" stop-color="#D3AB43"/>
<stop offset="0.5168" stop-color="#CE9F41"/>
<stop offset="0.6844" stop-color="#F6ECDF"/>
<stop offset="0.8464" stop-color="#CE9F41"/>
<stop offset="0.9888" stop-color="#CE9F41"/>
</linearGradient>
<linearGradient id="paint9_linear_784_14862" x1="36.5596" y1="-5.22714" x2="90.1063" y2="46.457" gradientUnits="userSpaceOnUse">
<stop stop-color="#CE9F41"/>
<stop offset="0.1229" stop-color="#D3AB43"/>
<stop offset="0.2514" stop-color="#F6ECDF"/>
<stop offset="0.3547" stop-color="#D3AB43"/>
<stop offset="0.5168" stop-color="#CE9F41"/>
<stop offset="0.6844" stop-color="#F6ECDF"/>
<stop offset="0.8464" stop-color="#CE9F41"/>
<stop offset="0.9888" stop-color="#CE9F41"/>
</linearGradient>
<linearGradient id="paint10_linear_784_14862" x1="10.2133" y1="22.0685" x2="63.7599" y2="73.7526" gradientUnits="userSpaceOnUse">
<stop stop-color="#CE9F41"/>
<stop offset="0.1229" stop-color="#D3AB43"/>
<stop offset="0.2514" stop-color="#F6ECDF"/>
<stop offset="0.3547" stop-color="#D3AB43"/>
<stop offset="0.5168" stop-color="#CE9F41"/>
<stop offset="0.6844" stop-color="#F6ECDF"/>
<stop offset="0.8464" stop-color="#CE9F41"/>
<stop offset="0.9888" stop-color="#CE9F41"/>
</linearGradient>
<linearGradient id="paint11_linear_784_14862" x1="11.3733" y1="20.8668" x2="64.92" y2="72.551" gradientUnits="userSpaceOnUse">
<stop stop-color="#CE9F41"/>
<stop offset="0.1229" stop-color="#D3AB43"/>
<stop offset="0.2514" stop-color="#F6ECDF"/>
<stop offset="0.3547" stop-color="#D3AB43"/>
<stop offset="0.5168" stop-color="#CE9F41"/>
<stop offset="0.6844" stop-color="#F6ECDF"/>
<stop offset="0.8464" stop-color="#CE9F41"/>
<stop offset="0.9888" stop-color="#CE9F41"/>
</linearGradient>
<linearGradient id="paint12_linear_784_14862" x1="18.607" y1="74.7378" x2="77.2756" y2="74.4274" gradientUnits="userSpaceOnUse">
<stop stop-color="#CE9F41"/>
<stop offset="0.1229" stop-color="#D3AB43"/>
<stop offset="0.2514" stop-color="#F6ECDF"/>
<stop offset="0.3547" stop-color="#D3AB43"/>
<stop offset="0.5168" stop-color="#CE9F41"/>
<stop offset="0.6844" stop-color="#F6ECDF"/>
<stop offset="0.8464" stop-color="#CE9F41"/>
<stop offset="0.9888" stop-color="#CE9F41"/>
</linearGradient>
<linearGradient id="paint13_linear_784_14862" x1="18.6071" y1="74.7555" x2="77.2756" y2="74.4451" gradientUnits="userSpaceOnUse">
<stop stop-color="#CE9F41"/>
<stop offset="0.1229" stop-color="#D3AB43"/>
<stop offset="0.2514" stop-color="#F6ECDF"/>
<stop offset="0.3547" stop-color="#D3AB43"/>
<stop offset="0.5168" stop-color="#CE9F41"/>
<stop offset="0.6844" stop-color="#F6ECDF"/>
<stop offset="0.8464" stop-color="#CE9F41"/>
<stop offset="0.9888" stop-color="#CE9F41"/>
</linearGradient>
<linearGradient id="paint14_linear_784_14862" x1="18.6071" y1="74.7618" x2="77.2756" y2="74.4513" gradientUnits="userSpaceOnUse">
<stop stop-color="#CE9F41"/>
<stop offset="0.1229" stop-color="#D3AB43"/>
<stop offset="0.2514" stop-color="#F6ECDF"/>
<stop offset="0.3547" stop-color="#D3AB43"/>
<stop offset="0.5168" stop-color="#CE9F41"/>
<stop offset="0.6844" stop-color="#F6ECDF"/>
<stop offset="0.8464" stop-color="#CE9F41"/>
<stop offset="0.9888" stop-color="#CE9F41"/>
</linearGradient>
<linearGradient id="paint15_linear_784_14862" x1="18.6074" y1="74.7904" x2="77.2758" y2="74.48" gradientUnits="userSpaceOnUse">
<stop stop-color="#CE9F41"/>
<stop offset="0.1229" stop-color="#D3AB43"/>
<stop offset="0.2514" stop-color="#F6ECDF"/>
<stop offset="0.3547" stop-color="#D3AB43"/>
<stop offset="0.5168" stop-color="#CE9F41"/>
<stop offset="0.6844" stop-color="#F6ECDF"/>
<stop offset="0.8464" stop-color="#CE9F41"/>
<stop offset="0.9888" stop-color="#CE9F41"/>
</linearGradient>
<linearGradient id="paint16_linear_784_14862" x1="18.6072" y1="74.7912" x2="77.2756" y2="74.4808" gradientUnits="userSpaceOnUse">
<stop stop-color="#CE9F41"/>
<stop offset="0.1229" stop-color="#D3AB43"/>
<stop offset="0.2514" stop-color="#F6ECDF"/>
<stop offset="0.3547" stop-color="#D3AB43"/>
<stop offset="0.5168" stop-color="#CE9F41"/>
<stop offset="0.6844" stop-color="#F6ECDF"/>
<stop offset="0.8464" stop-color="#CE9F41"/>
<stop offset="0.9888" stop-color="#CE9F41"/>
</linearGradient>
<linearGradient id="paint17_linear_784_14862" x1="18.6075" y1="74.8079" x2="77.2761" y2="74.4975" gradientUnits="userSpaceOnUse">
<stop stop-color="#CE9F41"/>
<stop offset="0.1229" stop-color="#D3AB43"/>
<stop offset="0.2514" stop-color="#F6ECDF"/>
<stop offset="0.3547" stop-color="#D3AB43"/>
<stop offset="0.5168" stop-color="#CE9F41"/>
<stop offset="0.6844" stop-color="#F6ECDF"/>
<stop offset="0.8464" stop-color="#CE9F41"/>
<stop offset="0.9888" stop-color="#CE9F41"/>
</linearGradient>
<linearGradient id="paint18_linear_784_14862" x1="18.6074" y1="74.8178" x2="77.276" y2="74.5074" gradientUnits="userSpaceOnUse">
<stop stop-color="#CE9F41"/>
<stop offset="0.1229" stop-color="#D3AB43"/>
<stop offset="0.2514" stop-color="#F6ECDF"/>
<stop offset="0.3547" stop-color="#D3AB43"/>
<stop offset="0.5168" stop-color="#CE9F41"/>
<stop offset="0.6844" stop-color="#F6ECDF"/>
<stop offset="0.8464" stop-color="#CE9F41"/>
<stop offset="0.9888" stop-color="#CE9F41"/>
</linearGradient>
<linearGradient id="paint19_linear_784_14862" x1="18.6075" y1="74.8348" x2="77.2761" y2="74.5244" gradientUnits="userSpaceOnUse">
<stop stop-color="#CE9F41"/>
<stop offset="0.1229" stop-color="#D3AB43"/>
<stop offset="0.2514" stop-color="#F6ECDF"/>
<stop offset="0.3547" stop-color="#D3AB43"/>
<stop offset="0.5168" stop-color="#CE9F41"/>
<stop offset="0.6844" stop-color="#F6ECDF"/>
<stop offset="0.8464" stop-color="#CE9F41"/>
<stop offset="0.9888" stop-color="#CE9F41"/>
</linearGradient>
<linearGradient id="paint20_linear_784_14862" x1="18.6078" y1="74.8491" x2="77.276" y2="74.5386" gradientUnits="userSpaceOnUse">
<stop stop-color="#CE9F41"/>
<stop offset="0.1229" stop-color="#D3AB43"/>
<stop offset="0.2514" stop-color="#F6ECDF"/>
<stop offset="0.3547" stop-color="#D3AB43"/>
<stop offset="0.5168" stop-color="#CE9F41"/>
<stop offset="0.6844" stop-color="#F6ECDF"/>
<stop offset="0.8464" stop-color="#CE9F41"/>
<stop offset="0.9888" stop-color="#CE9F41"/>
</linearGradient>
<linearGradient id="paint21_linear_784_14862" x1="18.6076" y1="74.8623" x2="77.2761" y2="74.5519" gradientUnits="userSpaceOnUse">
<stop stop-color="#CE9F41"/>
<stop offset="0.1229" stop-color="#D3AB43"/>
<stop offset="0.2514" stop-color="#F6ECDF"/>
<stop offset="0.3547" stop-color="#D3AB43"/>
<stop offset="0.5168" stop-color="#CE9F41"/>
<stop offset="0.6844" stop-color="#F6ECDF"/>
<stop offset="0.8464" stop-color="#CE9F41"/>
<stop offset="0.9888" stop-color="#CE9F41"/>
</linearGradient>
<linearGradient id="paint22_linear_784_14862" x1="18.6077" y1="74.8736" x2="77.2762" y2="74.5632" gradientUnits="userSpaceOnUse">
<stop stop-color="#CE9F41"/>
<stop offset="0.1229" stop-color="#D3AB43"/>
<stop offset="0.2514" stop-color="#F6ECDF"/>
<stop offset="0.3547" stop-color="#D3AB43"/>
<stop offset="0.5168" stop-color="#CE9F41"/>
<stop offset="0.6844" stop-color="#F6ECDF"/>
<stop offset="0.8464" stop-color="#CE9F41"/>
<stop offset="0.9888" stop-color="#CE9F41"/>
</linearGradient>
<linearGradient id="paint23_linear_784_14862" x1="18.6077" y1="74.8852" x2="77.2761" y2="74.5748" gradientUnits="userSpaceOnUse">
<stop stop-color="#CE9F41"/>
<stop offset="0.1229" stop-color="#D3AB43"/>
<stop offset="0.2514" stop-color="#F6ECDF"/>
<stop offset="0.3547" stop-color="#D3AB43"/>
<stop offset="0.5168" stop-color="#CE9F41"/>
<stop offset="0.6844" stop-color="#F6ECDF"/>
<stop offset="0.8464" stop-color="#CE9F41"/>
<stop offset="0.9888" stop-color="#CE9F41"/>
</linearGradient>
<linearGradient id="paint24_linear_784_14862" x1="18.6078" y1="74.9022" x2="77.2765" y2="74.5918" gradientUnits="userSpaceOnUse">
<stop stop-color="#CE9F41"/>
<stop offset="0.1229" stop-color="#D3AB43"/>
<stop offset="0.2514" stop-color="#F6ECDF"/>
<stop offset="0.3547" stop-color="#D3AB43"/>
<stop offset="0.5168" stop-color="#CE9F41"/>
<stop offset="0.6844" stop-color="#F6ECDF"/>
<stop offset="0.8464" stop-color="#CE9F41"/>
<stop offset="0.9888" stop-color="#CE9F41"/>
</linearGradient>
<linearGradient id="paint25_linear_784_14862" x1="18.6078" y1="74.9195" x2="77.2764" y2="74.609" gradientUnits="userSpaceOnUse">
<stop stop-color="#CE9F41"/>
<stop offset="0.1229" stop-color="#D3AB43"/>
<stop offset="0.2514" stop-color="#F6ECDF"/>
<stop offset="0.3547" stop-color="#D3AB43"/>
<stop offset="0.5168" stop-color="#CE9F41"/>
<stop offset="0.6844" stop-color="#F6ECDF"/>
<stop offset="0.8464" stop-color="#CE9F41"/>
<stop offset="0.9888" stop-color="#CE9F41"/>
</linearGradient>
<linearGradient id="paint26_linear_784_14862" x1="18.608" y1="74.9356" x2="77.2767" y2="74.6252" gradientUnits="userSpaceOnUse">
<stop stop-color="#CE9F41"/>
<stop offset="0.1229" stop-color="#D3AB43"/>
<stop offset="0.2514" stop-color="#F6ECDF"/>
<stop offset="0.3547" stop-color="#D3AB43"/>
<stop offset="0.5168" stop-color="#CE9F41"/>
<stop offset="0.6844" stop-color="#F6ECDF"/>
<stop offset="0.8464" stop-color="#CE9F41"/>
<stop offset="0.9888" stop-color="#CE9F41"/>
</linearGradient>
<linearGradient id="paint27_linear_784_14862" x1="18.6082" y1="74.946" x2="77.2767" y2="74.6355" gradientUnits="userSpaceOnUse">
<stop stop-color="#CE9F41"/>
<stop offset="0.1229" stop-color="#D3AB43"/>
<stop offset="0.2514" stop-color="#F6ECDF"/>
<stop offset="0.3546" stop-color="#D5AE4A"/>
<stop offset="0.3547" stop-color="#D3AB43"/>
<stop offset="0.5168" stop-color="#CE9F41"/>
<stop offset="0.6844" stop-color="#F6ECDF"/>
<stop offset="0.8464" stop-color="#CE9F41"/>
<stop offset="0.9888" stop-color="#CE9F41"/>
</linearGradient>
<linearGradient id="paint28_linear_784_14862" x1="18.6083" y1="74.9772" x2="77.2769" y2="74.6667" gradientUnits="userSpaceOnUse">
<stop stop-color="#CE9F41"/>
<stop offset="0.1229" stop-color="#D3AB43"/>
<stop offset="0.2514" stop-color="#F6ECDF"/>
<stop offset="0.3547" stop-color="#D3AB43"/>
<stop offset="0.5168" stop-color="#CE9F41"/>
<stop offset="0.6844" stop-color="#F6ECDF"/>
<stop offset="0.8464" stop-color="#CE9F41"/>
<stop offset="0.9888" stop-color="#CE9F41"/>
</linearGradient>
<linearGradient id="paint29_linear_784_14862" x1="18.6079" y1="74.9803" x2="77.2767" y2="74.6699" gradientUnits="userSpaceOnUse">
<stop stop-color="#CE9F41"/>
<stop offset="0.1229" stop-color="#D3AB43"/>
<stop offset="0.2514" stop-color="#F6ECDF"/>
<stop offset="0.3547" stop-color="#D3AB43"/>
<stop offset="0.5168" stop-color="#CE9F41"/>
<stop offset="0.6844" stop-color="#F6ECDF"/>
<stop offset="0.8464" stop-color="#CE9F41"/>
<stop offset="0.9888" stop-color="#CE9F41"/>
</linearGradient>
<linearGradient id="paint30_linear_784_14862" x1="18.6084" y1="74.9875" x2="77.2767" y2="74.677" gradientUnits="userSpaceOnUse">
<stop stop-color="#CE9F41"/>
<stop offset="0.1229" stop-color="#D3AB43"/>
<stop offset="0.2514" stop-color="#F6ECDF"/>
<stop offset="0.3547" stop-color="#D3AB43"/>
<stop offset="0.5168" stop-color="#CE9F41"/>
<stop offset="0.6844" stop-color="#F6ECDF"/>
<stop offset="0.8464" stop-color="#CE9F41"/>
<stop offset="0.9888" stop-color="#CE9F41"/>
</linearGradient>
<linearGradient id="paint31_linear_784_14862" x1="18.6084" y1="74.998" x2="77.2768" y2="74.6876" gradientUnits="userSpaceOnUse">
<stop stop-color="#CE9F41"/>
<stop offset="0.1229" stop-color="#D3AB43"/>
<stop offset="0.2514" stop-color="#F6ECDF"/>
<stop offset="0.3547" stop-color="#D3AB43"/>
<stop offset="0.5168" stop-color="#CE9F41"/>
<stop offset="0.6844" stop-color="#F6ECDF"/>
<stop offset="0.8464" stop-color="#CE9F41"/>
<stop offset="0.9888" stop-color="#CE9F41"/>
</linearGradient>
<linearGradient id="paint32_linear_784_14862" x1="19.4176" y1="75.0132" x2="78.086" y2="74.7028" gradientUnits="userSpaceOnUse">
<stop stop-color="#CE9F41"/>
<stop offset="0.1229" stop-color="#D3AB43"/>
<stop offset="0.2514" stop-color="#F6ECDF"/>
<stop offset="0.3547" stop-color="#D3AB43"/>
<stop offset="0.5168" stop-color="#CE9F41"/>
<stop offset="0.6844" stop-color="#F6ECDF"/>
<stop offset="0.8464" stop-color="#CE9F41"/>
<stop offset="0.9888" stop-color="#CE9F41"/>
</linearGradient>
<linearGradient id="paint33_linear_784_14862" x1="17.7979" y1="74.7214" x2="76.4664" y2="74.411" gradientUnits="userSpaceOnUse">
<stop stop-color="#CE9F41"/>
<stop offset="0.1229" stop-color="#D3AB43"/>
<stop offset="0.2514" stop-color="#F6ECDF"/>
<stop offset="0.3547" stop-color="#D3AB43"/>
<stop offset="0.5168" stop-color="#CE9F41"/>
<stop offset="0.6844" stop-color="#F6ECDF"/>
<stop offset="0.8464" stop-color="#CE9F41"/>
<stop offset="0.9888" stop-color="#CE9F41"/>
</linearGradient>
<linearGradient id="paint34_linear_784_14862" x1="6.9284" y1="96.5348" x2="111.435" y2="96.5348" gradientUnits="userSpaceOnUse">
<stop stop-color="#CE9F41"/>
<stop offset="0.1229" stop-color="#D3AB43"/>
<stop offset="0.2407" stop-color="#F6ECDF"/>
<stop offset="0.3209" stop-color="#D3AB43"/>
<stop offset="0.3863" stop-color="#AE782B"/>
<stop offset="0.5168" stop-color="#CE9F41"/>
<stop offset="0.6844" stop-color="#F6ECDF"/>
<stop offset="0.8464" stop-color="#CE9F41"/>
<stop offset="0.9888" stop-color="#CE9F41"/>
</linearGradient>
</defs>
</svg>
