<svg width="117" height="33" viewBox="0 0 117 33" fill="none" xmlns="http://www.w3.org/2000/svg">
<path d="M16.1571 14.4041C13.9663 13.7928 11.7691 13.1751 9.5782 12.5639C8.78898 12.341 7.97451 12.1118 7.30525 11.6342C5.68893 10.488 5.96674 8.7815 7.41258 7.75632C9.21832 6.47643 11.6744 6.20263 13.8147 6.20263C16.315 6.20263 20.6083 6.85849 23.7652 10.6281L27.7492 7.1705C27.8375 7.09409 26.5559 5.61681 26.4738 5.53403C21.8837 0.560933 14.2062 -0.387839 7.99345 1.50971C7.72196 1.59248 7.45678 1.68163 7.18529 1.77714C4.21152 2.82143 1.52817 4.78902 0.751584 8.03013C-0.138654 11.7233 1.90069 14.9899 5.05756 16.7346C7.87349 18.2883 11.0998 18.7532 14.1746 19.5173C15.8162 19.9248 17.4704 20.3132 19.0425 20.9436C20.0338 21.3384 22.9886 22.4273 22.4898 23.9364C21.9658 25.5156 20.1032 26.1396 18.6511 26.4452C15.8667 27.0247 12.9434 26.9355 10.1969 26.1969C9.09204 25.8976 8.0187 25.4455 7.03376 24.847C6.74333 24.6687 3.89583 22.4718 4.07261 22.319C1.73653 24.3057 0.00656185 25.8658 0.00656185 25.8658C-0.126027 25.9868 1.79335 27.8461 1.907 27.948C3.75061 29.5717 5.96674 30.737 8.2902 31.4756C13.7579 33.214 21.2902 33.1057 25.6846 28.8203C27.143 27.394 28.0017 25.4965 28.0017 23.4334C28.0017 17.295 20.7851 15.6967 16.1634 14.4041H16.1571Z" fill="white"/>
<path d="M37.9274 0.847656H32.5039V32.0171H37.9274V0.847656Z" fill="white"/>
<path d="M79.6852 0.847656H74.2617V32.0171H79.6852V0.847656Z" fill="white"/>
<path d="M110.674 32.0229H117.001L102.902 3.10765L102.504 2.29259L101.804 0.853516H97.8827L97.1819 2.29259L96.7841 3.10128L82.6855 32.0229H89.0119L93.0085 23.7068H106.589L110.674 32.0229ZM95.7108 18.0715L99.72 9.72358L103.818 18.0715H95.7108Z" fill="white"/>
<path d="M63.8011 2.55411C60.4801 0.783922 56.7928 0.803028 54.0969 0.815763L47.6063 0.847598H43.7676V32.017H49.1911V22.7521C50.5296 22.7521 51.8618 22.7585 53.2003 22.7521C53.6612 22.7521 54.1221 22.7521 54.583 22.7649C55.006 22.7649 55.4354 22.7776 55.8647 22.7776C55.9468 22.7776 56.0226 22.7776 56.1046 22.7776C57.8472 24.0893 59.1415 25.2673 60.076 26.751C60.2338 26.9993 60.398 27.2922 60.5685 27.6042C61.1367 28.6294 61.8501 29.9093 63.1003 30.8836C64.9376 32.3163 67.059 32.5073 68.89 32.5073H68.9026V26.7765H68.89C67.9745 26.7765 67.059 26.7255 66.5728 26.3435C66.2445 26.0888 65.8846 25.4393 65.5374 24.8089C65.3353 24.4396 65.1207 24.0575 64.8744 23.6691C64.3504 22.8413 63.7632 22.1026 63.1445 21.4213C65.8973 20.0778 68.0566 17.6262 68.9531 14.7926C69.7928 12.1374 69.6034 9.34198 68.4354 7.10695C67.4441 5.2094 65.8404 3.63661 63.8137 2.55411H63.8011ZM63.5296 13.0416C63.0813 14.4488 61.9575 15.6777 60.5116 16.3272C60.0381 16.5437 59.5267 16.7029 58.99 16.8112C57.6515 17.0722 56.193 17.0531 54.6525 17.034C54.16 17.034 53.6675 17.0213 53.1751 17.0213C51.8492 17.0213 50.517 17.0213 49.1911 17.0213V6.57207L54.1284 6.5466C56.837 6.53387 59.2426 6.60391 61.143 7.62272C62.1469 8.1576 62.9424 8.92808 63.397 9.78771C63.8453 10.6346 63.8958 11.8826 63.5233 13.0416H63.5296Z" fill="white"/>
</svg>
