<svg width="73" height="53" viewBox="0 0 73 53" fill="none" xmlns="http://www.w3.org/2000/svg">
<path d="M53.7606 24.6553C53.7606 32.5002 50.5216 39.5746 45.3254 44.605C42.9199 43.8919 40.6975 42.7521 38.7465 41.2684C43.7344 37.4733 46.9544 31.4432 46.9544 24.6617C46.9544 17.8802 43.7281 11.8501 38.7465 8.05501C33.7523 11.8501 30.5323 17.8739 30.5323 24.6617C30.5323 30.1761 32.6601 35.1874 36.1326 38.9124C32.9947 35.5885 29.0486 33.0606 24.61 31.6342C24.0355 29.4056 23.7324 27.0687 23.7324 24.6617C23.7324 16.8232 26.9714 9.74243 32.1676 4.71202C34.1059 2.82721 36.322 1.23531 38.7465 0C41.171 1.24168 43.3871 2.83358 45.3254 4.71202C50.5216 9.74879 53.7543 16.8232 53.7543 24.6617L53.7606 24.6553Z" fill="#A4C241"/>
<path d="M38.752 49.3171C37.7355 49.8392 36.6874 50.2977 35.5951 50.6861C32.7034 51.7368 29.5971 52.3035 26.3518 52.3035C17.3042 52.3035 9.28577 47.8844 4.2916 41.0711C2.94046 39.2245 1.8103 37.2123 0.945312 35.06C2.82681 33.7802 4.86615 32.7295 7.03808 31.9463C7.86518 34.1686 9.05847 36.2126 10.5485 38.0082C14.3304 42.5547 20.0002 45.4456 26.3518 45.4456C28.3407 45.4456 30.2663 45.1591 32.091 44.6305C32.091 44.6305 32.1415 44.6178 32.1668 44.6051C34.1051 46.4899 36.3212 48.0818 38.7457 49.3171H38.752Z" fill="#A4C241"/>
<path d="M72.0571 42.529C67.0377 48.5081 59.5306 52.2969 51.146 52.2969C48.2416 52.2969 45.451 51.8448 42.8245 50.9979C41.4102 50.5458 40.0527 49.979 38.7521 49.3104C36.3276 48.0751 34.1115 46.4769 32.1732 44.5984C32.1416 44.6112 32.1227 44.6175 32.0974 44.6239C28.3218 40.0774 22.6457 37.1865 16.3004 37.1865C14.3053 37.1865 12.3859 37.4731 10.5612 38.0016C9.07118 36.2123 7.87788 34.1619 7.05078 31.9396C9.94248 30.889 13.0552 30.3223 16.3004 30.3223C19.2047 30.3223 21.9954 30.7744 24.6219 31.6213C29.0605 33.0476 33.0066 35.5755 36.1445 38.8994C36.1761 38.9313 36.2077 38.9631 36.2329 38.9949C37.0158 39.8164 37.8555 40.5741 38.7584 41.2554C40.7094 42.7391 42.9318 43.8789 45.3373 44.5921C47.1809 45.1397 49.1382 45.4326 51.1586 45.4326C57.5671 45.4326 63.2936 42.4844 67.0756 37.8615L72.0697 42.5226L72.0571 42.529Z" fill="url(#paint0_linear_1403_38320)"/>
<defs>
<linearGradient id="paint0_linear_1403_38320" x1="7.03815" y1="41.3191" x2="72.0571" y2="41.3191" gradientUnits="userSpaceOnUse">
<stop offset="0.06" stop-color="#A4C241"/>
<stop offset="0.32" stop-color="#58B0E0"/>
</linearGradient>
</defs>
</svg>
