<svg width="115" height="11" viewBox="0 0 115 11" fill="none" xmlns="http://www.w3.org/2000/svg">
<path d="M5.17503 3.16181V7.24344C5.17503 7.37079 5.21292 7.47267 5.28868 7.54272C5.35813 7.61276 5.42758 7.65097 5.50966 7.65097H5.73064V8.41508H5.26343C4.92248 8.41508 4.65099 8.28772 4.44895 8.03939C3.96911 8.3705 3.45138 8.53607 2.88946 8.53607C2.11287 8.53607 1.49412 8.24316 1.04584 7.65097C0.673333 7.16704 0.490234 6.59395 0.490234 5.92535C0.490234 5.14214 0.755412 4.48627 1.29208 3.97049C1.76561 3.49929 2.34648 3.27006 3.04099 3.27006C3.43244 3.27006 3.83021 3.35921 4.22797 3.53114L4.70782 3.16181H5.17503ZM4.22797 4.28251C3.89966 4.12332 3.57134 4.04691 3.23671 4.04691C2.67479 4.04691 2.2202 4.2634 1.86663 4.6964C1.5762 5.04662 1.43098 5.46688 1.43098 5.95082C1.43098 6.53027 1.56988 6.98237 1.854 7.31348C2.12549 7.61276 2.49801 7.76559 2.96522 7.76559C3.36299 7.76559 3.78601 7.6637 4.22166 7.45357V4.28887L4.22797 4.28251ZM3.2746 1.07324C3.41981 1.07324 3.5524 1.12418 3.65973 1.23243C3.76707 1.34068 3.82389 1.46167 3.82389 1.60175C3.82389 1.75458 3.76707 1.88192 3.65973 1.9838C3.5524 2.08569 3.42613 2.14299 3.2746 2.14299C3.12307 2.14299 2.99679 2.09205 2.88946 1.9838C2.78212 1.88192 2.7253 1.74821 2.7253 1.60175C2.7253 1.4553 2.78212 1.33431 2.88946 1.23243C2.99679 1.13055 3.12307 1.07324 3.2746 1.07324ZM4.61942 1.07324C4.77727 1.07324 4.90986 1.12418 5.01719 1.23243C5.12452 1.34068 5.18135 1.46167 5.18135 1.60175C5.18135 1.75458 5.12452 1.88192 5.01719 1.9838C4.90986 2.08569 4.77727 2.14299 4.61942 2.14299C4.46158 2.14299 4.34162 2.09205 4.23429 1.9838C4.12695 1.88192 4.07013 1.74821 4.07013 1.60175C4.07013 1.4553 4.12695 1.33431 4.23429 1.23243C4.34162 1.13055 4.46789 1.07324 4.61942 1.07324Z" fill="white"/>
<path d="M7.71258 7.65039V8.4145H5.6543V7.65039H7.71258Z" fill="white"/>
<path d="M9.17727 5.21149C9.43614 4.5811 9.87178 4.08442 10.4779 3.7342C10.9641 3.4604 11.4755 3.32031 11.9995 3.32031C12.5236 3.32031 13.0287 3.4604 13.5085 3.7342C14.1209 4.08442 14.5566 4.5811 14.8091 5.21149L14.7081 5.47255C14.1967 5.68269 13.78 5.96287 13.4517 6.32582C13.117 6.70151 12.9087 7.14087 12.8203 7.65665H14.9228V8.42076H12.6688C12.4478 8.42076 12.2331 8.31887 12.0248 8.10874H11.9932C11.7912 8.31887 11.5765 8.42076 11.3492 8.42076H7.63672V7.65665H11.185C11.103 7.21728 10.9199 6.80339 10.6294 6.41497C10.2948 6.01381 9.85284 5.69542 9.29723 5.47255L9.18359 5.21149H9.17727ZM13.7926 5.10324C13.5464 4.75939 13.2686 4.49832 12.9592 4.32639C12.6625 4.17357 12.3468 4.09716 12.0058 4.09716C11.6649 4.09716 11.3555 4.1672 11.084 4.30092C10.7557 4.46011 10.4716 4.72755 10.219 5.10324C10.6042 5.2688 10.9325 5.5044 11.2103 5.80367C11.5512 6.17936 11.8101 6.6442 11.9869 7.21092H12.0185C12.2016 6.6251 12.473 6.14752 12.8203 5.77183C13.1044 5.48529 13.4264 5.26243 13.7989 5.10324H13.7926Z" fill="white"/>
<path d="M16.9059 7.65039V8.4145H14.8477V7.65039H16.9059Z" fill="white"/>
<path d="M19.7723 3.44824V7.38979C19.7723 7.47893 19.7597 7.56172 19.7407 7.65086H20.3279V8.41497H19.8922L19.5702 8.03928H19.5387C19.3366 8.29398 19.0778 8.41497 18.7621 8.41497H16.8301V7.65086H18.4085C18.5285 7.65086 18.6232 7.61265 18.6989 7.5426C18.7873 7.46619 18.8315 7.36431 18.8315 7.24333V3.45461H19.7786L19.7723 3.44824ZM17.8718 9.54203C18.0171 9.54203 18.1497 9.59297 18.257 9.70122C18.3643 9.8031 18.4211 9.93045 18.4211 10.0705C18.4211 10.2106 18.3643 10.3507 18.257 10.4526C18.1497 10.5545 18.0234 10.6118 17.8718 10.6118C17.7203 10.6118 17.594 10.5609 17.4867 10.4526C17.3794 10.3507 17.3226 10.217 17.3226 10.0705C17.3226 9.92409 17.3731 9.8031 17.4867 9.70122C17.594 9.59934 17.7203 9.54203 17.8718 9.54203ZM19.2167 9.54203C19.3745 9.54203 19.5008 9.59297 19.6144 9.70122C19.7218 9.8031 19.7786 9.93045 19.7786 10.0705C19.7786 10.2106 19.7218 10.3507 19.6144 10.4526C19.5071 10.5545 19.3745 10.6118 19.2167 10.6118C19.0588 10.6118 18.9389 10.5609 18.8315 10.4526C18.7242 10.3507 18.6674 10.217 18.6674 10.0705C18.6674 9.92409 18.7179 9.8031 18.8315 9.70122C18.9389 9.59934 19.0651 9.54203 19.2167 9.54203Z" fill="white"/>
<path d="M23.2 3.44824V7.38979C23.2 7.47893 23.1874 7.56172 23.1684 7.65086H23.7556V8.41497H23.32L22.998 8.03928H22.9664C22.7644 8.29398 22.5055 8.41497 22.1898 8.41497H20.2578V7.65086H21.8362C21.9562 7.65086 22.0509 7.61265 22.1267 7.5426C22.2151 7.46619 22.2593 7.36431 22.2593 7.24333V3.45461H23.2063L23.2 3.44824ZM22.6444 9.54203C22.8023 9.54203 22.9285 9.59297 23.0422 9.70122C23.1495 9.8031 23.2063 9.93045 23.2063 10.0705C23.2063 10.2106 23.1495 10.3507 23.0422 10.4526C22.9348 10.5545 22.8023 10.6118 22.6444 10.6118C22.4866 10.6118 22.3666 10.5609 22.2593 10.4526C22.1519 10.3507 22.0951 10.217 22.0951 10.0705C22.0951 9.92409 22.1456 9.8031 22.2593 9.70122C22.3666 9.59934 22.4929 9.54203 22.6444 9.54203Z" fill="white"/>
<path d="M26.6093 0.68457V5.82959C27.6195 4.16128 28.9454 3.32076 30.5996 3.32076C31.4898 3.32076 32.2032 3.58182 32.7462 4.11033C33.2324 4.59427 33.4786 5.20556 33.4786 5.95694V7.39602C33.4786 7.49153 33.466 7.57431 33.4471 7.65709H33.8385V8.4212H33.6049L33.2829 8.04551H33.2513C33.043 8.30022 32.7841 8.4212 32.4747 8.4212H23.6797V7.65709H25.6811V0.690934H26.6156L26.6093 0.68457ZM32.5252 5.86142C32.5252 5.26287 32.2979 4.8044 31.837 4.49239C31.4835 4.23769 31.0226 4.11671 30.467 4.11671C29.8356 4.11671 29.2421 4.30136 28.6865 4.67705C27.8278 5.26923 27.1333 6.26259 26.6093 7.65709H32.1149C32.3863 7.65709 32.5252 7.52336 32.5252 7.24319V5.86142Z" fill="white"/>
<path d="M36.6927 0.68457V7.38965C36.6927 7.66983 36.598 7.90542 36.4022 8.10282C36.2002 8.31295 35.9603 8.41484 35.6761 8.41484H33.7441V7.65073H35.3226C35.4615 7.65073 35.5688 7.60615 35.6446 7.51064C35.714 7.43423 35.7456 7.3387 35.7456 7.24319V0.68457H36.6927Z" fill="white"/>
<path d="M39.1736 0.68457V8.31295L38.6938 8.68864H38.2266V0.68457H39.1736Z" fill="white"/>
<path d="M51.8661 3.44819V7.38973C51.8661 7.6508 51.7841 7.87367 51.6199 8.05833C51.4115 8.29393 51.159 8.41492 50.8623 8.41492H44.5043C44.075 8.41492 43.7025 8.2812 43.3931 8.00739C42.9701 7.65717 42.7617 7.1987 42.7617 6.63199V4.60072L43.2416 4.22504H43.7088V6.63199C43.7088 6.91216 43.8098 7.14776 44.0182 7.34515C44.2202 7.54892 44.4727 7.64443 44.7758 7.64443H50.5024C50.7865 7.64443 50.9254 7.51072 50.9254 7.23054V3.44182H51.8725L51.8661 3.44819ZM46.651 3.15527C46.8025 3.15527 46.9288 3.20621 47.0361 3.31446C47.1435 3.41635 47.194 3.5437 47.194 3.69652C47.194 3.84935 47.1371 3.96396 47.0361 4.07221C46.9288 4.17409 46.8025 4.2314 46.651 4.2314C46.4995 4.2314 46.3669 4.18046 46.2595 4.07221C46.1522 3.96396 46.1017 3.84298 46.1017 3.69652C46.1017 3.55007 46.1522 3.41635 46.2595 3.31446C46.3669 3.21258 46.4931 3.15527 46.651 3.15527ZM47.9958 3.15527C48.1537 3.15527 48.2799 3.20621 48.3873 3.31446C48.4946 3.42271 48.5514 3.5437 48.5514 3.69652C48.5514 3.84935 48.4946 3.96396 48.3873 4.07221C48.2799 4.18046 48.1473 4.2314 47.9958 4.2314C47.8443 4.2314 47.718 4.18046 47.6107 4.07221C47.5033 3.96396 47.4465 3.84298 47.4465 3.69652C47.4465 3.55007 47.5033 3.41635 47.6107 3.31446C47.718 3.21258 47.8443 3.15527 47.9958 3.15527Z" fill="white"/>
<path d="M54.3396 0.68457V7.24319C54.3396 7.35781 54.3775 7.45332 54.4533 7.5361C54.5354 7.61251 54.6364 7.65709 54.7627 7.65709H54.9079V8.4212H54.3965C54.1565 8.4212 53.9545 8.34479 53.7714 8.19197C53.5189 7.98183 53.3926 7.7144 53.3926 7.38965V0.68457H54.3396Z" fill="white"/>
<path d="M56.8845 7.65039V8.4145H54.8262V7.65039H56.8845Z" fill="white"/>
<path d="M58.2871 3.63232C58.9689 3.42219 59.6066 3.32031 60.2001 3.32031C61.1219 3.32031 61.8228 3.60049 62.3026 4.15447C62.7193 4.63204 62.9277 5.24969 62.9277 6.02017V7.38921C62.9277 7.47835 62.915 7.56114 62.8961 7.65028H63.2875V8.41439H63.0539L62.7446 8.0387H62.713C62.5046 8.2934 62.2458 8.41439 61.9364 8.41439H56.8223V7.65028H61.5702C61.8543 7.65028 61.9932 7.51656 61.9932 7.23638V5.98196C61.9932 5.42162 61.8417 4.97589 61.5386 4.65114C61.204 4.28819 60.7178 4.10989 60.0802 4.10989C59.695 4.10989 59.1015 4.18631 58.2997 4.3455V3.61959L58.2871 3.63232ZM59.6129 9.54145C59.7708 9.54145 59.8971 9.59239 60.0044 9.70064C60.1117 9.80252 60.1685 9.92987 60.1685 10.07C60.1685 10.21 60.1117 10.3501 60.0044 10.452C59.8971 10.5539 59.7645 10.6112 59.6129 10.6112C59.4614 10.6112 59.3351 10.5603 59.2278 10.452C59.1205 10.3501 59.07 10.2164 59.07 10.07C59.07 9.92351 59.1205 9.80252 59.2278 9.70064C59.3351 9.59876 59.4614 9.54145 59.6129 9.54145Z" fill="white"/>
<path d="M65.2634 7.65039V8.4145H63.2051V7.65039H65.2634Z" fill="white"/>
<path d="M68.1297 3.44835V7.3899C68.1297 7.47905 68.1171 7.56183 68.0981 7.65097H68.6853V8.41508H68.2497L67.9277 8.03939H67.8961C67.6941 8.29409 67.4352 8.41508 67.1195 8.41508H65.1875V7.65097H66.7659C66.8859 7.65097 66.9806 7.61276 67.0564 7.54272C67.1448 7.46631 67.189 7.36442 67.189 7.24344V3.45472H68.136L68.1297 3.44835ZM66.3303 1.07324C66.4881 1.07324 66.6144 1.12418 66.7217 1.23243C66.8291 1.34068 66.8796 1.46167 66.8796 1.60175C66.8796 1.75458 66.8291 1.88192 66.7217 1.9838C66.6207 2.08569 66.4881 2.14299 66.3303 2.14299C66.1724 2.14299 66.0525 2.09205 65.9451 1.9838C65.8378 1.88192 65.781 1.74821 65.781 1.60175C65.781 1.4553 65.8378 1.33431 65.9451 1.23243C66.0525 1.13055 66.1788 1.07324 66.3303 1.07324ZM67.6877 1.07324C67.833 1.07324 67.9655 1.12418 68.0729 1.23243C68.1802 1.34068 68.237 1.46167 68.237 1.60175C68.237 1.75458 68.1802 1.88192 68.0729 1.9838C67.9655 2.08569 67.8393 2.14299 67.6877 2.14299C67.5299 2.14299 67.3973 2.09205 67.29 1.9838C67.1826 1.88192 67.1321 1.74821 67.1321 1.60175C67.1321 1.4553 67.1826 1.33431 67.29 1.23243C67.3973 1.13055 67.5299 1.07324 67.6877 1.07324Z" fill="white"/>
<path d="M71.5516 3.44835V7.3899C71.5516 7.47905 71.539 7.56183 71.52 7.65097H72.1072V8.41508H71.6715L71.3495 8.03939H71.318C71.1159 8.29409 70.8571 8.41508 70.5414 8.41508H68.6094V7.65097H70.1878C70.3078 7.65097 70.4025 7.61276 70.4782 7.54272C70.5666 7.46631 70.6108 7.36442 70.6108 7.24344V3.45472H71.5579L71.5516 3.44835ZM71.0717 1.07324C71.2296 1.07324 71.3622 1.12418 71.4695 1.23243C71.5768 1.33431 71.6273 1.46167 71.6273 1.60175C71.6273 1.75458 71.5705 1.88192 71.4695 1.9838C71.3685 2.08569 71.2296 2.14299 71.0717 2.14299C70.9139 2.14299 70.7939 2.09205 70.6866 1.9838C70.5793 1.88192 70.5224 1.74821 70.5224 1.60175C70.5224 1.4553 70.5793 1.33431 70.6866 1.23243C70.7939 1.13055 70.9202 1.07324 71.0717 1.07324Z" fill="white"/>
<path d="M74.2217 7.65075C73.9186 7.16682 73.7671 6.6192 73.7671 5.99517C73.7671 5.12281 74.0196 4.44785 74.5247 3.97665C74.9793 3.55638 75.5728 3.33988 76.3178 3.32715C76.8545 3.32715 77.2901 3.44176 77.6437 3.66463C78.1804 4.00848 78.4456 4.54973 78.4456 5.28201V7.23685C78.4456 7.33874 78.4708 7.42152 78.5213 7.49793C78.5908 7.59344 78.6792 7.64439 78.7865 7.65075H78.8118V8.41486H78.534C78.1993 8.41486 77.9341 8.2875 77.7321 8.03917C77.3343 8.51037 76.8229 8.73961 76.2105 8.73961C75.5981 8.73961 75.0046 8.504 74.531 8.03917H74.5058L74.1964 8.41486H72.0371V7.65075H74.228H74.2217ZM77.4922 5.28201C77.4922 4.90632 77.3722 4.60704 77.126 4.38417C76.9113 4.19314 76.6335 4.09126 76.2926 4.09126C75.819 4.09126 75.4339 4.26318 75.1498 4.60703C74.8594 4.95088 74.7141 5.39662 74.7141 5.9506C74.7141 6.53642 74.8657 7.02036 75.1687 7.40878C75.4592 7.78447 75.819 7.96913 76.261 7.96913C76.703 7.96913 77.1007 7.7781 77.4922 7.39604V5.27563V5.28201Z" fill="white"/>
<path d="M81.6595 0.68457V7.38965C81.6595 7.66983 81.5648 7.90542 81.369 8.10282C81.167 8.31295 80.9271 8.41484 80.6429 8.41484H78.7109V7.65073H80.2894C80.4283 7.65073 80.5356 7.60615 80.6114 7.51064C80.6808 7.43423 80.7124 7.3387 80.7124 7.24319V0.68457H81.6595Z" fill="white"/>
<path d="M86.1873 0.68457V7.24319C86.1873 7.35781 86.2252 7.45332 86.3009 7.5361C86.383 7.61251 86.484 7.65709 86.6103 7.65709H86.7555V8.4212H86.2441C86.0042 8.4212 85.8022 8.34479 85.6191 8.19197C85.3665 7.98183 85.2402 7.7144 85.2402 7.38965V0.68457H86.1873Z" fill="white"/>
<path d="M88.7302 7.65039V8.4145H86.6719V7.65039H88.7302Z" fill="white"/>
<path d="M91.5985 3.44824V7.38979C91.5985 7.65723 91.5101 7.88646 91.3333 8.08385C91.1312 8.30672 90.885 8.42134 90.5883 8.42134H88.6562V7.65723H90.2347C90.361 7.65723 90.462 7.61265 90.5441 7.52988C90.6198 7.45983 90.6577 7.36432 90.6577 7.2497V3.46098H91.6048L91.5985 3.44824ZM89.597 9.54203C89.7422 9.54203 89.8748 9.59297 89.9821 9.70122C90.0895 9.8031 90.1463 9.93045 90.1463 10.0705C90.1463 10.2106 90.0895 10.3507 89.9821 10.4526C89.8748 10.5545 89.7485 10.6118 89.597 10.6118C89.4392 10.6118 89.3066 10.5609 89.1992 10.4526C89.0919 10.3507 89.0351 10.217 89.0351 10.0705C89.0351 9.92409 89.0919 9.8031 89.1992 9.70122C89.3066 9.59934 89.4392 9.54203 89.597 9.54203ZM90.9418 9.54203C91.0997 9.54203 91.2259 9.59297 91.3333 9.70122C91.4343 9.8031 91.4911 9.93045 91.4911 10.0705C91.4911 10.2106 91.4406 10.3507 91.3333 10.4526C91.2323 10.5545 91.0997 10.6118 90.9418 10.6118C90.784 10.6118 90.664 10.5609 90.5567 10.4526C90.4493 10.3444 90.3925 10.217 90.3925 10.0705C90.3925 9.92409 90.4493 9.8031 90.5567 9.70122C90.664 9.59934 90.7903 9.54203 90.9418 9.54203Z" fill="white"/>
<path d="M96.0605 3.44777V7.65039H96.6287V8.4145H96.0605C96.0352 9.31233 95.7069 9.9873 95.0692 10.433C94.5578 10.8023 93.8949 10.9806 93.0804 10.9806C92.9541 10.9806 92.7963 10.9806 92.6006 10.9679L92.2344 10.5222V10.1783C92.449 10.2038 92.6827 10.2229 92.9352 10.2229C94.3874 10.2229 95.1134 9.5734 95.1134 8.28078V3.44141H96.0605V3.44777Z" fill="white"/>
<path d="M98.6052 7.65039V8.4145H96.5469V7.65039H98.6052Z" fill="white"/>
<path d="M101.472 3.44824V7.38979C101.472 7.47893 101.459 7.56172 101.44 7.65086H102.027V8.41497H101.591L101.269 8.03928H101.238C101.036 8.29398 100.777 8.41497 100.461 8.41497H98.5293V7.65086H100.108C100.228 7.65086 100.322 7.61265 100.398 7.5426C100.487 7.46619 100.531 7.36431 100.531 7.24333V3.45461H101.478L101.472 3.44824ZM99.5711 9.54203C99.7163 9.54203 99.8489 9.59297 99.9562 9.70122C100.064 9.8031 100.12 9.93045 100.12 10.0705C100.12 10.2106 100.064 10.3507 99.9562 10.4526C99.8489 10.5545 99.7226 10.6118 99.5711 10.6118C99.4195 10.6118 99.2933 10.5609 99.1859 10.4526C99.0786 10.3507 99.0281 10.217 99.0281 10.0705C99.0281 9.92409 99.0849 9.8031 99.1859 9.70122C99.2869 9.59934 99.4195 9.54203 99.5711 9.54203ZM100.916 9.54203C101.074 9.54203 101.206 9.59297 101.314 9.70122C101.421 9.80947 101.472 9.93045 101.472 10.0705C101.472 10.2106 101.415 10.3507 101.314 10.4526C101.206 10.5545 101.074 10.6118 100.916 10.6118C100.758 10.6118 100.638 10.5609 100.531 10.4526C100.423 10.3444 100.367 10.217 100.367 10.0705C100.367 9.92409 100.423 9.8031 100.531 9.70122C100.638 9.59934 100.764 9.54203 100.916 9.54203Z" fill="white"/>
<path d="M104.009 7.65039V8.4145H101.951V7.65039H104.009Z" fill="white"/>
<path d="M114.505 3.44777V7.38932C114.505 7.66949 114.404 7.91146 114.208 8.11522C114.012 8.31898 113.779 8.4145 113.501 8.4145H111.354L111.001 8.0388H110.969C110.761 8.29351 110.502 8.4145 110.192 8.4145H108.058L107.692 8.0388H107.661C107.452 8.29351 107.193 8.4145 106.884 8.4145H103.936V7.65039H106.518C106.802 7.65039 106.941 7.51666 106.941 7.23649V4.68945H107.888V7.38932C107.888 7.48483 107.882 7.56761 107.863 7.65039H109.833C110.117 7.65039 110.256 7.51666 110.256 7.23649V4.05905H111.203V7.38294C111.203 7.47846 111.19 7.56124 111.171 7.64402H113.147C113.431 7.64402 113.57 7.5103 113.57 7.23013V3.44141H114.517L114.505 3.44777Z" fill="white"/>
</svg>
