<svg width="109" height="81" viewBox="0 0 109 81" fill="none" xmlns="http://www.w3.org/2000/svg">
<path d="M108.971 41.8392C108.698 42.2931 107.503 44.2058 103.662 46.8835C103.318 47.1299 102.954 47.3827 102.571 47.6291C100.758 48.8221 98.4578 50.1318 95.5533 51.5323C88.6396 54.8649 89.0165 61.0048 89.0165 61.0048V62.9759L89.075 64.6551H85.5272C84.6565 64.4995 83.9937 63.7409 83.9937 62.8332V29.0924L77.5999 33.5596V62.8332C77.5999 63.7474 76.9372 64.4995 76.0665 64.6551H72.7526C71.8819 64.4995 71.2191 63.7409 71.2191 62.8332V41.5345L65.2087 45.7294C64.9683 45.898 64.8253 46.1768 64.8253 46.4685V62.8332C64.8253 63.7474 64.1626 64.4995 63.2919 64.6551H59.6531C58.7824 64.4995 58.1196 63.7409 58.1196 62.8332V56.7646C58.1196 53.8664 55.7675 51.5193 52.863 51.5193H32.0376L54.2925 42.2542C57.8532 40.7824 61.544 39.0642 61.544 35.5047V29.0859L54.9942 33.5532V37.3461C54.9942 38.5391 54.299 39.6283 53.2073 40.1405L52.9994 40.2313L26.3456 51.6749V53.2634H47.4828C49.8155 53.2634 51.7064 55.1437 51.7064 57.4778V63.0083C51.6284 63.8382 51.0046 64.5125 50.1924 64.6551H21.5502C20.6925 64.4995 20.0427 63.7669 20.0232 62.8786V41.7809C20.0232 41.7809 20.0103 41.8198 20.0038 41.8328C19.7309 42.2866 18.5353 44.1993 14.6951 46.877C14.3507 47.1234 13.9868 47.3763 13.6035 47.6226C11.7906 48.8156 9.49037 50.1253 6.58587 51.5258C-0.308256 54.8778 0.0686146 61.0113 0.0686146 61.0113C0.0686146 61.0113 -0.451207 64.9404 1.36817 68.2471C1.52411 68.5323 1.68006 68.7593 1.95946 69.0316C3.11607 70.2051 4.72751 70.9248 6.4949 70.9248H7.98289C10.7509 70.9248 12.9082 69.1677 13.8114 66.7169C14.5326 69.0121 16.0986 70.8924 19.2565 70.8924C19.3605 70.8924 19.6529 70.9118 19.7438 70.9118C19.7828 70.9118 19.8998 70.8989 20.0362 70.9118L44.4484 70.9183H46.6836C49.6011 70.9183 51.9598 68.5972 52.0507 65.712H52.0832C52.1742 68.6037 54.5329 70.9183 57.4504 70.9183H59.6856C62.6031 70.9183 64.9618 68.5972 65.0528 65.712H65.0853C65.1762 68.6037 67.5349 70.9183 70.4524 70.9183H72.6876C75.6051 70.9183 77.9638 68.5972 78.0548 65.712H78.0873C78.1782 68.6037 80.5369 70.9183 83.4544 70.9183H85.6897C87.639 70.9183 89.3284 69.8745 90.2706 68.3314C90.4525 68.5583 90.6539 68.7917 90.9009 69.0316C92.0575 70.2051 93.6689 70.9248 95.4363 70.9248H96.9243C99.6923 70.9248 101.85 69.1677 102.753 66.7169C103.474 69.0121 105.04 70.8924 108.198 70.8924C108.302 70.8924 108.594 70.9118 108.685 70.9118C108.724 70.9118 108.841 70.8989 108.978 70.9118V41.7939C108.978 41.7939 108.965 41.8328 108.958 41.8457L108.971 41.8392ZM13.6165 62.7684C13.6165 63.8382 12.7393 64.7005 11.6801 64.7005H8.43124C7.35911 64.7005 6.4949 63.8382 6.4949 62.7684V57.173C6.4949 57.173 6.37794 55.3771 7.89192 53.4774C7.89192 53.4644 7.90492 53.4579 7.91142 53.4449C8.27529 52.9911 8.73663 52.5437 9.30844 52.0963C9.32143 52.0834 9.32793 52.0769 9.34742 52.0639C9.7113 51.7722 10.1272 51.5063 10.608 51.2405C11.8556 50.5662 12.8432 50.0281 13.6165 49.5872V62.7684ZM102.571 62.7684C102.571 63.8382 101.694 64.7005 100.635 64.7005H97.3856C96.3135 64.7005 95.4493 63.8382 95.4493 62.7684V57.173C95.4493 57.173 95.3323 55.3771 96.8463 53.4774C96.8463 53.4644 96.8593 53.4579 96.8658 53.4449C97.2297 52.9911 97.691 52.5437 98.2628 52.0963C98.2758 52.0834 98.2823 52.0769 98.3018 52.0639C98.6657 51.7722 99.0816 51.5063 99.5624 51.2405C100.81 50.5662 101.798 50.0281 102.571 49.5872V62.7684Z" fill="black"/>
<path d="M67.0141 73.2575L63.1362 77.127L67.0141 80.9964L70.8919 77.127L67.0141 73.2575Z" fill="black"/>
<path d="M74.7697 73.2605L70.8918 77.1299L74.7697 80.9993L78.6476 77.1299L74.7697 73.2605Z" fill="black"/>
<path d="M85.3127 79.0492L85.4752 80.9554L93.279 75.8787L93.1166 74.0244L85.3127 79.0492Z" fill="#8C734C"/>
<path d="M34.8252 35.9002L34.6627 34.0459L26.8524 39.0707L27.0214 40.9769L34.8252 35.9002Z" fill="#8C734C"/>
<path d="M63.3309 5.349C62.2198 3.89666 59.8676 3.40391 58.0027 3.27423C58.0222 3.13159 58.0352 2.98247 58.0352 2.82686C58.0352 1.27079 56.7681 0 55.2152 0H54.9878C53.4348 0 52.1677 1.26431 52.1677 2.82686C52.1677 2.98247 52.1807 3.12511 52.2002 3.27423C50.3354 3.41039 47.9832 3.89666 46.872 5.349C46.3847 5.99088 45.9234 7.10606 46.5277 8.78532C46.8006 9.85512 48.399 11.476 50.2964 11.476H50.3678C50.7187 11.476 51.1086 11.4047 51.505 11.2491C51.9208 12.1114 52.5381 12.8181 53.2659 13.2461L55.1112 15.0744L56.9566 13.2461C57.6843 12.8181 58.3016 12.1114 58.7175 11.2491C59.1138 11.4047 59.4972 11.476 59.8546 11.476H59.9261C61.8234 11.476 63.4219 9.85512 63.6948 8.78532C64.2991 7.10606 63.8377 5.99088 63.3504 5.349H63.3309ZM54.9813 1.55607H55.2087C55.8974 1.55607 56.4693 2.12663 56.4693 2.82038C56.4693 2.95654 56.4498 3.09269 56.3978 3.21588C55.9104 3.21588 55.5661 3.23533 55.4426 3.2483H54.7538C54.6304 3.23533 54.286 3.21588 53.7987 3.21588C53.7467 3.09269 53.7272 2.95654 53.7272 2.82038C53.7272 2.12663 54.299 1.55607 54.9878 1.55607H54.9813ZM55.2607 6.35396H54.9293C54.9813 6.16593 55.0462 5.95846 55.0982 5.75098C55.1502 5.95846 55.2152 6.16593 55.2672 6.35396H55.2607ZM54.9813 7.91003H55.2087C55.4036 7.91003 55.605 7.89058 55.8 7.85816C56.0274 8.3963 56.2678 8.85664 56.5212 9.25214C56.1184 9.42072 55.67 9.49852 55.2087 9.49852H54.9813C54.5264 9.49852 54.0781 9.41423 53.6687 9.25214C53.9156 8.85664 54.156 8.40279 54.39 7.85816C54.5849 7.89058 54.7863 7.91003 54.9813 7.91003ZM52.3172 8.46762C52.0053 8.95389 51.6739 9.31698 51.3165 9.56984C51.1996 9.64116 51.0956 9.706 50.9851 9.7449C50.7642 9.8616 50.5498 9.91347 50.3159 9.91347C49.1788 9.97831 48.1326 8.80477 48.0157 8.32498C47.6908 7.42376 47.7233 6.77539 48.1001 6.28912C48.7434 5.43977 50.2639 5.04426 51.7324 4.87569C52.1612 4.83679 52.5771 4.80437 52.9735 4.78492H53.2983C53.4543 4.77195 53.5972 4.77195 53.7337 4.77195C53.6947 4.94053 53.6492 5.10262 53.6102 5.27119C53.5907 5.36196 53.5583 5.44625 53.5388 5.53054C53.3633 6.15297 53.1749 6.71704 52.967 7.20331C52.7785 7.65717 52.5836 8.05267 52.3627 8.3963C52.3497 8.42872 52.3302 8.44817 52.3237 8.46762H52.3172ZM55.2087 12.1633H54.9813C54.1495 12.1633 53.4023 11.5603 52.928 10.6396C53.5647 10.912 54.26 11.0546 54.9813 11.0546H55.2087C55.9299 11.0546 56.6252 10.912 57.262 10.6396C56.7941 11.5668 56.0469 12.1633 55.2087 12.1633ZM62.1743 8.3185C62.0573 8.79829 61.0112 9.97182 59.8741 9.90699C59.6467 9.90699 59.4257 9.85512 59.2048 9.73841C59.0878 9.69951 58.9839 9.63468 58.8734 9.56336C58.5225 9.31698 58.1847 8.94741 57.8728 8.46114C57.8598 8.44169 57.8403 8.42224 57.8338 8.38982C57.6129 8.04619 57.4179 7.65068 57.2295 7.19683C57.0216 6.71056 56.8331 6.14648 56.6577 5.52405C56.6382 5.43977 56.6057 5.35548 56.5862 5.26471C56.5472 5.09613 56.5017 4.93404 56.4628 4.76547C56.5992 4.76547 56.7422 4.76547 56.8981 4.77844H57.223C57.6194 4.79789 58.0352 4.83031 58.4641 4.86921C59.9326 5.03778 61.453 5.43328 62.0963 6.28264C62.4732 6.76891 62.4992 7.41727 62.1808 8.3185H62.1743Z" fill="#8C734C"/>
<path d="M18.6393 17.707L19.419 18.8351C19.4515 18.887 19.4905 18.9129 19.536 18.9259C19.5815 18.9389 19.6334 18.9259 19.7049 18.9064L19.7634 18.9842L18.6978 19.7234L18.6393 19.6456C18.6913 19.5872 18.7173 19.5353 18.7173 19.4964C18.7173 19.4511 18.7043 19.4057 18.6718 19.3538L16.664 16.4621C16.625 16.4102 16.586 16.3778 16.547 16.3713C16.508 16.3649 16.4495 16.3713 16.3781 16.3908L16.3196 16.313L18.4573 14.8347C18.7043 14.6597 18.9187 14.5429 19.0876 14.4781C19.2566 14.4133 19.4255 14.3809 19.5945 14.3809C19.7699 14.3809 19.9388 14.4327 20.0948 14.53C20.2572 14.6272 20.4002 14.7569 20.5106 14.919C20.6731 15.1524 20.7511 15.3923 20.7446 15.6517C20.7446 15.8721 20.6731 16.0796 20.5366 16.2611C20.4067 16.4427 20.1793 16.6436 19.8609 16.8641L18.6328 17.7134L18.6393 17.707ZM18.2494 17.1429L19.393 16.3519C19.6204 16.1963 19.7634 16.0601 19.8219 15.9499C19.8609 15.8786 19.8739 15.7943 19.8609 15.7035C19.8479 15.6063 19.8154 15.522 19.7569 15.4377C19.6984 15.3534 19.6269 15.2951 19.549 15.2497C19.4645 15.2043 19.38 15.1848 19.3021 15.1978C19.1786 15.2108 19.0032 15.2951 18.7757 15.4571L17.6321 16.2481L18.2624 17.1494L18.2494 17.1429Z" fill="#231F20"/>
<path d="M25.3189 11.1124L26.4495 13.1482C26.664 13.5308 26.7549 13.8614 26.716 14.1338C26.651 14.62 26.2156 15.0868 25.4164 15.5277C24.8381 15.8454 24.3443 16.001 23.9284 15.9816C23.688 15.9751 23.4801 15.8908 23.3111 15.7482C23.1422 15.5991 22.9862 15.3981 22.8433 15.1452L21.7127 13.1093C21.6802 13.051 21.6477 13.0186 21.6087 13.0056C21.5697 12.9926 21.5112 12.9926 21.4398 13.0056L21.3943 12.9213L22.5314 12.2924L22.5769 12.3767C22.5249 12.4286 22.4924 12.4739 22.4794 12.5193C22.4664 12.5647 22.4794 12.6101 22.5119 12.6685L23.5191 14.4839C23.636 14.6913 23.7335 14.8405 23.8115 14.9312C23.8894 15.022 23.9804 15.0804 24.0844 15.1128C24.3573 15.1971 24.6952 15.1322 25.111 14.8988C25.5269 14.6719 25.7673 14.419 25.8388 14.1402C25.8647 14.0365 25.8583 13.9328 25.8258 13.8161C25.7933 13.7058 25.7153 13.5437 25.6048 13.3298L24.5977 11.5144C24.5652 11.456 24.5327 11.4236 24.4937 11.4106C24.4547 11.3977 24.3963 11.3977 24.3248 11.4106L24.2793 11.3263L25.3514 10.7363L25.3969 10.8206C25.3449 10.8725 25.3124 10.9244 25.2994 10.9633C25.2864 11.0022 25.2994 11.054 25.3319 11.1059L25.3189 11.1124Z" fill="#231F20"/>
<path d="M29.1657 11.6635L29.7115 12.9278C29.7375 12.9861 29.77 13.0186 29.809 13.038C29.848 13.0575 29.9065 13.0639 29.9779 13.051L30.0169 13.1418L28.8213 13.654L28.7823 13.5632C28.8408 13.5178 28.8798 13.4724 28.8928 13.4335C28.9058 13.3946 28.8993 13.3427 28.8733 13.2909L27.4763 10.062C27.4503 10.0037 27.4178 9.96477 27.3788 9.94532C27.3398 9.92587 27.2814 9.91939 27.2099 9.93235L27.1709 9.84158L29.5621 8.81069C29.8545 8.6875 30.0884 8.60321 30.2768 8.56431C30.4588 8.52541 30.6342 8.51892 30.7967 8.54486C30.9851 8.57728 31.154 8.66156 31.297 8.79772C31.4334 8.92739 31.5439 9.083 31.6219 9.26454C31.8883 9.88697 31.6998 10.3992 31.0566 10.8076L32.2522 11.5403C32.4601 11.67 32.6095 11.7478 32.694 11.7737C32.7785 11.7996 32.8629 11.7996 32.9539 11.7672L32.9929 11.858L31.6154 12.4545L31.5764 12.3637C31.6674 12.3054 31.6998 12.2535 31.6738 12.2016C31.6609 12.1692 31.5829 12.1044 31.4399 12.0136L30.1794 11.2226L29.1592 11.6635H29.1657ZM28.8928 11.0346L30.1794 10.477C30.3678 10.3927 30.5043 10.3343 30.5757 10.289C30.6472 10.2436 30.7122 10.1917 30.7577 10.1269C30.8681 9.99071 30.8811 9.82213 30.7902 9.62114C30.6992 9.42015 30.5757 9.31641 30.4003 9.29696C30.3158 9.29048 30.2378 9.29696 30.1534 9.31641C30.0689 9.33586 29.9389 9.39421 29.744 9.47202L28.4575 10.0296L28.8928 11.0281V11.0346Z" fill="#231F20"/>
<path d="M34.8838 9.2715L35.2411 10.3543L37.7883 9.52436C37.8467 9.50491 37.8857 9.47897 37.9052 9.44007C37.9247 9.40117 37.9377 9.3493 37.9312 9.2715L38.0222 9.23908L38.3601 10.257L38.2691 10.2894C38.2301 10.2246 38.1846 10.1857 38.1456 10.1727C38.1066 10.1533 38.0547 10.1598 37.9962 10.1727L34.4029 11.3463L34.3704 11.2555C34.4354 11.2166 34.4744 11.1712 34.4939 11.1323C34.5134 11.0934 34.5069 11.0415 34.4939 10.9832L33.3958 7.6441C33.3763 7.58575 33.3503 7.54037 33.3113 7.52092C33.2723 7.50146 33.2203 7.4885 33.1424 7.49498L33.1099 7.40421L36.6317 6.25012C36.6901 6.23067 36.7291 6.20474 36.7486 6.16584C36.7681 6.12693 36.7811 6.07507 36.7746 5.99726L36.8656 5.96484L37.2035 6.98277L37.1125 7.01519C37.0735 6.95036 37.028 6.91145 36.989 6.89849C36.95 6.87904 36.8981 6.87904 36.8396 6.89849L34.3639 7.70894L34.6693 8.64258L36.2743 8.11741C36.3328 8.09796 36.3717 8.07202 36.3912 8.03312C36.4107 7.99422 36.4237 7.94235 36.4172 7.86455L36.5082 7.83213L36.8331 8.83061L36.7421 8.86303C36.7031 8.80467 36.6576 8.75929 36.6187 8.74632C36.5797 8.73335 36.5277 8.72687 36.4692 8.74632L34.8643 9.2715H34.8838Z" fill="#231F20"/>
<path d="M75.1893 8.13018L72.8696 7.52721L72.4928 8.97306C72.4798 9.03141 72.4798 9.08328 72.4993 9.12218C72.5187 9.16108 72.5642 9.19998 72.6227 9.2324L72.5967 9.32966L71.3427 8.99899L71.3686 8.90174C71.4466 8.90174 71.4986 8.88877 71.5376 8.86283C71.5766 8.8369 71.5961 8.798 71.6156 8.73965L72.5057 5.33574C72.5187 5.27739 72.5187 5.22552 72.5057 5.18662C72.4928 5.14771 72.4473 5.10881 72.3758 5.06991L72.4018 4.97266L73.6559 5.30332L73.6299 5.40058C73.5519 5.40058 73.4999 5.41354 73.4609 5.43948C73.4219 5.46541 73.3959 5.50431 73.3829 5.56267L73.0451 6.85939L75.3648 7.46237L75.7027 6.16564C75.7156 6.10729 75.7156 6.05542 75.7027 6.01652C75.6832 5.97762 75.6377 5.93872 75.5727 5.9063L75.5987 5.80904L76.8528 6.13971L76.8268 6.23696C76.7488 6.23696 76.6968 6.24993 76.6578 6.27587C76.6253 6.3018 76.5993 6.3407 76.5798 6.39906L75.6897 9.80296C75.6767 9.86131 75.6767 9.91318 75.6897 9.95209C75.7091 9.99099 75.7546 10.0299 75.8196 10.0688L75.7936 10.166L74.5396 9.83538L74.5655 9.73813C74.637 9.73813 74.6955 9.72516 74.728 9.69922C74.7605 9.67329 74.793 9.63439 74.806 9.57603L75.1828 8.13018H75.1893Z" fill="#231F20"/>
<path d="M81.0633 7.50147C81.7455 7.74785 82.2199 8.13038 82.4798 8.64907C82.7592 9.18721 82.7917 9.76426 82.5642 10.3737C82.4278 10.7498 82.2004 11.061 81.8755 11.3074C81.2452 11.7936 80.485 11.8714 79.5818 11.5473C78.906 11.3009 78.4382 10.9183 78.1718 10.4061C78.0288 10.1338 77.9573 9.83558 77.9443 9.52436C77.9378 9.24557 77.9833 8.97325 78.0808 8.70743C78.2237 8.31841 78.4577 7.99423 78.776 7.74785C79.3868 7.26806 80.1471 7.19026 81.0633 7.51444V7.50147ZM80.8228 8.1628C80.4525 8.02664 80.1016 8.02016 79.7702 8.14983C79.3803 8.30544 79.1074 8.59072 78.9515 9.01216C78.7955 9.43359 78.815 9.82909 79.0165 10.1987C79.1854 10.5099 79.4583 10.7368 79.8287 10.873C80.2056 11.0091 80.5564 11.0156 80.8878 10.8859C81.0828 10.8081 81.2517 10.6914 81.4011 10.5293C81.5311 10.3867 81.6286 10.2246 81.7 10.0431C81.8625 9.60217 81.843 9.20018 81.6416 8.8371C81.4726 8.52588 81.1997 8.30544 80.8228 8.1628Z" fill="#231F20"/>
<path d="M85.5207 10.8143L84.4161 13.0835C84.3901 13.1419 84.3836 13.1873 84.3901 13.2327C84.4031 13.2716 84.4356 13.3234 84.4941 13.3688L84.4486 13.4596L83.3505 12.9279L83.396 12.8372C83.4674 12.8501 83.5259 12.8501 83.5649 12.8372C83.6039 12.8177 83.6364 12.7853 83.6624 12.7269L85.2023 9.56293C85.2283 9.51106 85.2348 9.45919 85.2218 9.42029C85.2088 9.38138 85.1763 9.336 85.1179 9.28413L85.1568 9.19336L86.4304 9.8093L86.3914 9.90008C86.3005 9.88062 86.242 9.90008 86.2095 9.9714C86.19 10.0168 86.19 10.0751 86.2095 10.1529L87.2361 13.2975L88.3148 11.0801C88.3407 11.0282 88.3472 10.9764 88.3408 10.9375C88.3278 10.8986 88.2953 10.8532 88.2368 10.8013L88.2823 10.7105L89.3804 11.2422L89.3349 11.333C89.2634 11.32 89.2049 11.32 89.166 11.333C89.127 11.3524 89.0945 11.3848 89.0685 11.4432L87.5285 14.6072C87.5025 14.6655 87.496 14.7109 87.5025 14.7563C87.5155 14.7952 87.548 14.8471 87.6065 14.8925L87.561 14.9832L86.3784 14.4127L86.4239 14.3219C86.5084 14.3414 86.5669 14.3219 86.5993 14.2571C86.6188 14.2182 86.5993 14.1339 86.5604 13.9977L85.5142 10.8208L85.5207 10.8143Z" fill="#231F20"/>
<path d="M90.9854 14.841L90.3876 15.807L92.6683 17.2075C92.7203 17.2399 92.7657 17.2529 92.8112 17.2464C92.8567 17.2399 92.9022 17.2075 92.9607 17.1556L93.0451 17.2075L92.4798 18.1217L92.3954 18.0698C92.4149 17.9985 92.4214 17.9401 92.4084 17.9012C92.3954 17.8623 92.3629 17.8234 92.3109 17.791L89.088 15.8135L89.14 15.7292C89.2115 15.7487 89.2699 15.7551 89.3089 15.7422C89.3479 15.7292 89.3869 15.6968 89.4194 15.6449L91.2648 12.6495C91.2973 12.5976 91.3103 12.5458 91.3038 12.5068C91.2973 12.4679 91.2648 12.4161 91.2128 12.3577L91.2648 12.2734L94.4227 14.212C94.4747 14.2445 94.5201 14.2574 94.5656 14.2509C94.6111 14.2445 94.6566 14.212 94.7151 14.1667L94.7995 14.2185L94.2342 15.1327L94.1498 15.0808C94.1693 15.0095 94.1758 14.9512 94.1628 14.9123C94.1498 14.8734 94.1173 14.8345 94.0653 14.8021L91.8496 13.4405L91.3297 14.2769L92.7657 15.1587C92.8177 15.1911 92.8632 15.204 92.9087 15.1976C92.9542 15.1911 92.9997 15.1587 93.0581 15.1068L93.1426 15.1587L92.5903 16.0534L92.5058 16.0015C92.5253 15.9302 92.5318 15.8719 92.5188 15.833C92.5058 15.794 92.4734 15.7551 92.4214 15.7227L90.9854 14.841Z" fill="#231F20"/>
<path d="M96.8008 18.8866L95.9431 20.0147C95.9041 20.0666 95.8847 20.112 95.8911 20.1574C95.8911 20.2028 95.9171 20.2546 95.9626 20.313L95.9041 20.3908L94.8645 19.6063L94.923 19.5285C94.9945 19.5544 95.0529 19.5674 95.0919 19.5609C95.1374 19.5544 95.1764 19.522 95.2154 19.4766L96.0731 18.3484L96.1446 16.0338C96.1446 15.8328 96.1446 15.6902 96.1251 15.6059C96.1056 15.5216 96.0666 15.4503 95.9951 15.3854L96.0536 15.3076L97.3661 16.2996L97.3077 16.3774C97.1842 16.3126 97.0932 16.3191 97.0283 16.4033C97.0088 16.4358 96.9893 16.5201 96.9828 16.6692L96.9048 18.0048L98.1914 17.5834C98.3278 17.538 98.4123 17.4991 98.4383 17.4667C98.4643 17.4278 98.4773 17.3889 98.4643 17.337C98.4578 17.2851 98.4318 17.2397 98.3863 17.1944L98.4448 17.1165L99.7248 18.0891L99.6663 18.1669C99.5884 18.1215 99.5039 18.1021 99.4194 18.1085C99.335 18.115 99.192 18.1474 99.0036 18.2058L96.7878 18.8995L96.8008 18.8866Z" fill="#231F20"/>
</svg>
