<svg width="94" height="95" viewBox="0 0 94 95" fill="none" xmlns="http://www.w3.org/2000/svg">
<path d="M87.6018 0H5.83226C2.61119 0 0 2.59816 0 5.80316V89.1968C0 92.4018 2.61119 95 5.83226 95H87.6018C90.8229 95 93.4341 92.4018 93.4341 89.1968V5.80316C93.4341 2.59816 90.8229 0 87.6018 0Z" fill="black"/>
<path d="M49.2486 38.1443C49.2486 38.1443 50.9638 33.1857 56.1447 35.2676C61.3257 37.3496 70.4056 51.1318 60.3001 64.2805C50.6867 76.79 31.0622 69.3682 30.3666 52.9234C29.8745 45.5779 34.799 32.3617 48.9833 32.9569L49.891 30.6609C49.4607 30.3325 48.9774 30.0861 48.4587 29.9307C44.9164 28.8633 29.8332 23.4385 25.4097 7.44238C25.4097 7.44238 41.3209 12.0081 48.612 28.2417C48.8536 28.7783 49.1749 29.2797 49.5786 29.7108L50.0443 30.2064C50.0443 30.2064 51.285 27.2476 51.9422 26.9338C52.5994 26.6201 53.2271 26.5761 54.1083 27.1127C54.1083 27.1127 50.4922 30.9659 48.3379 38.0739C48.3379 38.0739 37.8139 38.0153 38.3827 54.1286C38.8601 61.486 43.3249 64.9579 46.7141 65.3626C50.283 66.0077 56.2803 61.3863 56.9787 53.0965C57.4562 43.8742 53.5896 39.1941 49.2456 38.1443H49.2486Z" fill="#4C5626"/>
<path d="M74.5197 47.6093H69.9753V50.5593L69.8309 50.6326C68.9586 48.5946 66.928 47.1695 64.5527 47.2017C61.5585 47.2428 59.0594 49.6942 58.9739 52.6676C58.8796 55.8493 61.4465 58.3946 64.6264 58.4591C66.2237 58.4913 67.6471 57.8873 68.655 56.8697C67.3613 60.4062 62.3512 60.6584 61.4435 60.6818C60.5299 60.7053 60.9838 61.2771 60.9838 61.2771C61.1518 61.497 63.8601 64.4147 68.4222 63.4441C69.1708 63.2858 69.7897 63.0424 70.2995 62.7491C72.3124 61.5938 72.613 59.6467 72.6454 58.8432C72.6542 58.6204 72.6454 58.4855 72.6454 58.4855V49.1781L72.6601 48.6796C72.6748 48.2046 73.0668 47.8322 73.5413 47.8322H74.6789V47.7618C74.6789 47.6738 74.6081 47.6034 74.5197 47.6034V47.6093ZM69.9753 58.418C69.9753 59.3505 69.8486 60.283 69.5686 61.1774C69.5627 61.1862 69.5627 61.192 69.5598 61.2008C68.9497 63.1215 66.4978 63.8282 64.868 62.6025C63.2383 61.3709 63.7246 61.1305 64.9064 60.7434C66.0852 60.3563 67.5145 59.4766 68.434 58.0955C68.7051 57.6849 68.9026 57.2979 69.044 56.9636C69.044 56.9636 69.044 56.9577 69.0499 56.9577C69.1914 56.6176 69.2798 56.3243 69.327 56.1044C69.3505 55.9783 69.383 55.6293 69.3211 55.6117C69.2474 55.6029 69.1708 55.5267 69.1089 55.6205C68.9438 55.8727 68.7582 56.1103 68.5519 56.339C66.7306 58.3476 63.8719 58.7259 62.1626 57.1923C60.4592 55.6587 60.5506 52.7879 62.3748 50.7851C64.1961 48.7823 67.0577 48.3981 68.7641 49.9317C69.5804 50.6648 69.9812 51.7029 69.9812 52.8084V58.418H69.9753Z" fill="white"/>
<path d="M40.1892 47.6121H38.3149H35.6448V50.5621L35.5004 50.6354C34.6281 48.6004 32.5946 47.1752 30.2192 47.2045C27.2309 47.2456 24.7259 49.6941 24.6404 52.6676C24.5491 55.855 27.116 58.3974 30.2959 58.4619C31.8932 58.4942 33.3166 57.8901 34.3245 56.8726C33.0308 60.409 28.0207 60.6612 27.113 60.6847C26.1994 60.7081 26.6533 61.2799 26.6533 61.2799C26.8213 61.4999 29.5296 64.4176 34.0917 63.4469C34.8403 63.2886 35.4591 63.0452 35.969 62.752C37.9818 61.5966 38.2824 59.6495 38.3149 58.8461C38.3237 58.6232 38.3149 58.4883 38.3149 58.4883V49.181L38.3296 48.6854C38.3443 48.2103 38.7363 47.8379 39.2108 47.8379H40.3483V47.7676C40.3483 47.6796 40.2776 47.6092 40.1892 47.6092V47.6121ZM35.6448 58.415C35.6448 59.3504 35.5151 60.2829 35.2352 61.1744C35.2352 61.1832 35.2293 61.192 35.2263 61.1978C34.6163 63.1185 32.1643 63.8252 30.5346 62.5995C28.9048 61.3679 29.3911 61.1274 30.5729 60.7404C31.7517 60.3533 33.1811 59.4736 34.1005 58.0924C34.3717 57.6819 34.5691 57.2948 34.7106 56.9605C34.7106 56.9605 34.7106 56.9547 34.7165 56.9547C34.8579 56.6145 34.9463 56.3213 34.9935 56.1014C35.0171 55.9753 35.0465 55.6234 34.9847 55.6087C34.911 55.597 34.8373 55.5237 34.7784 55.6175C34.6133 55.8697 34.4277 56.1072 34.2214 56.3359C32.4001 58.3446 29.5414 58.7229 27.8321 57.1893C26.1287 55.6556 26.2201 52.7848 28.0443 50.782C29.8656 48.7792 32.7272 48.3951 34.4336 49.9287C35.2499 50.6618 35.6507 51.6999 35.6507 52.8054V58.4121L35.6448 58.415Z" fill="white"/>
<path d="M55.959 50.5482C54.8303 51.2695 54.0287 50.6361 53.6338 50.1845C53.2389 49.733 53.3096 50.079 53.3096 50.079C53.3096 50.079 53.6131 51.4132 55.2488 51.6713C56.8844 51.9293 57.8392 51.1346 57.7007 49.9646C57.5622 48.7946 55.906 46.4751 52.1985 47.6246C50.6543 48.1026 49.7053 49.0761 49.1218 50.0467C48.1345 51.6918 48.0078 53.7327 48.7269 55.5068C49.4548 57.3043 50.6955 57.8351 50.6955 57.8351H45.8299C44.9134 57.8351 44.1707 57.0961 44.1707 56.1842V39.5459H39.644C39.5556 39.5459 39.4849 39.6163 39.4849 39.7042V39.7746H40.6224C41.0969 39.7746 41.4889 40.147 41.5036 40.6221L41.5183 41.1206V55.8118C41.5183 57.4392 42.8445 58.7617 44.4831 58.7617H54.1112C56.183 58.7617 57.4915 57.363 57.4915 57.363L56.8638 56.9407C56.8638 56.9407 56.2861 57.492 55.234 57.753C53.454 57.9905 50.8399 57.8732 50.7338 52.9204C50.6278 47.9677 53.9403 47.9149 55.1574 48.2873C56.3746 48.6597 57.0848 49.8268 55.9561 50.5482H55.959Z" fill="white"/>
<path d="M53.3656 45.0258C54.0847 45.0258 54.6682 44.4452 54.6682 43.7297C54.6682 43.0142 54.0847 42.4336 53.3656 42.4336C52.6465 42.4336 52.063 43.0142 52.063 43.7297C52.063 44.4452 52.6465 45.0258 53.3656 45.0258Z" fill="white"/>
<path d="M23.9361 47.6211H22.0618H19.3917V58.3037C19.3917 58.8814 19.321 62.022 17.818 62.7697C16.1558 63.5849 15.2363 63.2301 13.7569 62.151C12.8728 61.5088 13.3119 61.1129 13.807 60.9018C15.0094 60.3886 16.1205 59.6673 16.9633 58.6732C17.5763 57.946 17.9182 57.336 17.9565 57.2393C18.0302 57.0487 17.9565 57.1425 17.9565 57.1425C16.5154 59.8373 14.644 60.0837 13.7982 60.3124C12.9494 60.5411 11.4788 60.591 11.0102 60.6701C10.5417 60.7493 10.1379 60.6789 10.4002 61.3123C10.6566 61.9457 13.5653 63.6524 16.2 63.6524C17.703 63.5879 18.8288 63.2506 19.6717 62.7727C21.3751 61.802 21.9144 60.2274 22.0618 59.0485C22.1738 58.1542 22.0618 57.4885 22.0618 57.4885V49.2016L22.0765 48.7031C22.0912 48.2281 22.4832 47.8557 22.9577 47.8557H24.0952V47.7853C24.0952 47.6973 24.0245 47.627 23.9361 47.627V47.6211Z" fill="white"/>
<path d="M80.8471 44.5479H76.3027V58.1189L76.2939 58.371L76.2791 58.6174C76.2644 59.0924 75.8724 59.4648 75.3979 59.4648H74.2604V59.5352C74.2604 59.6232 74.3311 59.6935 74.4195 59.6935H78.9669V46.1225L78.9845 45.624C78.9993 45.149 79.3912 44.7766 79.8657 44.7766H81.0033V44.7062C81.0033 44.6182 80.9326 44.5479 80.8441 44.5479H80.8471Z" fill="white"/>
<path d="M80.3225 42.9029H79.3853C78.6987 42.9029 78.3656 42.5803 78.3656 42.5803C77.1986 41.425 77.7055 39.8767 78.2684 39.8737C78.8313 39.8708 78.849 40.1494 78.849 40.1494C78.6486 40.2579 78.513 40.4397 78.513 40.6508C78.513 40.9792 78.8431 41.249 79.2498 41.249C79.6565 41.249 79.9865 40.9822 79.9865 40.6508C79.9865 40.6508 80.1015 39.1964 78.2301 39.2609C76.3557 39.3254 75.7162 41.7622 77.399 42.9087H76.2585L75.9903 43.5978H80.3225V42.9087V42.9029Z" fill="white"/>
</svg>
